%TF.GenerationSoftware,KiCad,Pcbnew,7.0.5-0*%
%TF.CreationDate,2023-07-14T21:04:26-05:00*%
%TF.ProjectId,lab-env-sensor-hw,6c61622d-656e-4762-9d73-656e736f722d,rev?*%
%TF.SameCoordinates,Original*%
%TF.FileFunction,Copper,L2,Bot*%
%TF.FilePolarity,Positive*%
%FSLAX46Y46*%
G04 Gerber Fmt 4.6, Leading zero omitted, Abs format (unit mm)*
G04 Created by KiCad (PCBNEW 7.0.5-0) date 2023-07-14 21:04:26*
%MOMM*%
%LPD*%
G01*
G04 APERTURE LIST*
G04 Aperture macros list*
%AMRoundRect*
0 Rectangle with rounded corners*
0 $1 Rounding radius*
0 $2 $3 $4 $5 $6 $7 $8 $9 X,Y pos of 4 corners*
0 Add a 4 corners polygon primitive as box body*
4,1,4,$2,$3,$4,$5,$6,$7,$8,$9,$2,$3,0*
0 Add four circle primitives for the rounded corners*
1,1,$1+$1,$2,$3*
1,1,$1+$1,$4,$5*
1,1,$1+$1,$6,$7*
1,1,$1+$1,$8,$9*
0 Add four rect primitives between the rounded corners*
20,1,$1+$1,$2,$3,$4,$5,0*
20,1,$1+$1,$4,$5,$6,$7,0*
20,1,$1+$1,$6,$7,$8,$9,0*
20,1,$1+$1,$8,$9,$2,$3,0*%
G04 Aperture macros list end*
%TA.AperFunction,ComponentPad*%
%ADD10R,1.500000X1.500000*%
%TD*%
%TA.AperFunction,ComponentPad*%
%ADD11C,1.500000*%
%TD*%
%TA.AperFunction,ComponentPad*%
%ADD12R,3.500000X3.500000*%
%TD*%
%TA.AperFunction,ComponentPad*%
%ADD13RoundRect,0.750000X0.750000X1.000000X-0.750000X1.000000X-0.750000X-1.000000X0.750000X-1.000000X0*%
%TD*%
%TA.AperFunction,ComponentPad*%
%ADD14RoundRect,0.875000X0.875000X0.875000X-0.875000X0.875000X-0.875000X-0.875000X0.875000X-0.875000X0*%
%TD*%
%TA.AperFunction,ComponentPad*%
%ADD15O,1.700000X1.700000*%
%TD*%
%TA.AperFunction,ComponentPad*%
%ADD16R,1.700000X1.700000*%
%TD*%
%TA.AperFunction,ComponentPad*%
%ADD17R,1.800000X1.800000*%
%TD*%
%TA.AperFunction,ComponentPad*%
%ADD18C,1.800000*%
%TD*%
%TA.AperFunction,ComponentPad*%
%ADD19C,1.600000*%
%TD*%
%TA.AperFunction,ComponentPad*%
%ADD20O,1.600000X1.600000*%
%TD*%
%TA.AperFunction,ViaPad*%
%ADD21C,0.800000*%
%TD*%
%TA.AperFunction,Conductor*%
%ADD22C,0.250000*%
%TD*%
G04 APERTURE END LIST*
D10*
%TO.P,U2,1,e*%
%TO.N,Net-(U1-e)*%
X83820000Y-88900000D03*
D11*
%TO.P,U2,2,d*%
%TO.N,Net-(U1-d)*%
X86360000Y-88900000D03*
%TO.P,U2,3,DPX*%
%TO.N,Net-(U1-DPX)*%
X88900000Y-88900000D03*
%TO.P,U2,4,c*%
%TO.N,Net-(U1-c)*%
X91440000Y-88900000D03*
%TO.P,U2,5,g*%
%TO.N,Net-(U1-g)*%
X93980000Y-88900000D03*
%TO.P,U2,6,CA4*%
%TO.N,unconnected-(U2-CA4-Pad6)*%
X96520000Y-88900000D03*
%TO.P,U2,7,b*%
%TO.N,Net-(U1-b)*%
X96520000Y-73660000D03*
%TO.P,U2,8,CA3*%
%TO.N,/SEL_G_3*%
X93980000Y-73660000D03*
%TO.P,U2,9,CA2*%
%TO.N,/SEL_G_2*%
X91440000Y-73660000D03*
%TO.P,U2,10,f*%
%TO.N,Net-(U1-f)*%
X88900000Y-73660000D03*
%TO.P,U2,11,a*%
%TO.N,Net-(U1-a)*%
X86360000Y-73660000D03*
%TO.P,U2,12,CA1*%
%TO.N,/SEL_G_1*%
X83820000Y-73660000D03*
%TD*%
D12*
%TO.P,J1,1*%
%TO.N,+5V*%
X137620000Y-119760000D03*
D13*
%TO.P,J1,2*%
%TO.N,GND*%
X143620000Y-119760000D03*
D14*
%TO.P,J1,3*%
%TO.N,N/C*%
X140620000Y-115060000D03*
%TD*%
D15*
%TO.P,U3,43,SWDIO*%
%TO.N,unconnected-(U3-SWDIO-Pad43)*%
X135890000Y-92480000D03*
D16*
%TO.P,U3,42,GND*%
%TO.N,GND*%
X133350000Y-92480000D03*
D15*
%TO.P,U3,41,SWCLK*%
%TO.N,unconnected-(U3-SWCLK-Pad41)*%
X130810000Y-92480000D03*
%TO.P,U3,40,VBUS*%
%TO.N,unconnected-(U3-VBUS-Pad40)*%
X142240000Y-44450000D03*
%TO.P,U3,39,VSYS*%
%TO.N,+5V*%
X142240000Y-46990000D03*
D16*
%TO.P,U3,38,GND*%
%TO.N,GND*%
X142240000Y-49530000D03*
D15*
%TO.P,U3,37,3V3_EN*%
%TO.N,unconnected-(U3-3V3_EN-Pad37)*%
X142240000Y-52070000D03*
%TO.P,U3,36,3V3*%
%TO.N,+3V3*%
X142240000Y-54610000D03*
%TO.P,U3,35,ADC_VREF*%
%TO.N,unconnected-(U3-ADC_VREF-Pad35)*%
X142240000Y-57150000D03*
%TO.P,U3,34,GPIO28_ADC2*%
%TO.N,unconnected-(U3-GPIO28_ADC2-Pad34)*%
X142240000Y-59690000D03*
D16*
%TO.P,U3,33,AGND*%
%TO.N,unconnected-(U3-AGND-Pad33)*%
X142240000Y-62230000D03*
D15*
%TO.P,U3,32,GPIO27_ADC1*%
%TO.N,unconnected-(U3-GPIO27_ADC1-Pad32)*%
X142240000Y-64770000D03*
%TO.P,U3,31,GPIO26_ADC0*%
%TO.N,unconnected-(U3-GPIO26_ADC0-Pad31)*%
X142240000Y-67310000D03*
%TO.P,U3,30,RUN*%
%TO.N,unconnected-(U3-RUN-Pad30)*%
X142240000Y-69850000D03*
%TO.P,U3,29,GPIO22*%
%TO.N,Net-(U1-DPX)*%
X142240000Y-72390000D03*
D16*
%TO.P,U3,28,GND*%
%TO.N,GND*%
X142240000Y-74930000D03*
D15*
%TO.P,U3,27,GPIO21*%
%TO.N,Net-(U1-g)*%
X142240000Y-77470000D03*
%TO.P,U3,26,GPIO20*%
%TO.N,Net-(U1-f)*%
X142240000Y-80010000D03*
%TO.P,U3,25,GPIO19*%
%TO.N,Net-(U1-e)*%
X142240000Y-82550000D03*
%TO.P,U3,24,GPIO18*%
%TO.N,Net-(U1-d)*%
X142240000Y-85090000D03*
D16*
%TO.P,U3,23,GND*%
%TO.N,GND*%
X142240000Y-87630000D03*
D15*
%TO.P,U3,22,GPIO17*%
%TO.N,Net-(U1-c)*%
X142240000Y-90170000D03*
%TO.P,U3,21,GPIO16*%
%TO.N,Net-(U1-b)*%
X142240000Y-92710000D03*
%TO.P,U3,20,GPIO15*%
%TO.N,Net-(U1-a)*%
X124460000Y-92710000D03*
%TO.P,U3,19,GPIO14*%
%TO.N,unconnected-(U3-GPIO14-Pad19)*%
X124460000Y-90170000D03*
D16*
%TO.P,U3,18,GND*%
%TO.N,GND*%
X124460000Y-87630000D03*
D15*
%TO.P,U3,17,GPIO13*%
%TO.N,/SEL_G_3*%
X124460000Y-85090000D03*
%TO.P,U3,16,GPIO12*%
%TO.N,/SEL_G_2*%
X124460000Y-82550000D03*
%TO.P,U3,15,GPIO11*%
%TO.N,/SEL_G_1*%
X124460000Y-80010000D03*
%TO.P,U3,14,GPIO10*%
%TO.N,/SEL_R_3*%
X124460000Y-77470000D03*
D16*
%TO.P,U3,13,GND*%
%TO.N,GND*%
X124460000Y-74930000D03*
D15*
%TO.P,U3,12,GPIO9*%
%TO.N,/SEL_R_2*%
X124460000Y-72390000D03*
%TO.P,U3,11,GPIO8*%
%TO.N,/SEL_R_1*%
X124460000Y-69850000D03*
%TO.P,U3,10,GPIO7*%
%TO.N,unconnected-(U3-GPIO7-Pad10)*%
X124460000Y-67310000D03*
%TO.P,U3,9,GPIO6*%
%TO.N,/ERR*%
X124460000Y-64770000D03*
D16*
%TO.P,U3,8,GND*%
%TO.N,GND*%
X124460000Y-62230000D03*
D15*
%TO.P,U3,7,GPIO5*%
%TO.N,/PROG_4*%
X124460000Y-59690000D03*
%TO.P,U3,6,GPIO4*%
%TO.N,/PROG_3*%
X124460000Y-57150000D03*
%TO.P,U3,5,GPIO3*%
%TO.N,/PROG_2*%
X124460000Y-54610000D03*
%TO.P,U3,4,GPIO2*%
%TO.N,/PROG_1*%
X124460000Y-52070000D03*
D16*
%TO.P,U3,3,GND*%
%TO.N,GND*%
X124460000Y-49530000D03*
D15*
%TO.P,U3,2,GPIO1*%
%TO.N,/SCL*%
X124460000Y-46990000D03*
%TO.P,U3,1,GPIO0*%
%TO.N,/SDA*%
X124460000Y-44450000D03*
%TD*%
D16*
%TO.P,J2,1,VIN*%
%TO.N,+3V3*%
X93980000Y-96520000D03*
D15*
%TO.P,J2,2,3Vo*%
%TO.N,unconnected-(J2-3Vo-Pad2)*%
X96520000Y-96520000D03*
%TO.P,J2,3,GND*%
%TO.N,GND*%
X99060000Y-96520000D03*
%TO.P,J2,4,SCL*%
%TO.N,/SCL*%
X101600000Y-96520000D03*
%TO.P,J2,5,SDA*%
%TO.N,/SDA*%
X104140000Y-96520000D03*
%TO.P,J2,6,RST*%
%TO.N,unconnected-(J2-RST-Pad6)*%
X106680000Y-96520000D03*
%TO.P,J2,7,SET*%
%TO.N,unconnected-(J2-SET-Pad7)*%
X109220000Y-96520000D03*
%TD*%
D17*
%TO.P,D3,1,K*%
%TO.N,GND*%
X68580000Y-124460000D03*
D18*
%TO.P,D3,2,A*%
%TO.N,Net-(D3-A)*%
X68580000Y-121920000D03*
%TD*%
D19*
%TO.P,R1,1*%
%TO.N,Net-(D2-A)*%
X137160000Y-101600000D03*
D20*
%TO.P,R1,2*%
%TO.N,/ERR*%
X127000000Y-101600000D03*
%TD*%
D17*
%TO.P,D4,1,K*%
%TO.N,GND*%
X78740000Y-124460000D03*
D18*
%TO.P,D4,2,A*%
%TO.N,Net-(D4-A)*%
X78740000Y-121920000D03*
%TD*%
D17*
%TO.P,D6,1,K*%
%TO.N,GND*%
X99060000Y-124460000D03*
D18*
%TO.P,D6,2,A*%
%TO.N,Net-(D6-A)*%
X99060000Y-121920000D03*
%TD*%
D17*
%TO.P,D5,1,K*%
%TO.N,GND*%
X88900000Y-124460000D03*
D18*
%TO.P,D5,2,A*%
%TO.N,Net-(D5-A)*%
X88900000Y-121920000D03*
%TD*%
D19*
%TO.P,R5,1*%
%TO.N,Net-(D6-A)*%
X99060000Y-114300000D03*
D20*
%TO.P,R5,2*%
%TO.N,/PROG_4*%
X99060000Y-104140000D03*
%TD*%
D17*
%TO.P,D1,1,K*%
%TO.N,GND*%
X149860000Y-53340000D03*
D18*
%TO.P,D1,2,A*%
%TO.N,+3V3*%
X152400000Y-53340000D03*
%TD*%
D19*
%TO.P,R4,1*%
%TO.N,Net-(D5-A)*%
X88900000Y-114300000D03*
D20*
%TO.P,R4,2*%
%TO.N,/PROG_3*%
X88900000Y-104140000D03*
%TD*%
D17*
%TO.P,D2,1,K*%
%TO.N,GND*%
X149860000Y-81280000D03*
D18*
%TO.P,D2,2,A*%
%TO.N,Net-(D2-A)*%
X152400000Y-81280000D03*
%TD*%
D16*
%TO.P,J3,1,Pin_1*%
%TO.N,+3V3*%
X68580000Y-96520000D03*
D15*
%TO.P,J3,2,Pin_2*%
%TO.N,unconnected-(J3-Pin_2-Pad2)*%
X71120000Y-96520000D03*
%TO.P,J3,3,Pin_3*%
%TO.N,GND*%
X73660000Y-96520000D03*
%TO.P,J3,4,Pin_4*%
%TO.N,/SCL*%
X76200000Y-96520000D03*
%TO.P,J3,5,Pin_5*%
%TO.N,/SDA*%
X78740000Y-96520000D03*
%TD*%
D19*
%TO.P,R2,1*%
%TO.N,Net-(D3-A)*%
X68580000Y-114300000D03*
D20*
%TO.P,R2,2*%
%TO.N,/PROG_1*%
X68580000Y-104140000D03*
%TD*%
D19*
%TO.P,R3,1*%
%TO.N,Net-(D4-A)*%
X78740000Y-114300000D03*
D20*
%TO.P,R3,2*%
%TO.N,/PROG_2*%
X78740000Y-104140000D03*
%TD*%
D10*
%TO.P,U1,1,e*%
%TO.N,Net-(U1-e)*%
X83820000Y-60960000D03*
D11*
%TO.P,U1,2,d*%
%TO.N,Net-(U1-d)*%
X86360000Y-60960000D03*
%TO.P,U1,3,DPX*%
%TO.N,Net-(U1-DPX)*%
X88900000Y-60960000D03*
%TO.P,U1,4,c*%
%TO.N,Net-(U1-c)*%
X91440000Y-60960000D03*
%TO.P,U1,5,g*%
%TO.N,Net-(U1-g)*%
X93980000Y-60960000D03*
%TO.P,U1,6,CC4*%
%TO.N,unconnected-(U1-CC4-Pad6)*%
X96520000Y-60960000D03*
%TO.P,U1,7,b*%
%TO.N,Net-(U1-b)*%
X96520000Y-45720000D03*
%TO.P,U1,8,CC3*%
%TO.N,/SEL_R_3*%
X93980000Y-45720000D03*
%TO.P,U1,9,CC2*%
%TO.N,/SEL_R_2*%
X91440000Y-45720000D03*
%TO.P,U1,10,f*%
%TO.N,Net-(U1-f)*%
X88900000Y-45720000D03*
%TO.P,U1,11,a*%
%TO.N,Net-(U1-a)*%
X86360000Y-45720000D03*
%TO.P,U1,12,CC1*%
%TO.N,/SEL_R_1*%
X83820000Y-45720000D03*
%TD*%
D21*
%TO.N,Net-(U1-g)*%
X119380000Y-86360000D03*
%TO.N,Net-(U1-c)*%
X119380000Y-96520000D03*
%TO.N,Net-(U1-a)*%
X104140000Y-48260000D03*
%TO.N,Net-(U1-f)*%
X106680000Y-48260000D03*
%TO.N,Net-(U1-b)*%
X109220000Y-48260000D03*
%TO.N,/SEL_G_1*%
X109220000Y-78740000D03*
%TO.N,/SEL_G_2*%
X104140000Y-81280000D03*
X104140000Y-81280000D03*
%TO.N,/SCL*%
X114300000Y-96520000D03*
%TD*%
D22*
%TO.N,+5V*%
X160020000Y-48260000D02*
X157480000Y-45720000D01*
X137620000Y-119760000D02*
X137620000Y-108760000D01*
X160020000Y-86360000D02*
X160020000Y-48260000D01*
X137620000Y-108760000D02*
X160020000Y-86360000D01*
X157480000Y-45720000D02*
X143510000Y-45720000D01*
X143510000Y-45720000D02*
X142240000Y-46990000D01*
%TO.N,/PROG_1*%
X110490000Y-38100000D02*
X76200000Y-38100000D01*
X68580000Y-104140000D02*
X69755000Y-102965000D01*
X69755000Y-102965000D02*
X69755000Y-43908604D01*
X69755000Y-43908604D02*
X75563604Y-38100000D01*
X75563604Y-38100000D02*
X76200000Y-38100000D01*
%TO.N,/PROG_4*%
X99060000Y-104140000D02*
X97935000Y-103015000D01*
X72020000Y-43816396D02*
X76386396Y-39450000D01*
X76386396Y-39450000D02*
X104220000Y-39450000D01*
X97935000Y-103015000D02*
X88411396Y-103015000D01*
X88411396Y-103015000D02*
X72020000Y-86623604D01*
X72020000Y-86623604D02*
X72020000Y-43816396D01*
X104220000Y-39450000D02*
X124460000Y-59690000D01*
%TO.N,/PROG_3*%
X124460000Y-57150000D02*
X106310000Y-39000000D01*
X71570000Y-43630000D02*
X71570000Y-86810000D01*
X106310000Y-39000000D02*
X76200000Y-39000000D01*
X71570000Y-86810000D02*
X88900000Y-104140000D01*
X76200000Y-39000000D02*
X71570000Y-43630000D01*
%TO.N,/PROG_2*%
X78740000Y-104140000D02*
X72295000Y-97695000D01*
X75750000Y-38550000D02*
X109278299Y-38550000D01*
X72295000Y-97695000D02*
X72295000Y-95155000D01*
X72295000Y-95155000D02*
X71120000Y-93980000D01*
X71120000Y-93980000D02*
X71120000Y-43180000D01*
X71120000Y-43180000D02*
X75750000Y-38550000D01*
X109278299Y-38550000D02*
X124460000Y-53731701D01*
X124460000Y-53731701D02*
X124460000Y-54610000D01*
%TO.N,/PROG_1*%
X124460000Y-52070000D02*
X110490000Y-38100000D01*
%TO.N,Net-(U1-g)*%
X117915000Y-87825000D02*
X119380000Y-86360000D01*
X95055000Y-87825000D02*
X117915000Y-87825000D01*
X93980000Y-88900000D02*
X95055000Y-87825000D01*
%TO.N,Net-(U1-c)*%
X92280000Y-99510000D02*
X82745000Y-89975000D01*
X82745000Y-89975000D02*
X82745000Y-87825000D01*
X119380000Y-96520000D02*
X116390000Y-99510000D01*
X116390000Y-99510000D02*
X92280000Y-99510000D01*
X82745000Y-87825000D02*
X83195000Y-87375000D01*
X83195000Y-87375000D02*
X89915000Y-87375000D01*
X89915000Y-87375000D02*
X91440000Y-88900000D01*
%TO.N,Net-(U1-DPX)*%
X88900000Y-88900000D02*
X87825000Y-87825000D01*
X87825000Y-87825000D02*
X85914720Y-87825000D01*
X85285000Y-88454720D02*
X85285000Y-89345280D01*
X143865000Y-74015000D02*
X142240000Y-72390000D01*
X85914720Y-87825000D02*
X85285000Y-88454720D01*
X85285000Y-89345280D02*
X90274720Y-94335000D01*
X90274720Y-94335000D02*
X142913097Y-94335000D01*
X142913097Y-94335000D02*
X143865000Y-93383097D01*
X143865000Y-93383097D02*
X143865000Y-74015000D01*
%TO.N,Net-(U1-d)*%
X86360000Y-88900000D02*
X91345000Y-93885000D01*
X143415000Y-93196701D02*
X143415000Y-86265000D01*
X91345000Y-93885000D02*
X142726701Y-93885000D01*
X142726701Y-93885000D02*
X143415000Y-93196701D01*
X143415000Y-86265000D02*
X142240000Y-85090000D01*
%TO.N,Net-(U1-a)*%
X104140000Y-48260000D02*
X104140000Y-48841701D01*
X123973299Y-68675000D02*
X124946701Y-68675000D01*
X104140000Y-48841701D02*
X123973299Y-68675000D01*
X124946701Y-68675000D02*
X125635000Y-69363299D01*
X125635000Y-69363299D02*
X125635000Y-91535000D01*
X125635000Y-91535000D02*
X124460000Y-92710000D01*
%TO.N,Net-(U1-f)*%
X106680000Y-48260000D02*
X107405000Y-47535000D01*
X107405000Y-47535000D02*
X110643299Y-47535000D01*
X110643299Y-47535000D02*
X124068299Y-60960000D01*
X124068299Y-60960000D02*
X125540000Y-60960000D01*
X141065000Y-76485000D02*
X141065000Y-78835000D01*
X125540000Y-60960000D02*
X141065000Y-76485000D01*
X141065000Y-78835000D02*
X142240000Y-80010000D01*
%TO.N,Net-(U1-b)*%
X109220000Y-48260000D02*
X109220000Y-51191701D01*
X124851701Y-66040000D02*
X139700000Y-80888299D01*
X109220000Y-51191701D02*
X124068299Y-66040000D01*
X124068299Y-66040000D02*
X124851701Y-66040000D01*
X139700000Y-80888299D02*
X139700000Y-90170000D01*
X139700000Y-90170000D02*
X142240000Y-92710000D01*
%TO.N,/SEL_G_1*%
X109220000Y-78740000D02*
X123190000Y-78740000D01*
X123190000Y-78740000D02*
X124460000Y-80010000D01*
%TO.N,/SEL_G_2*%
X123190000Y-81280000D02*
X104140000Y-81280000D01*
X124460000Y-82550000D02*
X123190000Y-81280000D01*
%TO.N,/SEL_G_3*%
X93980000Y-73660000D02*
X105410000Y-85090000D01*
X105410000Y-85090000D02*
X124460000Y-85090000D01*
%TO.N,/SEL_R_1*%
X83820000Y-45720000D02*
X86360000Y-43180000D01*
X86360000Y-43180000D02*
X93343604Y-43180000D01*
X99510000Y-50613604D02*
X118746396Y-69850000D01*
X93343604Y-43180000D02*
X93793604Y-42730000D01*
X93793604Y-42730000D02*
X96706396Y-42730000D01*
X96706396Y-42730000D02*
X99510000Y-45533604D01*
X99510000Y-45533604D02*
X99510000Y-50613604D01*
X118746396Y-69850000D02*
X124460000Y-69850000D01*
%TO.N,/SEL_R_2*%
X99060000Y-45720000D02*
X96520000Y-43180000D01*
X99060000Y-50800000D02*
X99060000Y-45720000D01*
X119380000Y-71120000D02*
X99060000Y-50800000D01*
X123190000Y-71120000D02*
X119380000Y-71120000D01*
X124460000Y-72390000D02*
X123190000Y-71120000D01*
X96520000Y-43180000D02*
X93980000Y-43180000D01*
X93980000Y-43180000D02*
X91440000Y-45720000D01*
%TO.N,/SEL_R_3*%
X93980000Y-45720000D02*
X93980000Y-46990000D01*
X93980000Y-46990000D02*
X124460000Y-77470000D01*
%TO.N,/SCL*%
X114300000Y-96520000D02*
X111760000Y-99060000D01*
X111760000Y-99060000D02*
X104140000Y-99060000D01*
X104140000Y-99060000D02*
X101600000Y-96520000D01*
%TD*%
%TA.AperFunction,Conductor*%
%TO.N,GND*%
G36*
X85052545Y-90004519D02*
G01*
X85080801Y-90025671D01*
X89773914Y-94718784D01*
X89783739Y-94731048D01*
X89783960Y-94730866D01*
X89788930Y-94736874D01*
X89838669Y-94783582D01*
X89840036Y-94784906D01*
X89860250Y-94805120D01*
X89865724Y-94809366D01*
X89870162Y-94813156D01*
X89904138Y-94845062D01*
X89904142Y-94845064D01*
X89921693Y-94854713D01*
X89937951Y-94865392D01*
X89953784Y-94877674D01*
X89975735Y-94887172D01*
X89996557Y-94896183D01*
X90001801Y-94898752D01*
X90042628Y-94921197D01*
X90062032Y-94926179D01*
X90080430Y-94932478D01*
X90098825Y-94940438D01*
X90144849Y-94947726D01*
X90150552Y-94948907D01*
X90195701Y-94960500D01*
X90215736Y-94960500D01*
X90235133Y-94962026D01*
X90254916Y-94965160D01*
X90301303Y-94960775D01*
X90307142Y-94960500D01*
X92912763Y-94960500D01*
X92979802Y-94980185D01*
X93025557Y-95032989D01*
X93035501Y-95102147D01*
X93006476Y-95165703D01*
X92956096Y-95200682D01*
X92887671Y-95226202D01*
X92887664Y-95226206D01*
X92772455Y-95312452D01*
X92772452Y-95312455D01*
X92686206Y-95427664D01*
X92686202Y-95427671D01*
X92635908Y-95562517D01*
X92629501Y-95622116D01*
X92629500Y-95622135D01*
X92629500Y-97417870D01*
X92629501Y-97417876D01*
X92635908Y-97477483D01*
X92686202Y-97612328D01*
X92686206Y-97612335D01*
X92772452Y-97727544D01*
X92772455Y-97727547D01*
X92887664Y-97813793D01*
X92887671Y-97813797D01*
X93022517Y-97864091D01*
X93022516Y-97864091D01*
X93029444Y-97864835D01*
X93082127Y-97870500D01*
X94877872Y-97870499D01*
X94937483Y-97864091D01*
X95072331Y-97813796D01*
X95187546Y-97727546D01*
X95273796Y-97612331D01*
X95322810Y-97480916D01*
X95364681Y-97424984D01*
X95430145Y-97400566D01*
X95498418Y-97415417D01*
X95526673Y-97436569D01*
X95648599Y-97558495D01*
X95745384Y-97626265D01*
X95842165Y-97694032D01*
X95842167Y-97694033D01*
X95842170Y-97694035D01*
X96056337Y-97793903D01*
X96284592Y-97855063D01*
X96461034Y-97870500D01*
X96519999Y-97875659D01*
X96520000Y-97875659D01*
X96520001Y-97875659D01*
X96578966Y-97870500D01*
X96755408Y-97855063D01*
X96983663Y-97793903D01*
X97197830Y-97694035D01*
X97391401Y-97558495D01*
X97558495Y-97391401D01*
X97688730Y-97205405D01*
X97743307Y-97161781D01*
X97812805Y-97154587D01*
X97875160Y-97186110D01*
X97891879Y-97205405D01*
X98021890Y-97391078D01*
X98188917Y-97558105D01*
X98382421Y-97693600D01*
X98596507Y-97793429D01*
X98596516Y-97793433D01*
X98810000Y-97850634D01*
X98810000Y-96955501D01*
X98917685Y-97004680D01*
X99024237Y-97020000D01*
X99095763Y-97020000D01*
X99202315Y-97004680D01*
X99309999Y-96955501D01*
X99310000Y-97850633D01*
X99523483Y-97793433D01*
X99523492Y-97793429D01*
X99737578Y-97693600D01*
X99931082Y-97558105D01*
X100098105Y-97391082D01*
X100228119Y-97205405D01*
X100282696Y-97161781D01*
X100352195Y-97154588D01*
X100414549Y-97186110D01*
X100431269Y-97205405D01*
X100561505Y-97391401D01*
X100728599Y-97558495D01*
X100825384Y-97626265D01*
X100922165Y-97694032D01*
X100922167Y-97694033D01*
X100922170Y-97694035D01*
X101136337Y-97793903D01*
X101364592Y-97855063D01*
X101541034Y-97870500D01*
X101599999Y-97875659D01*
X101600000Y-97875659D01*
X101600001Y-97875659D01*
X101658966Y-97870500D01*
X101835408Y-97855063D01*
X101935873Y-97828143D01*
X102005722Y-97829806D01*
X102055647Y-97860237D01*
X102868228Y-98672819D01*
X102901713Y-98734142D01*
X102896729Y-98803834D01*
X102854857Y-98859767D01*
X102789393Y-98884184D01*
X102780547Y-98884500D01*
X92590453Y-98884500D01*
X92523414Y-98864815D01*
X92502772Y-98848181D01*
X84016771Y-90362180D01*
X83983286Y-90300857D01*
X83988270Y-90231165D01*
X84030142Y-90175232D01*
X84095606Y-90150815D01*
X84104452Y-90150499D01*
X84617871Y-90150499D01*
X84617872Y-90150499D01*
X84677483Y-90144091D01*
X84812331Y-90093796D01*
X84918811Y-90014084D01*
X84984272Y-89989668D01*
X85052545Y-90004519D01*
G37*
%TD.AperFunction*%
%TA.AperFunction,Conductor*%
G36*
X71950703Y-88075739D02*
G01*
X71957181Y-88081771D01*
X78828069Y-94952660D01*
X78861554Y-95013983D01*
X78856570Y-95083675D01*
X78814698Y-95139608D01*
X78749234Y-95164025D01*
X78740388Y-95164341D01*
X78739999Y-95164341D01*
X78504596Y-95184936D01*
X78504586Y-95184938D01*
X78276344Y-95246094D01*
X78276335Y-95246098D01*
X78062171Y-95345964D01*
X78062169Y-95345965D01*
X77868597Y-95481505D01*
X77701505Y-95648597D01*
X77571575Y-95834158D01*
X77516998Y-95877783D01*
X77447500Y-95884977D01*
X77385145Y-95853454D01*
X77368425Y-95834158D01*
X77238494Y-95648597D01*
X77071402Y-95481506D01*
X77071395Y-95481501D01*
X76877834Y-95345967D01*
X76877830Y-95345965D01*
X76877828Y-95345964D01*
X76663663Y-95246097D01*
X76663659Y-95246096D01*
X76663655Y-95246094D01*
X76435413Y-95184938D01*
X76435403Y-95184936D01*
X76200001Y-95164341D01*
X76199999Y-95164341D01*
X75964596Y-95184936D01*
X75964586Y-95184938D01*
X75736344Y-95246094D01*
X75736335Y-95246098D01*
X75522171Y-95345964D01*
X75522169Y-95345965D01*
X75328597Y-95481505D01*
X75161508Y-95648594D01*
X75031269Y-95834595D01*
X74976692Y-95878219D01*
X74907193Y-95885412D01*
X74844839Y-95853890D01*
X74828119Y-95834594D01*
X74698113Y-95648926D01*
X74698108Y-95648920D01*
X74531082Y-95481894D01*
X74337578Y-95346399D01*
X74123492Y-95246570D01*
X74123486Y-95246567D01*
X73910000Y-95189364D01*
X73910000Y-96084498D01*
X73802315Y-96035320D01*
X73695763Y-96020000D01*
X73624237Y-96020000D01*
X73517685Y-96035320D01*
X73410000Y-96084498D01*
X73410000Y-95189364D01*
X73409999Y-95189364D01*
X73196513Y-95246567D01*
X73196502Y-95246571D01*
X73098062Y-95292475D01*
X73028985Y-95302967D01*
X72965201Y-95274447D01*
X72926962Y-95215970D01*
X72921719Y-95183986D01*
X72921596Y-95180081D01*
X72921092Y-95164025D01*
X72920531Y-95146151D01*
X72920500Y-95144205D01*
X72920500Y-95115654D01*
X72920500Y-95115650D01*
X72919631Y-95108772D01*
X72919172Y-95102943D01*
X72917709Y-95056372D01*
X72912122Y-95037144D01*
X72908174Y-95018084D01*
X72905663Y-94998204D01*
X72888512Y-94954887D01*
X72886619Y-94949358D01*
X72873618Y-94904609D01*
X72873616Y-94904606D01*
X72863423Y-94887371D01*
X72854861Y-94869894D01*
X72847487Y-94851270D01*
X72847486Y-94851268D01*
X72820079Y-94813545D01*
X72816888Y-94808686D01*
X72815515Y-94806365D01*
X72793170Y-94768580D01*
X72793168Y-94768578D01*
X72793165Y-94768574D01*
X72779006Y-94754415D01*
X72766368Y-94739619D01*
X72760141Y-94731048D01*
X72754594Y-94723413D01*
X72748998Y-94718784D01*
X72718688Y-94693709D01*
X72714376Y-94689786D01*
X71781819Y-93757228D01*
X71748334Y-93695905D01*
X71745500Y-93669547D01*
X71745500Y-88169452D01*
X71765185Y-88102413D01*
X71817989Y-88056658D01*
X71887147Y-88046714D01*
X71950703Y-88075739D01*
G37*
%TD.AperFunction*%
%TA.AperFunction,Conductor*%
G36*
X123251812Y-85735185D02*
G01*
X123286348Y-85768377D01*
X123421501Y-85961396D01*
X123421506Y-85961402D01*
X123543818Y-86083714D01*
X123577303Y-86145037D01*
X123572319Y-86214729D01*
X123530447Y-86270662D01*
X123499471Y-86287577D01*
X123367912Y-86336646D01*
X123367906Y-86336649D01*
X123252812Y-86422809D01*
X123252809Y-86422812D01*
X123166649Y-86537906D01*
X123166645Y-86537913D01*
X123116403Y-86672620D01*
X123116401Y-86672627D01*
X123110000Y-86732155D01*
X123110000Y-87380000D01*
X124014428Y-87380000D01*
X123991318Y-87415960D01*
X123950000Y-87556673D01*
X123950000Y-87703327D01*
X123991318Y-87844040D01*
X124014428Y-87880000D01*
X123110000Y-87880000D01*
X123110000Y-88527844D01*
X123116401Y-88587372D01*
X123116403Y-88587379D01*
X123166645Y-88722086D01*
X123166649Y-88722093D01*
X123252809Y-88837187D01*
X123252812Y-88837190D01*
X123367906Y-88923350D01*
X123367913Y-88923354D01*
X123499470Y-88972421D01*
X123555403Y-89014292D01*
X123579821Y-89079756D01*
X123564970Y-89148029D01*
X123543819Y-89176284D01*
X123421503Y-89298600D01*
X123285965Y-89492169D01*
X123285964Y-89492171D01*
X123186098Y-89706335D01*
X123186094Y-89706344D01*
X123124938Y-89934586D01*
X123124936Y-89934596D01*
X123104341Y-90169999D01*
X123104341Y-90170000D01*
X123124936Y-90405403D01*
X123124938Y-90405413D01*
X123186094Y-90633655D01*
X123186096Y-90633659D01*
X123186097Y-90633663D01*
X123186824Y-90635221D01*
X123285965Y-90847830D01*
X123285967Y-90847834D01*
X123421501Y-91041395D01*
X123421506Y-91041402D01*
X123588597Y-91208493D01*
X123588603Y-91208498D01*
X123774158Y-91338425D01*
X123817783Y-91393002D01*
X123824977Y-91462500D01*
X123793454Y-91524855D01*
X123774158Y-91541575D01*
X123588597Y-91671505D01*
X123421505Y-91838597D01*
X123285965Y-92032169D01*
X123285964Y-92032171D01*
X123186098Y-92246335D01*
X123186094Y-92246344D01*
X123124938Y-92474586D01*
X123124936Y-92474596D01*
X123104341Y-92709999D01*
X123104341Y-92710000D01*
X123124936Y-92945403D01*
X123124938Y-92945413D01*
X123167272Y-93103407D01*
X123165609Y-93173257D01*
X123126446Y-93231119D01*
X123062218Y-93258623D01*
X123047497Y-93259500D01*
X91655452Y-93259500D01*
X91588413Y-93239815D01*
X91567771Y-93223181D01*
X88702406Y-90357815D01*
X88668921Y-90296492D01*
X88673905Y-90226800D01*
X88715777Y-90170867D01*
X88781241Y-90146450D01*
X88800886Y-90146605D01*
X88888564Y-90154276D01*
X88899999Y-90155277D01*
X88900000Y-90155277D01*
X88900002Y-90155277D01*
X88928254Y-90152805D01*
X89117977Y-90136207D01*
X89329330Y-90079575D01*
X89527639Y-89987102D01*
X89706877Y-89861598D01*
X89861598Y-89706877D01*
X89987102Y-89527639D01*
X90057618Y-89376414D01*
X90103790Y-89323977D01*
X90170984Y-89304825D01*
X90237865Y-89325041D01*
X90282381Y-89376414D01*
X90352898Y-89527639D01*
X90478402Y-89706877D01*
X90633123Y-89861598D01*
X90812361Y-89987102D01*
X91010670Y-90079575D01*
X91222023Y-90136207D01*
X91404926Y-90152208D01*
X91439998Y-90155277D01*
X91440000Y-90155277D01*
X91440002Y-90155277D01*
X91468254Y-90152805D01*
X91657977Y-90136207D01*
X91869330Y-90079575D01*
X92067639Y-89987102D01*
X92246877Y-89861598D01*
X92401598Y-89706877D01*
X92527102Y-89527639D01*
X92597618Y-89376414D01*
X92643790Y-89323977D01*
X92710984Y-89304825D01*
X92777865Y-89325041D01*
X92822381Y-89376414D01*
X92892898Y-89527639D01*
X93018402Y-89706877D01*
X93173123Y-89861598D01*
X93352361Y-89987102D01*
X93550670Y-90079575D01*
X93762023Y-90136207D01*
X93944926Y-90152208D01*
X93979998Y-90155277D01*
X93980000Y-90155277D01*
X93980002Y-90155277D01*
X94008254Y-90152805D01*
X94197977Y-90136207D01*
X94409330Y-90079575D01*
X94607639Y-89987102D01*
X94786877Y-89861598D01*
X94941598Y-89706877D01*
X95067102Y-89527639D01*
X95137618Y-89376414D01*
X95183790Y-89323977D01*
X95250984Y-89304825D01*
X95317865Y-89325041D01*
X95362381Y-89376414D01*
X95432898Y-89527639D01*
X95558402Y-89706877D01*
X95713123Y-89861598D01*
X95892361Y-89987102D01*
X96090670Y-90079575D01*
X96302023Y-90136207D01*
X96484926Y-90152208D01*
X96519998Y-90155277D01*
X96520000Y-90155277D01*
X96520002Y-90155277D01*
X96548254Y-90152805D01*
X96737977Y-90136207D01*
X96949330Y-90079575D01*
X97147639Y-89987102D01*
X97326877Y-89861598D01*
X97481598Y-89706877D01*
X97607102Y-89527639D01*
X97699575Y-89329330D01*
X97756207Y-89117977D01*
X97775277Y-88900000D01*
X97756207Y-88682023D01*
X97735996Y-88606593D01*
X97737659Y-88536743D01*
X97776822Y-88478881D01*
X97841051Y-88451377D01*
X97855771Y-88450500D01*
X117832257Y-88450500D01*
X117847877Y-88452224D01*
X117847904Y-88451939D01*
X117855666Y-88452673D01*
X117855666Y-88452672D01*
X117855667Y-88452673D01*
X117858999Y-88452568D01*
X117923847Y-88450531D01*
X117925794Y-88450500D01*
X117954347Y-88450500D01*
X117954350Y-88450500D01*
X117961228Y-88449630D01*
X117967041Y-88449172D01*
X118013627Y-88447709D01*
X118032869Y-88442117D01*
X118051912Y-88438174D01*
X118071792Y-88435664D01*
X118115122Y-88418507D01*
X118120646Y-88416617D01*
X118124396Y-88415527D01*
X118165390Y-88403618D01*
X118182629Y-88393422D01*
X118200103Y-88384862D01*
X118218727Y-88377488D01*
X118218727Y-88377487D01*
X118218732Y-88377486D01*
X118256449Y-88350082D01*
X118261305Y-88346892D01*
X118301420Y-88323170D01*
X118315589Y-88308999D01*
X118330379Y-88296368D01*
X118346587Y-88284594D01*
X118376299Y-88248676D01*
X118380212Y-88244376D01*
X119327771Y-87296819D01*
X119389095Y-87263334D01*
X119415453Y-87260500D01*
X119474644Y-87260500D01*
X119474646Y-87260500D01*
X119659803Y-87221144D01*
X119832730Y-87144151D01*
X119985871Y-87032888D01*
X120112533Y-86892216D01*
X120207179Y-86728284D01*
X120265674Y-86548256D01*
X120285460Y-86360000D01*
X120265674Y-86171744D01*
X120207179Y-85991716D01*
X120155093Y-85901500D01*
X120138620Y-85833599D01*
X120161473Y-85767573D01*
X120216394Y-85724382D01*
X120262480Y-85715500D01*
X123184773Y-85715500D01*
X123251812Y-85735185D01*
G37*
%TD.AperFunction*%
%TA.AperFunction,Conductor*%
G36*
X125828769Y-67905376D02*
G01*
X125848588Y-67921477D01*
X139038181Y-81111070D01*
X139071666Y-81172393D01*
X139074500Y-81198751D01*
X139074500Y-90087255D01*
X139072775Y-90102872D01*
X139073061Y-90102899D01*
X139072326Y-90110666D01*
X139074469Y-90178846D01*
X139074500Y-90180793D01*
X139074500Y-90209343D01*
X139074501Y-90209360D01*
X139075368Y-90216231D01*
X139075826Y-90222050D01*
X139077290Y-90268624D01*
X139077291Y-90268627D01*
X139082880Y-90287867D01*
X139086824Y-90306911D01*
X139089336Y-90326792D01*
X139103347Y-90362180D01*
X139106490Y-90370119D01*
X139108382Y-90375647D01*
X139121381Y-90420388D01*
X139131580Y-90437634D01*
X139140138Y-90455103D01*
X139147514Y-90473732D01*
X139174898Y-90511423D01*
X139178106Y-90516307D01*
X139201827Y-90556416D01*
X139201833Y-90556424D01*
X139215990Y-90570580D01*
X139228628Y-90585376D01*
X139240405Y-90601586D01*
X139240406Y-90601587D01*
X139276309Y-90631288D01*
X139280620Y-90635210D01*
X140107910Y-91462500D01*
X140899762Y-92254352D01*
X140933247Y-92315675D01*
X140931856Y-92374126D01*
X140904938Y-92474586D01*
X140904936Y-92474596D01*
X140884341Y-92709999D01*
X140884341Y-92710000D01*
X140904936Y-92945403D01*
X140904938Y-92945413D01*
X140947272Y-93103407D01*
X140945609Y-93173257D01*
X140906446Y-93231119D01*
X140842218Y-93258623D01*
X140827497Y-93259500D01*
X137211266Y-93259500D01*
X137144227Y-93239815D01*
X137098472Y-93187011D01*
X137088528Y-93117853D01*
X137098882Y-93083098D01*
X137163903Y-92943663D01*
X137225063Y-92715408D01*
X137245659Y-92480000D01*
X137225063Y-92244592D01*
X137166525Y-92026121D01*
X137163905Y-92016344D01*
X137163904Y-92016343D01*
X137163903Y-92016337D01*
X137064035Y-91802171D01*
X137039474Y-91767093D01*
X136928494Y-91608597D01*
X136761402Y-91441506D01*
X136761395Y-91441501D01*
X136759251Y-91440000D01*
X136614188Y-91338425D01*
X136567834Y-91305967D01*
X136567830Y-91305965D01*
X136496727Y-91272809D01*
X136353663Y-91206097D01*
X136353659Y-91206096D01*
X136353655Y-91206094D01*
X136125413Y-91144938D01*
X136125403Y-91144936D01*
X135890001Y-91124341D01*
X135889999Y-91124341D01*
X135654596Y-91144936D01*
X135654586Y-91144938D01*
X135426344Y-91206094D01*
X135426335Y-91206098D01*
X135212171Y-91305964D01*
X135212169Y-91305965D01*
X135018600Y-91441503D01*
X134896284Y-91563819D01*
X134834961Y-91597303D01*
X134765269Y-91592319D01*
X134709336Y-91550447D01*
X134692421Y-91519470D01*
X134643354Y-91387913D01*
X134643350Y-91387906D01*
X134557190Y-91272812D01*
X134557187Y-91272809D01*
X134442093Y-91186649D01*
X134442086Y-91186645D01*
X134307379Y-91136403D01*
X134307372Y-91136401D01*
X134247844Y-91130000D01*
X133600000Y-91130000D01*
X133600000Y-92033505D01*
X133495161Y-91985627D01*
X133386473Y-91970000D01*
X133313527Y-91970000D01*
X133204839Y-91985627D01*
X133100000Y-92033505D01*
X133100000Y-91130000D01*
X132452155Y-91130000D01*
X132392627Y-91136401D01*
X132392620Y-91136403D01*
X132257913Y-91186645D01*
X132257906Y-91186649D01*
X132142812Y-91272809D01*
X132142809Y-91272812D01*
X132056649Y-91387906D01*
X132056645Y-91387913D01*
X132007578Y-91519470D01*
X131965707Y-91575404D01*
X131900242Y-91599821D01*
X131831969Y-91584969D01*
X131803715Y-91563819D01*
X131745403Y-91505507D01*
X131681401Y-91441505D01*
X131681397Y-91441502D01*
X131681396Y-91441501D01*
X131487834Y-91305967D01*
X131487830Y-91305965D01*
X131416727Y-91272809D01*
X131273663Y-91206097D01*
X131273659Y-91206096D01*
X131273655Y-91206094D01*
X131045413Y-91144938D01*
X131045403Y-91144936D01*
X130810001Y-91124341D01*
X130809999Y-91124341D01*
X130574596Y-91144936D01*
X130574586Y-91144938D01*
X130346344Y-91206094D01*
X130346335Y-91206098D01*
X130132171Y-91305964D01*
X130132169Y-91305965D01*
X129938597Y-91441505D01*
X129771505Y-91608597D01*
X129635965Y-91802169D01*
X129635964Y-91802171D01*
X129536098Y-92016335D01*
X129536094Y-92016344D01*
X129474938Y-92244586D01*
X129474936Y-92244596D01*
X129454341Y-92479999D01*
X129454341Y-92480000D01*
X129474936Y-92715403D01*
X129474938Y-92715413D01*
X129536094Y-92943655D01*
X129536097Y-92943664D01*
X129536913Y-92945413D01*
X129601116Y-93083096D01*
X129611608Y-93152172D01*
X129583088Y-93215956D01*
X129524612Y-93254196D01*
X129488734Y-93259500D01*
X125872503Y-93259500D01*
X125805464Y-93239815D01*
X125759709Y-93187011D01*
X125749765Y-93117853D01*
X125752728Y-93103407D01*
X125762195Y-93068072D01*
X125795063Y-92945408D01*
X125815659Y-92710000D01*
X125795063Y-92474592D01*
X125768143Y-92374123D01*
X125769806Y-92304277D01*
X125800235Y-92254354D01*
X126018788Y-92035801D01*
X126031042Y-92025986D01*
X126030859Y-92025764D01*
X126036868Y-92020791D01*
X126036877Y-92020786D01*
X126083607Y-91971022D01*
X126084846Y-91969743D01*
X126105120Y-91949471D01*
X126109379Y-91943978D01*
X126113152Y-91939561D01*
X126145062Y-91905582D01*
X126154715Y-91888020D01*
X126165389Y-91871770D01*
X126177673Y-91855936D01*
X126196180Y-91813167D01*
X126198749Y-91807924D01*
X126221196Y-91767093D01*
X126221197Y-91767092D01*
X126226177Y-91747691D01*
X126232478Y-91729288D01*
X126240438Y-91710896D01*
X126247730Y-91664849D01*
X126248911Y-91659152D01*
X126260500Y-91614019D01*
X126260500Y-91593983D01*
X126262027Y-91574583D01*
X126265160Y-91554804D01*
X126260773Y-91508407D01*
X126260499Y-91502584D01*
X126260499Y-80472918D01*
X126260499Y-69446031D01*
X126262225Y-69430423D01*
X126261939Y-69430396D01*
X126262671Y-69422638D01*
X126262673Y-69422632D01*
X126261300Y-69378992D01*
X126260530Y-69354451D01*
X126260499Y-69352500D01*
X126260500Y-69323949D01*
X126259631Y-69317069D01*
X126259172Y-69311242D01*
X126257709Y-69264671D01*
X126252122Y-69245443D01*
X126248174Y-69226383D01*
X126245663Y-69206503D01*
X126228512Y-69163186D01*
X126226619Y-69157657D01*
X126213618Y-69112908D01*
X126213616Y-69112905D01*
X126203423Y-69095670D01*
X126194861Y-69078193D01*
X126187487Y-69059569D01*
X126187486Y-69059567D01*
X126160079Y-69021844D01*
X126156888Y-69016985D01*
X126133172Y-68976882D01*
X126133165Y-68976873D01*
X126119006Y-68962714D01*
X126106368Y-68947918D01*
X126094594Y-68931712D01*
X126083093Y-68922198D01*
X126058688Y-68902008D01*
X126054376Y-68898085D01*
X125505473Y-68349181D01*
X125471988Y-68287858D01*
X125476972Y-68218166D01*
X125495688Y-68186045D01*
X125495389Y-68185836D01*
X125497904Y-68182242D01*
X125498170Y-68181788D01*
X125498486Y-68181409D01*
X125498495Y-68181401D01*
X125634035Y-67987830D01*
X125648527Y-67956751D01*
X125694694Y-67904316D01*
X125761887Y-67885162D01*
X125828769Y-67905376D01*
G37*
%TD.AperFunction*%
%TA.AperFunction,Conductor*%
G36*
X126015203Y-62320239D02*
G01*
X126021681Y-62326271D01*
X140403181Y-76707771D01*
X140436666Y-76769094D01*
X140439500Y-76795452D01*
X140439500Y-78752255D01*
X140437775Y-78767872D01*
X140438061Y-78767899D01*
X140437326Y-78775666D01*
X140439469Y-78843846D01*
X140439500Y-78845793D01*
X140439500Y-78874343D01*
X140439501Y-78874360D01*
X140440368Y-78881231D01*
X140440826Y-78887050D01*
X140442290Y-78933624D01*
X140442291Y-78933627D01*
X140447880Y-78952867D01*
X140451824Y-78971911D01*
X140454336Y-78991791D01*
X140471490Y-79035119D01*
X140473382Y-79040647D01*
X140486381Y-79085388D01*
X140496580Y-79102634D01*
X140505138Y-79120103D01*
X140512514Y-79138732D01*
X140539898Y-79176423D01*
X140543106Y-79181307D01*
X140566827Y-79221416D01*
X140566833Y-79221424D01*
X140580990Y-79235580D01*
X140593628Y-79250376D01*
X140605405Y-79266586D01*
X140605406Y-79266587D01*
X140641309Y-79296288D01*
X140645620Y-79300210D01*
X140869558Y-79524148D01*
X140899762Y-79554352D01*
X140933247Y-79615675D01*
X140931856Y-79674126D01*
X140904938Y-79774586D01*
X140904936Y-79774596D01*
X140884341Y-80009999D01*
X140884341Y-80010000D01*
X140904936Y-80245403D01*
X140904938Y-80245413D01*
X140966094Y-80473655D01*
X140966096Y-80473659D01*
X140966097Y-80473663D01*
X141047950Y-80649196D01*
X141065965Y-80687830D01*
X141065967Y-80687834D01*
X141161102Y-80823700D01*
X141199462Y-80878484D01*
X141201501Y-80881395D01*
X141201506Y-80881402D01*
X141368597Y-81048493D01*
X141368603Y-81048498D01*
X141554158Y-81178425D01*
X141597783Y-81233002D01*
X141604977Y-81302500D01*
X141573454Y-81364855D01*
X141554158Y-81381575D01*
X141368597Y-81511505D01*
X141201505Y-81678597D01*
X141065965Y-81872169D01*
X141065964Y-81872171D01*
X140966098Y-82086335D01*
X140966094Y-82086344D01*
X140904938Y-82314586D01*
X140904936Y-82314596D01*
X140884341Y-82549999D01*
X140884341Y-82550000D01*
X140904936Y-82785403D01*
X140904938Y-82785413D01*
X140966094Y-83013655D01*
X140966096Y-83013659D01*
X140966097Y-83013663D01*
X141065965Y-83227830D01*
X141065967Y-83227834D01*
X141201501Y-83421395D01*
X141201506Y-83421402D01*
X141368597Y-83588493D01*
X141368603Y-83588498D01*
X141554158Y-83718425D01*
X141597783Y-83773002D01*
X141604977Y-83842500D01*
X141573454Y-83904855D01*
X141554158Y-83921575D01*
X141368597Y-84051505D01*
X141201505Y-84218597D01*
X141065965Y-84412169D01*
X141065964Y-84412171D01*
X140966098Y-84626335D01*
X140966094Y-84626344D01*
X140904938Y-84854586D01*
X140904936Y-84854596D01*
X140884341Y-85089999D01*
X140884341Y-85090000D01*
X140904936Y-85325403D01*
X140904938Y-85325413D01*
X140966094Y-85553655D01*
X140966096Y-85553659D01*
X140966097Y-85553663D01*
X141036159Y-85703911D01*
X141065965Y-85767830D01*
X141065967Y-85767834D01*
X141080080Y-85787989D01*
X141201501Y-85961396D01*
X141201506Y-85961402D01*
X141323818Y-86083714D01*
X141357303Y-86145037D01*
X141352319Y-86214729D01*
X141310447Y-86270662D01*
X141279471Y-86287577D01*
X141147912Y-86336646D01*
X141147906Y-86336649D01*
X141032812Y-86422809D01*
X141032809Y-86422812D01*
X140946649Y-86537906D01*
X140946645Y-86537913D01*
X140896403Y-86672620D01*
X140896401Y-86672627D01*
X140890000Y-86732155D01*
X140890000Y-87380000D01*
X141794428Y-87380000D01*
X141771318Y-87415960D01*
X141730000Y-87556673D01*
X141730000Y-87703327D01*
X141771318Y-87844040D01*
X141794428Y-87880000D01*
X140890000Y-87880000D01*
X140890000Y-88527844D01*
X140896401Y-88587372D01*
X140896403Y-88587379D01*
X140946645Y-88722086D01*
X140946649Y-88722093D01*
X141032809Y-88837187D01*
X141032812Y-88837190D01*
X141147906Y-88923350D01*
X141147913Y-88923354D01*
X141279470Y-88972421D01*
X141335403Y-89014292D01*
X141359821Y-89079756D01*
X141344970Y-89148029D01*
X141323819Y-89176284D01*
X141201503Y-89298600D01*
X141065965Y-89492169D01*
X141065964Y-89492171D01*
X140966098Y-89706335D01*
X140966094Y-89706344D01*
X140904938Y-89934586D01*
X140904936Y-89934596D01*
X140884341Y-90169999D01*
X140884341Y-90170388D01*
X140884292Y-90170553D01*
X140883869Y-90175394D01*
X140882896Y-90175308D01*
X140864656Y-90237427D01*
X140811852Y-90283182D01*
X140742694Y-90293126D01*
X140679138Y-90264101D01*
X140672660Y-90258069D01*
X140361819Y-89947228D01*
X140328334Y-89885905D01*
X140325500Y-89859547D01*
X140325500Y-80971041D01*
X140327224Y-80955421D01*
X140326939Y-80955395D01*
X140327673Y-80947632D01*
X140325531Y-80879451D01*
X140325500Y-80877504D01*
X140325500Y-80848953D01*
X140325500Y-80848949D01*
X140324631Y-80842071D01*
X140324172Y-80836242D01*
X140322709Y-80789671D01*
X140317122Y-80770443D01*
X140313174Y-80751383D01*
X140312720Y-80747785D01*
X140310664Y-80731507D01*
X140310663Y-80731505D01*
X140310663Y-80731503D01*
X140293512Y-80688186D01*
X140291619Y-80682657D01*
X140278618Y-80637908D01*
X140278616Y-80637905D01*
X140268423Y-80620670D01*
X140259861Y-80603193D01*
X140252487Y-80584569D01*
X140252486Y-80584567D01*
X140225079Y-80546844D01*
X140221888Y-80541985D01*
X140198172Y-80501882D01*
X140198165Y-80501873D01*
X140184006Y-80487714D01*
X140171368Y-80472918D01*
X140159594Y-80456712D01*
X140123688Y-80427008D01*
X140119376Y-80423085D01*
X125505472Y-65809181D01*
X125471987Y-65747858D01*
X125476971Y-65678166D01*
X125495690Y-65646046D01*
X125495389Y-65645836D01*
X125497916Y-65642226D01*
X125498179Y-65641776D01*
X125498481Y-65641414D01*
X125498495Y-65641401D01*
X125634035Y-65447830D01*
X125733903Y-65233663D01*
X125795063Y-65005408D01*
X125815659Y-64770000D01*
X125795063Y-64534592D01*
X125733903Y-64306337D01*
X125634035Y-64092171D01*
X125498495Y-63898599D01*
X125376179Y-63776283D01*
X125342696Y-63714963D01*
X125347680Y-63645271D01*
X125389551Y-63589337D01*
X125420529Y-63572422D01*
X125552086Y-63523354D01*
X125552093Y-63523350D01*
X125667187Y-63437190D01*
X125667190Y-63437187D01*
X125753350Y-63322093D01*
X125753354Y-63322086D01*
X125803596Y-63187379D01*
X125803598Y-63187372D01*
X125809999Y-63127844D01*
X125810000Y-63127827D01*
X125810000Y-62413952D01*
X125829685Y-62346913D01*
X125882489Y-62301158D01*
X125951647Y-62291214D01*
X126015203Y-62320239D01*
G37*
%TD.AperFunction*%
%TA.AperFunction,Conductor*%
G36*
X122946587Y-71765185D02*
G01*
X122967229Y-71781819D01*
X123119762Y-71934352D01*
X123153247Y-71995675D01*
X123151856Y-72054126D01*
X123124938Y-72154586D01*
X123124936Y-72154596D01*
X123104341Y-72389999D01*
X123104341Y-72390000D01*
X123124936Y-72625403D01*
X123124938Y-72625413D01*
X123186094Y-72853655D01*
X123186096Y-72853659D01*
X123186097Y-72853663D01*
X123269426Y-73032362D01*
X123285965Y-73067830D01*
X123285967Y-73067834D01*
X123421501Y-73261395D01*
X123421506Y-73261402D01*
X123543818Y-73383714D01*
X123577303Y-73445037D01*
X123572319Y-73514729D01*
X123530447Y-73570662D01*
X123499471Y-73587577D01*
X123367912Y-73636646D01*
X123367906Y-73636649D01*
X123252812Y-73722809D01*
X123252809Y-73722812D01*
X123166649Y-73837906D01*
X123166645Y-73837913D01*
X123116403Y-73972620D01*
X123116401Y-73972627D01*
X123110000Y-74032155D01*
X123110000Y-74680000D01*
X124014428Y-74680000D01*
X123991318Y-74715960D01*
X123950000Y-74856673D01*
X123950000Y-75003327D01*
X123991318Y-75144040D01*
X124014428Y-75180000D01*
X123105953Y-75180000D01*
X123038914Y-75160315D01*
X123018272Y-75143681D01*
X119831772Y-71957181D01*
X119798287Y-71895858D01*
X119803271Y-71826166D01*
X119845143Y-71770233D01*
X119910607Y-71745816D01*
X119919453Y-71745500D01*
X122879548Y-71745500D01*
X122946587Y-71765185D01*
G37*
%TD.AperFunction*%
%TA.AperFunction,Conductor*%
G36*
X110399886Y-48180185D02*
G01*
X110420528Y-48196819D01*
X123174140Y-60950432D01*
X123207625Y-61011755D01*
X123202641Y-61081447D01*
X123185727Y-61112423D01*
X123166646Y-61137911D01*
X123166645Y-61137913D01*
X123116403Y-61272620D01*
X123116401Y-61272627D01*
X123110000Y-61332155D01*
X123110000Y-61980000D01*
X124014428Y-61980000D01*
X123991318Y-62015960D01*
X123950000Y-62156673D01*
X123950000Y-62303327D01*
X123991318Y-62444040D01*
X124014428Y-62480000D01*
X123110000Y-62480000D01*
X123110000Y-63127844D01*
X123116401Y-63187372D01*
X123116403Y-63187379D01*
X123166645Y-63322086D01*
X123166649Y-63322093D01*
X123252809Y-63437187D01*
X123252812Y-63437190D01*
X123367906Y-63523350D01*
X123367913Y-63523354D01*
X123499470Y-63572421D01*
X123555403Y-63614292D01*
X123579821Y-63679756D01*
X123564970Y-63748029D01*
X123543819Y-63776284D01*
X123421503Y-63898600D01*
X123285965Y-64092169D01*
X123285964Y-64092171D01*
X123271474Y-64123246D01*
X123225301Y-64175685D01*
X123158107Y-64194837D01*
X123091226Y-64174621D01*
X123071411Y-64158522D01*
X109881819Y-50968929D01*
X109848334Y-50907606D01*
X109845500Y-50881248D01*
X109845500Y-48958687D01*
X109865185Y-48891648D01*
X109877350Y-48875715D01*
X109903919Y-48846207D01*
X109952533Y-48792216D01*
X110047179Y-48628284D01*
X110105674Y-48448256D01*
X110124247Y-48271536D01*
X110150832Y-48206924D01*
X110208129Y-48166939D01*
X110247568Y-48160500D01*
X110332847Y-48160500D01*
X110399886Y-48180185D01*
G37*
%TD.AperFunction*%
%TA.AperFunction,Conductor*%
G36*
X162503039Y-30499685D02*
G01*
X162548794Y-30552489D01*
X162560000Y-30604000D01*
X162560000Y-134496000D01*
X162540315Y-134563039D01*
X162487511Y-134608794D01*
X162436000Y-134620000D01*
X56004000Y-134620000D01*
X55936961Y-134600315D01*
X55891206Y-134547511D01*
X55880000Y-134496000D01*
X55880000Y-121920006D01*
X67174700Y-121920006D01*
X67193864Y-122151297D01*
X67193866Y-122151308D01*
X67250842Y-122376300D01*
X67344075Y-122588848D01*
X67471018Y-122783150D01*
X67566167Y-122886510D01*
X67597089Y-122949164D01*
X67589228Y-123018590D01*
X67545081Y-123072746D01*
X67518271Y-123086674D01*
X67437911Y-123116646D01*
X67437906Y-123116649D01*
X67322812Y-123202809D01*
X67322809Y-123202812D01*
X67236649Y-123317906D01*
X67236645Y-123317913D01*
X67186403Y-123452620D01*
X67186401Y-123452627D01*
X67180000Y-123512155D01*
X67180000Y-124210000D01*
X68204722Y-124210000D01*
X68156375Y-124293740D01*
X68126190Y-124425992D01*
X68136327Y-124561265D01*
X68185887Y-124687541D01*
X68203797Y-124710000D01*
X67180000Y-124710000D01*
X67180000Y-125407844D01*
X67186401Y-125467372D01*
X67186403Y-125467379D01*
X67236645Y-125602086D01*
X67236649Y-125602093D01*
X67322809Y-125717187D01*
X67322812Y-125717190D01*
X67437906Y-125803350D01*
X67437913Y-125803354D01*
X67572620Y-125853596D01*
X67572627Y-125853598D01*
X67632155Y-125859999D01*
X67632172Y-125860000D01*
X68330000Y-125860000D01*
X68330000Y-124834189D01*
X68382547Y-124870016D01*
X68512173Y-124910000D01*
X68613724Y-124910000D01*
X68714138Y-124894865D01*
X68830000Y-124839068D01*
X68830000Y-125860000D01*
X69527828Y-125860000D01*
X69527844Y-125859999D01*
X69587372Y-125853598D01*
X69587379Y-125853596D01*
X69722086Y-125803354D01*
X69722093Y-125803350D01*
X69837187Y-125717190D01*
X69837190Y-125717187D01*
X69923350Y-125602093D01*
X69923354Y-125602086D01*
X69973596Y-125467379D01*
X69973598Y-125467372D01*
X69979999Y-125407844D01*
X69980000Y-125407827D01*
X69980000Y-124710000D01*
X68955278Y-124710000D01*
X69003625Y-124626260D01*
X69033810Y-124494008D01*
X69023673Y-124358735D01*
X68974113Y-124232459D01*
X68956203Y-124210000D01*
X69980000Y-124210000D01*
X69980000Y-123512172D01*
X69979999Y-123512155D01*
X69973598Y-123452627D01*
X69973596Y-123452620D01*
X69923354Y-123317913D01*
X69923350Y-123317906D01*
X69837190Y-123202812D01*
X69837187Y-123202809D01*
X69722093Y-123116649D01*
X69722086Y-123116645D01*
X69641729Y-123086674D01*
X69585795Y-123044803D01*
X69561378Y-122979338D01*
X69576230Y-122911065D01*
X69593826Y-122886516D01*
X69688979Y-122783153D01*
X69815924Y-122588849D01*
X69909157Y-122376300D01*
X69966134Y-122151305D01*
X69966135Y-122151297D01*
X69985300Y-121920006D01*
X77334700Y-121920006D01*
X77353864Y-122151297D01*
X77353866Y-122151308D01*
X77410842Y-122376300D01*
X77504075Y-122588848D01*
X77631018Y-122783150D01*
X77726167Y-122886510D01*
X77757089Y-122949164D01*
X77749228Y-123018590D01*
X77705081Y-123072746D01*
X77678271Y-123086674D01*
X77597911Y-123116646D01*
X77597906Y-123116649D01*
X77482812Y-123202809D01*
X77482809Y-123202812D01*
X77396649Y-123317906D01*
X77396645Y-123317913D01*
X77346403Y-123452620D01*
X77346401Y-123452627D01*
X77340000Y-123512155D01*
X77340000Y-124210000D01*
X78364722Y-124210000D01*
X78316375Y-124293740D01*
X78286190Y-124425992D01*
X78296327Y-124561265D01*
X78345887Y-124687541D01*
X78363797Y-124710000D01*
X77340000Y-124710000D01*
X77340000Y-125407844D01*
X77346401Y-125467372D01*
X77346403Y-125467379D01*
X77396645Y-125602086D01*
X77396649Y-125602093D01*
X77482809Y-125717187D01*
X77482812Y-125717190D01*
X77597906Y-125803350D01*
X77597913Y-125803354D01*
X77732620Y-125853596D01*
X77732627Y-125853598D01*
X77792155Y-125859999D01*
X77792172Y-125860000D01*
X78490000Y-125860000D01*
X78490000Y-124834189D01*
X78542547Y-124870016D01*
X78672173Y-124910000D01*
X78773724Y-124910000D01*
X78874138Y-124894865D01*
X78990000Y-124839068D01*
X78990000Y-125860000D01*
X79687828Y-125860000D01*
X79687844Y-125859999D01*
X79747372Y-125853598D01*
X79747379Y-125853596D01*
X79882086Y-125803354D01*
X79882093Y-125803350D01*
X79997187Y-125717190D01*
X79997190Y-125717187D01*
X80083350Y-125602093D01*
X80083354Y-125602086D01*
X80133596Y-125467379D01*
X80133598Y-125467372D01*
X80139999Y-125407844D01*
X80140000Y-125407827D01*
X80140000Y-124710000D01*
X79115278Y-124710000D01*
X79163625Y-124626260D01*
X79193810Y-124494008D01*
X79183673Y-124358735D01*
X79134113Y-124232459D01*
X79116203Y-124210000D01*
X80140000Y-124210000D01*
X80140000Y-123512172D01*
X80139999Y-123512155D01*
X80133598Y-123452627D01*
X80133596Y-123452620D01*
X80083354Y-123317913D01*
X80083350Y-123317906D01*
X79997190Y-123202812D01*
X79997187Y-123202809D01*
X79882093Y-123116649D01*
X79882086Y-123116645D01*
X79801729Y-123086674D01*
X79745795Y-123044803D01*
X79721378Y-122979338D01*
X79736230Y-122911065D01*
X79753826Y-122886516D01*
X79848979Y-122783153D01*
X79975924Y-122588849D01*
X80069157Y-122376300D01*
X80126134Y-122151305D01*
X80126135Y-122151297D01*
X80145300Y-121920006D01*
X87494700Y-121920006D01*
X87513864Y-122151297D01*
X87513866Y-122151308D01*
X87570842Y-122376300D01*
X87664075Y-122588848D01*
X87791018Y-122783150D01*
X87886167Y-122886510D01*
X87917089Y-122949164D01*
X87909228Y-123018590D01*
X87865081Y-123072746D01*
X87838271Y-123086674D01*
X87757911Y-123116646D01*
X87757906Y-123116649D01*
X87642812Y-123202809D01*
X87642809Y-123202812D01*
X87556649Y-123317906D01*
X87556645Y-123317913D01*
X87506403Y-123452620D01*
X87506401Y-123452627D01*
X87500000Y-123512155D01*
X87500000Y-123512172D01*
X87499999Y-124209999D01*
X87500000Y-124210000D01*
X88524722Y-124210000D01*
X88476375Y-124293740D01*
X88446190Y-124425992D01*
X88456327Y-124561265D01*
X88505887Y-124687541D01*
X88523797Y-124710000D01*
X87500000Y-124710000D01*
X87500000Y-125407844D01*
X87506401Y-125467372D01*
X87506403Y-125467379D01*
X87556645Y-125602086D01*
X87556649Y-125602093D01*
X87642809Y-125717187D01*
X87642812Y-125717190D01*
X87757906Y-125803350D01*
X87757913Y-125803354D01*
X87892620Y-125853596D01*
X87892627Y-125853598D01*
X87952155Y-125859999D01*
X87952172Y-125860000D01*
X88650000Y-125860000D01*
X88650000Y-124834189D01*
X88702547Y-124870016D01*
X88832173Y-124910000D01*
X88933724Y-124910000D01*
X89034138Y-124894865D01*
X89150000Y-124839068D01*
X89150000Y-125860000D01*
X89847828Y-125860000D01*
X89847844Y-125859999D01*
X89907372Y-125853598D01*
X89907379Y-125853596D01*
X90042086Y-125803354D01*
X90042093Y-125803350D01*
X90157187Y-125717190D01*
X90157190Y-125717187D01*
X90243350Y-125602093D01*
X90243354Y-125602086D01*
X90293596Y-125467379D01*
X90293598Y-125467372D01*
X90299999Y-125407844D01*
X90300000Y-125407827D01*
X90300000Y-124710000D01*
X89275278Y-124710000D01*
X89323625Y-124626260D01*
X89353810Y-124494008D01*
X89343673Y-124358735D01*
X89294113Y-124232459D01*
X89276203Y-124210000D01*
X90300000Y-124210000D01*
X90300000Y-123512172D01*
X90299999Y-123512155D01*
X90293598Y-123452627D01*
X90293596Y-123452620D01*
X90243354Y-123317913D01*
X90243350Y-123317906D01*
X90157190Y-123202812D01*
X90157187Y-123202809D01*
X90042093Y-123116649D01*
X90042086Y-123116645D01*
X89961729Y-123086674D01*
X89905795Y-123044803D01*
X89881378Y-122979338D01*
X89896230Y-122911065D01*
X89913826Y-122886516D01*
X90008979Y-122783153D01*
X90135924Y-122588849D01*
X90229157Y-122376300D01*
X90286134Y-122151305D01*
X90286135Y-122151297D01*
X90305300Y-121920006D01*
X97654700Y-121920006D01*
X97673864Y-122151297D01*
X97673866Y-122151308D01*
X97730842Y-122376300D01*
X97824075Y-122588848D01*
X97951018Y-122783150D01*
X98046167Y-122886510D01*
X98077089Y-122949164D01*
X98069228Y-123018590D01*
X98025081Y-123072746D01*
X97998271Y-123086674D01*
X97917911Y-123116646D01*
X97917906Y-123116649D01*
X97802812Y-123202809D01*
X97802809Y-123202812D01*
X97716649Y-123317906D01*
X97716645Y-123317913D01*
X97666403Y-123452620D01*
X97666401Y-123452627D01*
X97660000Y-123512155D01*
X97660000Y-124210000D01*
X98684722Y-124210000D01*
X98636375Y-124293740D01*
X98606190Y-124425992D01*
X98616327Y-124561265D01*
X98665887Y-124687541D01*
X98683797Y-124710000D01*
X97660000Y-124710000D01*
X97660000Y-125407844D01*
X97666401Y-125467372D01*
X97666403Y-125467379D01*
X97716645Y-125602086D01*
X97716649Y-125602093D01*
X97802809Y-125717187D01*
X97802812Y-125717190D01*
X97917906Y-125803350D01*
X97917913Y-125803354D01*
X98052620Y-125853596D01*
X98052627Y-125853598D01*
X98112155Y-125859999D01*
X98112172Y-125860000D01*
X98810000Y-125860000D01*
X98810000Y-124834189D01*
X98862547Y-124870016D01*
X98992173Y-124910000D01*
X99093724Y-124910000D01*
X99194138Y-124894865D01*
X99310000Y-124839068D01*
X99310000Y-125860000D01*
X100007828Y-125860000D01*
X100007844Y-125859999D01*
X100067372Y-125853598D01*
X100067379Y-125853596D01*
X100202086Y-125803354D01*
X100202093Y-125803350D01*
X100317187Y-125717190D01*
X100317190Y-125717187D01*
X100403350Y-125602093D01*
X100403354Y-125602086D01*
X100453596Y-125467379D01*
X100453598Y-125467372D01*
X100459999Y-125407844D01*
X100460000Y-125407827D01*
X100460000Y-124710000D01*
X99435278Y-124710000D01*
X99483625Y-124626260D01*
X99513810Y-124494008D01*
X99503673Y-124358735D01*
X99454113Y-124232459D01*
X99436203Y-124210000D01*
X100460000Y-124210000D01*
X100460000Y-123512172D01*
X100459999Y-123512155D01*
X100453598Y-123452627D01*
X100453596Y-123452620D01*
X100403354Y-123317913D01*
X100403350Y-123317906D01*
X100317190Y-123202812D01*
X100317187Y-123202809D01*
X100202093Y-123116649D01*
X100202086Y-123116645D01*
X100121729Y-123086674D01*
X100065795Y-123044803D01*
X100041378Y-122979338D01*
X100056230Y-122911065D01*
X100073826Y-122886516D01*
X100168979Y-122783153D01*
X100295924Y-122588849D01*
X100389157Y-122376300D01*
X100446134Y-122151305D01*
X100446135Y-122151297D01*
X100465300Y-121920006D01*
X100465300Y-121919993D01*
X100446135Y-121688702D01*
X100446133Y-121688691D01*
X100389157Y-121463699D01*
X100295924Y-121251151D01*
X100168983Y-121056852D01*
X100168980Y-121056849D01*
X100168979Y-121056847D01*
X100011784Y-120886087D01*
X100011779Y-120886083D01*
X100011777Y-120886081D01*
X99828634Y-120743535D01*
X99828628Y-120743531D01*
X99624504Y-120633064D01*
X99624495Y-120633061D01*
X99404984Y-120557702D01*
X99233281Y-120529050D01*
X99176049Y-120519500D01*
X98943951Y-120519500D01*
X98898164Y-120527140D01*
X98715015Y-120557702D01*
X98495504Y-120633061D01*
X98495495Y-120633064D01*
X98291371Y-120743531D01*
X98291365Y-120743535D01*
X98108222Y-120886081D01*
X98108219Y-120886084D01*
X97951016Y-121056852D01*
X97824075Y-121251151D01*
X97730842Y-121463699D01*
X97673866Y-121688691D01*
X97673864Y-121688702D01*
X97654700Y-121919993D01*
X97654700Y-121920006D01*
X90305300Y-121920006D01*
X90305300Y-121919993D01*
X90286135Y-121688702D01*
X90286133Y-121688691D01*
X90229157Y-121463699D01*
X90135924Y-121251151D01*
X90008983Y-121056852D01*
X90008980Y-121056849D01*
X90008979Y-121056847D01*
X89851784Y-120886087D01*
X89851779Y-120886083D01*
X89851777Y-120886081D01*
X89668634Y-120743535D01*
X89668628Y-120743531D01*
X89464504Y-120633064D01*
X89464495Y-120633061D01*
X89244984Y-120557702D01*
X89073281Y-120529050D01*
X89016049Y-120519500D01*
X88783951Y-120519500D01*
X88738164Y-120527140D01*
X88555015Y-120557702D01*
X88335504Y-120633061D01*
X88335495Y-120633064D01*
X88131371Y-120743531D01*
X88131365Y-120743535D01*
X87948222Y-120886081D01*
X87948219Y-120886084D01*
X87791016Y-121056852D01*
X87664075Y-121251151D01*
X87570842Y-121463699D01*
X87513866Y-121688691D01*
X87513864Y-121688702D01*
X87494700Y-121919993D01*
X87494700Y-121920006D01*
X80145300Y-121920006D01*
X80145300Y-121919993D01*
X80126135Y-121688702D01*
X80126133Y-121688691D01*
X80069157Y-121463699D01*
X79975924Y-121251151D01*
X79848983Y-121056852D01*
X79848980Y-121056849D01*
X79848979Y-121056847D01*
X79691784Y-120886087D01*
X79691779Y-120886083D01*
X79691777Y-120886081D01*
X79508634Y-120743535D01*
X79508628Y-120743531D01*
X79304504Y-120633064D01*
X79304495Y-120633061D01*
X79084984Y-120557702D01*
X78913281Y-120529050D01*
X78856049Y-120519500D01*
X78623951Y-120519500D01*
X78578164Y-120527140D01*
X78395015Y-120557702D01*
X78175504Y-120633061D01*
X78175495Y-120633064D01*
X77971371Y-120743531D01*
X77971365Y-120743535D01*
X77788222Y-120886081D01*
X77788219Y-120886084D01*
X77631016Y-121056852D01*
X77504075Y-121251151D01*
X77410842Y-121463699D01*
X77353866Y-121688691D01*
X77353864Y-121688702D01*
X77334700Y-121919993D01*
X77334700Y-121920006D01*
X69985300Y-121920006D01*
X69985300Y-121919993D01*
X69966135Y-121688702D01*
X69966133Y-121688691D01*
X69909157Y-121463699D01*
X69815924Y-121251151D01*
X69688983Y-121056852D01*
X69688980Y-121056849D01*
X69688979Y-121056847D01*
X69531784Y-120886087D01*
X69531779Y-120886083D01*
X69531777Y-120886081D01*
X69348634Y-120743535D01*
X69348628Y-120743531D01*
X69144504Y-120633064D01*
X69144495Y-120633061D01*
X68924984Y-120557702D01*
X68753281Y-120529050D01*
X68696049Y-120519500D01*
X68463951Y-120519500D01*
X68418164Y-120527140D01*
X68235015Y-120557702D01*
X68015504Y-120633061D01*
X68015495Y-120633064D01*
X67811371Y-120743531D01*
X67811365Y-120743535D01*
X67628222Y-120886081D01*
X67628219Y-120886084D01*
X67471016Y-121056852D01*
X67344075Y-121251151D01*
X67250842Y-121463699D01*
X67193866Y-121688691D01*
X67193864Y-121688702D01*
X67174700Y-121919993D01*
X67174700Y-121920006D01*
X55880000Y-121920006D01*
X55880000Y-114300001D01*
X67274532Y-114300001D01*
X67294364Y-114526686D01*
X67294366Y-114526697D01*
X67353258Y-114746488D01*
X67353261Y-114746497D01*
X67449431Y-114952732D01*
X67449432Y-114952734D01*
X67579954Y-115139141D01*
X67740858Y-115300045D01*
X67740861Y-115300047D01*
X67927266Y-115430568D01*
X68133504Y-115526739D01*
X68353308Y-115585635D01*
X68515230Y-115599801D01*
X68579998Y-115605468D01*
X68580000Y-115605468D01*
X68580002Y-115605468D01*
X68636673Y-115600509D01*
X68806692Y-115585635D01*
X69026496Y-115526739D01*
X69232734Y-115430568D01*
X69419139Y-115300047D01*
X69580047Y-115139139D01*
X69710568Y-114952734D01*
X69806739Y-114746496D01*
X69865635Y-114526692D01*
X69885468Y-114300001D01*
X77434532Y-114300001D01*
X77454364Y-114526686D01*
X77454366Y-114526697D01*
X77513258Y-114746488D01*
X77513261Y-114746497D01*
X77609431Y-114952732D01*
X77609432Y-114952734D01*
X77739954Y-115139141D01*
X77900858Y-115300045D01*
X77900861Y-115300047D01*
X78087266Y-115430568D01*
X78293504Y-115526739D01*
X78513308Y-115585635D01*
X78675230Y-115599801D01*
X78739998Y-115605468D01*
X78740000Y-115605468D01*
X78740002Y-115605468D01*
X78796673Y-115600509D01*
X78966692Y-115585635D01*
X79186496Y-115526739D01*
X79392734Y-115430568D01*
X79579139Y-115300047D01*
X79740047Y-115139139D01*
X79870568Y-114952734D01*
X79966739Y-114746496D01*
X80025635Y-114526692D01*
X80045468Y-114300001D01*
X87594532Y-114300001D01*
X87614364Y-114526686D01*
X87614366Y-114526697D01*
X87673258Y-114746488D01*
X87673261Y-114746497D01*
X87769431Y-114952732D01*
X87769432Y-114952734D01*
X87899954Y-115139141D01*
X88060858Y-115300045D01*
X88060861Y-115300047D01*
X88247266Y-115430568D01*
X88453504Y-115526739D01*
X88673308Y-115585635D01*
X88835230Y-115599801D01*
X88899998Y-115605468D01*
X88900000Y-115605468D01*
X88900002Y-115605468D01*
X88956673Y-115600509D01*
X89126692Y-115585635D01*
X89346496Y-115526739D01*
X89552734Y-115430568D01*
X89739139Y-115300047D01*
X89900047Y-115139139D01*
X90030568Y-114952734D01*
X90126739Y-114746496D01*
X90185635Y-114526692D01*
X90205468Y-114300001D01*
X97754532Y-114300001D01*
X97774364Y-114526686D01*
X97774366Y-114526697D01*
X97833258Y-114746488D01*
X97833261Y-114746497D01*
X97929431Y-114952732D01*
X97929432Y-114952734D01*
X98059954Y-115139141D01*
X98220858Y-115300045D01*
X98220861Y-115300047D01*
X98407266Y-115430568D01*
X98613504Y-115526739D01*
X98833308Y-115585635D01*
X98995230Y-115599801D01*
X99059998Y-115605468D01*
X99060000Y-115605468D01*
X99060002Y-115605468D01*
X99116673Y-115600509D01*
X99286692Y-115585635D01*
X99506496Y-115526739D01*
X99712734Y-115430568D01*
X99899139Y-115300047D01*
X100060047Y-115139139D01*
X100190568Y-114952734D01*
X100286739Y-114746496D01*
X100345635Y-114526692D01*
X100365468Y-114300000D01*
X100345635Y-114073308D01*
X100286739Y-113853504D01*
X100190568Y-113647266D01*
X100060047Y-113460861D01*
X100060045Y-113460858D01*
X99899141Y-113299954D01*
X99712734Y-113169432D01*
X99712732Y-113169431D01*
X99506497Y-113073261D01*
X99506488Y-113073258D01*
X99286697Y-113014366D01*
X99286693Y-113014365D01*
X99286692Y-113014365D01*
X99286691Y-113014364D01*
X99286686Y-113014364D01*
X99060002Y-112994532D01*
X99059998Y-112994532D01*
X98833313Y-113014364D01*
X98833302Y-113014366D01*
X98613511Y-113073258D01*
X98613502Y-113073261D01*
X98407267Y-113169431D01*
X98407265Y-113169432D01*
X98220858Y-113299954D01*
X98059954Y-113460858D01*
X97929432Y-113647265D01*
X97929431Y-113647267D01*
X97833261Y-113853502D01*
X97833258Y-113853511D01*
X97774366Y-114073302D01*
X97774364Y-114073313D01*
X97754532Y-114299998D01*
X97754532Y-114300001D01*
X90205468Y-114300001D01*
X90205468Y-114300000D01*
X90185635Y-114073308D01*
X90126739Y-113853504D01*
X90030568Y-113647266D01*
X89900047Y-113460861D01*
X89900045Y-113460858D01*
X89739141Y-113299954D01*
X89552734Y-113169432D01*
X89552732Y-113169431D01*
X89346497Y-113073261D01*
X89346488Y-113073258D01*
X89126697Y-113014366D01*
X89126693Y-113014365D01*
X89126692Y-113014365D01*
X89126691Y-113014364D01*
X89126686Y-113014364D01*
X88900002Y-112994532D01*
X88899998Y-112994532D01*
X88673313Y-113014364D01*
X88673302Y-113014366D01*
X88453511Y-113073258D01*
X88453502Y-113073261D01*
X88247267Y-113169431D01*
X88247265Y-113169432D01*
X88060858Y-113299954D01*
X87899954Y-113460858D01*
X87769432Y-113647265D01*
X87769431Y-113647267D01*
X87673261Y-113853502D01*
X87673258Y-113853511D01*
X87614366Y-114073302D01*
X87614364Y-114073313D01*
X87594532Y-114299998D01*
X87594532Y-114300001D01*
X80045468Y-114300001D01*
X80045468Y-114300000D01*
X80025635Y-114073308D01*
X79966739Y-113853504D01*
X79870568Y-113647266D01*
X79740047Y-113460861D01*
X79740045Y-113460858D01*
X79579141Y-113299954D01*
X79392734Y-113169432D01*
X79392732Y-113169431D01*
X79186497Y-113073261D01*
X79186488Y-113073258D01*
X78966697Y-113014366D01*
X78966693Y-113014365D01*
X78966692Y-113014365D01*
X78966691Y-113014364D01*
X78966686Y-113014364D01*
X78740002Y-112994532D01*
X78739998Y-112994532D01*
X78513313Y-113014364D01*
X78513302Y-113014366D01*
X78293511Y-113073258D01*
X78293502Y-113073261D01*
X78087267Y-113169431D01*
X78087265Y-113169432D01*
X77900858Y-113299954D01*
X77739954Y-113460858D01*
X77609432Y-113647265D01*
X77609431Y-113647267D01*
X77513261Y-113853502D01*
X77513258Y-113853511D01*
X77454366Y-114073302D01*
X77454364Y-114073313D01*
X77434532Y-114299998D01*
X77434532Y-114300001D01*
X69885468Y-114300001D01*
X69885468Y-114300000D01*
X69865635Y-114073308D01*
X69806739Y-113853504D01*
X69710568Y-113647266D01*
X69580047Y-113460861D01*
X69580045Y-113460858D01*
X69419141Y-113299954D01*
X69232734Y-113169432D01*
X69232732Y-113169431D01*
X69026497Y-113073261D01*
X69026488Y-113073258D01*
X68806697Y-113014366D01*
X68806693Y-113014365D01*
X68806692Y-113014365D01*
X68806691Y-113014364D01*
X68806686Y-113014364D01*
X68580002Y-112994532D01*
X68579998Y-112994532D01*
X68353313Y-113014364D01*
X68353302Y-113014366D01*
X68133511Y-113073258D01*
X68133502Y-113073261D01*
X67927267Y-113169431D01*
X67927265Y-113169432D01*
X67740858Y-113299954D01*
X67579954Y-113460858D01*
X67449432Y-113647265D01*
X67449431Y-113647267D01*
X67353261Y-113853502D01*
X67353258Y-113853511D01*
X67294366Y-114073302D01*
X67294364Y-114073313D01*
X67274532Y-114299998D01*
X67274532Y-114300001D01*
X55880000Y-114300001D01*
X55880000Y-97417870D01*
X67229500Y-97417870D01*
X67229501Y-97417876D01*
X67235908Y-97477483D01*
X67286202Y-97612328D01*
X67286206Y-97612335D01*
X67372452Y-97727544D01*
X67372455Y-97727547D01*
X67487664Y-97813793D01*
X67487671Y-97813797D01*
X67622517Y-97864091D01*
X67622516Y-97864091D01*
X67629444Y-97864835D01*
X67682127Y-97870500D01*
X69005500Y-97870499D01*
X69072539Y-97890184D01*
X69118294Y-97942987D01*
X69129500Y-97994499D01*
X69129500Y-102654546D01*
X69109815Y-102721585D01*
X69093181Y-102742228D01*
X68994821Y-102840587D01*
X68933497Y-102874071D01*
X68875048Y-102872680D01*
X68806697Y-102854366D01*
X68806693Y-102854365D01*
X68806692Y-102854365D01*
X68649209Y-102840587D01*
X68580001Y-102834532D01*
X68579998Y-102834532D01*
X68353313Y-102854364D01*
X68353302Y-102854366D01*
X68133511Y-102913258D01*
X68133502Y-102913261D01*
X67927267Y-103009431D01*
X67927265Y-103009432D01*
X67740858Y-103139954D01*
X67579954Y-103300858D01*
X67449432Y-103487265D01*
X67449431Y-103487267D01*
X67353261Y-103693502D01*
X67353258Y-103693511D01*
X67294366Y-103913302D01*
X67294364Y-103913313D01*
X67274532Y-104139998D01*
X67274532Y-104140001D01*
X67294364Y-104366686D01*
X67294366Y-104366697D01*
X67353258Y-104586488D01*
X67353261Y-104586497D01*
X67449431Y-104792732D01*
X67449432Y-104792734D01*
X67579954Y-104979141D01*
X67740858Y-105140045D01*
X67740861Y-105140047D01*
X67927266Y-105270568D01*
X68133504Y-105366739D01*
X68353308Y-105425635D01*
X68515230Y-105439801D01*
X68579998Y-105445468D01*
X68580000Y-105445468D01*
X68580002Y-105445468D01*
X68636673Y-105440509D01*
X68806692Y-105425635D01*
X69026496Y-105366739D01*
X69232734Y-105270568D01*
X69419139Y-105140047D01*
X69580047Y-104979139D01*
X69710568Y-104792734D01*
X69806739Y-104586496D01*
X69865635Y-104366692D01*
X69885468Y-104140000D01*
X69865635Y-103913308D01*
X69847318Y-103844948D01*
X69848981Y-103775103D01*
X69879410Y-103725179D01*
X70138788Y-103465801D01*
X70151042Y-103455986D01*
X70150859Y-103455764D01*
X70156868Y-103450791D01*
X70156877Y-103450786D01*
X70203607Y-103401022D01*
X70204846Y-103399743D01*
X70225120Y-103379471D01*
X70229379Y-103373978D01*
X70233152Y-103369561D01*
X70265062Y-103335582D01*
X70274715Y-103318020D01*
X70285389Y-103301770D01*
X70297673Y-103285936D01*
X70316180Y-103243167D01*
X70318749Y-103237924D01*
X70341196Y-103197093D01*
X70341197Y-103197092D01*
X70346177Y-103177691D01*
X70352478Y-103159288D01*
X70360438Y-103140896D01*
X70367730Y-103094849D01*
X70368911Y-103089152D01*
X70380500Y-103044019D01*
X70380500Y-103023983D01*
X70382027Y-103004582D01*
X70385160Y-102984804D01*
X70380775Y-102938415D01*
X70380500Y-102932577D01*
X70380500Y-97859918D01*
X70400185Y-97792879D01*
X70452989Y-97747124D01*
X70522147Y-97737180D01*
X70556899Y-97747534D01*
X70656337Y-97793903D01*
X70884592Y-97855063D01*
X71061034Y-97870500D01*
X71119999Y-97875659D01*
X71120000Y-97875659D01*
X71120001Y-97875659D01*
X71178966Y-97870500D01*
X71355408Y-97855063D01*
X71547245Y-97803661D01*
X71617092Y-97805324D01*
X71674955Y-97844486D01*
X71694629Y-97877791D01*
X71701489Y-97895119D01*
X71703382Y-97900647D01*
X71715683Y-97942987D01*
X71716382Y-97945390D01*
X71726043Y-97961727D01*
X71726580Y-97962634D01*
X71735138Y-97980103D01*
X71742514Y-97998732D01*
X71769898Y-98036423D01*
X71773106Y-98041307D01*
X71796827Y-98081416D01*
X71796833Y-98081424D01*
X71810990Y-98095580D01*
X71823628Y-98110376D01*
X71835405Y-98126586D01*
X71835406Y-98126587D01*
X71871309Y-98156288D01*
X71875620Y-98160210D01*
X76068590Y-102353181D01*
X77440586Y-103725177D01*
X77474071Y-103786500D01*
X77472680Y-103844949D01*
X77454367Y-103913296D01*
X77454364Y-103913313D01*
X77434532Y-104139999D01*
X77434532Y-104140001D01*
X77454364Y-104366686D01*
X77454366Y-104366697D01*
X77513258Y-104586488D01*
X77513261Y-104586497D01*
X77609431Y-104792732D01*
X77609432Y-104792734D01*
X77739954Y-104979141D01*
X77900858Y-105140045D01*
X77900861Y-105140047D01*
X78087266Y-105270568D01*
X78293504Y-105366739D01*
X78513308Y-105425635D01*
X78675230Y-105439801D01*
X78739998Y-105445468D01*
X78740000Y-105445468D01*
X78740002Y-105445468D01*
X78796673Y-105440509D01*
X78966692Y-105425635D01*
X79186496Y-105366739D01*
X79392734Y-105270568D01*
X79579139Y-105140047D01*
X79740047Y-104979139D01*
X79870568Y-104792734D01*
X79966739Y-104586496D01*
X80025635Y-104366692D01*
X80045468Y-104140000D01*
X80025635Y-103913308D01*
X79966739Y-103693504D01*
X79870568Y-103487266D01*
X79764359Y-103335582D01*
X79740045Y-103300858D01*
X79579141Y-103139954D01*
X79392734Y-103009432D01*
X79392732Y-103009431D01*
X79186497Y-102913261D01*
X79186488Y-102913258D01*
X78966697Y-102854366D01*
X78966693Y-102854365D01*
X78966692Y-102854365D01*
X78966691Y-102854364D01*
X78966686Y-102854364D01*
X78740002Y-102834532D01*
X78739999Y-102834532D01*
X78513313Y-102854364D01*
X78513296Y-102854367D01*
X78444949Y-102872680D01*
X78375099Y-102871016D01*
X78325177Y-102840586D01*
X73446319Y-97961727D01*
X73412834Y-97900404D01*
X73410000Y-97874046D01*
X73410000Y-96955501D01*
X73517685Y-97004680D01*
X73624237Y-97020000D01*
X73695763Y-97020000D01*
X73802315Y-97004680D01*
X73910000Y-96955501D01*
X73910000Y-97850633D01*
X74123483Y-97793433D01*
X74123492Y-97793429D01*
X74337578Y-97693600D01*
X74531082Y-97558105D01*
X74698105Y-97391082D01*
X74828119Y-97205405D01*
X74882696Y-97161781D01*
X74952195Y-97154588D01*
X75014549Y-97186110D01*
X75031269Y-97205405D01*
X75161505Y-97391401D01*
X75328599Y-97558495D01*
X75425384Y-97626264D01*
X75522165Y-97694032D01*
X75522167Y-97694033D01*
X75522170Y-97694035D01*
X75736337Y-97793903D01*
X75964592Y-97855063D01*
X76141034Y-97870500D01*
X76199999Y-97875659D01*
X76200000Y-97875659D01*
X76200001Y-97875659D01*
X76258966Y-97870500D01*
X76435408Y-97855063D01*
X76663663Y-97793903D01*
X76877830Y-97694035D01*
X77071401Y-97558495D01*
X77238495Y-97391401D01*
X77368426Y-97205841D01*
X77423002Y-97162217D01*
X77492500Y-97155023D01*
X77554855Y-97186546D01*
X77571575Y-97205842D01*
X77701500Y-97391395D01*
X77701505Y-97391401D01*
X77868599Y-97558495D01*
X77965384Y-97626265D01*
X78062165Y-97694032D01*
X78062167Y-97694033D01*
X78062170Y-97694035D01*
X78276337Y-97793903D01*
X78504592Y-97855063D01*
X78681034Y-97870500D01*
X78739999Y-97875659D01*
X78740000Y-97875659D01*
X78740001Y-97875659D01*
X78798966Y-97870500D01*
X78975408Y-97855063D01*
X79203663Y-97793903D01*
X79417830Y-97694035D01*
X79611401Y-97558495D01*
X79778495Y-97391401D01*
X79914035Y-97197830D01*
X80013903Y-96983663D01*
X80075063Y-96755408D01*
X80095659Y-96520000D01*
X80095659Y-96519999D01*
X80095659Y-96519612D01*
X80095707Y-96519446D01*
X80096131Y-96514606D01*
X80097103Y-96514691D01*
X80115344Y-96452573D01*
X80168148Y-96406818D01*
X80237306Y-96396874D01*
X80300862Y-96425899D01*
X80307340Y-96431931D01*
X87600586Y-103725177D01*
X87634071Y-103786500D01*
X87632680Y-103844949D01*
X87614367Y-103913296D01*
X87614364Y-103913313D01*
X87594532Y-104139999D01*
X87594532Y-104140001D01*
X87614364Y-104366686D01*
X87614366Y-104366697D01*
X87673258Y-104586488D01*
X87673261Y-104586497D01*
X87769431Y-104792732D01*
X87769432Y-104792734D01*
X87899954Y-104979141D01*
X88060858Y-105140045D01*
X88060861Y-105140047D01*
X88247266Y-105270568D01*
X88453504Y-105366739D01*
X88673308Y-105425635D01*
X88835230Y-105439801D01*
X88899998Y-105445468D01*
X88900000Y-105445468D01*
X88900002Y-105445468D01*
X88956673Y-105440509D01*
X89126692Y-105425635D01*
X89346496Y-105366739D01*
X89552734Y-105270568D01*
X89739139Y-105140047D01*
X89900047Y-104979139D01*
X90030568Y-104792734D01*
X90126739Y-104586496D01*
X90185635Y-104366692D01*
X90205468Y-104140000D01*
X90185635Y-103913308D01*
X90172308Y-103863573D01*
X90154362Y-103796593D01*
X90156025Y-103726743D01*
X90195188Y-103668881D01*
X90259417Y-103641377D01*
X90274137Y-103640500D01*
X97624547Y-103640500D01*
X97691586Y-103660185D01*
X97712229Y-103676820D01*
X97760587Y-103725179D01*
X97794071Y-103786502D01*
X97792680Y-103844951D01*
X97774367Y-103913300D01*
X97774364Y-103913313D01*
X97754532Y-104139999D01*
X97754532Y-104140001D01*
X97774364Y-104366686D01*
X97774366Y-104366697D01*
X97833258Y-104586488D01*
X97833261Y-104586497D01*
X97929431Y-104792732D01*
X97929432Y-104792734D01*
X98059954Y-104979141D01*
X98220858Y-105140045D01*
X98220861Y-105140047D01*
X98407266Y-105270568D01*
X98613504Y-105366739D01*
X98833308Y-105425635D01*
X98995230Y-105439801D01*
X99059998Y-105445468D01*
X99060000Y-105445468D01*
X99060002Y-105445468D01*
X99116673Y-105440509D01*
X99286692Y-105425635D01*
X99506496Y-105366739D01*
X99712734Y-105270568D01*
X99899139Y-105140047D01*
X100060047Y-104979139D01*
X100190568Y-104792734D01*
X100286739Y-104586496D01*
X100345635Y-104366692D01*
X100365468Y-104140000D01*
X100345635Y-103913308D01*
X100286739Y-103693504D01*
X100190568Y-103487266D01*
X100084359Y-103335582D01*
X100060045Y-103300858D01*
X99899141Y-103139954D01*
X99712734Y-103009432D01*
X99712732Y-103009431D01*
X99506497Y-102913261D01*
X99506488Y-102913258D01*
X99286697Y-102854366D01*
X99286693Y-102854365D01*
X99286692Y-102854365D01*
X99286691Y-102854364D01*
X99286686Y-102854364D01*
X99060002Y-102834532D01*
X99059999Y-102834532D01*
X98833313Y-102854364D01*
X98833296Y-102854367D01*
X98764949Y-102872680D01*
X98695099Y-102871016D01*
X98645177Y-102840586D01*
X98435803Y-102631212D01*
X98425980Y-102618950D01*
X98425759Y-102619134D01*
X98420786Y-102613122D01*
X98371066Y-102566432D01*
X98369666Y-102565075D01*
X98349476Y-102544884D01*
X98343986Y-102540625D01*
X98339561Y-102536847D01*
X98305582Y-102504938D01*
X98305580Y-102504936D01*
X98305577Y-102504935D01*
X98288029Y-102495288D01*
X98271763Y-102484604D01*
X98255933Y-102472325D01*
X98213168Y-102453818D01*
X98207922Y-102451248D01*
X98167093Y-102428803D01*
X98167092Y-102428802D01*
X98147693Y-102423822D01*
X98129281Y-102417518D01*
X98110898Y-102409562D01*
X98110892Y-102409560D01*
X98064874Y-102402272D01*
X98059152Y-102401087D01*
X98014021Y-102389500D01*
X98014019Y-102389500D01*
X97993984Y-102389500D01*
X97974586Y-102387973D01*
X97967162Y-102386797D01*
X97954805Y-102384840D01*
X97954804Y-102384840D01*
X97908416Y-102389225D01*
X97902578Y-102389500D01*
X88721848Y-102389500D01*
X88654809Y-102369815D01*
X88634167Y-102353181D01*
X87880987Y-101600001D01*
X125694532Y-101600001D01*
X125714364Y-101826686D01*
X125714366Y-101826697D01*
X125773258Y-102046488D01*
X125773261Y-102046497D01*
X125869431Y-102252732D01*
X125869432Y-102252734D01*
X125999954Y-102439141D01*
X126160858Y-102600045D01*
X126188120Y-102619134D01*
X126347266Y-102730568D01*
X126553504Y-102826739D01*
X126773308Y-102885635D01*
X126935230Y-102899801D01*
X126999998Y-102905468D01*
X127000000Y-102905468D01*
X127000002Y-102905468D01*
X127056673Y-102900509D01*
X127226692Y-102885635D01*
X127446496Y-102826739D01*
X127652734Y-102730568D01*
X127839139Y-102600047D01*
X128000047Y-102439139D01*
X128130568Y-102252734D01*
X128226739Y-102046496D01*
X128285635Y-101826692D01*
X128305468Y-101600001D01*
X135854532Y-101600001D01*
X135874364Y-101826686D01*
X135874366Y-101826697D01*
X135933258Y-102046488D01*
X135933261Y-102046497D01*
X136029431Y-102252732D01*
X136029432Y-102252734D01*
X136159954Y-102439141D01*
X136320858Y-102600045D01*
X136348120Y-102619134D01*
X136507266Y-102730568D01*
X136713504Y-102826739D01*
X136933308Y-102885635D01*
X137095230Y-102899801D01*
X137159998Y-102905468D01*
X137160000Y-102905468D01*
X137160002Y-102905468D01*
X137216672Y-102900509D01*
X137386692Y-102885635D01*
X137606496Y-102826739D01*
X137812734Y-102730568D01*
X137999139Y-102600047D01*
X138160047Y-102439139D01*
X138290568Y-102252734D01*
X138386739Y-102046496D01*
X138445635Y-101826692D01*
X138465468Y-101600000D01*
X138445635Y-101373308D01*
X138386739Y-101153504D01*
X138290568Y-100947266D01*
X138160047Y-100760861D01*
X138160045Y-100760858D01*
X137999141Y-100599954D01*
X137812734Y-100469432D01*
X137812732Y-100469431D01*
X137606497Y-100373261D01*
X137606488Y-100373258D01*
X137386697Y-100314366D01*
X137386693Y-100314365D01*
X137386692Y-100314365D01*
X137386691Y-100314364D01*
X137386686Y-100314364D01*
X137160002Y-100294532D01*
X137159998Y-100294532D01*
X136933313Y-100314364D01*
X136933302Y-100314366D01*
X136713511Y-100373258D01*
X136713502Y-100373261D01*
X136507267Y-100469431D01*
X136507265Y-100469432D01*
X136320858Y-100599954D01*
X136159954Y-100760858D01*
X136029432Y-100947265D01*
X136029431Y-100947267D01*
X135933261Y-101153502D01*
X135933258Y-101153511D01*
X135874366Y-101373302D01*
X135874364Y-101373313D01*
X135854532Y-101599998D01*
X135854532Y-101600001D01*
X128305468Y-101600001D01*
X128305468Y-101600000D01*
X128285635Y-101373308D01*
X128226739Y-101153504D01*
X128130568Y-100947266D01*
X128000047Y-100760861D01*
X128000045Y-100760858D01*
X127839141Y-100599954D01*
X127652734Y-100469432D01*
X127652732Y-100469431D01*
X127446497Y-100373261D01*
X127446488Y-100373258D01*
X127226697Y-100314366D01*
X127226693Y-100314365D01*
X127226692Y-100314365D01*
X127226691Y-100314364D01*
X127226686Y-100314364D01*
X127000002Y-100294532D01*
X126999998Y-100294532D01*
X126773313Y-100314364D01*
X126773302Y-100314366D01*
X126553511Y-100373258D01*
X126553502Y-100373261D01*
X126347267Y-100469431D01*
X126347265Y-100469432D01*
X126160858Y-100599954D01*
X125999954Y-100760858D01*
X125869432Y-100947265D01*
X125869431Y-100947267D01*
X125773261Y-101153502D01*
X125773258Y-101153511D01*
X125714366Y-101373302D01*
X125714364Y-101373313D01*
X125694532Y-101599998D01*
X125694532Y-101600001D01*
X87880987Y-101600001D01*
X72681819Y-86400832D01*
X72648334Y-86339509D01*
X72645500Y-86313151D01*
X72645500Y-61757870D01*
X82569500Y-61757870D01*
X82569501Y-61757876D01*
X82575908Y-61817483D01*
X82626202Y-61952328D01*
X82626206Y-61952335D01*
X82712452Y-62067544D01*
X82712455Y-62067547D01*
X82827664Y-62153793D01*
X82827671Y-62153797D01*
X82962517Y-62204091D01*
X82962516Y-62204091D01*
X82969444Y-62204835D01*
X83022127Y-62210500D01*
X84617872Y-62210499D01*
X84677483Y-62204091D01*
X84812331Y-62153796D01*
X84927546Y-62067546D01*
X85013796Y-61952331D01*
X85064091Y-61817483D01*
X85070500Y-61757873D01*
X85070499Y-61691860D01*
X85090183Y-61624824D01*
X85142986Y-61579068D01*
X85212144Y-61569124D01*
X85275700Y-61598148D01*
X85296073Y-61620738D01*
X85345877Y-61691864D01*
X85398402Y-61766877D01*
X85553123Y-61921598D01*
X85732361Y-62047102D01*
X85930670Y-62139575D01*
X86142023Y-62196207D01*
X86324926Y-62212208D01*
X86359998Y-62215277D01*
X86360000Y-62215277D01*
X86360002Y-62215277D01*
X86388254Y-62212805D01*
X86577977Y-62196207D01*
X86789330Y-62139575D01*
X86987639Y-62047102D01*
X87166877Y-61921598D01*
X87321598Y-61766877D01*
X87447102Y-61587639D01*
X87517618Y-61436414D01*
X87563790Y-61383977D01*
X87630984Y-61364825D01*
X87697865Y-61385041D01*
X87742381Y-61436414D01*
X87812898Y-61587639D01*
X87938402Y-61766877D01*
X88093123Y-61921598D01*
X88272361Y-62047102D01*
X88470670Y-62139575D01*
X88682023Y-62196207D01*
X88864926Y-62212208D01*
X88899998Y-62215277D01*
X88900000Y-62215277D01*
X88900002Y-62215277D01*
X88928254Y-62212805D01*
X89117977Y-62196207D01*
X89329330Y-62139575D01*
X89527639Y-62047102D01*
X89706877Y-61921598D01*
X89861598Y-61766877D01*
X89987102Y-61587639D01*
X90057618Y-61436414D01*
X90103790Y-61383977D01*
X90170984Y-61364825D01*
X90237865Y-61385041D01*
X90282381Y-61436414D01*
X90352898Y-61587639D01*
X90478402Y-61766877D01*
X90633123Y-61921598D01*
X90812361Y-62047102D01*
X91010670Y-62139575D01*
X91222023Y-62196207D01*
X91404926Y-62212208D01*
X91439998Y-62215277D01*
X91440000Y-62215277D01*
X91440002Y-62215277D01*
X91468254Y-62212805D01*
X91657977Y-62196207D01*
X91869330Y-62139575D01*
X92067639Y-62047102D01*
X92246877Y-61921598D01*
X92401598Y-61766877D01*
X92527102Y-61587639D01*
X92597618Y-61436414D01*
X92643790Y-61383977D01*
X92710984Y-61364825D01*
X92777865Y-61385041D01*
X92822381Y-61436414D01*
X92892898Y-61587639D01*
X93018402Y-61766877D01*
X93173123Y-61921598D01*
X93352361Y-62047102D01*
X93550670Y-62139575D01*
X93762023Y-62196207D01*
X93944926Y-62212208D01*
X93979998Y-62215277D01*
X93980000Y-62215277D01*
X93980002Y-62215277D01*
X94008254Y-62212805D01*
X94197977Y-62196207D01*
X94409330Y-62139575D01*
X94607639Y-62047102D01*
X94786877Y-61921598D01*
X94941598Y-61766877D01*
X95067102Y-61587639D01*
X95137618Y-61436414D01*
X95183790Y-61383977D01*
X95250984Y-61364825D01*
X95317865Y-61385041D01*
X95362381Y-61436414D01*
X95432898Y-61587639D01*
X95558402Y-61766877D01*
X95713123Y-61921598D01*
X95892361Y-62047102D01*
X96090670Y-62139575D01*
X96302023Y-62196207D01*
X96484926Y-62212208D01*
X96519998Y-62215277D01*
X96520000Y-62215277D01*
X96520002Y-62215277D01*
X96548254Y-62212805D01*
X96737977Y-62196207D01*
X96949330Y-62139575D01*
X97147639Y-62047102D01*
X97326877Y-61921598D01*
X97481598Y-61766877D01*
X97607102Y-61587639D01*
X97699575Y-61389330D01*
X97756207Y-61177977D01*
X97775277Y-60960000D01*
X97756207Y-60742023D01*
X97699575Y-60530670D01*
X97607102Y-60332362D01*
X97607100Y-60332359D01*
X97607099Y-60332357D01*
X97481599Y-60153124D01*
X97430991Y-60102516D01*
X97326877Y-59998402D01*
X97147639Y-59872898D01*
X97147640Y-59872898D01*
X97147638Y-59872897D01*
X97048484Y-59826661D01*
X96949330Y-59780425D01*
X96949326Y-59780424D01*
X96949322Y-59780422D01*
X96737977Y-59723793D01*
X96520002Y-59704723D01*
X96519998Y-59704723D01*
X96392151Y-59715908D01*
X96302023Y-59723793D01*
X96302020Y-59723793D01*
X96090677Y-59780422D01*
X96090668Y-59780426D01*
X95892361Y-59872898D01*
X95892357Y-59872900D01*
X95713121Y-59998402D01*
X95558402Y-60153121D01*
X95432900Y-60332357D01*
X95432898Y-60332361D01*
X95362382Y-60483583D01*
X95316209Y-60536022D01*
X95249016Y-60555174D01*
X95182135Y-60534958D01*
X95137618Y-60483583D01*
X95097550Y-60397658D01*
X95067102Y-60332362D01*
X95067100Y-60332359D01*
X95067099Y-60332357D01*
X94941599Y-60153124D01*
X94890991Y-60102516D01*
X94786877Y-59998402D01*
X94607639Y-59872898D01*
X94607640Y-59872898D01*
X94607638Y-59872897D01*
X94508484Y-59826661D01*
X94409330Y-59780425D01*
X94409326Y-59780424D01*
X94409322Y-59780422D01*
X94197977Y-59723793D01*
X93980002Y-59704723D01*
X93979998Y-59704723D01*
X93852151Y-59715908D01*
X93762023Y-59723793D01*
X93762020Y-59723793D01*
X93550677Y-59780422D01*
X93550668Y-59780426D01*
X93352361Y-59872898D01*
X93352357Y-59872900D01*
X93173121Y-59998402D01*
X93018402Y-60153121D01*
X92892900Y-60332357D01*
X92892898Y-60332361D01*
X92822382Y-60483583D01*
X92776209Y-60536022D01*
X92709016Y-60555174D01*
X92642135Y-60534958D01*
X92597618Y-60483583D01*
X92557550Y-60397658D01*
X92527102Y-60332362D01*
X92527100Y-60332359D01*
X92527099Y-60332357D01*
X92401599Y-60153124D01*
X92350991Y-60102516D01*
X92246877Y-59998402D01*
X92067639Y-59872898D01*
X92067640Y-59872898D01*
X92067638Y-59872897D01*
X91968484Y-59826661D01*
X91869330Y-59780425D01*
X91869326Y-59780424D01*
X91869322Y-59780422D01*
X91657977Y-59723793D01*
X91440002Y-59704723D01*
X91439998Y-59704723D01*
X91312151Y-59715908D01*
X91222023Y-59723793D01*
X91222020Y-59723793D01*
X91010677Y-59780422D01*
X91010668Y-59780426D01*
X90812361Y-59872898D01*
X90812357Y-59872900D01*
X90633121Y-59998402D01*
X90478402Y-60153121D01*
X90352900Y-60332357D01*
X90352898Y-60332361D01*
X90282382Y-60483583D01*
X90236209Y-60536022D01*
X90169016Y-60555174D01*
X90102135Y-60534958D01*
X90057618Y-60483583D01*
X90017550Y-60397658D01*
X89987102Y-60332362D01*
X89987100Y-60332359D01*
X89987099Y-60332357D01*
X89861599Y-60153124D01*
X89810991Y-60102516D01*
X89706877Y-59998402D01*
X89527639Y-59872898D01*
X89527640Y-59872898D01*
X89527638Y-59872897D01*
X89428484Y-59826661D01*
X89329330Y-59780425D01*
X89329326Y-59780424D01*
X89329322Y-59780422D01*
X89117977Y-59723793D01*
X88900002Y-59704723D01*
X88899998Y-59704723D01*
X88772151Y-59715908D01*
X88682023Y-59723793D01*
X88682020Y-59723793D01*
X88470677Y-59780422D01*
X88470668Y-59780426D01*
X88272361Y-59872898D01*
X88272357Y-59872900D01*
X88093121Y-59998402D01*
X87938402Y-60153121D01*
X87812900Y-60332357D01*
X87812898Y-60332361D01*
X87742382Y-60483583D01*
X87696209Y-60536022D01*
X87629016Y-60555174D01*
X87562135Y-60534958D01*
X87517618Y-60483583D01*
X87477550Y-60397658D01*
X87447102Y-60332362D01*
X87447100Y-60332359D01*
X87447099Y-60332357D01*
X87321599Y-60153124D01*
X87270991Y-60102516D01*
X87166877Y-59998402D01*
X86987639Y-59872898D01*
X86987640Y-59872898D01*
X86987638Y-59872897D01*
X86888484Y-59826661D01*
X86789330Y-59780425D01*
X86789326Y-59780424D01*
X86789322Y-59780422D01*
X86577977Y-59723793D01*
X86360002Y-59704723D01*
X86359998Y-59704723D01*
X86232151Y-59715908D01*
X86142023Y-59723793D01*
X86142020Y-59723793D01*
X85930677Y-59780422D01*
X85930668Y-59780426D01*
X85732361Y-59872898D01*
X85732357Y-59872900D01*
X85553121Y-59998402D01*
X85398402Y-60153121D01*
X85296074Y-60299262D01*
X85241497Y-60342887D01*
X85171999Y-60350081D01*
X85109644Y-60318558D01*
X85074230Y-60258328D01*
X85070499Y-60228139D01*
X85070499Y-60162129D01*
X85070498Y-60162123D01*
X85070497Y-60162116D01*
X85064091Y-60102517D01*
X85013796Y-59967669D01*
X85013795Y-59967668D01*
X85013793Y-59967664D01*
X84927547Y-59852455D01*
X84927544Y-59852452D01*
X84812335Y-59766206D01*
X84812328Y-59766202D01*
X84677482Y-59715908D01*
X84677483Y-59715908D01*
X84617883Y-59709501D01*
X84617881Y-59709500D01*
X84617873Y-59709500D01*
X84617864Y-59709500D01*
X83022129Y-59709500D01*
X83022123Y-59709501D01*
X82962516Y-59715908D01*
X82827671Y-59766202D01*
X82827664Y-59766206D01*
X82712455Y-59852452D01*
X82712452Y-59852455D01*
X82626206Y-59967664D01*
X82626202Y-59967671D01*
X82575908Y-60102517D01*
X82570468Y-60153121D01*
X82569501Y-60162123D01*
X82569500Y-60162135D01*
X82569500Y-61757870D01*
X72645500Y-61757870D01*
X72645500Y-44126848D01*
X72665185Y-44059809D01*
X72681819Y-44039167D01*
X76609168Y-40111819D01*
X76670491Y-40078334D01*
X76696849Y-40075500D01*
X103909548Y-40075500D01*
X103976587Y-40095185D01*
X103997229Y-40111819D01*
X110583229Y-46697819D01*
X110616714Y-46759142D01*
X110611730Y-46828834D01*
X110569858Y-46884767D01*
X110504394Y-46909184D01*
X110495548Y-46909500D01*
X107487743Y-46909500D01*
X107472122Y-46907775D01*
X107472096Y-46908061D01*
X107464333Y-46907326D01*
X107396153Y-46909469D01*
X107394206Y-46909500D01*
X107365649Y-46909500D01*
X107358766Y-46910369D01*
X107352949Y-46910826D01*
X107306373Y-46912290D01*
X107287129Y-46917881D01*
X107268079Y-46921825D01*
X107248211Y-46924334D01*
X107204884Y-46941488D01*
X107199358Y-46943379D01*
X107154614Y-46956379D01*
X107154610Y-46956381D01*
X107137366Y-46966579D01*
X107119905Y-46975133D01*
X107101274Y-46982510D01*
X107101262Y-46982517D01*
X107063570Y-47009902D01*
X107058687Y-47013109D01*
X107018580Y-47036829D01*
X107004414Y-47050995D01*
X106989624Y-47063627D01*
X106973414Y-47075404D01*
X106973411Y-47075407D01*
X106943710Y-47111309D01*
X106939777Y-47115631D01*
X106732227Y-47323182D01*
X106670907Y-47356666D01*
X106644548Y-47359500D01*
X106585354Y-47359500D01*
X106567759Y-47363240D01*
X106400197Y-47398855D01*
X106400192Y-47398857D01*
X106227270Y-47475848D01*
X106227265Y-47475851D01*
X106074129Y-47587111D01*
X105947466Y-47727785D01*
X105852821Y-47891715D01*
X105852818Y-47891722D01*
X105796279Y-48065732D01*
X105794326Y-48071744D01*
X105774540Y-48260000D01*
X105794326Y-48448256D01*
X105794327Y-48448259D01*
X105852818Y-48628277D01*
X105852819Y-48628279D01*
X105852821Y-48628284D01*
X105947467Y-48792216D01*
X106009163Y-48860736D01*
X106074129Y-48932888D01*
X106227265Y-49044148D01*
X106227270Y-49044151D01*
X106400192Y-49121142D01*
X106400197Y-49121144D01*
X106585354Y-49160500D01*
X106585355Y-49160500D01*
X106774644Y-49160500D01*
X106774646Y-49160500D01*
X106959803Y-49121144D01*
X107132730Y-49044151D01*
X107285871Y-48932888D01*
X107412533Y-48792216D01*
X107507179Y-48628284D01*
X107565674Y-48448256D01*
X107583321Y-48280346D01*
X107609904Y-48215735D01*
X107618970Y-48205620D01*
X107627783Y-48196809D01*
X107689110Y-48163331D01*
X107715454Y-48160500D01*
X108192432Y-48160500D01*
X108259471Y-48180185D01*
X108305226Y-48232989D01*
X108315752Y-48271535D01*
X108334326Y-48448256D01*
X108334327Y-48448259D01*
X108392818Y-48628277D01*
X108392819Y-48628279D01*
X108392821Y-48628284D01*
X108487467Y-48792216D01*
X108522577Y-48831209D01*
X108562650Y-48875715D01*
X108592880Y-48938706D01*
X108594500Y-48958687D01*
X108594500Y-51108956D01*
X108592775Y-51124573D01*
X108593061Y-51124600D01*
X108592326Y-51132367D01*
X108594469Y-51200547D01*
X108594500Y-51202494D01*
X108594500Y-51231044D01*
X108594501Y-51231061D01*
X108595368Y-51237932D01*
X108595826Y-51243751D01*
X108597290Y-51290325D01*
X108597291Y-51290328D01*
X108602880Y-51309568D01*
X108606824Y-51328612D01*
X108609336Y-51348492D01*
X108626490Y-51391820D01*
X108628382Y-51397348D01*
X108641381Y-51442089D01*
X108651580Y-51459335D01*
X108660138Y-51476804D01*
X108667514Y-51495433D01*
X108694898Y-51533124D01*
X108698106Y-51538008D01*
X108721827Y-51578117D01*
X108721833Y-51578125D01*
X108735990Y-51592281D01*
X108748628Y-51607077D01*
X108760405Y-51623287D01*
X108760406Y-51623288D01*
X108796309Y-51652989D01*
X108800620Y-51656911D01*
X116155878Y-59012169D01*
X123414527Y-66270818D01*
X123448012Y-66332141D01*
X123443028Y-66401833D01*
X123424311Y-66433955D01*
X123424610Y-66434164D01*
X123422106Y-66437738D01*
X123421837Y-66438202D01*
X123421508Y-66438593D01*
X123285965Y-66632169D01*
X123285964Y-66632171D01*
X123211051Y-66792822D01*
X123164878Y-66845261D01*
X123097685Y-66864413D01*
X123030804Y-66844197D01*
X123010988Y-66828098D01*
X104977357Y-48794467D01*
X104943872Y-48733144D01*
X104948856Y-48663452D01*
X104957646Y-48644795D01*
X104967179Y-48628284D01*
X105025674Y-48448256D01*
X105045460Y-48260000D01*
X105025674Y-48071744D01*
X104967179Y-47891716D01*
X104872533Y-47727784D01*
X104745871Y-47587112D01*
X104740813Y-47583437D01*
X104592734Y-47475851D01*
X104592729Y-47475848D01*
X104419807Y-47398857D01*
X104419802Y-47398855D01*
X104252241Y-47363240D01*
X104234646Y-47359500D01*
X104045354Y-47359500D01*
X104027759Y-47363240D01*
X103860197Y-47398855D01*
X103860192Y-47398857D01*
X103687270Y-47475848D01*
X103687265Y-47475851D01*
X103534129Y-47587111D01*
X103407466Y-47727785D01*
X103312821Y-47891715D01*
X103312818Y-47891722D01*
X103256279Y-48065732D01*
X103254326Y-48071744D01*
X103234540Y-48260000D01*
X103254326Y-48448256D01*
X103254327Y-48448259D01*
X103312818Y-48628277D01*
X103312819Y-48628279D01*
X103312821Y-48628284D01*
X103407467Y-48792216D01*
X103459911Y-48850461D01*
X103487689Y-48881312D01*
X103512745Y-48933523D01*
X103515114Y-48932835D01*
X103522879Y-48959560D01*
X103526824Y-48978612D01*
X103529336Y-48998493D01*
X103546490Y-49041820D01*
X103548382Y-49047348D01*
X103561382Y-49092091D01*
X103564018Y-49096549D01*
X103571580Y-49109335D01*
X103580138Y-49126804D01*
X103587514Y-49145433D01*
X103614898Y-49183124D01*
X103618106Y-49188008D01*
X103641827Y-49228117D01*
X103641833Y-49228125D01*
X103655990Y-49242281D01*
X103668628Y-49257077D01*
X103680405Y-49273287D01*
X103680406Y-49273288D01*
X103716309Y-49302989D01*
X103720620Y-49306911D01*
X118505877Y-64092169D01*
X123335906Y-68922198D01*
X123369391Y-68983521D01*
X123364407Y-69053213D01*
X123349801Y-69081001D01*
X123286349Y-69171622D01*
X123231772Y-69215248D01*
X123184773Y-69224500D01*
X119056849Y-69224500D01*
X118989810Y-69204815D01*
X118969168Y-69188181D01*
X100171818Y-50390831D01*
X100138333Y-50329508D01*
X100135499Y-50303150D01*
X100135499Y-47983713D01*
X100135499Y-45616336D01*
X100137225Y-45600727D01*
X100136939Y-45600700D01*
X100137673Y-45592937D01*
X100135531Y-45524756D01*
X100135500Y-45522809D01*
X100135500Y-45494258D01*
X100135500Y-45494254D01*
X100134631Y-45487376D01*
X100134172Y-45481547D01*
X100132709Y-45434976D01*
X100127122Y-45415748D01*
X100123174Y-45396688D01*
X100120663Y-45376808D01*
X100103512Y-45333491D01*
X100101619Y-45327962D01*
X100088618Y-45283213D01*
X100088616Y-45283210D01*
X100078423Y-45265975D01*
X100069861Y-45248498D01*
X100062487Y-45229874D01*
X100062486Y-45229872D01*
X100035079Y-45192149D01*
X100031888Y-45187290D01*
X100008172Y-45147187D01*
X100008165Y-45147178D01*
X99994006Y-45133019D01*
X99981368Y-45118223D01*
X99978707Y-45114560D01*
X99969594Y-45102017D01*
X99962000Y-45095735D01*
X99933688Y-45072313D01*
X99929376Y-45068390D01*
X97207199Y-42346212D01*
X97197376Y-42333950D01*
X97197155Y-42334134D01*
X97192182Y-42328122D01*
X97142462Y-42281432D01*
X97141062Y-42280075D01*
X97120872Y-42259884D01*
X97115382Y-42255625D01*
X97110957Y-42251847D01*
X97076978Y-42219938D01*
X97076976Y-42219936D01*
X97076973Y-42219935D01*
X97059425Y-42210288D01*
X97043159Y-42199604D01*
X97027329Y-42187325D01*
X96984564Y-42168818D01*
X96979318Y-42166248D01*
X96938489Y-42143803D01*
X96938488Y-42143802D01*
X96919089Y-42138822D01*
X96900677Y-42132518D01*
X96882294Y-42124562D01*
X96882288Y-42124560D01*
X96836270Y-42117272D01*
X96830548Y-42116087D01*
X96785417Y-42104500D01*
X96785415Y-42104500D01*
X96765380Y-42104500D01*
X96745982Y-42102973D01*
X96738558Y-42101797D01*
X96726201Y-42099840D01*
X96726200Y-42099840D01*
X96679812Y-42104225D01*
X96673974Y-42104500D01*
X93876342Y-42104500D01*
X93860725Y-42102776D01*
X93860698Y-42103062D01*
X93852936Y-42102327D01*
X93784776Y-42104469D01*
X93782829Y-42104500D01*
X93754254Y-42104500D01*
X93753533Y-42104590D01*
X93747361Y-42105369D01*
X93741549Y-42105826D01*
X93694977Y-42107290D01*
X93694976Y-42107290D01*
X93675733Y-42112881D01*
X93656683Y-42116825D01*
X93636815Y-42119334D01*
X93593488Y-42136488D01*
X93587962Y-42138379D01*
X93543218Y-42151379D01*
X93543214Y-42151381D01*
X93525970Y-42161579D01*
X93508509Y-42170133D01*
X93489878Y-42177510D01*
X93489866Y-42177517D01*
X93452174Y-42204902D01*
X93447291Y-42208109D01*
X93407184Y-42231829D01*
X93393018Y-42245995D01*
X93378228Y-42258627D01*
X93362018Y-42270404D01*
X93362015Y-42270407D01*
X93332314Y-42306309D01*
X93328381Y-42310631D01*
X93120832Y-42518181D01*
X93059509Y-42551666D01*
X93033151Y-42554500D01*
X86442737Y-42554500D01*
X86427120Y-42552776D01*
X86427093Y-42553062D01*
X86419331Y-42552327D01*
X86351171Y-42554469D01*
X86349224Y-42554500D01*
X86320650Y-42554500D01*
X86319929Y-42554590D01*
X86313757Y-42555369D01*
X86307945Y-42555826D01*
X86261372Y-42557290D01*
X86261369Y-42557291D01*
X86242126Y-42562881D01*
X86223083Y-42566825D01*
X86203204Y-42569336D01*
X86203203Y-42569337D01*
X86159878Y-42586490D01*
X86154352Y-42588382D01*
X86109608Y-42601383D01*
X86109604Y-42601385D01*
X86092365Y-42611580D01*
X86074898Y-42620137D01*
X86056269Y-42627512D01*
X86056267Y-42627513D01*
X86018564Y-42654906D01*
X86013682Y-42658112D01*
X85973580Y-42681828D01*
X85959408Y-42696000D01*
X85944623Y-42708628D01*
X85928412Y-42720407D01*
X85898709Y-42756310D01*
X85894777Y-42760631D01*
X84193996Y-44461411D01*
X84132673Y-44494896D01*
X84074222Y-44493505D01*
X84037977Y-44483793D01*
X83928988Y-44474257D01*
X83820002Y-44464723D01*
X83819998Y-44464723D01*
X83674682Y-44477436D01*
X83602023Y-44483793D01*
X83602020Y-44483793D01*
X83390677Y-44540422D01*
X83390668Y-44540426D01*
X83192361Y-44632898D01*
X83192357Y-44632900D01*
X83013121Y-44758402D01*
X82858402Y-44913121D01*
X82732900Y-45092357D01*
X82732898Y-45092361D01*
X82640426Y-45290668D01*
X82640422Y-45290677D01*
X82583793Y-45502020D01*
X82583793Y-45502023D01*
X82582526Y-45516505D01*
X82564723Y-45719997D01*
X82564723Y-45720002D01*
X82567003Y-45746064D01*
X82582386Y-45921900D01*
X82583793Y-45937975D01*
X82583793Y-45937979D01*
X82640422Y-46149322D01*
X82640424Y-46149326D01*
X82640425Y-46149330D01*
X82662382Y-46196416D01*
X82732897Y-46347638D01*
X82748056Y-46369287D01*
X82858402Y-46526877D01*
X83013123Y-46681598D01*
X83192361Y-46807102D01*
X83390670Y-46899575D01*
X83602023Y-46956207D01*
X83784926Y-46972208D01*
X83819998Y-46975277D01*
X83820000Y-46975277D01*
X83820002Y-46975277D01*
X83848254Y-46972805D01*
X84037977Y-46956207D01*
X84249330Y-46899575D01*
X84447639Y-46807102D01*
X84626877Y-46681598D01*
X84781598Y-46526877D01*
X84907102Y-46347639D01*
X84977618Y-46196414D01*
X85023790Y-46143977D01*
X85090984Y-46124825D01*
X85157865Y-46145041D01*
X85202381Y-46196414D01*
X85272898Y-46347639D01*
X85398402Y-46526877D01*
X85553123Y-46681598D01*
X85732361Y-46807102D01*
X85930670Y-46899575D01*
X86142023Y-46956207D01*
X86324926Y-46972208D01*
X86359998Y-46975277D01*
X86360000Y-46975277D01*
X86360002Y-46975277D01*
X86388254Y-46972805D01*
X86577977Y-46956207D01*
X86789330Y-46899575D01*
X86987639Y-46807102D01*
X87166877Y-46681598D01*
X87321598Y-46526877D01*
X87447102Y-46347639D01*
X87517619Y-46196414D01*
X87563789Y-46143977D01*
X87630982Y-46124825D01*
X87697863Y-46145040D01*
X87742381Y-46196416D01*
X87812897Y-46347638D01*
X87828056Y-46369287D01*
X87938402Y-46526877D01*
X88093123Y-46681598D01*
X88272361Y-46807102D01*
X88470670Y-46899575D01*
X88682023Y-46956207D01*
X88864926Y-46972208D01*
X88899998Y-46975277D01*
X88900000Y-46975277D01*
X88900002Y-46975277D01*
X88928254Y-46972805D01*
X89117977Y-46956207D01*
X89329330Y-46899575D01*
X89527639Y-46807102D01*
X89706877Y-46681598D01*
X89861598Y-46526877D01*
X89987102Y-46347639D01*
X90057618Y-46196414D01*
X90103790Y-46143977D01*
X90170984Y-46124825D01*
X90237865Y-46145041D01*
X90282381Y-46196414D01*
X90352898Y-46347639D01*
X90478402Y-46526877D01*
X90633123Y-46681598D01*
X90812361Y-46807102D01*
X91010670Y-46899575D01*
X91222023Y-46956207D01*
X91404926Y-46972208D01*
X91439998Y-46975277D01*
X91440000Y-46975277D01*
X91440002Y-46975277D01*
X91468254Y-46972805D01*
X91657977Y-46956207D01*
X91869330Y-46899575D01*
X92067639Y-46807102D01*
X92246877Y-46681598D01*
X92401598Y-46526877D01*
X92527102Y-46347639D01*
X92597618Y-46196414D01*
X92643790Y-46143977D01*
X92710984Y-46124825D01*
X92777865Y-46145041D01*
X92822381Y-46196414D01*
X92892898Y-46347639D01*
X93018402Y-46526877D01*
X93173123Y-46681598D01*
X93301624Y-46771575D01*
X93345248Y-46826151D01*
X93354500Y-46873149D01*
X93354500Y-46907255D01*
X93352775Y-46922872D01*
X93353061Y-46922899D01*
X93352326Y-46930666D01*
X93354469Y-46998846D01*
X93354500Y-47000793D01*
X93354500Y-47029343D01*
X93354501Y-47029360D01*
X93355368Y-47036231D01*
X93355826Y-47042050D01*
X93357290Y-47088624D01*
X93357291Y-47088627D01*
X93362880Y-47107867D01*
X93366824Y-47126911D01*
X93369336Y-47146792D01*
X93382747Y-47180664D01*
X93386490Y-47190119D01*
X93388382Y-47195647D01*
X93397030Y-47225413D01*
X93401382Y-47240390D01*
X93409865Y-47254735D01*
X93411580Y-47257634D01*
X93420136Y-47275100D01*
X93427514Y-47293732D01*
X93454309Y-47330613D01*
X93454898Y-47331423D01*
X93458106Y-47336307D01*
X93481827Y-47376416D01*
X93481833Y-47376424D01*
X93495990Y-47390580D01*
X93508628Y-47405376D01*
X93518980Y-47419625D01*
X93520406Y-47421587D01*
X93544433Y-47441464D01*
X93556309Y-47451288D01*
X93560620Y-47455210D01*
X115955408Y-69849999D01*
X123119761Y-77014352D01*
X123153246Y-77075675D01*
X123151855Y-77134124D01*
X123124937Y-77234589D01*
X123124937Y-77234590D01*
X123104341Y-77469999D01*
X123104341Y-77470000D01*
X123124936Y-77705403D01*
X123124938Y-77705413D01*
X123186094Y-77933655D01*
X123186099Y-77933669D01*
X123188163Y-77938094D01*
X123198656Y-78007171D01*
X123170137Y-78070955D01*
X123111661Y-78109196D01*
X123075782Y-78114500D01*
X109923748Y-78114500D01*
X109856709Y-78094815D01*
X109831600Y-78073474D01*
X109825873Y-78067114D01*
X109825869Y-78067110D01*
X109672734Y-77955851D01*
X109672729Y-77955848D01*
X109499807Y-77878857D01*
X109499802Y-77878855D01*
X109354000Y-77847865D01*
X109314646Y-77839500D01*
X109125354Y-77839500D01*
X109092897Y-77846398D01*
X108940197Y-77878855D01*
X108940192Y-77878857D01*
X108767270Y-77955848D01*
X108767265Y-77955851D01*
X108614129Y-78067111D01*
X108487466Y-78207785D01*
X108392821Y-78371715D01*
X108392818Y-78371722D01*
X108334327Y-78551740D01*
X108334326Y-78551744D01*
X108314540Y-78740000D01*
X108334326Y-78928256D01*
X108334327Y-78928259D01*
X108392818Y-79108277D01*
X108392821Y-79108284D01*
X108487467Y-79272216D01*
X108589185Y-79385185D01*
X108614129Y-79412888D01*
X108767265Y-79524148D01*
X108767270Y-79524151D01*
X108940192Y-79601142D01*
X108940197Y-79601144D01*
X109125354Y-79640500D01*
X109125355Y-79640500D01*
X109314644Y-79640500D01*
X109314646Y-79640500D01*
X109499803Y-79601144D01*
X109672730Y-79524151D01*
X109825871Y-79412888D01*
X109828788Y-79409647D01*
X109831600Y-79406526D01*
X109891087Y-79369879D01*
X109923748Y-79365500D01*
X122879548Y-79365500D01*
X122946587Y-79385185D01*
X122967229Y-79401819D01*
X123119762Y-79554352D01*
X123153247Y-79615675D01*
X123151856Y-79674126D01*
X123124938Y-79774586D01*
X123124936Y-79774596D01*
X123104341Y-80009999D01*
X123104341Y-80010000D01*
X123124936Y-80245403D01*
X123124938Y-80245413D01*
X123186094Y-80473655D01*
X123186099Y-80473669D01*
X123188163Y-80478094D01*
X123198656Y-80547171D01*
X123170137Y-80610955D01*
X123111661Y-80649196D01*
X123075782Y-80654500D01*
X104843748Y-80654500D01*
X104776709Y-80634815D01*
X104751600Y-80613474D01*
X104745873Y-80607114D01*
X104745869Y-80607110D01*
X104592734Y-80495851D01*
X104592729Y-80495848D01*
X104419807Y-80418857D01*
X104419802Y-80418855D01*
X104274001Y-80387865D01*
X104234646Y-80379500D01*
X104045354Y-80379500D01*
X104012897Y-80386398D01*
X103860197Y-80418855D01*
X103860192Y-80418857D01*
X103687270Y-80495848D01*
X103687265Y-80495851D01*
X103534129Y-80607111D01*
X103407466Y-80747785D01*
X103312821Y-80911715D01*
X103312818Y-80911722D01*
X103254327Y-81091740D01*
X103254326Y-81091744D01*
X103234540Y-81280000D01*
X103254326Y-81468256D01*
X103254327Y-81468259D01*
X103312818Y-81648277D01*
X103312821Y-81648284D01*
X103407467Y-81812216D01*
X103509185Y-81925185D01*
X103534129Y-81952888D01*
X103687265Y-82064148D01*
X103687270Y-82064151D01*
X103860192Y-82141142D01*
X103860197Y-82141144D01*
X104045354Y-82180500D01*
X104045355Y-82180500D01*
X104234644Y-82180500D01*
X104234646Y-82180500D01*
X104419803Y-82141144D01*
X104592730Y-82064151D01*
X104745871Y-81952888D01*
X104749509Y-81948848D01*
X104751600Y-81946526D01*
X104811087Y-81909879D01*
X104843748Y-81905500D01*
X122879548Y-81905500D01*
X122946587Y-81925185D01*
X122967229Y-81941819D01*
X123119762Y-82094352D01*
X123153247Y-82155675D01*
X123151856Y-82214126D01*
X123124938Y-82314586D01*
X123124936Y-82314596D01*
X123104341Y-82549999D01*
X123104341Y-82550000D01*
X123124936Y-82785403D01*
X123124938Y-82785413D01*
X123186094Y-83013655D01*
X123186096Y-83013659D01*
X123186097Y-83013663D01*
X123285965Y-83227830D01*
X123285967Y-83227834D01*
X123421501Y-83421395D01*
X123421506Y-83421402D01*
X123588597Y-83588493D01*
X123588603Y-83588498D01*
X123774158Y-83718425D01*
X123817783Y-83773002D01*
X123824977Y-83842500D01*
X123793454Y-83904855D01*
X123774158Y-83921575D01*
X123588597Y-84051505D01*
X123421505Y-84218597D01*
X123286348Y-84411623D01*
X123231771Y-84455248D01*
X123184773Y-84464500D01*
X105720452Y-84464500D01*
X105653413Y-84444815D01*
X105632771Y-84428181D01*
X96322406Y-75117815D01*
X96288921Y-75056492D01*
X96293905Y-74986800D01*
X96335777Y-74930867D01*
X96401241Y-74906450D01*
X96420886Y-74906605D01*
X96508564Y-74914276D01*
X96519999Y-74915277D01*
X96520000Y-74915277D01*
X96520002Y-74915277D01*
X96548254Y-74912805D01*
X96737977Y-74896207D01*
X96949330Y-74839575D01*
X97147639Y-74747102D01*
X97326877Y-74621598D01*
X97481598Y-74466877D01*
X97607102Y-74287639D01*
X97699575Y-74089330D01*
X97756207Y-73877977D01*
X97775277Y-73660000D01*
X97772528Y-73628583D01*
X97768941Y-73587577D01*
X97756207Y-73442023D01*
X97699575Y-73230670D01*
X97607102Y-73032362D01*
X97607099Y-73032358D01*
X97607099Y-73032357D01*
X97481599Y-72853124D01*
X97412799Y-72784324D01*
X97326877Y-72698402D01*
X97147639Y-72572898D01*
X97147640Y-72572898D01*
X97147638Y-72572897D01*
X97048484Y-72526661D01*
X96949330Y-72480425D01*
X96949326Y-72480424D01*
X96949322Y-72480422D01*
X96737977Y-72423793D01*
X96520002Y-72404723D01*
X96519998Y-72404723D01*
X96374682Y-72417436D01*
X96302023Y-72423793D01*
X96302020Y-72423793D01*
X96090677Y-72480422D01*
X96090668Y-72480426D01*
X95892361Y-72572898D01*
X95892357Y-72572900D01*
X95713121Y-72698402D01*
X95558402Y-72853121D01*
X95432900Y-73032357D01*
X95432898Y-73032361D01*
X95362382Y-73183583D01*
X95316209Y-73236022D01*
X95249016Y-73255174D01*
X95182135Y-73234958D01*
X95137618Y-73183583D01*
X95083641Y-73067830D01*
X95067102Y-73032362D01*
X95067099Y-73032358D01*
X95067099Y-73032357D01*
X94941599Y-72853124D01*
X94872799Y-72784324D01*
X94786877Y-72698402D01*
X94607639Y-72572898D01*
X94607640Y-72572898D01*
X94607638Y-72572897D01*
X94508484Y-72526661D01*
X94409330Y-72480425D01*
X94409326Y-72480424D01*
X94409322Y-72480422D01*
X94197977Y-72423793D01*
X93980002Y-72404723D01*
X93979998Y-72404723D01*
X93834681Y-72417436D01*
X93762023Y-72423793D01*
X93762020Y-72423793D01*
X93550677Y-72480422D01*
X93550668Y-72480426D01*
X93352361Y-72572898D01*
X93352357Y-72572900D01*
X93173121Y-72698402D01*
X93018402Y-72853121D01*
X92892900Y-73032357D01*
X92892898Y-73032361D01*
X92822382Y-73183583D01*
X92776209Y-73236022D01*
X92709016Y-73255174D01*
X92642135Y-73234958D01*
X92597618Y-73183583D01*
X92543641Y-73067830D01*
X92527102Y-73032362D01*
X92527099Y-73032358D01*
X92527099Y-73032357D01*
X92401599Y-72853124D01*
X92332799Y-72784324D01*
X92246877Y-72698402D01*
X92067639Y-72572898D01*
X92067640Y-72572898D01*
X92067638Y-72572897D01*
X91968484Y-72526661D01*
X91869330Y-72480425D01*
X91869326Y-72480424D01*
X91869322Y-72480422D01*
X91657977Y-72423793D01*
X91440002Y-72404723D01*
X91439998Y-72404723D01*
X91294682Y-72417436D01*
X91222023Y-72423793D01*
X91222020Y-72423793D01*
X91010677Y-72480422D01*
X91010668Y-72480426D01*
X90812361Y-72572898D01*
X90812357Y-72572900D01*
X90633121Y-72698402D01*
X90478402Y-72853121D01*
X90352900Y-73032357D01*
X90352898Y-73032361D01*
X90282382Y-73183583D01*
X90236209Y-73236022D01*
X90169016Y-73255174D01*
X90102135Y-73234958D01*
X90057618Y-73183583D01*
X90003641Y-73067830D01*
X89987102Y-73032362D01*
X89987099Y-73032358D01*
X89987099Y-73032357D01*
X89861599Y-72853124D01*
X89792799Y-72784324D01*
X89706877Y-72698402D01*
X89527639Y-72572898D01*
X89527640Y-72572898D01*
X89527638Y-72572897D01*
X89428484Y-72526661D01*
X89329330Y-72480425D01*
X89329326Y-72480424D01*
X89329322Y-72480422D01*
X89117977Y-72423793D01*
X88900002Y-72404723D01*
X88899998Y-72404723D01*
X88754682Y-72417436D01*
X88682023Y-72423793D01*
X88682020Y-72423793D01*
X88470677Y-72480422D01*
X88470668Y-72480426D01*
X88272361Y-72572898D01*
X88272357Y-72572900D01*
X88093121Y-72698402D01*
X87938402Y-72853121D01*
X87812900Y-73032357D01*
X87812900Y-73032358D01*
X87742381Y-73183584D01*
X87696208Y-73236023D01*
X87629014Y-73255174D01*
X87562133Y-73234958D01*
X87517618Y-73183584D01*
X87447102Y-73032362D01*
X87447099Y-73032358D01*
X87447099Y-73032357D01*
X87321599Y-72853124D01*
X87252799Y-72784324D01*
X87166877Y-72698402D01*
X86987639Y-72572898D01*
X86987640Y-72572898D01*
X86987638Y-72572897D01*
X86888484Y-72526661D01*
X86789330Y-72480425D01*
X86789326Y-72480424D01*
X86789322Y-72480422D01*
X86577977Y-72423793D01*
X86360002Y-72404723D01*
X86359998Y-72404723D01*
X86214682Y-72417436D01*
X86142023Y-72423793D01*
X86142020Y-72423793D01*
X85930677Y-72480422D01*
X85930668Y-72480426D01*
X85732361Y-72572898D01*
X85732357Y-72572900D01*
X85553121Y-72698402D01*
X85398402Y-72853121D01*
X85272900Y-73032357D01*
X85272898Y-73032361D01*
X85202382Y-73183583D01*
X85156209Y-73236022D01*
X85089016Y-73255174D01*
X85022135Y-73234958D01*
X84977618Y-73183583D01*
X84923641Y-73067830D01*
X84907102Y-73032362D01*
X84907099Y-73032358D01*
X84907099Y-73032357D01*
X84781599Y-72853124D01*
X84712799Y-72784324D01*
X84626877Y-72698402D01*
X84447639Y-72572898D01*
X84447640Y-72572898D01*
X84447638Y-72572897D01*
X84348484Y-72526661D01*
X84249330Y-72480425D01*
X84249326Y-72480424D01*
X84249322Y-72480422D01*
X84037977Y-72423793D01*
X83820002Y-72404723D01*
X83819998Y-72404723D01*
X83674682Y-72417436D01*
X83602023Y-72423793D01*
X83602020Y-72423793D01*
X83390677Y-72480422D01*
X83390668Y-72480426D01*
X83192361Y-72572898D01*
X83192357Y-72572900D01*
X83013121Y-72698402D01*
X82858402Y-72853121D01*
X82732900Y-73032357D01*
X82732898Y-73032361D01*
X82640426Y-73230668D01*
X82640422Y-73230677D01*
X82583793Y-73442020D01*
X82583793Y-73442024D01*
X82564723Y-73659997D01*
X82564723Y-73660002D01*
X82572217Y-73745659D01*
X82582063Y-73858208D01*
X82583793Y-73877975D01*
X82583793Y-73877979D01*
X82640422Y-74089322D01*
X82640424Y-74089326D01*
X82640425Y-74089330D01*
X82644346Y-74097738D01*
X82732897Y-74287638D01*
X82732898Y-74287639D01*
X82858402Y-74466877D01*
X83013123Y-74621598D01*
X83192361Y-74747102D01*
X83390670Y-74839575D01*
X83602023Y-74896207D01*
X83784926Y-74912208D01*
X83819998Y-74915277D01*
X83820000Y-74915277D01*
X83820002Y-74915277D01*
X83848254Y-74912805D01*
X84037977Y-74896207D01*
X84249330Y-74839575D01*
X84447639Y-74747102D01*
X84626877Y-74621598D01*
X84781598Y-74466877D01*
X84907102Y-74287639D01*
X84977618Y-74136414D01*
X85023790Y-74083977D01*
X85090984Y-74064825D01*
X85157865Y-74085041D01*
X85202381Y-74136414D01*
X85272898Y-74287639D01*
X85398402Y-74466877D01*
X85553123Y-74621598D01*
X85732361Y-74747102D01*
X85930670Y-74839575D01*
X86142023Y-74896207D01*
X86324926Y-74912208D01*
X86359998Y-74915277D01*
X86360000Y-74915277D01*
X86360002Y-74915277D01*
X86388254Y-74912805D01*
X86577977Y-74896207D01*
X86789330Y-74839575D01*
X86987639Y-74747102D01*
X87166877Y-74621598D01*
X87321598Y-74466877D01*
X87447102Y-74287639D01*
X87517618Y-74136414D01*
X87563790Y-74083977D01*
X87630984Y-74064825D01*
X87697865Y-74085041D01*
X87742381Y-74136414D01*
X87812898Y-74287639D01*
X87938402Y-74466877D01*
X88093123Y-74621598D01*
X88272361Y-74747102D01*
X88470670Y-74839575D01*
X88682023Y-74896207D01*
X88864926Y-74912208D01*
X88899998Y-74915277D01*
X88900000Y-74915277D01*
X88900002Y-74915277D01*
X88928254Y-74912805D01*
X89117977Y-74896207D01*
X89329330Y-74839575D01*
X89527639Y-74747102D01*
X89706877Y-74621598D01*
X89861598Y-74466877D01*
X89987102Y-74287639D01*
X90057618Y-74136414D01*
X90103790Y-74083977D01*
X90170984Y-74064825D01*
X90237865Y-74085041D01*
X90282381Y-74136414D01*
X90352898Y-74287639D01*
X90478402Y-74466877D01*
X90633123Y-74621598D01*
X90812361Y-74747102D01*
X91010670Y-74839575D01*
X91222023Y-74896207D01*
X91404926Y-74912208D01*
X91439998Y-74915277D01*
X91440000Y-74915277D01*
X91440002Y-74915277D01*
X91468254Y-74912805D01*
X91657977Y-74896207D01*
X91869330Y-74839575D01*
X92067639Y-74747102D01*
X92246877Y-74621598D01*
X92401598Y-74466877D01*
X92527102Y-74287639D01*
X92597618Y-74136414D01*
X92643790Y-74083977D01*
X92710984Y-74064825D01*
X92777865Y-74085041D01*
X92822381Y-74136414D01*
X92892898Y-74287639D01*
X93018402Y-74466877D01*
X93173123Y-74621598D01*
X93352361Y-74747102D01*
X93550670Y-74839575D01*
X93762023Y-74896207D01*
X93944926Y-74912208D01*
X93979998Y-74915277D01*
X93980000Y-74915277D01*
X93980002Y-74915277D01*
X94010212Y-74912633D01*
X94197977Y-74896207D01*
X94234221Y-74886495D01*
X94304071Y-74888156D01*
X94353998Y-74918588D01*
X104909197Y-85473788D01*
X104919022Y-85486051D01*
X104919243Y-85485869D01*
X104924211Y-85491874D01*
X104973932Y-85538566D01*
X104975332Y-85539923D01*
X104995523Y-85560115D01*
X104995527Y-85560118D01*
X104995529Y-85560120D01*
X105001011Y-85564373D01*
X105005443Y-85568157D01*
X105039418Y-85600062D01*
X105056976Y-85609714D01*
X105073233Y-85620393D01*
X105089064Y-85632673D01*
X105108737Y-85641186D01*
X105131833Y-85651182D01*
X105137077Y-85653750D01*
X105177908Y-85676197D01*
X105190523Y-85679435D01*
X105197305Y-85681177D01*
X105215719Y-85687481D01*
X105234104Y-85695438D01*
X105280157Y-85702732D01*
X105285826Y-85703906D01*
X105330981Y-85715500D01*
X105351016Y-85715500D01*
X105370413Y-85717026D01*
X105390196Y-85720160D01*
X105436583Y-85715775D01*
X105442422Y-85715500D01*
X118497520Y-85715500D01*
X118564559Y-85735185D01*
X118610314Y-85787989D01*
X118620258Y-85857147D01*
X118604907Y-85901500D01*
X118552821Y-85991715D01*
X118552818Y-85991722D01*
X118494327Y-86171740D01*
X118494326Y-86171744D01*
X118484626Y-86264035D01*
X118476679Y-86339649D01*
X118450094Y-86404263D01*
X118441039Y-86414368D01*
X117692228Y-87163181D01*
X117630905Y-87196666D01*
X117604547Y-87199500D01*
X95137743Y-87199500D01*
X95122122Y-87197775D01*
X95122095Y-87198061D01*
X95114333Y-87197326D01*
X95046140Y-87199469D01*
X95044193Y-87199500D01*
X95015649Y-87199500D01*
X95008778Y-87200367D01*
X95002959Y-87200825D01*
X94956374Y-87202289D01*
X94956368Y-87202290D01*
X94937126Y-87207880D01*
X94918087Y-87211823D01*
X94898217Y-87214334D01*
X94898203Y-87214337D01*
X94854883Y-87231488D01*
X94849358Y-87233380D01*
X94804613Y-87246380D01*
X94804610Y-87246381D01*
X94787366Y-87256579D01*
X94769905Y-87265133D01*
X94751274Y-87272510D01*
X94751262Y-87272517D01*
X94713570Y-87299902D01*
X94708687Y-87303109D01*
X94668580Y-87326829D01*
X94654414Y-87340995D01*
X94639624Y-87353627D01*
X94623414Y-87365404D01*
X94623411Y-87365407D01*
X94593710Y-87401309D01*
X94589777Y-87405631D01*
X94353997Y-87641411D01*
X94292674Y-87674896D01*
X94234223Y-87673505D01*
X94197977Y-87663793D01*
X93980002Y-87644723D01*
X93979998Y-87644723D01*
X93834682Y-87657436D01*
X93762023Y-87663793D01*
X93762020Y-87663793D01*
X93550677Y-87720422D01*
X93550668Y-87720426D01*
X93352361Y-87812898D01*
X93352357Y-87812900D01*
X93173121Y-87938402D01*
X93018402Y-88093121D01*
X92892900Y-88272357D01*
X92892898Y-88272361D01*
X92822382Y-88423583D01*
X92776209Y-88476022D01*
X92709016Y-88495174D01*
X92642135Y-88474958D01*
X92597618Y-88423583D01*
X92563351Y-88350098D01*
X92527102Y-88272362D01*
X92527100Y-88272359D01*
X92527099Y-88272357D01*
X92401599Y-88093124D01*
X92355189Y-88046714D01*
X92246877Y-87938402D01*
X92067639Y-87812898D01*
X92067640Y-87812898D01*
X92067638Y-87812897D01*
X91924135Y-87745981D01*
X91869330Y-87720425D01*
X91869326Y-87720424D01*
X91869322Y-87720422D01*
X91657977Y-87663793D01*
X91440002Y-87644723D01*
X91439998Y-87644723D01*
X91294682Y-87657436D01*
X91222023Y-87663793D01*
X91222021Y-87663793D01*
X91222017Y-87663794D01*
X91185774Y-87673505D01*
X91115924Y-87671841D01*
X91066001Y-87641411D01*
X90758834Y-87334244D01*
X90415803Y-86991212D01*
X90405980Y-86978950D01*
X90405759Y-86979134D01*
X90400786Y-86973122D01*
X90351066Y-86926432D01*
X90349666Y-86925075D01*
X90329476Y-86904884D01*
X90323986Y-86900625D01*
X90319561Y-86896847D01*
X90285582Y-86864938D01*
X90285580Y-86864936D01*
X90285577Y-86864935D01*
X90268029Y-86855288D01*
X90251763Y-86844604D01*
X90235933Y-86832325D01*
X90193168Y-86813818D01*
X90187922Y-86811248D01*
X90147093Y-86788803D01*
X90147092Y-86788802D01*
X90127693Y-86783822D01*
X90109281Y-86777518D01*
X90090898Y-86769562D01*
X90090892Y-86769560D01*
X90044874Y-86762272D01*
X90039152Y-86761087D01*
X89994021Y-86749500D01*
X89994019Y-86749500D01*
X89973984Y-86749500D01*
X89954586Y-86747973D01*
X89947162Y-86746797D01*
X89934805Y-86744840D01*
X89934804Y-86744840D01*
X89888416Y-86749225D01*
X89882578Y-86749500D01*
X83277738Y-86749500D01*
X83262121Y-86747776D01*
X83262094Y-86748062D01*
X83254332Y-86747327D01*
X83186172Y-86749469D01*
X83184225Y-86749500D01*
X83155650Y-86749500D01*
X83154929Y-86749590D01*
X83148757Y-86750369D01*
X83142945Y-86750826D01*
X83096373Y-86752290D01*
X83096372Y-86752290D01*
X83077129Y-86757881D01*
X83058079Y-86761825D01*
X83038211Y-86764334D01*
X82994884Y-86781488D01*
X82989358Y-86783379D01*
X82944614Y-86796379D01*
X82944610Y-86796381D01*
X82927366Y-86806579D01*
X82909905Y-86815133D01*
X82891274Y-86822510D01*
X82891262Y-86822517D01*
X82853570Y-86849902D01*
X82848687Y-86853109D01*
X82808580Y-86876829D01*
X82794414Y-86890995D01*
X82779624Y-86903627D01*
X82763414Y-86915404D01*
X82763411Y-86915407D01*
X82733710Y-86951309D01*
X82729777Y-86955631D01*
X82361211Y-87324197D01*
X82348948Y-87334022D01*
X82349131Y-87334244D01*
X82343120Y-87339216D01*
X82296432Y-87388933D01*
X82295078Y-87390330D01*
X82274889Y-87410519D01*
X82274877Y-87410532D01*
X82270621Y-87416017D01*
X82266837Y-87420447D01*
X82234937Y-87454418D01*
X82234936Y-87454420D01*
X82225284Y-87471976D01*
X82214610Y-87488226D01*
X82202329Y-87504061D01*
X82202324Y-87504068D01*
X82183815Y-87546838D01*
X82181245Y-87552084D01*
X82158803Y-87592906D01*
X82153822Y-87612307D01*
X82147521Y-87630710D01*
X82139562Y-87649102D01*
X82139561Y-87649105D01*
X82132271Y-87695127D01*
X82131087Y-87700846D01*
X82119501Y-87745972D01*
X82119500Y-87745982D01*
X82119500Y-87766016D01*
X82117973Y-87785415D01*
X82114840Y-87805194D01*
X82114840Y-87805195D01*
X82119225Y-87851583D01*
X82119500Y-87857421D01*
X82119500Y-89892255D01*
X82117775Y-89907872D01*
X82118061Y-89907899D01*
X82117326Y-89915666D01*
X82119469Y-89983846D01*
X82119500Y-89985793D01*
X82119500Y-90014343D01*
X82119501Y-90014360D01*
X82120368Y-90021231D01*
X82120826Y-90027050D01*
X82122290Y-90073624D01*
X82122291Y-90073627D01*
X82127880Y-90092867D01*
X82131824Y-90111911D01*
X82134336Y-90131792D01*
X82151490Y-90175119D01*
X82153382Y-90180647D01*
X82165411Y-90222050D01*
X82166382Y-90225390D01*
X82173500Y-90237427D01*
X82176580Y-90242634D01*
X82185138Y-90260103D01*
X82192514Y-90278732D01*
X82219898Y-90316423D01*
X82223106Y-90321307D01*
X82246827Y-90361416D01*
X82246833Y-90361424D01*
X82260990Y-90375580D01*
X82273628Y-90390376D01*
X82285405Y-90406586D01*
X82285406Y-90406587D01*
X82321309Y-90436288D01*
X82325620Y-90440210D01*
X89443514Y-97558105D01*
X91779197Y-99893788D01*
X91789022Y-99906051D01*
X91789243Y-99905869D01*
X91794211Y-99911874D01*
X91843932Y-99958566D01*
X91845332Y-99959923D01*
X91865523Y-99980115D01*
X91865527Y-99980118D01*
X91865529Y-99980120D01*
X91871011Y-99984373D01*
X91875443Y-99988157D01*
X91909418Y-100020062D01*
X91926976Y-100029714D01*
X91943235Y-100040395D01*
X91959064Y-100052673D01*
X92001838Y-100071182D01*
X92007056Y-100073738D01*
X92047908Y-100096197D01*
X92067316Y-100101180D01*
X92085717Y-100107480D01*
X92104104Y-100115437D01*
X92147488Y-100122308D01*
X92150119Y-100122725D01*
X92155839Y-100123909D01*
X92200981Y-100135500D01*
X92221016Y-100135500D01*
X92240414Y-100137026D01*
X92260194Y-100140159D01*
X92260195Y-100140160D01*
X92260195Y-100140159D01*
X92260196Y-100140160D01*
X92306583Y-100135775D01*
X92312422Y-100135500D01*
X116307257Y-100135500D01*
X116322877Y-100137224D01*
X116322904Y-100136939D01*
X116330666Y-100137673D01*
X116330666Y-100137672D01*
X116330667Y-100137673D01*
X116333999Y-100137568D01*
X116398847Y-100135531D01*
X116400794Y-100135500D01*
X116429347Y-100135500D01*
X116429350Y-100135500D01*
X116436228Y-100134630D01*
X116442041Y-100134172D01*
X116488627Y-100132709D01*
X116507869Y-100127117D01*
X116526912Y-100123174D01*
X116546792Y-100120664D01*
X116590122Y-100103507D01*
X116595646Y-100101617D01*
X116599396Y-100100527D01*
X116640390Y-100088618D01*
X116657629Y-100078422D01*
X116675103Y-100069862D01*
X116693727Y-100062488D01*
X116693727Y-100062487D01*
X116693732Y-100062486D01*
X116731449Y-100035082D01*
X116736305Y-100031892D01*
X116776420Y-100008170D01*
X116790589Y-99993999D01*
X116805379Y-99981368D01*
X116821587Y-99969594D01*
X116851299Y-99933676D01*
X116855212Y-99929376D01*
X119327770Y-97456819D01*
X119389094Y-97423334D01*
X119415452Y-97420500D01*
X119474644Y-97420500D01*
X119474646Y-97420500D01*
X119659803Y-97381144D01*
X119832730Y-97304151D01*
X119985871Y-97192888D01*
X120112533Y-97052216D01*
X120207179Y-96888284D01*
X120265674Y-96708256D01*
X120285460Y-96520000D01*
X120265674Y-96331744D01*
X120207179Y-96151716D01*
X120112533Y-95987784D01*
X119985871Y-95847112D01*
X119985870Y-95847111D01*
X119832734Y-95735851D01*
X119832729Y-95735848D01*
X119659807Y-95658857D01*
X119659802Y-95658855D01*
X119514001Y-95627865D01*
X119474646Y-95619500D01*
X119285354Y-95619500D01*
X119252897Y-95626398D01*
X119100197Y-95658855D01*
X119100192Y-95658857D01*
X118927270Y-95735848D01*
X118927265Y-95735851D01*
X118774129Y-95847111D01*
X118647466Y-95987785D01*
X118552821Y-96151715D01*
X118552818Y-96151722D01*
X118501340Y-96310156D01*
X118494326Y-96331744D01*
X118493197Y-96342489D01*
X118476679Y-96499649D01*
X118450094Y-96564263D01*
X118441039Y-96574368D01*
X116167228Y-98848181D01*
X116105905Y-98881666D01*
X116079547Y-98884500D01*
X113119452Y-98884500D01*
X113052413Y-98864815D01*
X113006658Y-98812011D01*
X112996714Y-98742853D01*
X113025739Y-98679297D01*
X113031771Y-98672819D01*
X113578004Y-98126587D01*
X114247771Y-97456819D01*
X114309095Y-97423334D01*
X114335453Y-97420500D01*
X114394644Y-97420500D01*
X114394646Y-97420500D01*
X114579803Y-97381144D01*
X114752730Y-97304151D01*
X114905871Y-97192888D01*
X115032533Y-97052216D01*
X115127179Y-96888284D01*
X115185674Y-96708256D01*
X115205460Y-96520000D01*
X115185674Y-96331744D01*
X115127179Y-96151716D01*
X115032533Y-95987784D01*
X114905871Y-95847112D01*
X114905870Y-95847111D01*
X114752734Y-95735851D01*
X114752729Y-95735848D01*
X114579807Y-95658857D01*
X114579802Y-95658855D01*
X114434000Y-95627865D01*
X114394646Y-95619500D01*
X114205354Y-95619500D01*
X114172897Y-95626398D01*
X114020197Y-95658855D01*
X114020192Y-95658857D01*
X113847270Y-95735848D01*
X113847265Y-95735851D01*
X113694129Y-95847111D01*
X113567466Y-95987785D01*
X113472821Y-96151715D01*
X113472818Y-96151722D01*
X113421340Y-96310156D01*
X113414326Y-96331744D01*
X113413197Y-96342489D01*
X113396679Y-96499649D01*
X113370094Y-96564263D01*
X113361039Y-96574368D01*
X111537228Y-98398181D01*
X111475905Y-98431666D01*
X111449547Y-98434500D01*
X104450453Y-98434500D01*
X104383414Y-98414815D01*
X104362772Y-98398181D01*
X104051931Y-98087340D01*
X104018446Y-98026017D01*
X104023430Y-97956325D01*
X104065302Y-97900392D01*
X104130766Y-97875975D01*
X104139612Y-97875659D01*
X104140001Y-97875659D01*
X104198966Y-97870500D01*
X104375408Y-97855063D01*
X104603663Y-97793903D01*
X104817830Y-97694035D01*
X105011401Y-97558495D01*
X105178495Y-97391401D01*
X105308426Y-97205841D01*
X105363002Y-97162217D01*
X105432500Y-97155023D01*
X105494855Y-97186546D01*
X105511575Y-97205842D01*
X105641500Y-97391395D01*
X105641505Y-97391401D01*
X105808599Y-97558495D01*
X105905384Y-97626265D01*
X106002165Y-97694032D01*
X106002167Y-97694033D01*
X106002170Y-97694035D01*
X106216337Y-97793903D01*
X106444592Y-97855063D01*
X106621034Y-97870500D01*
X106679999Y-97875659D01*
X106680000Y-97875659D01*
X106680001Y-97875659D01*
X106738966Y-97870500D01*
X106915408Y-97855063D01*
X107143663Y-97793903D01*
X107357830Y-97694035D01*
X107551401Y-97558495D01*
X107718495Y-97391401D01*
X107848426Y-97205840D01*
X107903001Y-97162217D01*
X107972499Y-97155023D01*
X108034854Y-97186546D01*
X108051574Y-97205841D01*
X108181505Y-97391401D01*
X108348599Y-97558495D01*
X108445384Y-97626264D01*
X108542165Y-97694032D01*
X108542167Y-97694033D01*
X108542170Y-97694035D01*
X108756337Y-97793903D01*
X108984592Y-97855063D01*
X109161034Y-97870500D01*
X109219999Y-97875659D01*
X109220000Y-97875659D01*
X109220001Y-97875659D01*
X109278966Y-97870500D01*
X109455408Y-97855063D01*
X109683663Y-97793903D01*
X109897830Y-97694035D01*
X110091401Y-97558495D01*
X110258495Y-97391401D01*
X110394035Y-97197830D01*
X110493903Y-96983663D01*
X110555063Y-96755408D01*
X110575659Y-96520000D01*
X110573878Y-96499649D01*
X110565757Y-96406818D01*
X110555063Y-96284592D01*
X110493903Y-96056337D01*
X110394035Y-95842171D01*
X110388731Y-95834595D01*
X110258494Y-95648597D01*
X110091402Y-95481506D01*
X110091395Y-95481501D01*
X109897834Y-95345967D01*
X109897830Y-95345965D01*
X109897829Y-95345964D01*
X109683663Y-95246097D01*
X109683659Y-95246096D01*
X109683655Y-95246094D01*
X109527579Y-95204275D01*
X109467918Y-95167910D01*
X109437389Y-95105064D01*
X109445683Y-95035688D01*
X109490168Y-94981810D01*
X109556720Y-94960535D01*
X109559672Y-94960500D01*
X142830354Y-94960500D01*
X142845974Y-94962224D01*
X142846001Y-94961939D01*
X142853763Y-94962673D01*
X142853763Y-94962672D01*
X142853764Y-94962673D01*
X142857096Y-94962568D01*
X142921944Y-94960531D01*
X142923891Y-94960500D01*
X142952444Y-94960500D01*
X142952447Y-94960500D01*
X142959325Y-94959630D01*
X142965138Y-94959172D01*
X143011724Y-94957709D01*
X143030966Y-94952117D01*
X143050009Y-94948174D01*
X143069889Y-94945664D01*
X143113219Y-94928507D01*
X143118743Y-94926617D01*
X143122493Y-94925527D01*
X143163487Y-94913618D01*
X143180726Y-94903422D01*
X143198200Y-94894862D01*
X143216824Y-94887488D01*
X143216824Y-94887487D01*
X143216829Y-94887486D01*
X143254546Y-94860082D01*
X143259402Y-94856892D01*
X143299517Y-94833170D01*
X143313686Y-94818999D01*
X143328476Y-94806368D01*
X143344684Y-94794594D01*
X143374396Y-94758676D01*
X143378309Y-94754376D01*
X144248787Y-93883899D01*
X144261042Y-93874083D01*
X144260859Y-93873861D01*
X144266868Y-93868888D01*
X144266877Y-93868883D01*
X144313607Y-93819119D01*
X144314846Y-93817840D01*
X144335120Y-93797568D01*
X144339379Y-93792075D01*
X144343152Y-93787658D01*
X144375062Y-93753679D01*
X144384713Y-93736121D01*
X144395396Y-93719858D01*
X144407673Y-93704033D01*
X144426185Y-93661250D01*
X144428738Y-93656038D01*
X144451197Y-93615189D01*
X144456180Y-93595777D01*
X144462481Y-93577377D01*
X144470437Y-93558993D01*
X144477729Y-93512949D01*
X144478906Y-93507268D01*
X144490500Y-93462116D01*
X144490500Y-93442080D01*
X144492027Y-93422679D01*
X144495160Y-93402901D01*
X144490775Y-93356512D01*
X144490500Y-93350674D01*
X144490500Y-82227844D01*
X148460000Y-82227844D01*
X148466401Y-82287372D01*
X148466403Y-82287379D01*
X148516645Y-82422086D01*
X148516649Y-82422093D01*
X148602809Y-82537187D01*
X148602812Y-82537190D01*
X148717906Y-82623350D01*
X148717913Y-82623354D01*
X148852620Y-82673596D01*
X148852627Y-82673598D01*
X148912155Y-82679999D01*
X148912172Y-82680000D01*
X149610000Y-82680000D01*
X149610000Y-81654189D01*
X149662547Y-81690016D01*
X149792173Y-81730000D01*
X149893724Y-81730000D01*
X149994138Y-81714865D01*
X150110000Y-81659068D01*
X150110000Y-82680000D01*
X150807828Y-82680000D01*
X150807844Y-82679999D01*
X150867372Y-82673598D01*
X150867379Y-82673596D01*
X151002086Y-82623354D01*
X151002093Y-82623350D01*
X151117187Y-82537190D01*
X151117190Y-82537187D01*
X151203350Y-82422093D01*
X151203355Y-82422084D01*
X151232075Y-82345081D01*
X151273945Y-82289147D01*
X151339409Y-82264729D01*
X151407682Y-82279580D01*
X151439484Y-82304428D01*
X151448216Y-82313913D01*
X151448219Y-82313915D01*
X151448222Y-82313918D01*
X151631365Y-82456464D01*
X151631371Y-82456468D01*
X151631374Y-82456470D01*
X151835497Y-82566936D01*
X151949487Y-82606068D01*
X152055015Y-82642297D01*
X152055017Y-82642297D01*
X152055019Y-82642298D01*
X152283951Y-82680500D01*
X152283952Y-82680500D01*
X152516048Y-82680500D01*
X152516049Y-82680500D01*
X152744981Y-82642298D01*
X152964503Y-82566936D01*
X153168626Y-82456470D01*
X153351784Y-82313913D01*
X153508979Y-82143153D01*
X153635924Y-81948849D01*
X153729157Y-81736300D01*
X153786134Y-81511305D01*
X153789701Y-81468256D01*
X153805300Y-81280006D01*
X153805300Y-81279993D01*
X153786135Y-81048702D01*
X153786133Y-81048691D01*
X153729157Y-80823699D01*
X153635924Y-80611151D01*
X153508983Y-80416852D01*
X153508980Y-80416849D01*
X153508979Y-80416847D01*
X153351784Y-80246087D01*
X153351779Y-80246083D01*
X153351777Y-80246081D01*
X153168634Y-80103535D01*
X153168628Y-80103531D01*
X152964504Y-79993064D01*
X152964495Y-79993061D01*
X152744984Y-79917702D01*
X152557404Y-79886401D01*
X152516049Y-79879500D01*
X152283951Y-79879500D01*
X152242596Y-79886401D01*
X152055015Y-79917702D01*
X151835504Y-79993061D01*
X151835495Y-79993064D01*
X151631371Y-80103531D01*
X151631365Y-80103535D01*
X151448222Y-80246081D01*
X151448215Y-80246087D01*
X151439484Y-80255572D01*
X151379595Y-80291561D01*
X151309757Y-80289458D01*
X151252143Y-80249932D01*
X151232075Y-80214918D01*
X151203355Y-80137915D01*
X151203350Y-80137906D01*
X151117190Y-80022812D01*
X151117187Y-80022809D01*
X151002093Y-79936649D01*
X151002086Y-79936645D01*
X150867379Y-79886403D01*
X150867372Y-79886401D01*
X150807844Y-79880000D01*
X150110000Y-79880000D01*
X150110000Y-80905810D01*
X150057453Y-80869984D01*
X149927827Y-80830000D01*
X149826276Y-80830000D01*
X149725862Y-80845135D01*
X149610000Y-80900931D01*
X149610000Y-79880000D01*
X148912155Y-79880000D01*
X148852627Y-79886401D01*
X148852620Y-79886403D01*
X148717913Y-79936645D01*
X148717906Y-79936649D01*
X148602812Y-80022809D01*
X148602809Y-80022812D01*
X148516649Y-80137906D01*
X148516645Y-80137913D01*
X148466403Y-80272620D01*
X148466401Y-80272627D01*
X148460000Y-80332155D01*
X148460000Y-81030000D01*
X149484722Y-81030000D01*
X149436375Y-81113740D01*
X149406190Y-81245992D01*
X149416327Y-81381265D01*
X149465887Y-81507541D01*
X149483797Y-81530000D01*
X148460000Y-81530000D01*
X148460000Y-82227844D01*
X144490500Y-82227844D01*
X144490500Y-74097738D01*
X144492223Y-74082121D01*
X144491938Y-74082094D01*
X144492672Y-74074332D01*
X144490531Y-74006171D01*
X144490500Y-74004224D01*
X144490500Y-73975651D01*
X144490500Y-73975650D01*
X144489629Y-73968759D01*
X144489172Y-73962945D01*
X144487709Y-73916372D01*
X144482122Y-73897144D01*
X144478174Y-73878084D01*
X144478161Y-73877979D01*
X144475664Y-73858208D01*
X144475663Y-73858206D01*
X144475663Y-73858204D01*
X144458512Y-73814887D01*
X144456619Y-73809358D01*
X144443618Y-73764609D01*
X144443616Y-73764606D01*
X144433423Y-73747371D01*
X144424861Y-73729894D01*
X144417487Y-73711270D01*
X144417486Y-73711268D01*
X144390079Y-73673545D01*
X144386888Y-73668686D01*
X144384059Y-73663903D01*
X144363170Y-73628580D01*
X144363168Y-73628578D01*
X144363165Y-73628574D01*
X144349006Y-73614415D01*
X144336368Y-73599619D01*
X144327619Y-73587577D01*
X144324594Y-73583413D01*
X144288688Y-73553709D01*
X144284376Y-73549786D01*
X143580236Y-72845646D01*
X143546752Y-72784324D01*
X143548143Y-72725872D01*
X143575063Y-72625408D01*
X143595659Y-72390000D01*
X143575063Y-72154592D01*
X143513903Y-71926337D01*
X143414035Y-71712171D01*
X143278495Y-71518599D01*
X143278494Y-71518597D01*
X143111402Y-71351506D01*
X143111396Y-71351501D01*
X142925842Y-71221575D01*
X142882217Y-71166998D01*
X142875023Y-71097500D01*
X142906546Y-71035145D01*
X142925842Y-71018425D01*
X142948026Y-71002891D01*
X143111401Y-70888495D01*
X143278495Y-70721401D01*
X143414035Y-70527830D01*
X143513903Y-70313663D01*
X143575063Y-70085408D01*
X143595659Y-69850000D01*
X143575063Y-69614592D01*
X143513903Y-69386337D01*
X143414035Y-69172171D01*
X143403873Y-69157657D01*
X143278494Y-68978597D01*
X143111402Y-68811506D01*
X143111396Y-68811501D01*
X142925842Y-68681575D01*
X142882217Y-68626998D01*
X142875023Y-68557500D01*
X142906546Y-68495145D01*
X142925842Y-68478425D01*
X143110421Y-68349181D01*
X143111401Y-68348495D01*
X143278495Y-68181401D01*
X143414035Y-67987830D01*
X143513903Y-67773663D01*
X143575063Y-67545408D01*
X143595659Y-67310000D01*
X143575063Y-67074592D01*
X143513903Y-66846337D01*
X143414035Y-66632171D01*
X143278495Y-66438599D01*
X143278494Y-66438597D01*
X143111402Y-66271506D01*
X143111396Y-66271501D01*
X142925842Y-66141575D01*
X142882217Y-66086998D01*
X142875023Y-66017500D01*
X142906546Y-65955145D01*
X142925842Y-65938425D01*
X143110421Y-65809181D01*
X143111401Y-65808495D01*
X143278495Y-65641401D01*
X143414035Y-65447830D01*
X143513903Y-65233663D01*
X143575063Y-65005408D01*
X143595659Y-64770000D01*
X143575063Y-64534592D01*
X143513903Y-64306337D01*
X143414035Y-64092171D01*
X143278495Y-63898599D01*
X143156567Y-63776671D01*
X143123084Y-63715351D01*
X143128068Y-63645659D01*
X143169939Y-63589725D01*
X143200915Y-63572810D01*
X143332331Y-63523796D01*
X143447546Y-63437546D01*
X143533796Y-63322331D01*
X143584091Y-63187483D01*
X143590500Y-63127873D01*
X143590499Y-61332128D01*
X143584091Y-61272517D01*
X143533886Y-61137911D01*
X143533797Y-61137671D01*
X143533793Y-61137664D01*
X143447547Y-61022455D01*
X143447544Y-61022452D01*
X143332335Y-60936206D01*
X143332328Y-60936202D01*
X143200917Y-60887189D01*
X143144983Y-60845318D01*
X143120566Y-60779853D01*
X143135418Y-60711580D01*
X143156563Y-60683332D01*
X143278495Y-60561401D01*
X143414035Y-60367830D01*
X143513903Y-60153663D01*
X143575063Y-59925408D01*
X143595659Y-59690000D01*
X143575063Y-59454592D01*
X143513903Y-59226337D01*
X143414035Y-59012171D01*
X143278495Y-58818599D01*
X143278494Y-58818597D01*
X143111402Y-58651506D01*
X143111396Y-58651501D01*
X142925842Y-58521575D01*
X142882217Y-58466998D01*
X142875023Y-58397500D01*
X142906546Y-58335145D01*
X142925842Y-58318425D01*
X142948026Y-58302891D01*
X143111401Y-58188495D01*
X143278495Y-58021401D01*
X143414035Y-57827830D01*
X143513903Y-57613663D01*
X143575063Y-57385408D01*
X143595659Y-57150000D01*
X143575063Y-56914592D01*
X143513903Y-56686337D01*
X143414035Y-56472171D01*
X143278495Y-56278599D01*
X143278494Y-56278597D01*
X143111402Y-56111506D01*
X143111396Y-56111501D01*
X142925842Y-55981575D01*
X142882217Y-55926998D01*
X142875023Y-55857500D01*
X142906546Y-55795145D01*
X142925842Y-55778425D01*
X142948026Y-55762891D01*
X143111401Y-55648495D01*
X143278495Y-55481401D01*
X143414035Y-55287830D01*
X143513903Y-55073663D01*
X143575063Y-54845408D01*
X143595659Y-54610000D01*
X143575063Y-54374592D01*
X143551819Y-54287844D01*
X148460000Y-54287844D01*
X148466401Y-54347372D01*
X148466403Y-54347379D01*
X148516645Y-54482086D01*
X148516649Y-54482093D01*
X148602809Y-54597187D01*
X148602812Y-54597190D01*
X148717906Y-54683350D01*
X148717913Y-54683354D01*
X148852620Y-54733596D01*
X148852627Y-54733598D01*
X148912155Y-54739999D01*
X148912172Y-54740000D01*
X149610000Y-54740000D01*
X149610000Y-53714189D01*
X149662547Y-53750016D01*
X149792173Y-53790000D01*
X149893724Y-53790000D01*
X149994138Y-53774865D01*
X150110000Y-53719068D01*
X150110000Y-54740000D01*
X150807828Y-54740000D01*
X150807844Y-54739999D01*
X150867372Y-54733598D01*
X150867379Y-54733596D01*
X151002086Y-54683354D01*
X151002093Y-54683350D01*
X151117187Y-54597190D01*
X151117190Y-54597187D01*
X151203350Y-54482093D01*
X151203355Y-54482084D01*
X151232075Y-54405081D01*
X151273945Y-54349147D01*
X151339409Y-54324729D01*
X151407682Y-54339580D01*
X151439484Y-54364428D01*
X151448216Y-54373913D01*
X151448219Y-54373915D01*
X151448222Y-54373918D01*
X151631365Y-54516464D01*
X151631371Y-54516468D01*
X151631374Y-54516470D01*
X151835497Y-54626936D01*
X151949487Y-54666068D01*
X152055015Y-54702297D01*
X152055017Y-54702297D01*
X152055019Y-54702298D01*
X152283951Y-54740500D01*
X152283952Y-54740500D01*
X152516048Y-54740500D01*
X152516049Y-54740500D01*
X152744981Y-54702298D01*
X152964503Y-54626936D01*
X153168626Y-54516470D01*
X153351784Y-54373913D01*
X153508979Y-54203153D01*
X153635924Y-54008849D01*
X153729157Y-53796300D01*
X153786134Y-53571305D01*
X153786135Y-53571297D01*
X153805300Y-53340006D01*
X153805300Y-53339993D01*
X153786135Y-53108702D01*
X153786133Y-53108691D01*
X153729157Y-52883699D01*
X153635924Y-52671151D01*
X153508983Y-52476852D01*
X153508980Y-52476849D01*
X153508979Y-52476847D01*
X153351784Y-52306087D01*
X153351779Y-52306083D01*
X153351777Y-52306081D01*
X153168634Y-52163535D01*
X153168628Y-52163531D01*
X152964504Y-52053064D01*
X152964495Y-52053061D01*
X152744984Y-51977702D01*
X152557404Y-51946401D01*
X152516049Y-51939500D01*
X152283951Y-51939500D01*
X152242596Y-51946401D01*
X152055015Y-51977702D01*
X151835504Y-52053061D01*
X151835495Y-52053064D01*
X151631371Y-52163531D01*
X151631365Y-52163535D01*
X151448222Y-52306081D01*
X151448215Y-52306087D01*
X151439484Y-52315572D01*
X151379595Y-52351561D01*
X151309757Y-52349458D01*
X151252143Y-52309932D01*
X151232075Y-52274918D01*
X151203355Y-52197915D01*
X151203350Y-52197906D01*
X151117190Y-52082812D01*
X151117187Y-52082809D01*
X151002093Y-51996649D01*
X151002086Y-51996645D01*
X150867379Y-51946403D01*
X150867372Y-51946401D01*
X150807844Y-51940000D01*
X150110000Y-51940000D01*
X150110000Y-52965810D01*
X150057453Y-52929984D01*
X149927827Y-52890000D01*
X149826276Y-52890000D01*
X149725862Y-52905135D01*
X149610000Y-52960931D01*
X149610000Y-51940000D01*
X148912155Y-51940000D01*
X148852627Y-51946401D01*
X148852620Y-51946403D01*
X148717913Y-51996645D01*
X148717906Y-51996649D01*
X148602812Y-52082809D01*
X148602809Y-52082812D01*
X148516649Y-52197906D01*
X148516645Y-52197913D01*
X148466403Y-52332620D01*
X148466401Y-52332627D01*
X148460000Y-52392155D01*
X148460000Y-53090000D01*
X149484722Y-53090000D01*
X149436375Y-53173740D01*
X149406190Y-53305992D01*
X149416327Y-53441265D01*
X149465887Y-53567541D01*
X149483797Y-53590000D01*
X148460000Y-53590000D01*
X148460000Y-54287844D01*
X143551819Y-54287844D01*
X143513903Y-54146337D01*
X143414035Y-53932171D01*
X143314487Y-53790000D01*
X143278494Y-53738597D01*
X143111402Y-53571506D01*
X143111396Y-53571501D01*
X142925842Y-53441575D01*
X142882217Y-53386998D01*
X142875023Y-53317500D01*
X142906546Y-53255145D01*
X142925842Y-53238425D01*
X142948026Y-53222891D01*
X143111401Y-53108495D01*
X143278495Y-52941401D01*
X143414035Y-52747830D01*
X143513903Y-52533663D01*
X143575063Y-52305408D01*
X143595659Y-52070000D01*
X143575063Y-51834592D01*
X143513903Y-51606337D01*
X143414035Y-51392171D01*
X143413789Y-51391820D01*
X143278496Y-51198600D01*
X143278495Y-51198599D01*
X143156179Y-51076283D01*
X143122696Y-51014963D01*
X143127680Y-50945271D01*
X143169551Y-50889337D01*
X143200529Y-50872422D01*
X143332086Y-50823354D01*
X143332093Y-50823350D01*
X143447187Y-50737190D01*
X143447190Y-50737187D01*
X143533350Y-50622093D01*
X143533354Y-50622086D01*
X143583596Y-50487379D01*
X143583598Y-50487372D01*
X143589999Y-50427844D01*
X143590000Y-50427827D01*
X143590000Y-49780000D01*
X142685572Y-49780000D01*
X142708682Y-49744040D01*
X142750000Y-49603327D01*
X142750000Y-49456673D01*
X142708682Y-49315960D01*
X142685572Y-49280000D01*
X143590000Y-49280000D01*
X143590000Y-48632172D01*
X143589999Y-48632155D01*
X143583598Y-48572627D01*
X143583596Y-48572620D01*
X143533354Y-48437913D01*
X143533350Y-48437906D01*
X143447190Y-48322812D01*
X143447187Y-48322809D01*
X143332093Y-48236649D01*
X143332088Y-48236646D01*
X143200528Y-48187577D01*
X143144595Y-48145705D01*
X143120178Y-48080241D01*
X143135030Y-48011968D01*
X143156175Y-47983720D01*
X143278495Y-47861401D01*
X143414035Y-47667830D01*
X143513903Y-47453663D01*
X143575063Y-47225408D01*
X143595659Y-46990000D01*
X143594044Y-46971546D01*
X143586131Y-46881098D01*
X143575063Y-46754592D01*
X143548143Y-46654125D01*
X143549806Y-46584277D01*
X143580238Y-46534351D01*
X143591691Y-46522899D01*
X143635805Y-46478785D01*
X143732774Y-46381818D01*
X143794097Y-46348334D01*
X143820454Y-46345500D01*
X157169548Y-46345500D01*
X157236587Y-46365185D01*
X157257229Y-46381819D01*
X159358181Y-48482771D01*
X159391666Y-48544094D01*
X159394500Y-48570452D01*
X159394500Y-86049546D01*
X159374815Y-86116585D01*
X159358181Y-86137227D01*
X137236208Y-108259199D01*
X137223951Y-108269020D01*
X137224134Y-108269241D01*
X137218122Y-108274214D01*
X137171432Y-108323932D01*
X137170079Y-108325329D01*
X137149889Y-108345519D01*
X137149877Y-108345532D01*
X137145621Y-108351017D01*
X137141837Y-108355447D01*
X137109937Y-108389418D01*
X137109936Y-108389420D01*
X137100284Y-108406976D01*
X137089610Y-108423226D01*
X137077329Y-108439061D01*
X137077324Y-108439068D01*
X137058815Y-108481838D01*
X137056245Y-108487084D01*
X137033803Y-108527906D01*
X137028822Y-108547307D01*
X137022521Y-108565710D01*
X137014562Y-108584102D01*
X137014561Y-108584105D01*
X137007271Y-108630127D01*
X137006087Y-108635846D01*
X136994501Y-108680972D01*
X136994500Y-108680982D01*
X136994500Y-108701016D01*
X136992973Y-108720415D01*
X136989840Y-108740194D01*
X136989840Y-108740195D01*
X136994225Y-108786583D01*
X136994500Y-108792421D01*
X136994500Y-117385500D01*
X136974815Y-117452539D01*
X136922011Y-117498294D01*
X136870500Y-117509500D01*
X135822129Y-117509500D01*
X135822123Y-117509501D01*
X135762516Y-117515908D01*
X135627671Y-117566202D01*
X135627664Y-117566206D01*
X135512455Y-117652452D01*
X135512452Y-117652455D01*
X135426206Y-117767664D01*
X135426202Y-117767671D01*
X135375908Y-117902517D01*
X135369501Y-117962116D01*
X135369501Y-117962123D01*
X135369500Y-117962135D01*
X135369500Y-121557870D01*
X135369501Y-121557876D01*
X135375908Y-121617483D01*
X135426202Y-121752328D01*
X135426206Y-121752335D01*
X135512452Y-121867544D01*
X135512455Y-121867547D01*
X135627664Y-121953793D01*
X135627671Y-121953797D01*
X135762517Y-122004091D01*
X135762516Y-122004091D01*
X135769444Y-122004835D01*
X135822127Y-122010500D01*
X139417872Y-122010499D01*
X139477483Y-122004091D01*
X139612331Y-121953796D01*
X139727546Y-121867546D01*
X139813796Y-121752331D01*
X139864091Y-121617483D01*
X139870500Y-121557873D01*
X139870499Y-119510000D01*
X141620000Y-119510000D01*
X143120000Y-119510000D01*
X143120000Y-120010000D01*
X141620001Y-120010000D01*
X141620001Y-120824197D01*
X141630400Y-120956332D01*
X141685377Y-121174519D01*
X141778428Y-121379374D01*
X141778431Y-121379380D01*
X141906559Y-121564323D01*
X141906569Y-121564335D01*
X142065664Y-121723430D01*
X142065676Y-121723440D01*
X142250619Y-121851568D01*
X142250625Y-121851571D01*
X142455480Y-121944622D01*
X142673667Y-121999599D01*
X142805810Y-122009999D01*
X143369999Y-122009999D01*
X143370000Y-122009998D01*
X143370000Y-121193686D01*
X143410156Y-121219493D01*
X143548111Y-121260000D01*
X143691889Y-121260000D01*
X143829844Y-121219493D01*
X143870000Y-121193686D01*
X143870000Y-122009999D01*
X144434182Y-122009999D01*
X144434197Y-122009998D01*
X144566332Y-121999599D01*
X144784519Y-121944622D01*
X144989374Y-121851571D01*
X144989380Y-121851568D01*
X145174323Y-121723440D01*
X145174335Y-121723430D01*
X145333430Y-121564335D01*
X145333440Y-121564323D01*
X145461568Y-121379380D01*
X145461571Y-121379374D01*
X145554622Y-121174519D01*
X145609599Y-120956332D01*
X145619999Y-120824196D01*
X145620000Y-120824184D01*
X145620000Y-120010000D01*
X144120000Y-120010000D01*
X144120000Y-119510000D01*
X145619999Y-119510000D01*
X145619999Y-118695817D01*
X145619998Y-118695802D01*
X145609599Y-118563667D01*
X145554622Y-118345480D01*
X145461571Y-118140625D01*
X145461568Y-118140619D01*
X145333440Y-117955676D01*
X145333430Y-117955664D01*
X145174335Y-117796569D01*
X145174323Y-117796559D01*
X144989380Y-117668431D01*
X144989374Y-117668428D01*
X144784519Y-117575377D01*
X144566332Y-117520400D01*
X144434196Y-117510000D01*
X143870000Y-117510000D01*
X143870000Y-118326313D01*
X143829844Y-118300507D01*
X143691889Y-118260000D01*
X143548111Y-118260000D01*
X143410156Y-118300507D01*
X143370000Y-118326313D01*
X143370000Y-117510000D01*
X142805817Y-117510000D01*
X142805802Y-117510001D01*
X142673667Y-117520400D01*
X142455480Y-117575377D01*
X142250625Y-117668428D01*
X142250619Y-117668431D01*
X142065676Y-117796559D01*
X142065664Y-117796569D01*
X141906569Y-117955664D01*
X141906559Y-117955676D01*
X141778431Y-118140619D01*
X141778428Y-118140625D01*
X141685377Y-118345480D01*
X141630400Y-118563667D01*
X141620000Y-118695803D01*
X141620000Y-119510000D01*
X139870499Y-119510000D01*
X139870499Y-117962128D01*
X139864091Y-117902517D01*
X139824571Y-117796559D01*
X139813797Y-117767671D01*
X139813793Y-117767664D01*
X139727547Y-117652455D01*
X139727544Y-117652452D01*
X139612335Y-117566206D01*
X139612328Y-117566202D01*
X139565061Y-117548573D01*
X139509127Y-117506702D01*
X139484710Y-117441238D01*
X139499562Y-117372965D01*
X139548967Y-117323559D01*
X139614972Y-117308566D01*
X139628053Y-117309261D01*
X139651349Y-117310499D01*
X139651369Y-117310499D01*
X139651378Y-117310500D01*
X139651386Y-117310500D01*
X141588614Y-117310500D01*
X141588622Y-117310500D01*
X141641241Y-117307705D01*
X141871126Y-117263245D01*
X142090190Y-117180574D01*
X142292132Y-117062070D01*
X142471142Y-116911142D01*
X142622070Y-116732132D01*
X142740574Y-116530190D01*
X142823245Y-116311126D01*
X142867705Y-116081241D01*
X142870500Y-116028622D01*
X142870500Y-114091378D01*
X142867705Y-114038759D01*
X142823245Y-113808874D01*
X142740574Y-113589810D01*
X142622070Y-113387868D01*
X142622065Y-113387861D01*
X142471143Y-113208858D01*
X142471141Y-113208856D01*
X142292138Y-113057934D01*
X142292131Y-113057929D01*
X142090189Y-112939425D01*
X141999832Y-112905326D01*
X141871126Y-112856755D01*
X141871121Y-112856754D01*
X141641243Y-112812295D01*
X141588652Y-112809501D01*
X141588629Y-112809500D01*
X141588622Y-112809500D01*
X139651378Y-112809500D01*
X139651370Y-112809500D01*
X139651347Y-112809501D01*
X139598756Y-112812295D01*
X139598755Y-112812295D01*
X139368878Y-112856754D01*
X139368876Y-112856754D01*
X139368874Y-112856755D01*
X139294933Y-112884659D01*
X139149810Y-112939425D01*
X138947868Y-113057929D01*
X138947861Y-113057934D01*
X138768858Y-113208856D01*
X138768856Y-113208858D01*
X138617934Y-113387861D01*
X138617929Y-113387868D01*
X138499426Y-113589808D01*
X138485514Y-113626675D01*
X138443427Y-113682446D01*
X138377869Y-113706610D01*
X138309654Y-113691495D01*
X138260439Y-113641899D01*
X138245500Y-113582893D01*
X138245500Y-109070451D01*
X138265185Y-109003412D01*
X138281814Y-108982775D01*
X160403786Y-86860802D01*
X160416048Y-86850980D01*
X160415865Y-86850759D01*
X160421873Y-86845788D01*
X160421877Y-86845786D01*
X160468649Y-86795977D01*
X160469891Y-86794697D01*
X160490120Y-86774470D01*
X160494370Y-86768989D01*
X160498151Y-86764561D01*
X160530062Y-86730582D01*
X160539713Y-86713024D01*
X160550396Y-86696761D01*
X160562673Y-86680936D01*
X160581183Y-86638158D01*
X160583743Y-86632932D01*
X160606197Y-86592092D01*
X160611178Y-86572687D01*
X160617482Y-86554279D01*
X160620087Y-86548259D01*
X160625438Y-86535895D01*
X160632729Y-86489853D01*
X160633908Y-86484162D01*
X160645500Y-86439019D01*
X160645500Y-86418982D01*
X160647027Y-86399582D01*
X160650160Y-86379804D01*
X160645775Y-86333415D01*
X160645500Y-86327577D01*
X160645500Y-48342737D01*
X160647224Y-48327123D01*
X160646938Y-48327096D01*
X160647672Y-48319333D01*
X160645531Y-48251170D01*
X160645500Y-48249223D01*
X160645500Y-48220651D01*
X160645500Y-48220650D01*
X160644629Y-48213759D01*
X160644172Y-48207945D01*
X160644078Y-48204968D01*
X160642709Y-48161372D01*
X160637120Y-48142137D01*
X160633174Y-48123084D01*
X160632689Y-48119243D01*
X160630664Y-48103208D01*
X160613501Y-48059859D01*
X160611614Y-48054346D01*
X160608909Y-48045037D01*
X160598617Y-48009610D01*
X160598616Y-48009608D01*
X160588421Y-47992369D01*
X160579860Y-47974893D01*
X160576666Y-47966825D01*
X160572486Y-47956268D01*
X160572486Y-47956267D01*
X160562474Y-47942488D01*
X160545083Y-47918550D01*
X160541900Y-47913705D01*
X160518170Y-47873579D01*
X160518165Y-47873573D01*
X160504005Y-47859413D01*
X160491370Y-47844620D01*
X160479593Y-47828412D01*
X160443693Y-47798713D01*
X160439381Y-47794790D01*
X157980803Y-45336211D01*
X157970980Y-45323950D01*
X157970759Y-45324134D01*
X157965786Y-45318122D01*
X157916066Y-45271432D01*
X157914666Y-45270075D01*
X157894476Y-45249884D01*
X157893144Y-45248851D01*
X157888984Y-45245624D01*
X157884561Y-45241847D01*
X157850582Y-45209938D01*
X157850580Y-45209936D01*
X157850577Y-45209935D01*
X157833029Y-45200288D01*
X157816763Y-45189604D01*
X157813780Y-45187290D01*
X157800936Y-45177327D01*
X157800935Y-45177326D01*
X157800933Y-45177325D01*
X157758168Y-45158818D01*
X157752922Y-45156248D01*
X157712093Y-45133803D01*
X157712092Y-45133802D01*
X157692693Y-45128822D01*
X157674281Y-45122518D01*
X157655898Y-45114562D01*
X157655892Y-45114560D01*
X157609874Y-45107272D01*
X157604152Y-45106087D01*
X157559021Y-45094500D01*
X157559019Y-45094500D01*
X157538984Y-45094500D01*
X157519586Y-45092973D01*
X157512162Y-45091797D01*
X157499805Y-45089840D01*
X157499804Y-45089840D01*
X157453416Y-45094225D01*
X157447578Y-45094500D01*
X143624218Y-45094500D01*
X143557179Y-45074815D01*
X143511424Y-45022011D01*
X143501480Y-44952853D01*
X143511837Y-44918094D01*
X143513900Y-44913669D01*
X143513903Y-44913663D01*
X143575063Y-44685408D01*
X143595659Y-44450000D01*
X143575063Y-44214592D01*
X143513903Y-43986337D01*
X143414035Y-43772171D01*
X143389196Y-43736696D01*
X143278494Y-43578597D01*
X143111402Y-43411506D01*
X143111395Y-43411501D01*
X143108297Y-43409332D01*
X143070040Y-43382544D01*
X142917834Y-43275967D01*
X142917830Y-43275965D01*
X142878118Y-43257447D01*
X142703663Y-43176097D01*
X142703659Y-43176096D01*
X142703655Y-43176094D01*
X142475413Y-43114938D01*
X142475403Y-43114936D01*
X142240001Y-43094341D01*
X142239999Y-43094341D01*
X142004596Y-43114936D01*
X142004586Y-43114938D01*
X141776344Y-43176094D01*
X141776335Y-43176098D01*
X141562171Y-43275964D01*
X141562169Y-43275965D01*
X141368597Y-43411505D01*
X141201505Y-43578597D01*
X141065965Y-43772169D01*
X141065964Y-43772171D01*
X140966098Y-43986335D01*
X140966094Y-43986344D01*
X140904938Y-44214586D01*
X140904936Y-44214596D01*
X140884341Y-44449999D01*
X140884341Y-44450000D01*
X140904936Y-44685403D01*
X140904938Y-44685413D01*
X140966094Y-44913655D01*
X140966096Y-44913659D01*
X140966097Y-44913663D01*
X141049426Y-45092362D01*
X141065965Y-45127830D01*
X141065967Y-45127834D01*
X141201501Y-45321395D01*
X141201506Y-45321402D01*
X141368597Y-45488493D01*
X141368603Y-45488498D01*
X141554158Y-45618425D01*
X141597783Y-45673002D01*
X141604977Y-45742500D01*
X141573454Y-45804855D01*
X141554158Y-45821575D01*
X141368597Y-45951505D01*
X141201505Y-46118597D01*
X141065965Y-46312169D01*
X141065964Y-46312171D01*
X140966098Y-46526335D01*
X140966094Y-46526344D01*
X140904938Y-46754586D01*
X140904936Y-46754596D01*
X140884341Y-46989999D01*
X140884341Y-46990000D01*
X140904936Y-47225403D01*
X140904938Y-47225413D01*
X140966094Y-47453655D01*
X140966096Y-47453659D01*
X140966097Y-47453663D01*
X141053295Y-47640660D01*
X141065965Y-47667830D01*
X141065967Y-47667834D01*
X141157610Y-47798713D01*
X141201501Y-47861396D01*
X141201506Y-47861402D01*
X141323818Y-47983714D01*
X141357303Y-48045037D01*
X141352319Y-48114729D01*
X141310447Y-48170662D01*
X141279471Y-48187577D01*
X141147912Y-48236646D01*
X141147906Y-48236649D01*
X141032812Y-48322809D01*
X141032809Y-48322812D01*
X140946649Y-48437906D01*
X140946645Y-48437913D01*
X140896403Y-48572620D01*
X140896401Y-48572627D01*
X140890000Y-48632155D01*
X140890000Y-49280000D01*
X141794428Y-49280000D01*
X141771318Y-49315960D01*
X141730000Y-49456673D01*
X141730000Y-49603327D01*
X141771318Y-49744040D01*
X141794428Y-49780000D01*
X140890000Y-49780000D01*
X140890000Y-50427844D01*
X140896401Y-50487372D01*
X140896403Y-50487379D01*
X140946645Y-50622086D01*
X140946649Y-50622093D01*
X141032809Y-50737187D01*
X141032812Y-50737190D01*
X141147906Y-50823350D01*
X141147913Y-50823354D01*
X141279470Y-50872421D01*
X141335403Y-50914292D01*
X141359821Y-50979756D01*
X141344970Y-51048029D01*
X141323819Y-51076284D01*
X141201503Y-51198600D01*
X141065965Y-51392169D01*
X141065964Y-51392171D01*
X140966098Y-51606335D01*
X140966094Y-51606344D01*
X140904938Y-51834586D01*
X140904936Y-51834596D01*
X140884341Y-52069999D01*
X140884341Y-52070000D01*
X140904936Y-52305403D01*
X140904938Y-52305413D01*
X140966094Y-52533655D01*
X140966096Y-52533659D01*
X140966097Y-52533663D01*
X141030209Y-52671151D01*
X141065965Y-52747830D01*
X141065967Y-52747834D01*
X141201501Y-52941395D01*
X141201506Y-52941402D01*
X141368597Y-53108493D01*
X141368603Y-53108498D01*
X141554158Y-53238425D01*
X141597783Y-53293002D01*
X141604977Y-53362500D01*
X141573454Y-53424855D01*
X141554158Y-53441575D01*
X141368597Y-53571505D01*
X141201505Y-53738597D01*
X141065965Y-53932169D01*
X141065964Y-53932171D01*
X140966098Y-54146335D01*
X140966094Y-54146344D01*
X140904938Y-54374586D01*
X140904936Y-54374596D01*
X140884341Y-54609999D01*
X140884341Y-54610000D01*
X140904936Y-54845403D01*
X140904938Y-54845413D01*
X140966094Y-55073655D01*
X140966096Y-55073659D01*
X140966097Y-55073663D01*
X141065965Y-55287830D01*
X141065967Y-55287834D01*
X141201501Y-55481395D01*
X141201506Y-55481402D01*
X141368597Y-55648493D01*
X141368603Y-55648498D01*
X141554158Y-55778425D01*
X141597783Y-55833002D01*
X141604977Y-55902500D01*
X141573454Y-55964855D01*
X141554158Y-55981575D01*
X141368597Y-56111505D01*
X141201505Y-56278597D01*
X141065965Y-56472169D01*
X141065964Y-56472171D01*
X140966098Y-56686335D01*
X140966094Y-56686344D01*
X140904938Y-56914586D01*
X140904936Y-56914596D01*
X140884341Y-57149999D01*
X140884341Y-57150000D01*
X140904936Y-57385403D01*
X140904938Y-57385413D01*
X140966094Y-57613655D01*
X140966096Y-57613659D01*
X140966097Y-57613663D01*
X141065965Y-57827830D01*
X141065967Y-57827834D01*
X141201501Y-58021395D01*
X141201506Y-58021402D01*
X141368597Y-58188493D01*
X141368603Y-58188498D01*
X141554158Y-58318425D01*
X141597783Y-58373002D01*
X141604977Y-58442500D01*
X141573454Y-58504855D01*
X141554158Y-58521575D01*
X141368597Y-58651505D01*
X141201505Y-58818597D01*
X141065965Y-59012169D01*
X141065964Y-59012171D01*
X140966098Y-59226335D01*
X140966094Y-59226344D01*
X140904938Y-59454586D01*
X140904936Y-59454596D01*
X140884341Y-59689999D01*
X140884341Y-59690000D01*
X140904936Y-59925403D01*
X140904938Y-59925413D01*
X140966094Y-60153655D01*
X140966096Y-60153659D01*
X140966097Y-60153663D01*
X141059778Y-60354562D01*
X141065965Y-60367830D01*
X141065967Y-60367834D01*
X141145789Y-60481830D01*
X141201501Y-60561396D01*
X141201506Y-60561402D01*
X141323430Y-60683326D01*
X141356915Y-60744649D01*
X141351931Y-60814341D01*
X141310059Y-60870274D01*
X141279083Y-60887189D01*
X141147669Y-60936203D01*
X141147664Y-60936206D01*
X141032455Y-61022452D01*
X141032452Y-61022455D01*
X140946206Y-61137664D01*
X140946202Y-61137671D01*
X140895908Y-61272517D01*
X140889501Y-61332116D01*
X140889501Y-61332123D01*
X140889500Y-61332135D01*
X140889500Y-63127870D01*
X140889501Y-63127876D01*
X140895908Y-63187483D01*
X140946202Y-63322328D01*
X140946206Y-63322335D01*
X141032452Y-63437544D01*
X141032455Y-63437547D01*
X141147664Y-63523793D01*
X141147671Y-63523797D01*
X141279081Y-63572810D01*
X141335015Y-63614681D01*
X141359432Y-63680145D01*
X141344580Y-63748418D01*
X141323430Y-63776673D01*
X141201503Y-63898600D01*
X141065965Y-64092169D01*
X141065964Y-64092171D01*
X140966098Y-64306335D01*
X140966094Y-64306344D01*
X140904938Y-64534586D01*
X140904936Y-64534596D01*
X140884341Y-64769999D01*
X140884341Y-64770000D01*
X140904936Y-65005403D01*
X140904938Y-65005413D01*
X140966094Y-65233655D01*
X140966096Y-65233659D01*
X140966097Y-65233663D01*
X141065965Y-65447829D01*
X141065965Y-65447830D01*
X141065967Y-65447834D01*
X141174281Y-65602521D01*
X141201501Y-65641396D01*
X141201506Y-65641402D01*
X141368597Y-65808493D01*
X141368603Y-65808498D01*
X141554158Y-65938425D01*
X141597783Y-65993002D01*
X141604977Y-66062500D01*
X141573454Y-66124855D01*
X141554158Y-66141575D01*
X141368597Y-66271505D01*
X141201505Y-66438597D01*
X141065965Y-66632169D01*
X141065964Y-66632171D01*
X140966098Y-66846335D01*
X140966094Y-66846344D01*
X140904938Y-67074586D01*
X140904936Y-67074596D01*
X140884341Y-67309999D01*
X140884341Y-67310000D01*
X140904936Y-67545403D01*
X140904938Y-67545413D01*
X140966094Y-67773655D01*
X140966096Y-67773659D01*
X140966097Y-67773663D01*
X141018090Y-67885162D01*
X141065965Y-67987830D01*
X141065967Y-67987834D01*
X141201501Y-68181395D01*
X141201506Y-68181402D01*
X141368597Y-68348493D01*
X141368603Y-68348498D01*
X141554158Y-68478425D01*
X141597783Y-68533002D01*
X141604977Y-68602500D01*
X141573454Y-68664855D01*
X141554158Y-68681575D01*
X141368597Y-68811505D01*
X141201505Y-68978597D01*
X141065965Y-69172169D01*
X141065964Y-69172171D01*
X140966098Y-69386335D01*
X140966094Y-69386344D01*
X140904938Y-69614586D01*
X140904936Y-69614596D01*
X140884341Y-69849999D01*
X140884341Y-69850000D01*
X140904936Y-70085403D01*
X140904938Y-70085413D01*
X140966094Y-70313655D01*
X140966096Y-70313659D01*
X140966097Y-70313663D01*
X141041563Y-70475500D01*
X141065965Y-70527830D01*
X141065967Y-70527834D01*
X141201501Y-70721395D01*
X141201506Y-70721402D01*
X141368597Y-70888493D01*
X141368603Y-70888498D01*
X141554158Y-71018425D01*
X141597783Y-71073002D01*
X141604977Y-71142500D01*
X141573454Y-71204855D01*
X141554158Y-71221575D01*
X141368597Y-71351505D01*
X141201505Y-71518597D01*
X141065965Y-71712169D01*
X141065964Y-71712171D01*
X140966098Y-71926335D01*
X140966094Y-71926344D01*
X140904938Y-72154586D01*
X140904936Y-72154596D01*
X140884341Y-72389999D01*
X140884341Y-72390000D01*
X140904936Y-72625403D01*
X140904938Y-72625413D01*
X140966094Y-72853655D01*
X140966096Y-72853659D01*
X140966097Y-72853663D01*
X141049426Y-73032362D01*
X141065965Y-73067830D01*
X141065967Y-73067834D01*
X141201501Y-73261395D01*
X141201506Y-73261402D01*
X141323818Y-73383714D01*
X141357303Y-73445037D01*
X141352319Y-73514729D01*
X141310447Y-73570662D01*
X141279471Y-73587577D01*
X141147912Y-73636646D01*
X141147906Y-73636649D01*
X141032812Y-73722809D01*
X141032809Y-73722812D01*
X140946649Y-73837906D01*
X140946645Y-73837913D01*
X140896403Y-73972620D01*
X140896401Y-73972627D01*
X140890000Y-74032155D01*
X140890000Y-74680000D01*
X141794428Y-74680000D01*
X141771318Y-74715960D01*
X141730000Y-74856673D01*
X141730000Y-75003327D01*
X141771318Y-75144040D01*
X141794428Y-75180000D01*
X140890000Y-75180000D01*
X140854976Y-75215024D01*
X140793652Y-75248508D01*
X140723961Y-75243523D01*
X140679614Y-75215023D01*
X126040803Y-60576212D01*
X126030980Y-60563950D01*
X126030759Y-60564134D01*
X126025786Y-60558122D01*
X125976066Y-60511432D01*
X125974666Y-60510075D01*
X125954476Y-60489884D01*
X125948986Y-60485625D01*
X125944561Y-60481847D01*
X125910582Y-60449938D01*
X125910580Y-60449936D01*
X125910577Y-60449935D01*
X125893029Y-60440288D01*
X125876763Y-60429604D01*
X125860933Y-60417325D01*
X125818168Y-60398818D01*
X125812922Y-60396248D01*
X125765257Y-60370045D01*
X125766372Y-60368015D01*
X125720451Y-60332177D01*
X125697355Y-60266235D01*
X125708810Y-60207474D01*
X125733903Y-60153663D01*
X125795063Y-59925408D01*
X125815659Y-59690000D01*
X125795063Y-59454592D01*
X125733903Y-59226337D01*
X125634035Y-59012171D01*
X125498495Y-58818599D01*
X125498494Y-58818597D01*
X125331402Y-58651506D01*
X125331396Y-58651501D01*
X125145842Y-58521575D01*
X125102217Y-58466998D01*
X125095023Y-58397500D01*
X125126546Y-58335145D01*
X125145842Y-58318425D01*
X125168026Y-58302891D01*
X125331401Y-58188495D01*
X125498495Y-58021401D01*
X125634035Y-57827830D01*
X125733903Y-57613663D01*
X125795063Y-57385408D01*
X125815659Y-57150000D01*
X125795063Y-56914592D01*
X125733903Y-56686337D01*
X125634035Y-56472171D01*
X125498495Y-56278599D01*
X125498494Y-56278597D01*
X125331402Y-56111506D01*
X125331396Y-56111501D01*
X125145842Y-55981575D01*
X125102217Y-55926998D01*
X125095023Y-55857500D01*
X125126546Y-55795145D01*
X125145842Y-55778425D01*
X125168026Y-55762891D01*
X125331401Y-55648495D01*
X125498495Y-55481401D01*
X125634035Y-55287830D01*
X125733903Y-55073663D01*
X125795063Y-54845408D01*
X125815659Y-54610000D01*
X125795063Y-54374592D01*
X125733903Y-54146337D01*
X125634035Y-53932171D01*
X125534487Y-53790000D01*
X125498494Y-53738597D01*
X125331402Y-53571506D01*
X125331396Y-53571501D01*
X125145842Y-53441575D01*
X125102217Y-53386998D01*
X125095023Y-53317500D01*
X125126546Y-53255145D01*
X125145842Y-53238425D01*
X125168026Y-53222891D01*
X125331401Y-53108495D01*
X125498495Y-52941401D01*
X125634035Y-52747830D01*
X125733903Y-52533663D01*
X125795063Y-52305408D01*
X125815659Y-52070000D01*
X125795063Y-51834592D01*
X125733903Y-51606337D01*
X125634035Y-51392171D01*
X125633789Y-51391820D01*
X125498496Y-51198600D01*
X125498495Y-51198599D01*
X125376179Y-51076283D01*
X125342696Y-51014963D01*
X125347680Y-50945271D01*
X125389551Y-50889337D01*
X125420529Y-50872422D01*
X125552086Y-50823354D01*
X125552093Y-50823350D01*
X125667187Y-50737190D01*
X125667190Y-50737187D01*
X125753350Y-50622093D01*
X125753354Y-50622086D01*
X125803596Y-50487379D01*
X125803598Y-50487372D01*
X125809999Y-50427844D01*
X125810000Y-50427827D01*
X125810000Y-49780000D01*
X124905572Y-49780000D01*
X124928682Y-49744040D01*
X124970000Y-49603327D01*
X124970000Y-49456673D01*
X124928682Y-49315960D01*
X124905572Y-49280000D01*
X125810000Y-49280000D01*
X125810000Y-48632172D01*
X125809999Y-48632155D01*
X125803598Y-48572627D01*
X125803596Y-48572620D01*
X125753354Y-48437913D01*
X125753350Y-48437906D01*
X125667190Y-48322812D01*
X125667187Y-48322809D01*
X125552093Y-48236649D01*
X125552088Y-48236646D01*
X125420528Y-48187577D01*
X125364595Y-48145705D01*
X125340178Y-48080241D01*
X125355030Y-48011968D01*
X125376175Y-47983720D01*
X125498495Y-47861401D01*
X125634035Y-47667830D01*
X125661004Y-47609995D01*
X129669722Y-47609995D01*
X129669723Y-47610003D01*
X129671688Y-47632470D01*
X129671862Y-47640660D01*
X129670709Y-47666324D01*
X129670710Y-47666328D01*
X129681641Y-47747031D01*
X129681966Y-47749949D01*
X129688792Y-47827972D01*
X129688795Y-47827987D01*
X129695482Y-47852941D01*
X129697034Y-47860670D01*
X129700924Y-47889381D01*
X129700926Y-47889392D01*
X129725075Y-47963713D01*
X129725997Y-47966825D01*
X129745423Y-48039324D01*
X129745427Y-48039336D01*
X129757736Y-48065732D01*
X129760512Y-48072779D01*
X129770483Y-48103464D01*
X129805970Y-48169411D01*
X129807558Y-48172576D01*
X129837898Y-48237639D01*
X129856288Y-48263903D01*
X129856490Y-48264191D01*
X129860303Y-48270378D01*
X129877146Y-48301678D01*
X129877152Y-48301687D01*
X129921792Y-48357663D01*
X129924106Y-48360758D01*
X129950510Y-48398465D01*
X129963402Y-48416877D01*
X129963405Y-48416880D01*
X129988646Y-48442121D01*
X129993283Y-48447309D01*
X130017492Y-48477666D01*
X130068959Y-48522632D01*
X130072008Y-48525483D01*
X130118116Y-48571592D01*
X130118122Y-48571597D01*
X130118123Y-48571598D01*
X130119583Y-48572620D01*
X130150055Y-48593957D01*
X130155290Y-48598057D01*
X130187004Y-48625765D01*
X130187013Y-48625771D01*
X130242849Y-48659131D01*
X130246613Y-48661568D01*
X130297359Y-48697101D01*
X130297364Y-48697104D01*
X130319917Y-48707620D01*
X130335677Y-48714969D01*
X130341271Y-48717935D01*
X130378349Y-48740088D01*
X130380236Y-48741215D01*
X130398828Y-48748192D01*
X130438083Y-48762925D01*
X130442503Y-48764782D01*
X130495670Y-48789575D01*
X130495674Y-48789577D01*
X130526069Y-48797720D01*
X130539677Y-48801366D01*
X130545413Y-48803207D01*
X130562264Y-48809531D01*
X130590976Y-48820307D01*
X130648545Y-48830754D01*
X130653511Y-48831868D01*
X130707023Y-48846207D01*
X130755689Y-48850464D01*
X130761306Y-48851218D01*
X130812453Y-48860500D01*
X130867691Y-48860500D01*
X130873092Y-48860735D01*
X130901548Y-48863225D01*
X130924998Y-48865277D01*
X130925000Y-48865277D01*
X130976694Y-48860754D01*
X130979284Y-48860583D01*
X130981121Y-48860500D01*
X130981155Y-48860500D01*
X131034217Y-48855724D01*
X131035173Y-48855638D01*
X131035180Y-48855724D01*
X131035477Y-48855611D01*
X131142977Y-48846207D01*
X131143000Y-48846200D01*
X131143475Y-48846117D01*
X131148713Y-48845419D01*
X131149188Y-48845377D01*
X131252997Y-48816726D01*
X131354330Y-48789575D01*
X131354334Y-48789572D01*
X131361254Y-48787053D01*
X131365948Y-48785554D01*
X131366170Y-48785493D01*
X131366181Y-48785487D01*
X131366183Y-48785487D01*
X131379202Y-48779216D01*
X131460454Y-48740088D01*
X131552639Y-48697102D01*
X131552648Y-48697095D01*
X131557327Y-48694395D01*
X131557400Y-48694522D01*
X131568164Y-48688218D01*
X131568973Y-48687829D01*
X131651156Y-48628118D01*
X131731877Y-48571598D01*
X131732747Y-48570727D01*
X131747550Y-48558084D01*
X131751078Y-48555522D01*
X131818674Y-48484820D01*
X131819562Y-48483911D01*
X131886598Y-48416877D01*
X131889285Y-48413039D01*
X131901239Y-48398465D01*
X131906629Y-48392828D01*
X131906628Y-48392828D01*
X131906632Y-48392825D01*
X131958746Y-48313873D01*
X131959596Y-48312623D01*
X132012102Y-48237639D01*
X132015543Y-48230259D01*
X132024432Y-48214364D01*
X132030635Y-48204968D01*
X132066507Y-48121038D01*
X132067284Y-48119297D01*
X132104575Y-48039330D01*
X132107570Y-48028148D01*
X132113325Y-48011505D01*
X132114136Y-48009608D01*
X132119103Y-47997988D01*
X132120386Y-47992369D01*
X132138675Y-47912235D01*
X132139233Y-47909983D01*
X132144126Y-47891722D01*
X132161207Y-47827977D01*
X132162887Y-47808766D01*
X132164206Y-47800377D01*
X132165483Y-47794780D01*
X132169191Y-47778537D01*
X132172992Y-47693871D01*
X132173158Y-47691363D01*
X132180277Y-47610003D01*
X134519723Y-47610003D01*
X134521688Y-47632470D01*
X134521862Y-47640660D01*
X134520709Y-47666324D01*
X134520710Y-47666328D01*
X134531641Y-47747031D01*
X134531966Y-47749949D01*
X134538792Y-47827972D01*
X134538795Y-47827987D01*
X134545482Y-47852941D01*
X134547034Y-47860670D01*
X134550924Y-47889381D01*
X134550926Y-47889392D01*
X134575075Y-47963713D01*
X134575997Y-47966825D01*
X134595423Y-48039324D01*
X134595427Y-48039336D01*
X134607736Y-48065732D01*
X134610512Y-48072779D01*
X134620483Y-48103464D01*
X134655970Y-48169411D01*
X134657558Y-48172576D01*
X134687898Y-48237639D01*
X134706288Y-48263903D01*
X134706490Y-48264191D01*
X134710303Y-48270378D01*
X134727146Y-48301678D01*
X134727152Y-48301687D01*
X134771792Y-48357663D01*
X134774106Y-48360758D01*
X134800510Y-48398465D01*
X134813402Y-48416877D01*
X134813405Y-48416880D01*
X134838646Y-48442121D01*
X134843283Y-48447309D01*
X134867492Y-48477666D01*
X134918959Y-48522632D01*
X134922008Y-48525483D01*
X134968116Y-48571592D01*
X134968122Y-48571597D01*
X134968123Y-48571598D01*
X134969583Y-48572620D01*
X135000055Y-48593957D01*
X135005290Y-48598057D01*
X135037004Y-48625765D01*
X135037013Y-48625771D01*
X135092849Y-48659131D01*
X135096613Y-48661568D01*
X135147359Y-48697101D01*
X135147364Y-48697104D01*
X135169917Y-48707620D01*
X135185677Y-48714969D01*
X135191271Y-48717935D01*
X135228349Y-48740088D01*
X135230236Y-48741215D01*
X135248828Y-48748192D01*
X135288083Y-48762925D01*
X135292503Y-48764782D01*
X135345670Y-48789575D01*
X135345674Y-48789577D01*
X135376069Y-48797720D01*
X135389677Y-48801366D01*
X135395413Y-48803207D01*
X135412264Y-48809531D01*
X135440976Y-48820307D01*
X135498545Y-48830754D01*
X135503511Y-48831868D01*
X135557023Y-48846207D01*
X135605689Y-48850464D01*
X135611306Y-48851218D01*
X135662453Y-48860500D01*
X135717691Y-48860500D01*
X135723092Y-48860735D01*
X135751548Y-48863225D01*
X135774998Y-48865277D01*
X135775000Y-48865277D01*
X135826694Y-48860754D01*
X135829284Y-48860583D01*
X135831121Y-48860500D01*
X135831155Y-48860500D01*
X135884217Y-48855724D01*
X135885173Y-48855638D01*
X135885180Y-48855724D01*
X135885477Y-48855611D01*
X135992977Y-48846207D01*
X135993000Y-48846200D01*
X135993475Y-48846117D01*
X135998713Y-48845419D01*
X135999188Y-48845377D01*
X136102997Y-48816726D01*
X136204330Y-48789575D01*
X136204334Y-48789572D01*
X136211254Y-48787053D01*
X136215948Y-48785554D01*
X136216170Y-48785493D01*
X136216181Y-48785487D01*
X136216183Y-48785487D01*
X136229202Y-48779216D01*
X136310454Y-48740088D01*
X136402639Y-48697102D01*
X136402648Y-48697095D01*
X136407327Y-48694395D01*
X136407400Y-48694522D01*
X136418164Y-48688218D01*
X136418973Y-48687829D01*
X136501156Y-48628118D01*
X136581877Y-48571598D01*
X136582747Y-48570727D01*
X136597550Y-48558084D01*
X136601078Y-48555522D01*
X136668674Y-48484820D01*
X136669562Y-48483911D01*
X136736598Y-48416877D01*
X136739285Y-48413039D01*
X136751239Y-48398465D01*
X136756629Y-48392828D01*
X136756628Y-48392828D01*
X136756632Y-48392825D01*
X136808746Y-48313873D01*
X136809596Y-48312623D01*
X136862102Y-48237639D01*
X136865543Y-48230259D01*
X136874432Y-48214364D01*
X136880635Y-48204968D01*
X136916507Y-48121038D01*
X136917284Y-48119297D01*
X136954575Y-48039330D01*
X136957570Y-48028148D01*
X136963325Y-48011505D01*
X136964136Y-48009608D01*
X136969103Y-47997988D01*
X136970386Y-47992369D01*
X136988675Y-47912235D01*
X136989233Y-47909983D01*
X136994126Y-47891722D01*
X137011207Y-47827977D01*
X137012887Y-47808766D01*
X137014206Y-47800377D01*
X137015483Y-47794780D01*
X137019191Y-47778537D01*
X137022992Y-47693871D01*
X137023158Y-47691363D01*
X137030277Y-47610000D01*
X137028310Y-47587528D01*
X137028137Y-47579334D01*
X137029290Y-47553670D01*
X137018353Y-47472939D01*
X137018034Y-47470067D01*
X137011207Y-47392023D01*
X137004515Y-47367053D01*
X137002963Y-47359322D01*
X137002603Y-47356666D01*
X136999075Y-47330613D01*
X136974921Y-47256276D01*
X136973998Y-47253161D01*
X136954576Y-47180673D01*
X136942266Y-47154274D01*
X136939488Y-47147222D01*
X136929519Y-47116541D01*
X136929517Y-47116537D01*
X136929517Y-47116536D01*
X136916988Y-47093253D01*
X136894027Y-47050583D01*
X136892432Y-47047405D01*
X136884013Y-47029350D01*
X136862102Y-46982362D01*
X136843512Y-46955813D01*
X136839698Y-46949625D01*
X136835319Y-46941488D01*
X136822852Y-46918319D01*
X136778192Y-46862318D01*
X136775896Y-46859247D01*
X136736598Y-46803123D01*
X136711353Y-46777878D01*
X136706715Y-46772689D01*
X136695912Y-46759142D01*
X136682508Y-46742334D01*
X136675405Y-46736128D01*
X136631039Y-46697366D01*
X136627990Y-46694515D01*
X136581878Y-46648402D01*
X136549940Y-46626039D01*
X136544705Y-46621939D01*
X136512996Y-46594235D01*
X136512994Y-46594233D01*
X136512992Y-46594232D01*
X136457149Y-46560868D01*
X136453386Y-46558431D01*
X136402641Y-46522899D01*
X136364333Y-46505035D01*
X136358735Y-46502067D01*
X136319769Y-46478787D01*
X136319767Y-46478786D01*
X136261928Y-46457079D01*
X136257515Y-46455226D01*
X136204330Y-46430425D01*
X136160321Y-46418632D01*
X136154581Y-46416790D01*
X136109025Y-46399692D01*
X136051456Y-46389245D01*
X136046480Y-46388128D01*
X135992977Y-46373793D01*
X135944327Y-46369536D01*
X135938659Y-46368775D01*
X135887551Y-46359500D01*
X135887547Y-46359500D01*
X135832309Y-46359500D01*
X135826907Y-46359264D01*
X135798451Y-46356774D01*
X135775002Y-46354723D01*
X135774997Y-46354723D01*
X135723351Y-46359241D01*
X135720746Y-46359414D01*
X135718849Y-46359499D01*
X135664764Y-46364366D01*
X135557020Y-46373793D01*
X135556468Y-46373891D01*
X135551275Y-46374581D01*
X135550812Y-46374622D01*
X135550809Y-46374623D01*
X135462706Y-46398938D01*
X135447056Y-46403257D01*
X135345666Y-46430425D01*
X135338739Y-46432946D01*
X135334050Y-46434444D01*
X135333849Y-46434499D01*
X135333836Y-46434504D01*
X135239551Y-46479907D01*
X135147359Y-46522899D01*
X135142670Y-46525606D01*
X135142598Y-46525481D01*
X135131871Y-46531764D01*
X135131031Y-46532168D01*
X135048788Y-46591919D01*
X134968121Y-46648403D01*
X134967241Y-46649284D01*
X134952461Y-46661906D01*
X134948928Y-46664472D01*
X134948921Y-46664478D01*
X134881366Y-46735134D01*
X134880395Y-46736128D01*
X134813402Y-46803121D01*
X134810711Y-46806965D01*
X134798773Y-46821521D01*
X134793368Y-46827174D01*
X134771160Y-46860818D01*
X134741281Y-46906080D01*
X134740367Y-46907426D01*
X134728529Y-46924334D01*
X134687901Y-46982357D01*
X134687891Y-46982374D01*
X134684457Y-46989738D01*
X134675572Y-47005628D01*
X134669363Y-47015034D01*
X134633498Y-47098944D01*
X134632679Y-47100778D01*
X134595426Y-47180664D01*
X134595424Y-47180671D01*
X134592425Y-47191860D01*
X134586681Y-47208475D01*
X134580899Y-47222005D01*
X134580896Y-47222014D01*
X134561318Y-47307789D01*
X134560760Y-47310038D01*
X134538793Y-47392022D01*
X134538793Y-47392023D01*
X134537112Y-47411226D01*
X134535793Y-47419625D01*
X134530809Y-47441459D01*
X134530809Y-47441464D01*
X134527007Y-47526088D01*
X134526834Y-47528708D01*
X134519723Y-47609995D01*
X134519723Y-47610003D01*
X132180277Y-47610003D01*
X132180277Y-47610000D01*
X132178310Y-47587528D01*
X132178137Y-47579334D01*
X132179290Y-47553670D01*
X132168353Y-47472939D01*
X132168034Y-47470067D01*
X132161207Y-47392023D01*
X132154515Y-47367053D01*
X132152963Y-47359322D01*
X132152603Y-47356666D01*
X132149075Y-47330613D01*
X132124921Y-47256276D01*
X132123998Y-47253161D01*
X132104576Y-47180673D01*
X132092266Y-47154274D01*
X132089488Y-47147222D01*
X132079519Y-47116541D01*
X132079517Y-47116537D01*
X132079517Y-47116536D01*
X132066988Y-47093253D01*
X132044027Y-47050583D01*
X132042432Y-47047405D01*
X132034013Y-47029350D01*
X132012102Y-46982362D01*
X131993512Y-46955813D01*
X131989698Y-46949625D01*
X131985319Y-46941488D01*
X131972852Y-46918319D01*
X131928192Y-46862318D01*
X131925896Y-46859247D01*
X131886598Y-46803123D01*
X131861353Y-46777878D01*
X131856715Y-46772689D01*
X131845912Y-46759142D01*
X131832508Y-46742334D01*
X131825405Y-46736128D01*
X131781039Y-46697366D01*
X131777990Y-46694515D01*
X131731878Y-46648402D01*
X131699940Y-46626039D01*
X131694705Y-46621939D01*
X131662996Y-46594235D01*
X131662994Y-46594233D01*
X131662992Y-46594232D01*
X131607149Y-46560868D01*
X131603386Y-46558431D01*
X131552641Y-46522899D01*
X131514333Y-46505035D01*
X131508735Y-46502067D01*
X131469769Y-46478787D01*
X131469767Y-46478786D01*
X131411928Y-46457079D01*
X131407515Y-46455226D01*
X131354330Y-46430425D01*
X131310321Y-46418632D01*
X131304581Y-46416790D01*
X131259025Y-46399692D01*
X131201456Y-46389245D01*
X131196480Y-46388128D01*
X131142977Y-46373793D01*
X131094327Y-46369536D01*
X131088659Y-46368775D01*
X131037551Y-46359500D01*
X131037547Y-46359500D01*
X130982309Y-46359500D01*
X130976907Y-46359264D01*
X130948451Y-46356774D01*
X130925002Y-46354723D01*
X130924997Y-46354723D01*
X130873351Y-46359241D01*
X130870746Y-46359414D01*
X130868849Y-46359499D01*
X130814764Y-46364366D01*
X130707020Y-46373793D01*
X130706468Y-46373891D01*
X130701275Y-46374581D01*
X130700812Y-46374622D01*
X130700809Y-46374623D01*
X130612706Y-46398938D01*
X130597056Y-46403257D01*
X130495666Y-46430425D01*
X130488739Y-46432946D01*
X130484050Y-46434444D01*
X130483849Y-46434499D01*
X130483836Y-46434504D01*
X130389551Y-46479907D01*
X130297359Y-46522899D01*
X130292670Y-46525606D01*
X130292598Y-46525481D01*
X130281871Y-46531764D01*
X130281031Y-46532168D01*
X130198788Y-46591919D01*
X130118121Y-46648403D01*
X130117241Y-46649284D01*
X130102461Y-46661906D01*
X130098928Y-46664472D01*
X130098921Y-46664478D01*
X130031366Y-46735134D01*
X130030395Y-46736128D01*
X129963402Y-46803121D01*
X129960711Y-46806965D01*
X129948773Y-46821521D01*
X129943368Y-46827174D01*
X129921160Y-46860818D01*
X129891281Y-46906080D01*
X129890367Y-46907426D01*
X129878529Y-46924334D01*
X129837901Y-46982357D01*
X129837891Y-46982374D01*
X129834457Y-46989738D01*
X129825572Y-47005628D01*
X129819363Y-47015034D01*
X129783498Y-47098944D01*
X129782679Y-47100778D01*
X129745426Y-47180664D01*
X129745424Y-47180671D01*
X129742425Y-47191860D01*
X129736681Y-47208475D01*
X129730899Y-47222005D01*
X129730896Y-47222014D01*
X129711318Y-47307789D01*
X129710760Y-47310038D01*
X129688793Y-47392022D01*
X129688793Y-47392023D01*
X129687112Y-47411226D01*
X129685793Y-47419625D01*
X129680809Y-47441459D01*
X129680809Y-47441464D01*
X129677007Y-47526088D01*
X129676834Y-47528708D01*
X129669722Y-47609995D01*
X125661004Y-47609995D01*
X125733903Y-47453663D01*
X125795063Y-47225408D01*
X125815659Y-46990000D01*
X125814044Y-46971546D01*
X125806131Y-46881098D01*
X125795063Y-46754592D01*
X125743155Y-46560868D01*
X125733905Y-46526344D01*
X125733904Y-46526343D01*
X125733903Y-46526337D01*
X125634035Y-46312171D01*
X125520008Y-46149322D01*
X125498494Y-46118597D01*
X125331402Y-45951506D01*
X125331396Y-45951501D01*
X125145842Y-45821575D01*
X125102217Y-45766998D01*
X125095023Y-45697500D01*
X125126546Y-45635145D01*
X125145842Y-45618425D01*
X125179650Y-45594752D01*
X125331401Y-45488495D01*
X125498495Y-45321401D01*
X125634035Y-45127830D01*
X125733903Y-44913663D01*
X125795063Y-44685408D01*
X125804285Y-44579998D01*
X129219700Y-44579998D01*
X129226853Y-44666339D01*
X129227008Y-44668826D01*
X129230819Y-44758523D01*
X129230820Y-44758534D01*
X129235939Y-44782284D01*
X129237120Y-44790233D01*
X129238865Y-44811303D01*
X129238865Y-44811306D01*
X129260932Y-44898445D01*
X129261437Y-44900602D01*
X129281044Y-44991575D01*
X129281045Y-44991580D01*
X129288883Y-45011084D01*
X129291458Y-45018987D01*
X129295843Y-45036300D01*
X129333283Y-45121657D01*
X129334003Y-45123371D01*
X129348248Y-45158818D01*
X129369935Y-45212788D01*
X129379232Y-45227888D01*
X129383218Y-45235495D01*
X129389077Y-45248851D01*
X129441820Y-45329582D01*
X129442711Y-45330985D01*
X129494930Y-45415794D01*
X129501543Y-45423308D01*
X129512263Y-45437402D01*
X129516019Y-45443151D01*
X129516021Y-45443153D01*
X129570211Y-45502020D01*
X129583546Y-45516505D01*
X129584472Y-45517534D01*
X129608048Y-45544321D01*
X129652436Y-45594755D01*
X129657564Y-45598895D01*
X129670882Y-45611377D01*
X129673216Y-45613913D01*
X129754933Y-45677515D01*
X129837920Y-45744523D01*
X129837922Y-45744524D01*
X129840678Y-45746064D01*
X129856360Y-45756460D01*
X129856367Y-45756465D01*
X129856371Y-45756467D01*
X129856374Y-45756470D01*
X129950162Y-45807225D01*
X130028738Y-45851121D01*
X130046051Y-45860793D01*
X130048849Y-45862058D01*
X130055695Y-45865097D01*
X130055794Y-45864873D01*
X130060491Y-45866933D01*
X130060497Y-45866936D01*
X130164276Y-45902563D01*
X130270829Y-45940211D01*
X130271398Y-45940308D01*
X130276129Y-45941312D01*
X130280002Y-45942292D01*
X130280019Y-45942298D01*
X130370226Y-45957350D01*
X130391391Y-45960882D01*
X130417416Y-45965345D01*
X130505792Y-45980499D01*
X130505800Y-45980500D01*
X130741044Y-45980500D01*
X130741049Y-45980500D01*
X130774073Y-45974988D01*
X130797469Y-45971085D01*
X130802407Y-45970463D01*
X130862541Y-45965346D01*
X130914615Y-45951786D01*
X130920017Y-45950634D01*
X130969981Y-45942298D01*
X131027186Y-45922658D01*
X131031663Y-45921309D01*
X131093249Y-45905275D01*
X131099249Y-45902563D01*
X131104262Y-45900296D01*
X131139297Y-45884459D01*
X131144681Y-45882322D01*
X131189503Y-45866936D01*
X131245554Y-45836601D01*
X131249527Y-45834632D01*
X131258156Y-45830730D01*
X131310486Y-45807077D01*
X131349647Y-45780608D01*
X131354820Y-45777469D01*
X131393626Y-45756470D01*
X131446532Y-45715290D01*
X131449850Y-45712881D01*
X131508003Y-45673579D01*
X131539770Y-45643131D01*
X131544548Y-45639002D01*
X131576784Y-45613913D01*
X131579109Y-45611388D01*
X131594420Y-45594755D01*
X131624389Y-45562198D01*
X131627101Y-45559432D01*
X131680118Y-45508621D01*
X131704329Y-45475883D01*
X131708540Y-45470785D01*
X131733979Y-45443153D01*
X131774206Y-45381578D01*
X131776241Y-45378652D01*
X131821879Y-45316947D01*
X131838733Y-45283517D01*
X131842170Y-45277552D01*
X131860924Y-45248849D01*
X131891805Y-45178445D01*
X131893174Y-45175538D01*
X131929207Y-45104074D01*
X131939208Y-45071413D01*
X131941701Y-45064694D01*
X131954157Y-45036300D01*
X131973827Y-44958621D01*
X131974635Y-44955732D01*
X131999016Y-44876123D01*
X132002936Y-44845508D01*
X132004330Y-44838170D01*
X132011134Y-44811305D01*
X132018018Y-44728226D01*
X132018308Y-44725469D01*
X132029298Y-44639654D01*
X132028126Y-44612079D01*
X132028281Y-44604355D01*
X132030300Y-44580000D01*
X132030300Y-44579998D01*
X134669700Y-44579998D01*
X134676853Y-44666339D01*
X134677008Y-44668826D01*
X134680819Y-44758523D01*
X134680820Y-44758534D01*
X134685939Y-44782284D01*
X134687120Y-44790233D01*
X134688865Y-44811303D01*
X134688865Y-44811306D01*
X134710932Y-44898445D01*
X134711437Y-44900602D01*
X134731044Y-44991575D01*
X134731045Y-44991580D01*
X134738883Y-45011084D01*
X134741458Y-45018987D01*
X134745843Y-45036300D01*
X134783283Y-45121657D01*
X134784003Y-45123371D01*
X134798248Y-45158818D01*
X134819935Y-45212788D01*
X134829232Y-45227888D01*
X134833218Y-45235495D01*
X134839077Y-45248851D01*
X134891820Y-45329582D01*
X134892711Y-45330985D01*
X134944930Y-45415794D01*
X134951543Y-45423308D01*
X134962263Y-45437402D01*
X134966019Y-45443151D01*
X134966021Y-45443153D01*
X135020211Y-45502020D01*
X135033546Y-45516505D01*
X135034472Y-45517534D01*
X135058048Y-45544321D01*
X135102436Y-45594755D01*
X135107564Y-45598895D01*
X135120882Y-45611377D01*
X135123216Y-45613913D01*
X135204933Y-45677515D01*
X135287920Y-45744523D01*
X135287922Y-45744524D01*
X135290678Y-45746064D01*
X135306360Y-45756460D01*
X135306367Y-45756465D01*
X135306371Y-45756467D01*
X135306374Y-45756470D01*
X135400162Y-45807225D01*
X135478738Y-45851121D01*
X135496051Y-45860793D01*
X135498849Y-45862058D01*
X135505695Y-45865097D01*
X135505794Y-45864873D01*
X135510491Y-45866933D01*
X135510497Y-45866936D01*
X135614276Y-45902563D01*
X135720829Y-45940211D01*
X135721398Y-45940308D01*
X135726129Y-45941312D01*
X135730002Y-45942292D01*
X135730019Y-45942298D01*
X135820226Y-45957350D01*
X135841391Y-45960882D01*
X135867416Y-45965345D01*
X135955792Y-45980499D01*
X135955800Y-45980500D01*
X136191044Y-45980500D01*
X136191049Y-45980500D01*
X136224073Y-45974988D01*
X136247469Y-45971085D01*
X136252407Y-45970463D01*
X136312541Y-45965346D01*
X136364615Y-45951786D01*
X136370017Y-45950634D01*
X136419981Y-45942298D01*
X136477186Y-45922658D01*
X136481663Y-45921309D01*
X136543249Y-45905275D01*
X136549249Y-45902563D01*
X136554262Y-45900296D01*
X136589297Y-45884459D01*
X136594681Y-45882322D01*
X136639503Y-45866936D01*
X136695554Y-45836601D01*
X136699527Y-45834632D01*
X136708156Y-45830730D01*
X136760486Y-45807077D01*
X136799647Y-45780608D01*
X136804820Y-45777469D01*
X136843626Y-45756470D01*
X136896532Y-45715290D01*
X136899850Y-45712881D01*
X136958003Y-45673579D01*
X136989770Y-45643131D01*
X136994548Y-45639002D01*
X137026784Y-45613913D01*
X137029109Y-45611388D01*
X137044420Y-45594755D01*
X137074389Y-45562198D01*
X137077101Y-45559432D01*
X137130118Y-45508621D01*
X137154329Y-45475883D01*
X137158540Y-45470785D01*
X137183979Y-45443153D01*
X137224206Y-45381578D01*
X137226241Y-45378652D01*
X137271879Y-45316947D01*
X137288733Y-45283517D01*
X137292170Y-45277552D01*
X137310924Y-45248849D01*
X137341805Y-45178445D01*
X137343174Y-45175538D01*
X137379207Y-45104074D01*
X137389208Y-45071413D01*
X137391701Y-45064694D01*
X137404157Y-45036300D01*
X137423827Y-44958621D01*
X137424635Y-44955732D01*
X137449016Y-44876123D01*
X137452936Y-44845508D01*
X137454330Y-44838170D01*
X137461134Y-44811305D01*
X137468018Y-44728226D01*
X137468308Y-44725469D01*
X137479298Y-44639654D01*
X137478126Y-44612079D01*
X137478281Y-44604355D01*
X137480300Y-44580000D01*
X137473145Y-44493659D01*
X137472991Y-44491190D01*
X137471650Y-44459626D01*
X137469180Y-44401468D01*
X137464059Y-44377709D01*
X137462879Y-44369762D01*
X137461134Y-44348695D01*
X137439056Y-44261514D01*
X137438563Y-44259408D01*
X137428903Y-44214586D01*
X137418954Y-44168419D01*
X137411115Y-44148912D01*
X137408541Y-44141015D01*
X137404157Y-44123700D01*
X137366724Y-44038363D01*
X137366007Y-44036658D01*
X137330064Y-43947210D01*
X137320768Y-43932112D01*
X137316779Y-43924500D01*
X137310924Y-43911151D01*
X137258184Y-43830426D01*
X137257294Y-43829023D01*
X137205074Y-43744212D01*
X137205071Y-43744209D01*
X137205069Y-43744205D01*
X137198451Y-43736686D01*
X137187727Y-43722584D01*
X137183980Y-43716848D01*
X137164706Y-43695911D01*
X137116427Y-43643466D01*
X137115558Y-43642501D01*
X137047564Y-43565245D01*
X137042436Y-43561104D01*
X137029117Y-43548621D01*
X137026785Y-43546088D01*
X137026783Y-43546086D01*
X136945061Y-43482480D01*
X136862080Y-43415477D01*
X136862073Y-43415472D01*
X136859311Y-43413929D01*
X136843643Y-43403542D01*
X136843634Y-43403535D01*
X136843628Y-43403532D01*
X136843626Y-43403530D01*
X136749837Y-43352774D01*
X136700770Y-43325363D01*
X136653961Y-43299213D01*
X136651381Y-43298047D01*
X136644284Y-43294898D01*
X136644188Y-43295119D01*
X136639499Y-43293062D01*
X136535755Y-43257447D01*
X136429172Y-43219789D01*
X136429160Y-43219786D01*
X136428612Y-43219692D01*
X136423889Y-43218691D01*
X136419990Y-43217704D01*
X136419983Y-43217702D01*
X136419981Y-43217702D01*
X136370009Y-43209363D01*
X136308500Y-43199098D01*
X136194209Y-43179500D01*
X136194200Y-43179500D01*
X136191049Y-43179500D01*
X135958951Y-43179500D01*
X135958950Y-43179500D01*
X135902533Y-43188913D01*
X135897587Y-43189535D01*
X135895099Y-43189747D01*
X135837469Y-43194652D01*
X135837461Y-43194653D01*
X135785397Y-43208208D01*
X135779981Y-43209363D01*
X135730013Y-43217703D01*
X135672840Y-43237331D01*
X135668330Y-43238690D01*
X135606749Y-43254725D01*
X135606744Y-43254727D01*
X135560711Y-43275535D01*
X135555304Y-43277680D01*
X135510503Y-43293060D01*
X135510498Y-43293063D01*
X135454448Y-43323395D01*
X135450478Y-43325363D01*
X135389514Y-43352922D01*
X135350359Y-43379385D01*
X135345149Y-43382544D01*
X135306379Y-43403526D01*
X135306367Y-43403533D01*
X135253487Y-43444692D01*
X135250124Y-43447133D01*
X135192001Y-43486417D01*
X135191994Y-43486422D01*
X135160248Y-43516847D01*
X135155430Y-43521011D01*
X135123218Y-43546085D01*
X135123209Y-43546093D01*
X135075613Y-43597795D01*
X135072900Y-43600564D01*
X135019882Y-43651378D01*
X135019880Y-43651380D01*
X134995681Y-43684098D01*
X134991448Y-43689223D01*
X134966022Y-43716845D01*
X134925797Y-43778412D01*
X134923741Y-43781367D01*
X134878124Y-43843047D01*
X134878120Y-43843054D01*
X134861268Y-43876475D01*
X134857811Y-43882472D01*
X134839076Y-43911149D01*
X134808219Y-43981496D01*
X134806803Y-43984503D01*
X134770790Y-44055931D01*
X134760792Y-44088573D01*
X134758288Y-44095323D01*
X134745845Y-44123691D01*
X134745845Y-44123692D01*
X134726178Y-44201347D01*
X134725358Y-44204279D01*
X134700984Y-44283876D01*
X134700983Y-44283879D01*
X134697063Y-44314485D01*
X134695668Y-44321830D01*
X134688867Y-44348688D01*
X134688864Y-44348705D01*
X134681983Y-44431758D01*
X134681693Y-44434513D01*
X134670702Y-44520344D01*
X134670701Y-44520344D01*
X134671872Y-44547900D01*
X134671716Y-44555655D01*
X134669700Y-44579998D01*
X132030300Y-44579998D01*
X132023145Y-44493659D01*
X132022991Y-44491190D01*
X132021650Y-44459626D01*
X132019180Y-44401468D01*
X132014059Y-44377709D01*
X132012879Y-44369762D01*
X132011134Y-44348695D01*
X131989056Y-44261514D01*
X131988563Y-44259408D01*
X131978903Y-44214586D01*
X131968954Y-44168419D01*
X131961115Y-44148912D01*
X131958541Y-44141015D01*
X131954157Y-44123700D01*
X131916724Y-44038363D01*
X131916007Y-44036658D01*
X131880064Y-43947210D01*
X131870768Y-43932112D01*
X131866779Y-43924500D01*
X131860924Y-43911151D01*
X131808184Y-43830426D01*
X131807294Y-43829023D01*
X131755074Y-43744212D01*
X131755071Y-43744209D01*
X131755069Y-43744205D01*
X131748451Y-43736686D01*
X131737727Y-43722584D01*
X131733980Y-43716848D01*
X131714706Y-43695911D01*
X131666427Y-43643466D01*
X131665558Y-43642501D01*
X131597564Y-43565245D01*
X131592436Y-43561104D01*
X131579117Y-43548621D01*
X131576785Y-43546088D01*
X131576783Y-43546086D01*
X131495061Y-43482480D01*
X131412080Y-43415477D01*
X131412073Y-43415472D01*
X131409311Y-43413929D01*
X131393643Y-43403542D01*
X131393634Y-43403535D01*
X131393628Y-43403532D01*
X131393626Y-43403530D01*
X131299837Y-43352774D01*
X131250770Y-43325363D01*
X131203961Y-43299213D01*
X131201381Y-43298047D01*
X131194284Y-43294898D01*
X131194188Y-43295119D01*
X131189499Y-43293062D01*
X131085755Y-43257447D01*
X130979172Y-43219789D01*
X130979160Y-43219786D01*
X130978612Y-43219692D01*
X130973889Y-43218691D01*
X130969990Y-43217704D01*
X130969983Y-43217702D01*
X130969981Y-43217702D01*
X130920009Y-43209363D01*
X130858500Y-43199098D01*
X130744209Y-43179500D01*
X130744200Y-43179500D01*
X130741049Y-43179500D01*
X130508951Y-43179500D01*
X130508950Y-43179500D01*
X130452533Y-43188913D01*
X130447587Y-43189535D01*
X130445099Y-43189747D01*
X130387469Y-43194652D01*
X130387461Y-43194653D01*
X130335397Y-43208208D01*
X130329981Y-43209363D01*
X130280013Y-43217703D01*
X130222840Y-43237331D01*
X130218330Y-43238690D01*
X130156749Y-43254725D01*
X130156744Y-43254727D01*
X130110711Y-43275535D01*
X130105304Y-43277680D01*
X130060503Y-43293060D01*
X130060498Y-43293063D01*
X130004448Y-43323395D01*
X130000478Y-43325363D01*
X129939514Y-43352922D01*
X129900359Y-43379385D01*
X129895149Y-43382544D01*
X129856379Y-43403526D01*
X129856367Y-43403533D01*
X129803487Y-43444692D01*
X129800124Y-43447133D01*
X129742001Y-43486417D01*
X129741994Y-43486422D01*
X129710248Y-43516847D01*
X129705430Y-43521011D01*
X129673218Y-43546085D01*
X129673209Y-43546093D01*
X129625613Y-43597795D01*
X129622900Y-43600564D01*
X129569882Y-43651378D01*
X129569880Y-43651380D01*
X129545681Y-43684098D01*
X129541448Y-43689223D01*
X129516022Y-43716845D01*
X129475797Y-43778412D01*
X129473741Y-43781367D01*
X129428124Y-43843047D01*
X129428120Y-43843054D01*
X129411268Y-43876475D01*
X129407811Y-43882472D01*
X129389076Y-43911149D01*
X129358219Y-43981496D01*
X129356803Y-43984503D01*
X129320790Y-44055931D01*
X129310792Y-44088573D01*
X129308288Y-44095323D01*
X129295845Y-44123691D01*
X129295845Y-44123692D01*
X129276178Y-44201347D01*
X129275358Y-44204279D01*
X129250984Y-44283876D01*
X129250983Y-44283879D01*
X129247063Y-44314485D01*
X129245668Y-44321830D01*
X129238867Y-44348688D01*
X129238864Y-44348705D01*
X129231983Y-44431758D01*
X129231693Y-44434513D01*
X129220702Y-44520344D01*
X129220701Y-44520344D01*
X129221872Y-44547900D01*
X129221716Y-44555655D01*
X129219700Y-44579998D01*
X125804285Y-44579998D01*
X125815659Y-44450000D01*
X125795063Y-44214592D01*
X125733903Y-43986337D01*
X125634035Y-43772171D01*
X125609196Y-43736696D01*
X125498494Y-43578597D01*
X125331402Y-43411506D01*
X125331395Y-43411501D01*
X125328297Y-43409332D01*
X125290040Y-43382544D01*
X125137834Y-43275967D01*
X125137830Y-43275965D01*
X125098118Y-43257447D01*
X124923663Y-43176097D01*
X124923659Y-43176096D01*
X124923655Y-43176094D01*
X124695413Y-43114938D01*
X124695403Y-43114936D01*
X124460001Y-43094341D01*
X124459999Y-43094341D01*
X124224596Y-43114936D01*
X124224586Y-43114938D01*
X123996344Y-43176094D01*
X123996335Y-43176098D01*
X123782171Y-43275964D01*
X123782169Y-43275965D01*
X123588597Y-43411505D01*
X123421505Y-43578597D01*
X123285965Y-43772169D01*
X123285964Y-43772171D01*
X123186098Y-43986335D01*
X123186094Y-43986344D01*
X123124938Y-44214586D01*
X123124936Y-44214596D01*
X123104341Y-44449999D01*
X123104341Y-44450000D01*
X123124936Y-44685403D01*
X123124938Y-44685413D01*
X123186094Y-44913655D01*
X123186096Y-44913659D01*
X123186097Y-44913663D01*
X123269426Y-45092362D01*
X123285965Y-45127830D01*
X123285967Y-45127834D01*
X123421501Y-45321395D01*
X123421506Y-45321402D01*
X123588597Y-45488493D01*
X123588603Y-45488498D01*
X123774158Y-45618425D01*
X123817783Y-45673002D01*
X123824977Y-45742500D01*
X123793454Y-45804855D01*
X123774158Y-45821575D01*
X123588597Y-45951505D01*
X123421505Y-46118597D01*
X123285965Y-46312169D01*
X123285964Y-46312171D01*
X123186098Y-46526335D01*
X123186094Y-46526344D01*
X123124938Y-46754586D01*
X123124936Y-46754596D01*
X123104341Y-46989999D01*
X123104341Y-46990000D01*
X123124936Y-47225403D01*
X123124938Y-47225413D01*
X123186094Y-47453655D01*
X123186096Y-47453659D01*
X123186097Y-47453663D01*
X123273295Y-47640660D01*
X123285965Y-47667830D01*
X123285967Y-47667834D01*
X123377610Y-47798713D01*
X123421501Y-47861396D01*
X123421506Y-47861402D01*
X123543818Y-47983714D01*
X123577303Y-48045037D01*
X123572319Y-48114729D01*
X123530447Y-48170662D01*
X123499471Y-48187577D01*
X123367912Y-48236646D01*
X123367906Y-48236649D01*
X123252812Y-48322809D01*
X123252809Y-48322812D01*
X123166649Y-48437906D01*
X123166645Y-48437913D01*
X123116403Y-48572620D01*
X123116401Y-48572627D01*
X123110000Y-48632155D01*
X123110000Y-49280000D01*
X124014428Y-49280000D01*
X123991318Y-49315960D01*
X123950000Y-49456673D01*
X123950000Y-49603327D01*
X123991318Y-49744040D01*
X124014428Y-49780000D01*
X123105954Y-49780000D01*
X123038915Y-49760315D01*
X123018273Y-49743681D01*
X110990803Y-37716212D01*
X110980980Y-37703950D01*
X110980759Y-37704134D01*
X110975786Y-37698122D01*
X110926066Y-37651432D01*
X110924666Y-37650075D01*
X110904476Y-37629884D01*
X110898986Y-37625625D01*
X110894561Y-37621847D01*
X110860582Y-37589938D01*
X110860580Y-37589936D01*
X110860577Y-37589935D01*
X110843029Y-37580288D01*
X110826763Y-37569604D01*
X110810933Y-37557325D01*
X110768168Y-37538818D01*
X110762922Y-37536248D01*
X110722093Y-37513803D01*
X110722092Y-37513802D01*
X110702693Y-37508822D01*
X110684281Y-37502518D01*
X110665898Y-37494562D01*
X110665892Y-37494560D01*
X110619874Y-37487272D01*
X110614152Y-37486087D01*
X110569021Y-37474500D01*
X110569019Y-37474500D01*
X110548984Y-37474500D01*
X110529586Y-37472973D01*
X110522162Y-37471797D01*
X110509805Y-37469840D01*
X110509804Y-37469840D01*
X110463416Y-37474225D01*
X110457578Y-37474500D01*
X75646347Y-37474500D01*
X75630726Y-37472775D01*
X75630699Y-37473061D01*
X75622937Y-37472326D01*
X75554744Y-37474469D01*
X75552797Y-37474500D01*
X75524253Y-37474500D01*
X75517382Y-37475367D01*
X75511563Y-37475825D01*
X75464978Y-37477289D01*
X75464972Y-37477290D01*
X75445730Y-37482880D01*
X75426691Y-37486823D01*
X75406821Y-37489334D01*
X75406807Y-37489337D01*
X75363487Y-37506488D01*
X75357962Y-37508380D01*
X75313217Y-37521380D01*
X75313214Y-37521381D01*
X75295970Y-37531579D01*
X75278509Y-37540133D01*
X75259878Y-37547510D01*
X75259866Y-37547517D01*
X75222174Y-37574902D01*
X75217291Y-37578109D01*
X75177184Y-37601829D01*
X75163018Y-37615995D01*
X75148228Y-37628627D01*
X75132018Y-37640404D01*
X75132015Y-37640407D01*
X75102314Y-37676309D01*
X75098381Y-37680631D01*
X69371208Y-43407803D01*
X69358951Y-43417624D01*
X69359134Y-43417845D01*
X69353122Y-43422818D01*
X69306432Y-43472536D01*
X69305079Y-43473933D01*
X69284889Y-43494123D01*
X69284877Y-43494136D01*
X69280621Y-43499621D01*
X69276837Y-43504051D01*
X69244937Y-43538022D01*
X69244936Y-43538024D01*
X69235284Y-43555580D01*
X69224610Y-43571830D01*
X69212329Y-43587665D01*
X69212324Y-43587672D01*
X69193815Y-43630442D01*
X69191245Y-43635688D01*
X69168803Y-43676510D01*
X69163822Y-43695911D01*
X69157521Y-43714314D01*
X69149562Y-43732706D01*
X69149561Y-43732709D01*
X69142271Y-43778731D01*
X69141087Y-43784450D01*
X69129501Y-43829576D01*
X69129500Y-43829586D01*
X69129500Y-43849620D01*
X69127973Y-43869019D01*
X69124840Y-43888798D01*
X69124840Y-43888799D01*
X69129225Y-43935187D01*
X69129500Y-43941025D01*
X69129500Y-95045500D01*
X69109815Y-95112539D01*
X69057011Y-95158294D01*
X69005500Y-95169500D01*
X67682129Y-95169500D01*
X67682123Y-95169501D01*
X67622516Y-95175908D01*
X67487671Y-95226202D01*
X67487664Y-95226206D01*
X67372455Y-95312452D01*
X67372452Y-95312455D01*
X67286206Y-95427664D01*
X67286202Y-95427671D01*
X67235908Y-95562517D01*
X67229501Y-95622116D01*
X67229500Y-95622135D01*
X67229500Y-97417870D01*
X55880000Y-97417870D01*
X55880000Y-30604000D01*
X55899685Y-30536961D01*
X55952489Y-30491206D01*
X56004000Y-30480000D01*
X162436000Y-30480000D01*
X162503039Y-30499685D01*
G37*
%TD.AperFunction*%
%TD*%
M02*
