%TF.GenerationSoftware,KiCad,Pcbnew,7.0.5-0*%
%TF.CreationDate,2023-07-14T21:04:26-05:00*%
%TF.ProjectId,lab-env-sensor-hw,6c61622d-656e-4762-9d73-656e736f722d,rev?*%
%TF.SameCoordinates,Original*%
%TF.FileFunction,Legend,Top*%
%TF.FilePolarity,Positive*%
%FSLAX46Y46*%
G04 Gerber Fmt 4.6, Leading zero omitted, Abs format (unit mm)*
G04 Created by KiCad (PCBNEW 7.0.5-0) date 2023-07-14 21:04:26*
%MOMM*%
%LPD*%
G01*
G04 APERTURE LIST*
%ADD10C,0.300000*%
%ADD11C,0.150000*%
%ADD12C,0.120000*%
G04 APERTURE END LIST*
D10*
X126445489Y-119180828D02*
X126445489Y-117680828D01*
X126445489Y-117680828D02*
X125945489Y-118752257D01*
X125945489Y-118752257D02*
X125445489Y-117680828D01*
X125445489Y-117680828D02*
X125445489Y-119180828D01*
X124731203Y-119037971D02*
X124659774Y-119109400D01*
X124659774Y-119109400D02*
X124731203Y-119180828D01*
X124731203Y-119180828D02*
X124802631Y-119109400D01*
X124802631Y-119109400D02*
X124731203Y-119037971D01*
X124731203Y-119037971D02*
X124731203Y-119180828D01*
X122016917Y-119037971D02*
X122088345Y-119109400D01*
X122088345Y-119109400D02*
X122302631Y-119180828D01*
X122302631Y-119180828D02*
X122445488Y-119180828D01*
X122445488Y-119180828D02*
X122659774Y-119109400D01*
X122659774Y-119109400D02*
X122802631Y-118966542D01*
X122802631Y-118966542D02*
X122874060Y-118823685D01*
X122874060Y-118823685D02*
X122945488Y-118537971D01*
X122945488Y-118537971D02*
X122945488Y-118323685D01*
X122945488Y-118323685D02*
X122874060Y-118037971D01*
X122874060Y-118037971D02*
X122802631Y-117895114D01*
X122802631Y-117895114D02*
X122659774Y-117752257D01*
X122659774Y-117752257D02*
X122445488Y-117680828D01*
X122445488Y-117680828D02*
X122302631Y-117680828D01*
X122302631Y-117680828D02*
X122088345Y-117752257D01*
X122088345Y-117752257D02*
X122016917Y-117823685D01*
X121159774Y-119180828D02*
X121302631Y-119109400D01*
X121302631Y-119109400D02*
X121374060Y-119037971D01*
X121374060Y-119037971D02*
X121445488Y-118895114D01*
X121445488Y-118895114D02*
X121445488Y-118466542D01*
X121445488Y-118466542D02*
X121374060Y-118323685D01*
X121374060Y-118323685D02*
X121302631Y-118252257D01*
X121302631Y-118252257D02*
X121159774Y-118180828D01*
X121159774Y-118180828D02*
X120945488Y-118180828D01*
X120945488Y-118180828D02*
X120802631Y-118252257D01*
X120802631Y-118252257D02*
X120731203Y-118323685D01*
X120731203Y-118323685D02*
X120659774Y-118466542D01*
X120659774Y-118466542D02*
X120659774Y-118895114D01*
X120659774Y-118895114D02*
X120731203Y-119037971D01*
X120731203Y-119037971D02*
X120802631Y-119109400D01*
X120802631Y-119109400D02*
X120945488Y-119180828D01*
X120945488Y-119180828D02*
X121159774Y-119180828D01*
X119802631Y-119180828D02*
X119945488Y-119109400D01*
X119945488Y-119109400D02*
X120016917Y-119037971D01*
X120016917Y-119037971D02*
X120088345Y-118895114D01*
X120088345Y-118895114D02*
X120088345Y-118466542D01*
X120088345Y-118466542D02*
X120016917Y-118323685D01*
X120016917Y-118323685D02*
X119945488Y-118252257D01*
X119945488Y-118252257D02*
X119802631Y-118180828D01*
X119802631Y-118180828D02*
X119588345Y-118180828D01*
X119588345Y-118180828D02*
X119445488Y-118252257D01*
X119445488Y-118252257D02*
X119374060Y-118323685D01*
X119374060Y-118323685D02*
X119302631Y-118466542D01*
X119302631Y-118466542D02*
X119302631Y-118895114D01*
X119302631Y-118895114D02*
X119374060Y-119037971D01*
X119374060Y-119037971D02*
X119445488Y-119109400D01*
X119445488Y-119109400D02*
X119588345Y-119180828D01*
X119588345Y-119180828D02*
X119802631Y-119180828D01*
X118659774Y-118180828D02*
X118659774Y-119680828D01*
X118659774Y-118252257D02*
X118516917Y-118180828D01*
X118516917Y-118180828D02*
X118231202Y-118180828D01*
X118231202Y-118180828D02*
X118088345Y-118252257D01*
X118088345Y-118252257D02*
X118016917Y-118323685D01*
X118016917Y-118323685D02*
X117945488Y-118466542D01*
X117945488Y-118466542D02*
X117945488Y-118895114D01*
X117945488Y-118895114D02*
X118016917Y-119037971D01*
X118016917Y-119037971D02*
X118088345Y-119109400D01*
X118088345Y-119109400D02*
X118231202Y-119180828D01*
X118231202Y-119180828D02*
X118516917Y-119180828D01*
X118516917Y-119180828D02*
X118659774Y-119109400D01*
X116731202Y-119109400D02*
X116874059Y-119180828D01*
X116874059Y-119180828D02*
X117159774Y-119180828D01*
X117159774Y-119180828D02*
X117302631Y-119109400D01*
X117302631Y-119109400D02*
X117374059Y-118966542D01*
X117374059Y-118966542D02*
X117374059Y-118395114D01*
X117374059Y-118395114D02*
X117302631Y-118252257D01*
X117302631Y-118252257D02*
X117159774Y-118180828D01*
X117159774Y-118180828D02*
X116874059Y-118180828D01*
X116874059Y-118180828D02*
X116731202Y-118252257D01*
X116731202Y-118252257D02*
X116659774Y-118395114D01*
X116659774Y-118395114D02*
X116659774Y-118537971D01*
X116659774Y-118537971D02*
X117374059Y-118680828D01*
X116016917Y-119180828D02*
X116016917Y-118180828D01*
X116016917Y-118466542D02*
X115945488Y-118323685D01*
X115945488Y-118323685D02*
X115874060Y-118252257D01*
X115874060Y-118252257D02*
X115731202Y-118180828D01*
X115731202Y-118180828D02*
X115588345Y-118180828D01*
X113945489Y-119180828D02*
X113945489Y-117680828D01*
X113945489Y-118395114D02*
X113088346Y-118395114D01*
X113088346Y-119180828D02*
X113088346Y-117680828D01*
X111802631Y-119109400D02*
X111945488Y-119180828D01*
X111945488Y-119180828D02*
X112231203Y-119180828D01*
X112231203Y-119180828D02*
X112374060Y-119109400D01*
X112374060Y-119109400D02*
X112445488Y-118966542D01*
X112445488Y-118966542D02*
X112445488Y-118395114D01*
X112445488Y-118395114D02*
X112374060Y-118252257D01*
X112374060Y-118252257D02*
X112231203Y-118180828D01*
X112231203Y-118180828D02*
X111945488Y-118180828D01*
X111945488Y-118180828D02*
X111802631Y-118252257D01*
X111802631Y-118252257D02*
X111731203Y-118395114D01*
X111731203Y-118395114D02*
X111731203Y-118537971D01*
X111731203Y-118537971D02*
X112445488Y-118680828D01*
X110445489Y-119180828D02*
X110445489Y-118395114D01*
X110445489Y-118395114D02*
X110516917Y-118252257D01*
X110516917Y-118252257D02*
X110659774Y-118180828D01*
X110659774Y-118180828D02*
X110945489Y-118180828D01*
X110945489Y-118180828D02*
X111088346Y-118252257D01*
X110445489Y-119109400D02*
X110588346Y-119180828D01*
X110588346Y-119180828D02*
X110945489Y-119180828D01*
X110945489Y-119180828D02*
X111088346Y-119109400D01*
X111088346Y-119109400D02*
X111159774Y-118966542D01*
X111159774Y-118966542D02*
X111159774Y-118823685D01*
X111159774Y-118823685D02*
X111088346Y-118680828D01*
X111088346Y-118680828D02*
X110945489Y-118609400D01*
X110945489Y-118609400D02*
X110588346Y-118609400D01*
X110588346Y-118609400D02*
X110445489Y-118537971D01*
X109516917Y-119180828D02*
X109659774Y-119109400D01*
X109659774Y-119109400D02*
X109731203Y-118966542D01*
X109731203Y-118966542D02*
X109731203Y-117680828D01*
X109088346Y-118180828D02*
X108731203Y-119180828D01*
X108374060Y-118180828D02*
X108731203Y-119180828D01*
X108731203Y-119180828D02*
X108874060Y-119537971D01*
X108874060Y-119537971D02*
X108945489Y-119609400D01*
X108945489Y-119609400D02*
X109088346Y-119680828D01*
X126445489Y-116640828D02*
X126445489Y-115640828D01*
X126445489Y-115140828D02*
X126516917Y-115212257D01*
X126516917Y-115212257D02*
X126445489Y-115283685D01*
X126445489Y-115283685D02*
X126374060Y-115212257D01*
X126374060Y-115212257D02*
X126445489Y-115140828D01*
X126445489Y-115140828D02*
X126445489Y-115283685D01*
X125802631Y-116569400D02*
X125659774Y-116640828D01*
X125659774Y-116640828D02*
X125374060Y-116640828D01*
X125374060Y-116640828D02*
X125231203Y-116569400D01*
X125231203Y-116569400D02*
X125159774Y-116426542D01*
X125159774Y-116426542D02*
X125159774Y-116355114D01*
X125159774Y-116355114D02*
X125231203Y-116212257D01*
X125231203Y-116212257D02*
X125374060Y-116140828D01*
X125374060Y-116140828D02*
X125588346Y-116140828D01*
X125588346Y-116140828D02*
X125731203Y-116069400D01*
X125731203Y-116069400D02*
X125802631Y-115926542D01*
X125802631Y-115926542D02*
X125802631Y-115855114D01*
X125802631Y-115855114D02*
X125731203Y-115712257D01*
X125731203Y-115712257D02*
X125588346Y-115640828D01*
X125588346Y-115640828D02*
X125374060Y-115640828D01*
X125374060Y-115640828D02*
X125231203Y-115712257D01*
X124302631Y-116640828D02*
X124445488Y-116569400D01*
X124445488Y-116569400D02*
X124516917Y-116497971D01*
X124516917Y-116497971D02*
X124588345Y-116355114D01*
X124588345Y-116355114D02*
X124588345Y-115926542D01*
X124588345Y-115926542D02*
X124516917Y-115783685D01*
X124516917Y-115783685D02*
X124445488Y-115712257D01*
X124445488Y-115712257D02*
X124302631Y-115640828D01*
X124302631Y-115640828D02*
X124088345Y-115640828D01*
X124088345Y-115640828D02*
X123945488Y-115712257D01*
X123945488Y-115712257D02*
X123874060Y-115783685D01*
X123874060Y-115783685D02*
X123802631Y-115926542D01*
X123802631Y-115926542D02*
X123802631Y-116355114D01*
X123802631Y-116355114D02*
X123874060Y-116497971D01*
X123874060Y-116497971D02*
X123945488Y-116569400D01*
X123945488Y-116569400D02*
X124088345Y-116640828D01*
X124088345Y-116640828D02*
X124302631Y-116640828D01*
X123159774Y-116640828D02*
X123159774Y-115640828D01*
X123159774Y-115783685D02*
X123088345Y-115712257D01*
X123088345Y-115712257D02*
X122945488Y-115640828D01*
X122945488Y-115640828D02*
X122731202Y-115640828D01*
X122731202Y-115640828D02*
X122588345Y-115712257D01*
X122588345Y-115712257D02*
X122516917Y-115855114D01*
X122516917Y-115855114D02*
X122516917Y-116640828D01*
X122516917Y-115855114D02*
X122445488Y-115712257D01*
X122445488Y-115712257D02*
X122302631Y-115640828D01*
X122302631Y-115640828D02*
X122088345Y-115640828D01*
X122088345Y-115640828D02*
X121945488Y-115712257D01*
X121945488Y-115712257D02*
X121874059Y-115855114D01*
X121874059Y-115855114D02*
X121874059Y-116640828D01*
X120516917Y-116640828D02*
X120516917Y-115855114D01*
X120516917Y-115855114D02*
X120588345Y-115712257D01*
X120588345Y-115712257D02*
X120731202Y-115640828D01*
X120731202Y-115640828D02*
X121016917Y-115640828D01*
X121016917Y-115640828D02*
X121159774Y-115712257D01*
X120516917Y-116569400D02*
X120659774Y-116640828D01*
X120659774Y-116640828D02*
X121016917Y-116640828D01*
X121016917Y-116640828D02*
X121159774Y-116569400D01*
X121159774Y-116569400D02*
X121231202Y-116426542D01*
X121231202Y-116426542D02*
X121231202Y-116283685D01*
X121231202Y-116283685D02*
X121159774Y-116140828D01*
X121159774Y-116140828D02*
X121016917Y-116069400D01*
X121016917Y-116069400D02*
X120659774Y-116069400D01*
X120659774Y-116069400D02*
X120516917Y-115997971D01*
X120016916Y-115640828D02*
X119445488Y-115640828D01*
X119802631Y-115140828D02*
X119802631Y-116426542D01*
X119802631Y-116426542D02*
X119731202Y-116569400D01*
X119731202Y-116569400D02*
X119588345Y-116640828D01*
X119588345Y-116640828D02*
X119445488Y-116640828D01*
X119159773Y-115640828D02*
X118588345Y-115640828D01*
X118945488Y-115140828D02*
X118945488Y-116426542D01*
X118945488Y-116426542D02*
X118874059Y-116569400D01*
X118874059Y-116569400D02*
X118731202Y-116640828D01*
X118731202Y-116640828D02*
X118588345Y-116640828D01*
X117516916Y-116569400D02*
X117659773Y-116640828D01*
X117659773Y-116640828D02*
X117945488Y-116640828D01*
X117945488Y-116640828D02*
X118088345Y-116569400D01*
X118088345Y-116569400D02*
X118159773Y-116426542D01*
X118159773Y-116426542D02*
X118159773Y-115855114D01*
X118159773Y-115855114D02*
X118088345Y-115712257D01*
X118088345Y-115712257D02*
X117945488Y-115640828D01*
X117945488Y-115640828D02*
X117659773Y-115640828D01*
X117659773Y-115640828D02*
X117516916Y-115712257D01*
X117516916Y-115712257D02*
X117445488Y-115855114D01*
X117445488Y-115855114D02*
X117445488Y-115997971D01*
X117445488Y-115997971D02*
X118159773Y-116140828D01*
X116802631Y-116640828D02*
X116802631Y-115640828D01*
X116802631Y-115926542D02*
X116731202Y-115783685D01*
X116731202Y-115783685D02*
X116659774Y-115712257D01*
X116659774Y-115712257D02*
X116516916Y-115640828D01*
X116516916Y-115640828D02*
X116374059Y-115640828D01*
X115874060Y-116497971D02*
X115802631Y-116569400D01*
X115802631Y-116569400D02*
X115874060Y-116640828D01*
X115874060Y-116640828D02*
X115945488Y-116569400D01*
X115945488Y-116569400D02*
X115874060Y-116497971D01*
X115874060Y-116497971D02*
X115874060Y-116640828D01*
X115874060Y-115712257D02*
X115802631Y-115783685D01*
X115802631Y-115783685D02*
X115874060Y-115855114D01*
X115874060Y-115855114D02*
X115945488Y-115783685D01*
X115945488Y-115783685D02*
X115874060Y-115712257D01*
X115874060Y-115712257D02*
X115874060Y-115855114D01*
X115159774Y-116497971D02*
X115088345Y-116569400D01*
X115088345Y-116569400D02*
X115159774Y-116640828D01*
X115159774Y-116640828D02*
X115231202Y-116569400D01*
X115231202Y-116569400D02*
X115159774Y-116497971D01*
X115159774Y-116497971D02*
X115159774Y-116640828D01*
X115159774Y-115712257D02*
X115088345Y-115783685D01*
X115088345Y-115783685D02*
X115159774Y-115855114D01*
X115159774Y-115855114D02*
X115231202Y-115783685D01*
X115231202Y-115783685D02*
X115159774Y-115712257D01*
X115159774Y-115712257D02*
X115159774Y-115855114D01*
X114231202Y-116640828D02*
X114374059Y-116569400D01*
X114374059Y-116569400D02*
X114445488Y-116426542D01*
X114445488Y-116426542D02*
X114445488Y-115140828D01*
X113016917Y-116640828D02*
X113016917Y-115855114D01*
X113016917Y-115855114D02*
X113088345Y-115712257D01*
X113088345Y-115712257D02*
X113231202Y-115640828D01*
X113231202Y-115640828D02*
X113516917Y-115640828D01*
X113516917Y-115640828D02*
X113659774Y-115712257D01*
X113016917Y-116569400D02*
X113159774Y-116640828D01*
X113159774Y-116640828D02*
X113516917Y-116640828D01*
X113516917Y-116640828D02*
X113659774Y-116569400D01*
X113659774Y-116569400D02*
X113731202Y-116426542D01*
X113731202Y-116426542D02*
X113731202Y-116283685D01*
X113731202Y-116283685D02*
X113659774Y-116140828D01*
X113659774Y-116140828D02*
X113516917Y-116069400D01*
X113516917Y-116069400D02*
X113159774Y-116069400D01*
X113159774Y-116069400D02*
X113016917Y-115997971D01*
X112302631Y-116640828D02*
X112302631Y-115140828D01*
X112302631Y-115712257D02*
X112159774Y-115640828D01*
X112159774Y-115640828D02*
X111874059Y-115640828D01*
X111874059Y-115640828D02*
X111731202Y-115712257D01*
X111731202Y-115712257D02*
X111659774Y-115783685D01*
X111659774Y-115783685D02*
X111588345Y-115926542D01*
X111588345Y-115926542D02*
X111588345Y-116355114D01*
X111588345Y-116355114D02*
X111659774Y-116497971D01*
X111659774Y-116497971D02*
X111731202Y-116569400D01*
X111731202Y-116569400D02*
X111874059Y-116640828D01*
X111874059Y-116640828D02*
X112159774Y-116640828D01*
X112159774Y-116640828D02*
X112302631Y-116569400D01*
X111016916Y-116569400D02*
X110874059Y-116640828D01*
X110874059Y-116640828D02*
X110588345Y-116640828D01*
X110588345Y-116640828D02*
X110445488Y-116569400D01*
X110445488Y-116569400D02*
X110374059Y-116426542D01*
X110374059Y-116426542D02*
X110374059Y-116355114D01*
X110374059Y-116355114D02*
X110445488Y-116212257D01*
X110445488Y-116212257D02*
X110588345Y-116140828D01*
X110588345Y-116140828D02*
X110802631Y-116140828D01*
X110802631Y-116140828D02*
X110945488Y-116069400D01*
X110945488Y-116069400D02*
X111016916Y-115926542D01*
X111016916Y-115926542D02*
X111016916Y-115855114D01*
X111016916Y-115855114D02*
X110945488Y-115712257D01*
X110945488Y-115712257D02*
X110802631Y-115640828D01*
X110802631Y-115640828D02*
X110588345Y-115640828D01*
X110588345Y-115640828D02*
X110445488Y-115712257D01*
D11*
%TO.C,U2*%
X63274819Y-89661904D02*
X64084342Y-89661904D01*
X64084342Y-89661904D02*
X64179580Y-89614285D01*
X64179580Y-89614285D02*
X64227200Y-89566666D01*
X64227200Y-89566666D02*
X64274819Y-89471428D01*
X64274819Y-89471428D02*
X64274819Y-89280952D01*
X64274819Y-89280952D02*
X64227200Y-89185714D01*
X64227200Y-89185714D02*
X64179580Y-89138095D01*
X64179580Y-89138095D02*
X64084342Y-89090476D01*
X64084342Y-89090476D02*
X63274819Y-89090476D01*
X63370057Y-88661904D02*
X63322438Y-88614285D01*
X63322438Y-88614285D02*
X63274819Y-88519047D01*
X63274819Y-88519047D02*
X63274819Y-88280952D01*
X63274819Y-88280952D02*
X63322438Y-88185714D01*
X63322438Y-88185714D02*
X63370057Y-88138095D01*
X63370057Y-88138095D02*
X63465295Y-88090476D01*
X63465295Y-88090476D02*
X63560533Y-88090476D01*
X63560533Y-88090476D02*
X63703390Y-88138095D01*
X63703390Y-88138095D02*
X64274819Y-88709523D01*
X64274819Y-88709523D02*
X64274819Y-88090476D01*
%TO.C,J1*%
X145736666Y-113464819D02*
X145736666Y-114179104D01*
X145736666Y-114179104D02*
X145689047Y-114321961D01*
X145689047Y-114321961D02*
X145593809Y-114417200D01*
X145593809Y-114417200D02*
X145450952Y-114464819D01*
X145450952Y-114464819D02*
X145355714Y-114464819D01*
X146736666Y-114464819D02*
X146165238Y-114464819D01*
X146450952Y-114464819D02*
X146450952Y-113464819D01*
X146450952Y-113464819D02*
X146355714Y-113607676D01*
X146355714Y-113607676D02*
X146260476Y-113702914D01*
X146260476Y-113702914D02*
X146165238Y-113750533D01*
%TO.C,U3*%
X132588095Y-68034819D02*
X132588095Y-68844342D01*
X132588095Y-68844342D02*
X132635714Y-68939580D01*
X132635714Y-68939580D02*
X132683333Y-68987200D01*
X132683333Y-68987200D02*
X132778571Y-69034819D01*
X132778571Y-69034819D02*
X132969047Y-69034819D01*
X132969047Y-69034819D02*
X133064285Y-68987200D01*
X133064285Y-68987200D02*
X133111904Y-68939580D01*
X133111904Y-68939580D02*
X133159523Y-68844342D01*
X133159523Y-68844342D02*
X133159523Y-68034819D01*
X133540476Y-68034819D02*
X134159523Y-68034819D01*
X134159523Y-68034819D02*
X133826190Y-68415771D01*
X133826190Y-68415771D02*
X133969047Y-68415771D01*
X133969047Y-68415771D02*
X134064285Y-68463390D01*
X134064285Y-68463390D02*
X134111904Y-68511009D01*
X134111904Y-68511009D02*
X134159523Y-68606247D01*
X134159523Y-68606247D02*
X134159523Y-68844342D01*
X134159523Y-68844342D02*
X134111904Y-68939580D01*
X134111904Y-68939580D02*
X134064285Y-68987200D01*
X134064285Y-68987200D02*
X133969047Y-69034819D01*
X133969047Y-69034819D02*
X133683333Y-69034819D01*
X133683333Y-69034819D02*
X133588095Y-68987200D01*
X133588095Y-68987200D02*
X133540476Y-68939580D01*
X145501873Y-63321240D02*
X145771247Y-63051866D01*
X145609623Y-63536739D02*
X145232499Y-62782492D01*
X145232499Y-62782492D02*
X145986746Y-63159615D01*
X145932871Y-62135994D02*
X145852059Y-62162932D01*
X145852059Y-62162932D02*
X145771247Y-62243744D01*
X145771247Y-62243744D02*
X145717372Y-62351494D01*
X145717372Y-62351494D02*
X145717372Y-62459243D01*
X145717372Y-62459243D02*
X145744310Y-62540055D01*
X145744310Y-62540055D02*
X145825122Y-62674742D01*
X145825122Y-62674742D02*
X145905934Y-62755555D01*
X145905934Y-62755555D02*
X146040621Y-62836367D01*
X146040621Y-62836367D02*
X146121433Y-62863304D01*
X146121433Y-62863304D02*
X146229183Y-62863304D01*
X146229183Y-62863304D02*
X146336932Y-62809429D01*
X146336932Y-62809429D02*
X146390807Y-62755555D01*
X146390807Y-62755555D02*
X146444682Y-62647805D01*
X146444682Y-62647805D02*
X146444682Y-62593930D01*
X146444682Y-62593930D02*
X146256120Y-62405368D01*
X146256120Y-62405368D02*
X146148371Y-62513118D01*
X146740993Y-62405368D02*
X146175308Y-61839683D01*
X146175308Y-61839683D02*
X147064242Y-62082120D01*
X147064242Y-62082120D02*
X146498557Y-61516434D01*
X147333616Y-61812746D02*
X146767931Y-61247060D01*
X146767931Y-61247060D02*
X146902618Y-61112373D01*
X146902618Y-61112373D02*
X147010367Y-61058498D01*
X147010367Y-61058498D02*
X147118117Y-61058498D01*
X147118117Y-61058498D02*
X147198929Y-61085436D01*
X147198929Y-61085436D02*
X147333616Y-61166248D01*
X147333616Y-61166248D02*
X147414428Y-61247060D01*
X147414428Y-61247060D02*
X147495241Y-61381747D01*
X147495241Y-61381747D02*
X147522178Y-61462560D01*
X147522178Y-61462560D02*
X147522178Y-61570309D01*
X147522178Y-61570309D02*
X147468303Y-61678059D01*
X147468303Y-61678059D02*
X147333616Y-61812746D01*
X145447998Y-80400868D02*
X145367185Y-80427805D01*
X145367185Y-80427805D02*
X145286373Y-80508618D01*
X145286373Y-80508618D02*
X145232498Y-80616367D01*
X145232498Y-80616367D02*
X145232498Y-80724117D01*
X145232498Y-80724117D02*
X145259436Y-80804929D01*
X145259436Y-80804929D02*
X145340248Y-80939616D01*
X145340248Y-80939616D02*
X145421060Y-81020428D01*
X145421060Y-81020428D02*
X145555747Y-81101241D01*
X145555747Y-81101241D02*
X145636560Y-81128178D01*
X145636560Y-81128178D02*
X145744309Y-81128178D01*
X145744309Y-81128178D02*
X145852059Y-81074303D01*
X145852059Y-81074303D02*
X145905934Y-81020428D01*
X145905934Y-81020428D02*
X145959808Y-80912679D01*
X145959808Y-80912679D02*
X145959808Y-80858804D01*
X145959808Y-80858804D02*
X145771247Y-80670242D01*
X145771247Y-80670242D02*
X145663497Y-80777992D01*
X146256120Y-80670242D02*
X145690434Y-80104557D01*
X145690434Y-80104557D02*
X145905934Y-79889057D01*
X145905934Y-79889057D02*
X145986746Y-79862120D01*
X145986746Y-79862120D02*
X146040621Y-79862120D01*
X146040621Y-79862120D02*
X146121433Y-79889057D01*
X146121433Y-79889057D02*
X146202245Y-79969870D01*
X146202245Y-79969870D02*
X146229182Y-80050682D01*
X146229182Y-80050682D02*
X146229182Y-80104557D01*
X146229182Y-80104557D02*
X146202245Y-80185369D01*
X146202245Y-80185369D02*
X145986746Y-80400868D01*
X146283057Y-79619683D02*
X146283057Y-79565809D01*
X146283057Y-79565809D02*
X146309995Y-79484996D01*
X146309995Y-79484996D02*
X146444682Y-79350309D01*
X146444682Y-79350309D02*
X146525494Y-79323372D01*
X146525494Y-79323372D02*
X146579369Y-79323372D01*
X146579369Y-79323372D02*
X146660181Y-79350309D01*
X146660181Y-79350309D02*
X146714056Y-79404184D01*
X146714056Y-79404184D02*
X146767930Y-79511934D01*
X146767930Y-79511934D02*
X146767930Y-80158431D01*
X146767930Y-80158431D02*
X147118117Y-79808245D01*
X146902618Y-78892373D02*
X146956492Y-78838499D01*
X146956492Y-78838499D02*
X147037305Y-78811561D01*
X147037305Y-78811561D02*
X147091179Y-78811561D01*
X147091179Y-78811561D02*
X147171992Y-78838499D01*
X147171992Y-78838499D02*
X147306679Y-78919311D01*
X147306679Y-78919311D02*
X147441366Y-79053998D01*
X147441366Y-79053998D02*
X147522178Y-79188685D01*
X147522178Y-79188685D02*
X147549115Y-79269497D01*
X147549115Y-79269497D02*
X147549115Y-79323372D01*
X147549115Y-79323372D02*
X147522178Y-79404184D01*
X147522178Y-79404184D02*
X147468303Y-79458059D01*
X147468303Y-79458059D02*
X147387491Y-79484996D01*
X147387491Y-79484996D02*
X147333616Y-79484996D01*
X147333616Y-79484996D02*
X147252804Y-79458059D01*
X147252804Y-79458059D02*
X147118117Y-79377247D01*
X147118117Y-79377247D02*
X146983430Y-79242560D01*
X146983430Y-79242560D02*
X146902618Y-79107873D01*
X146902618Y-79107873D02*
X146875680Y-79027060D01*
X146875680Y-79027060D02*
X146875680Y-78973186D01*
X146875680Y-78973186D02*
X146902618Y-78892373D01*
X119836435Y-75078431D02*
X119755623Y-75105368D01*
X119755623Y-75105368D02*
X119674811Y-75186180D01*
X119674811Y-75186180D02*
X119620936Y-75293930D01*
X119620936Y-75293930D02*
X119620936Y-75401680D01*
X119620936Y-75401680D02*
X119647873Y-75482492D01*
X119647873Y-75482492D02*
X119728685Y-75617179D01*
X119728685Y-75617179D02*
X119809498Y-75697991D01*
X119809498Y-75697991D02*
X119944185Y-75778803D01*
X119944185Y-75778803D02*
X120024997Y-75805741D01*
X120024997Y-75805741D02*
X120132746Y-75805741D01*
X120132746Y-75805741D02*
X120240496Y-75751866D01*
X120240496Y-75751866D02*
X120294371Y-75697991D01*
X120294371Y-75697991D02*
X120348246Y-75590241D01*
X120348246Y-75590241D02*
X120348246Y-75536367D01*
X120348246Y-75536367D02*
X120159684Y-75347805D01*
X120159684Y-75347805D02*
X120051934Y-75455554D01*
X120644557Y-75347805D02*
X120078872Y-74782119D01*
X120078872Y-74782119D02*
X120967806Y-75024556D01*
X120967806Y-75024556D02*
X120402120Y-74458871D01*
X121237180Y-74755182D02*
X120671494Y-74189497D01*
X120671494Y-74189497D02*
X120806181Y-74054810D01*
X120806181Y-74054810D02*
X120913931Y-74000935D01*
X120913931Y-74000935D02*
X121021680Y-74000935D01*
X121021680Y-74000935D02*
X121102493Y-74027872D01*
X121102493Y-74027872D02*
X121237180Y-74108685D01*
X121237180Y-74108685D02*
X121317992Y-74189497D01*
X121317992Y-74189497D02*
X121398804Y-74324184D01*
X121398804Y-74324184D02*
X121425741Y-74404996D01*
X121425741Y-74404996D02*
X121425741Y-74512746D01*
X121425741Y-74512746D02*
X121371867Y-74620495D01*
X121371867Y-74620495D02*
X121237180Y-74755182D01*
X125840475Y-95104200D02*
X125954761Y-95142295D01*
X125954761Y-95142295D02*
X126145237Y-95142295D01*
X126145237Y-95142295D02*
X126221428Y-95104200D01*
X126221428Y-95104200D02*
X126259523Y-95066104D01*
X126259523Y-95066104D02*
X126297618Y-94989914D01*
X126297618Y-94989914D02*
X126297618Y-94913723D01*
X126297618Y-94913723D02*
X126259523Y-94837533D01*
X126259523Y-94837533D02*
X126221428Y-94799438D01*
X126221428Y-94799438D02*
X126145237Y-94761342D01*
X126145237Y-94761342D02*
X125992856Y-94723247D01*
X125992856Y-94723247D02*
X125916666Y-94685152D01*
X125916666Y-94685152D02*
X125878571Y-94647057D01*
X125878571Y-94647057D02*
X125840475Y-94570866D01*
X125840475Y-94570866D02*
X125840475Y-94494676D01*
X125840475Y-94494676D02*
X125878571Y-94418485D01*
X125878571Y-94418485D02*
X125916666Y-94380390D01*
X125916666Y-94380390D02*
X125992856Y-94342295D01*
X125992856Y-94342295D02*
X126183333Y-94342295D01*
X126183333Y-94342295D02*
X126297618Y-94380390D01*
X126564285Y-94342295D02*
X126754761Y-95142295D01*
X126754761Y-95142295D02*
X126907142Y-94570866D01*
X126907142Y-94570866D02*
X127059523Y-95142295D01*
X127059523Y-95142295D02*
X127250000Y-94342295D01*
X128011905Y-95066104D02*
X127973809Y-95104200D01*
X127973809Y-95104200D02*
X127859524Y-95142295D01*
X127859524Y-95142295D02*
X127783333Y-95142295D01*
X127783333Y-95142295D02*
X127669047Y-95104200D01*
X127669047Y-95104200D02*
X127592857Y-95028009D01*
X127592857Y-95028009D02*
X127554762Y-94951819D01*
X127554762Y-94951819D02*
X127516666Y-94799438D01*
X127516666Y-94799438D02*
X127516666Y-94685152D01*
X127516666Y-94685152D02*
X127554762Y-94532771D01*
X127554762Y-94532771D02*
X127592857Y-94456580D01*
X127592857Y-94456580D02*
X127669047Y-94380390D01*
X127669047Y-94380390D02*
X127783333Y-94342295D01*
X127783333Y-94342295D02*
X127859524Y-94342295D01*
X127859524Y-94342295D02*
X127973809Y-94380390D01*
X127973809Y-94380390D02*
X128011905Y-94418485D01*
X128735714Y-95142295D02*
X128354762Y-95142295D01*
X128354762Y-95142295D02*
X128354762Y-94342295D01*
X129002381Y-95142295D02*
X129002381Y-94342295D01*
X129459524Y-95142295D02*
X129116666Y-94685152D01*
X129459524Y-94342295D02*
X129002381Y-94799438D01*
X145447998Y-67700868D02*
X145367185Y-67727805D01*
X145367185Y-67727805D02*
X145286373Y-67808618D01*
X145286373Y-67808618D02*
X145232498Y-67916367D01*
X145232498Y-67916367D02*
X145232498Y-68024117D01*
X145232498Y-68024117D02*
X145259436Y-68104929D01*
X145259436Y-68104929D02*
X145340248Y-68239616D01*
X145340248Y-68239616D02*
X145421060Y-68320428D01*
X145421060Y-68320428D02*
X145555747Y-68401241D01*
X145555747Y-68401241D02*
X145636560Y-68428178D01*
X145636560Y-68428178D02*
X145744309Y-68428178D01*
X145744309Y-68428178D02*
X145852059Y-68374303D01*
X145852059Y-68374303D02*
X145905934Y-68320428D01*
X145905934Y-68320428D02*
X145959808Y-68212679D01*
X145959808Y-68212679D02*
X145959808Y-68158804D01*
X145959808Y-68158804D02*
X145771247Y-67970242D01*
X145771247Y-67970242D02*
X145663497Y-68077992D01*
X146256120Y-67970242D02*
X145690434Y-67404557D01*
X145690434Y-67404557D02*
X145905934Y-67189057D01*
X145905934Y-67189057D02*
X145986746Y-67162120D01*
X145986746Y-67162120D02*
X146040621Y-67162120D01*
X146040621Y-67162120D02*
X146121433Y-67189057D01*
X146121433Y-67189057D02*
X146202245Y-67269870D01*
X146202245Y-67269870D02*
X146229182Y-67350682D01*
X146229182Y-67350682D02*
X146229182Y-67404557D01*
X146229182Y-67404557D02*
X146202245Y-67485369D01*
X146202245Y-67485369D02*
X145986746Y-67700868D01*
X146283057Y-66919683D02*
X146283057Y-66865809D01*
X146283057Y-66865809D02*
X146309995Y-66784996D01*
X146309995Y-66784996D02*
X146444682Y-66650309D01*
X146444682Y-66650309D02*
X146525494Y-66623372D01*
X146525494Y-66623372D02*
X146579369Y-66623372D01*
X146579369Y-66623372D02*
X146660181Y-66650309D01*
X146660181Y-66650309D02*
X146714056Y-66704184D01*
X146714056Y-66704184D02*
X146767930Y-66811934D01*
X146767930Y-66811934D02*
X146767930Y-67458431D01*
X146767930Y-67458431D02*
X147118117Y-67108245D01*
X147037305Y-66057686D02*
X146929555Y-66165436D01*
X146929555Y-66165436D02*
X146902618Y-66246248D01*
X146902618Y-66246248D02*
X146902618Y-66300123D01*
X146902618Y-66300123D02*
X146929555Y-66434810D01*
X146929555Y-66434810D02*
X147010367Y-66569497D01*
X147010367Y-66569497D02*
X147225866Y-66784996D01*
X147225866Y-66784996D02*
X147306679Y-66811934D01*
X147306679Y-66811934D02*
X147360553Y-66811934D01*
X147360553Y-66811934D02*
X147441366Y-66784996D01*
X147441366Y-66784996D02*
X147549115Y-66677247D01*
X147549115Y-66677247D02*
X147576053Y-66596434D01*
X147576053Y-66596434D02*
X147576053Y-66542560D01*
X147576053Y-66542560D02*
X147549115Y-66461747D01*
X147549115Y-66461747D02*
X147414428Y-66327060D01*
X147414428Y-66327060D02*
X147333616Y-66300123D01*
X147333616Y-66300123D02*
X147279741Y-66300123D01*
X147279741Y-66300123D02*
X147198929Y-66327060D01*
X147198929Y-66327060D02*
X147091179Y-66434810D01*
X147091179Y-66434810D02*
X147064242Y-66515622D01*
X147064242Y-66515622D02*
X147064242Y-66569497D01*
X147064242Y-66569497D02*
X147091179Y-66650309D01*
X119339998Y-77860868D02*
X119259185Y-77887805D01*
X119259185Y-77887805D02*
X119178373Y-77968618D01*
X119178373Y-77968618D02*
X119124498Y-78076367D01*
X119124498Y-78076367D02*
X119124498Y-78184117D01*
X119124498Y-78184117D02*
X119151436Y-78264929D01*
X119151436Y-78264929D02*
X119232248Y-78399616D01*
X119232248Y-78399616D02*
X119313060Y-78480428D01*
X119313060Y-78480428D02*
X119447747Y-78561241D01*
X119447747Y-78561241D02*
X119528560Y-78588178D01*
X119528560Y-78588178D02*
X119636309Y-78588178D01*
X119636309Y-78588178D02*
X119744059Y-78534303D01*
X119744059Y-78534303D02*
X119797934Y-78480428D01*
X119797934Y-78480428D02*
X119851808Y-78372679D01*
X119851808Y-78372679D02*
X119851808Y-78318804D01*
X119851808Y-78318804D02*
X119663247Y-78130242D01*
X119663247Y-78130242D02*
X119555497Y-78237992D01*
X120148120Y-78130242D02*
X119582434Y-77564557D01*
X119582434Y-77564557D02*
X119797934Y-77349057D01*
X119797934Y-77349057D02*
X119878746Y-77322120D01*
X119878746Y-77322120D02*
X119932621Y-77322120D01*
X119932621Y-77322120D02*
X120013433Y-77349057D01*
X120013433Y-77349057D02*
X120094245Y-77429870D01*
X120094245Y-77429870D02*
X120121182Y-77510682D01*
X120121182Y-77510682D02*
X120121182Y-77564557D01*
X120121182Y-77564557D02*
X120094245Y-77645369D01*
X120094245Y-77645369D02*
X119878746Y-77860868D01*
X121010117Y-77268245D02*
X120686868Y-77591494D01*
X120848492Y-77429870D02*
X120282807Y-76864184D01*
X120282807Y-76864184D02*
X120309744Y-76998871D01*
X120309744Y-76998871D02*
X120309744Y-77106621D01*
X120309744Y-77106621D02*
X120282807Y-77187433D01*
X120794618Y-76352373D02*
X120848492Y-76298499D01*
X120848492Y-76298499D02*
X120929305Y-76271561D01*
X120929305Y-76271561D02*
X120983179Y-76271561D01*
X120983179Y-76271561D02*
X121063992Y-76298499D01*
X121063992Y-76298499D02*
X121198679Y-76379311D01*
X121198679Y-76379311D02*
X121333366Y-76513998D01*
X121333366Y-76513998D02*
X121414178Y-76648685D01*
X121414178Y-76648685D02*
X121441115Y-76729497D01*
X121441115Y-76729497D02*
X121441115Y-76783372D01*
X121441115Y-76783372D02*
X121414178Y-76864184D01*
X121414178Y-76864184D02*
X121360303Y-76918059D01*
X121360303Y-76918059D02*
X121279491Y-76944996D01*
X121279491Y-76944996D02*
X121225616Y-76944996D01*
X121225616Y-76944996D02*
X121144804Y-76918059D01*
X121144804Y-76918059D02*
X121010117Y-76837247D01*
X121010117Y-76837247D02*
X120875430Y-76702560D01*
X120875430Y-76702560D02*
X120794618Y-76567873D01*
X120794618Y-76567873D02*
X120767680Y-76487060D01*
X120767680Y-76487060D02*
X120767680Y-76433186D01*
X120767680Y-76433186D02*
X120794618Y-76352373D01*
X119863372Y-69971494D02*
X119782560Y-69998431D01*
X119782560Y-69998431D02*
X119701748Y-70079243D01*
X119701748Y-70079243D02*
X119647873Y-70186993D01*
X119647873Y-70186993D02*
X119647873Y-70294742D01*
X119647873Y-70294742D02*
X119674810Y-70375555D01*
X119674810Y-70375555D02*
X119755623Y-70510242D01*
X119755623Y-70510242D02*
X119836435Y-70591054D01*
X119836435Y-70591054D02*
X119971122Y-70671866D01*
X119971122Y-70671866D02*
X120051934Y-70698803D01*
X120051934Y-70698803D02*
X120159684Y-70698803D01*
X120159684Y-70698803D02*
X120267433Y-70644929D01*
X120267433Y-70644929D02*
X120321308Y-70591054D01*
X120321308Y-70591054D02*
X120375183Y-70483304D01*
X120375183Y-70483304D02*
X120375183Y-70429429D01*
X120375183Y-70429429D02*
X120186621Y-70240868D01*
X120186621Y-70240868D02*
X120078871Y-70348617D01*
X120671494Y-70240868D02*
X120105809Y-69675182D01*
X120105809Y-69675182D02*
X120321308Y-69459683D01*
X120321308Y-69459683D02*
X120402120Y-69432746D01*
X120402120Y-69432746D02*
X120455995Y-69432746D01*
X120455995Y-69432746D02*
X120536807Y-69459683D01*
X120536807Y-69459683D02*
X120617619Y-69540495D01*
X120617619Y-69540495D02*
X120644557Y-69621307D01*
X120644557Y-69621307D02*
X120644557Y-69675182D01*
X120644557Y-69675182D02*
X120617619Y-69755994D01*
X120617619Y-69755994D02*
X120402120Y-69971494D01*
X120994743Y-69271121D02*
X120913931Y-69298059D01*
X120913931Y-69298059D02*
X120860056Y-69298059D01*
X120860056Y-69298059D02*
X120779244Y-69271121D01*
X120779244Y-69271121D02*
X120752306Y-69244184D01*
X120752306Y-69244184D02*
X120725369Y-69163372D01*
X120725369Y-69163372D02*
X120725369Y-69109497D01*
X120725369Y-69109497D02*
X120752306Y-69028685D01*
X120752306Y-69028685D02*
X120860056Y-68920935D01*
X120860056Y-68920935D02*
X120940868Y-68893998D01*
X120940868Y-68893998D02*
X120994743Y-68893998D01*
X120994743Y-68893998D02*
X121075555Y-68920935D01*
X121075555Y-68920935D02*
X121102493Y-68947872D01*
X121102493Y-68947872D02*
X121129430Y-69028685D01*
X121129430Y-69028685D02*
X121129430Y-69082559D01*
X121129430Y-69082559D02*
X121102493Y-69163372D01*
X121102493Y-69163372D02*
X120994743Y-69271121D01*
X120994743Y-69271121D02*
X120967806Y-69351933D01*
X120967806Y-69351933D02*
X120967806Y-69405808D01*
X120967806Y-69405808D02*
X120994743Y-69486620D01*
X120994743Y-69486620D02*
X121102493Y-69594370D01*
X121102493Y-69594370D02*
X121183305Y-69621307D01*
X121183305Y-69621307D02*
X121237180Y-69621307D01*
X121237180Y-69621307D02*
X121317992Y-69594370D01*
X121317992Y-69594370D02*
X121425741Y-69486620D01*
X121425741Y-69486620D02*
X121452679Y-69405808D01*
X121452679Y-69405808D02*
X121452679Y-69351933D01*
X121452679Y-69351933D02*
X121425741Y-69271121D01*
X121425741Y-69271121D02*
X121317992Y-69163372D01*
X121317992Y-69163372D02*
X121237180Y-69136434D01*
X121237180Y-69136434D02*
X121183305Y-69136434D01*
X121183305Y-69136434D02*
X121102493Y-69163372D01*
X137254761Y-95104200D02*
X137369047Y-95142295D01*
X137369047Y-95142295D02*
X137559523Y-95142295D01*
X137559523Y-95142295D02*
X137635714Y-95104200D01*
X137635714Y-95104200D02*
X137673809Y-95066104D01*
X137673809Y-95066104D02*
X137711904Y-94989914D01*
X137711904Y-94989914D02*
X137711904Y-94913723D01*
X137711904Y-94913723D02*
X137673809Y-94837533D01*
X137673809Y-94837533D02*
X137635714Y-94799438D01*
X137635714Y-94799438D02*
X137559523Y-94761342D01*
X137559523Y-94761342D02*
X137407142Y-94723247D01*
X137407142Y-94723247D02*
X137330952Y-94685152D01*
X137330952Y-94685152D02*
X137292857Y-94647057D01*
X137292857Y-94647057D02*
X137254761Y-94570866D01*
X137254761Y-94570866D02*
X137254761Y-94494676D01*
X137254761Y-94494676D02*
X137292857Y-94418485D01*
X137292857Y-94418485D02*
X137330952Y-94380390D01*
X137330952Y-94380390D02*
X137407142Y-94342295D01*
X137407142Y-94342295D02*
X137597619Y-94342295D01*
X137597619Y-94342295D02*
X137711904Y-94380390D01*
X137978571Y-94342295D02*
X138169047Y-95142295D01*
X138169047Y-95142295D02*
X138321428Y-94570866D01*
X138321428Y-94570866D02*
X138473809Y-95142295D01*
X138473809Y-95142295D02*
X138664286Y-94342295D01*
X138969048Y-95142295D02*
X138969048Y-94342295D01*
X138969048Y-94342295D02*
X139159524Y-94342295D01*
X139159524Y-94342295D02*
X139273810Y-94380390D01*
X139273810Y-94380390D02*
X139350000Y-94456580D01*
X139350000Y-94456580D02*
X139388095Y-94532771D01*
X139388095Y-94532771D02*
X139426191Y-94685152D01*
X139426191Y-94685152D02*
X139426191Y-94799438D01*
X139426191Y-94799438D02*
X139388095Y-94951819D01*
X139388095Y-94951819D02*
X139350000Y-95028009D01*
X139350000Y-95028009D02*
X139273810Y-95104200D01*
X139273810Y-95104200D02*
X139159524Y-95142295D01*
X139159524Y-95142295D02*
X138969048Y-95142295D01*
X139769048Y-95142295D02*
X139769048Y-94342295D01*
X140302381Y-94342295D02*
X140454762Y-94342295D01*
X140454762Y-94342295D02*
X140530952Y-94380390D01*
X140530952Y-94380390D02*
X140607143Y-94456580D01*
X140607143Y-94456580D02*
X140645238Y-94608961D01*
X140645238Y-94608961D02*
X140645238Y-94875628D01*
X140645238Y-94875628D02*
X140607143Y-95028009D01*
X140607143Y-95028009D02*
X140530952Y-95104200D01*
X140530952Y-95104200D02*
X140454762Y-95142295D01*
X140454762Y-95142295D02*
X140302381Y-95142295D01*
X140302381Y-95142295D02*
X140226190Y-95104200D01*
X140226190Y-95104200D02*
X140150000Y-95028009D01*
X140150000Y-95028009D02*
X140111904Y-94875628D01*
X140111904Y-94875628D02*
X140111904Y-94608961D01*
X140111904Y-94608961D02*
X140150000Y-94456580D01*
X140150000Y-94456580D02*
X140226190Y-94380390D01*
X140226190Y-94380390D02*
X140302381Y-94342295D01*
X119193998Y-80400868D02*
X119113185Y-80427805D01*
X119113185Y-80427805D02*
X119032373Y-80508618D01*
X119032373Y-80508618D02*
X118978498Y-80616367D01*
X118978498Y-80616367D02*
X118978498Y-80724117D01*
X118978498Y-80724117D02*
X119005436Y-80804929D01*
X119005436Y-80804929D02*
X119086248Y-80939616D01*
X119086248Y-80939616D02*
X119167060Y-81020428D01*
X119167060Y-81020428D02*
X119301747Y-81101241D01*
X119301747Y-81101241D02*
X119382560Y-81128178D01*
X119382560Y-81128178D02*
X119490309Y-81128178D01*
X119490309Y-81128178D02*
X119598059Y-81074303D01*
X119598059Y-81074303D02*
X119651934Y-81020428D01*
X119651934Y-81020428D02*
X119705808Y-80912679D01*
X119705808Y-80912679D02*
X119705808Y-80858804D01*
X119705808Y-80858804D02*
X119517247Y-80670242D01*
X119517247Y-80670242D02*
X119409497Y-80777992D01*
X120002120Y-80670242D02*
X119436434Y-80104557D01*
X119436434Y-80104557D02*
X119651934Y-79889057D01*
X119651934Y-79889057D02*
X119732746Y-79862120D01*
X119732746Y-79862120D02*
X119786621Y-79862120D01*
X119786621Y-79862120D02*
X119867433Y-79889057D01*
X119867433Y-79889057D02*
X119948245Y-79969870D01*
X119948245Y-79969870D02*
X119975182Y-80050682D01*
X119975182Y-80050682D02*
X119975182Y-80104557D01*
X119975182Y-80104557D02*
X119948245Y-80185369D01*
X119948245Y-80185369D02*
X119732746Y-80400868D01*
X120864117Y-79808245D02*
X120540868Y-80131494D01*
X120702492Y-79969870D02*
X120136807Y-79404184D01*
X120136807Y-79404184D02*
X120163744Y-79538871D01*
X120163744Y-79538871D02*
X120163744Y-79646621D01*
X120163744Y-79646621D02*
X120136807Y-79727433D01*
X121402865Y-79269497D02*
X121079616Y-79592746D01*
X121241240Y-79431121D02*
X120675555Y-78865436D01*
X120675555Y-78865436D02*
X120702492Y-79000123D01*
X120702492Y-79000123D02*
X120702492Y-79107873D01*
X120702492Y-79107873D02*
X120675555Y-79188685D01*
X145240123Y-55070868D02*
X145590309Y-54720682D01*
X145590309Y-54720682D02*
X145617247Y-55124743D01*
X145617247Y-55124743D02*
X145698059Y-55043931D01*
X145698059Y-55043931D02*
X145778871Y-55016993D01*
X145778871Y-55016993D02*
X145832746Y-55016993D01*
X145832746Y-55016993D02*
X145913558Y-55043931D01*
X145913558Y-55043931D02*
X146048245Y-55178618D01*
X146048245Y-55178618D02*
X146075182Y-55259430D01*
X146075182Y-55259430D02*
X146075182Y-55313305D01*
X146075182Y-55313305D02*
X146048245Y-55394117D01*
X146048245Y-55394117D02*
X145886621Y-55555741D01*
X145886621Y-55555741D02*
X145805808Y-55582679D01*
X145805808Y-55582679D02*
X145751934Y-55582679D01*
X145751934Y-54559057D02*
X146506181Y-54936181D01*
X146506181Y-54936181D02*
X146129057Y-54181934D01*
X146263744Y-54047247D02*
X146613930Y-53697061D01*
X146613930Y-53697061D02*
X146640868Y-54101122D01*
X146640868Y-54101122D02*
X146721680Y-54020309D01*
X146721680Y-54020309D02*
X146802492Y-53993372D01*
X146802492Y-53993372D02*
X146856367Y-53993372D01*
X146856367Y-53993372D02*
X146937179Y-54020309D01*
X146937179Y-54020309D02*
X147071866Y-54154996D01*
X147071866Y-54154996D02*
X147098804Y-54235809D01*
X147098804Y-54235809D02*
X147098804Y-54289683D01*
X147098804Y-54289683D02*
X147071866Y-54370496D01*
X147071866Y-54370496D02*
X146910242Y-54532120D01*
X146910242Y-54532120D02*
X146829430Y-54559057D01*
X146829430Y-54559057D02*
X146775555Y-54559057D01*
X145505064Y-58114049D02*
X145774438Y-57844675D01*
X145612813Y-58329549D02*
X145235690Y-57575301D01*
X145235690Y-57575301D02*
X145989937Y-57952425D01*
X146178499Y-57763863D02*
X145612813Y-57198178D01*
X145612813Y-57198178D02*
X145747500Y-57063491D01*
X145747500Y-57063491D02*
X145855250Y-57009616D01*
X145855250Y-57009616D02*
X145962999Y-57009616D01*
X145962999Y-57009616D02*
X146043812Y-57036553D01*
X146043812Y-57036553D02*
X146178499Y-57117366D01*
X146178499Y-57117366D02*
X146259311Y-57198178D01*
X146259311Y-57198178D02*
X146340123Y-57332865D01*
X146340123Y-57332865D02*
X146367060Y-57413677D01*
X146367060Y-57413677D02*
X146367060Y-57521427D01*
X146367060Y-57521427D02*
X146313186Y-57629176D01*
X146313186Y-57629176D02*
X146178499Y-57763863D01*
X147013558Y-56821054D02*
X147013558Y-56874929D01*
X147013558Y-56874929D02*
X146959683Y-56982679D01*
X146959683Y-56982679D02*
X146905808Y-57036553D01*
X146905808Y-57036553D02*
X146798059Y-57090428D01*
X146798059Y-57090428D02*
X146690309Y-57090428D01*
X146690309Y-57090428D02*
X146609497Y-57063491D01*
X146609497Y-57063491D02*
X146474810Y-56982679D01*
X146474810Y-56982679D02*
X146393998Y-56901866D01*
X146393998Y-56901866D02*
X146313186Y-56767179D01*
X146313186Y-56767179D02*
X146286248Y-56686367D01*
X146286248Y-56686367D02*
X146286248Y-56578618D01*
X146286248Y-56578618D02*
X146340123Y-56470868D01*
X146340123Y-56470868D02*
X146393998Y-56416993D01*
X146393998Y-56416993D02*
X146501747Y-56363118D01*
X146501747Y-56363118D02*
X146555622Y-56363118D01*
X147229057Y-56821054D02*
X147660056Y-56390056D01*
X147094370Y-55716621D02*
X147848618Y-56093744D01*
X147848618Y-56093744D02*
X147471494Y-55339497D01*
X148548990Y-55393372D02*
X148091054Y-55312560D01*
X148225741Y-55716621D02*
X147660056Y-55150935D01*
X147660056Y-55150935D02*
X147875555Y-54935436D01*
X147875555Y-54935436D02*
X147956367Y-54908499D01*
X147956367Y-54908499D02*
X148010242Y-54908499D01*
X148010242Y-54908499D02*
X148091054Y-54935436D01*
X148091054Y-54935436D02*
X148171866Y-55016248D01*
X148171866Y-55016248D02*
X148198804Y-55097061D01*
X148198804Y-55097061D02*
X148198804Y-55150935D01*
X148198804Y-55150935D02*
X148171866Y-55231748D01*
X148171866Y-55231748D02*
X147956367Y-55447247D01*
X148495115Y-54854624D02*
X148683677Y-54666062D01*
X149060800Y-54881561D02*
X148791426Y-55150935D01*
X148791426Y-55150935D02*
X148225741Y-54585250D01*
X148225741Y-54585250D02*
X148495115Y-54315876D01*
X149195488Y-54154251D02*
X149006926Y-54342813D01*
X149303237Y-54639125D02*
X148737552Y-54073439D01*
X148737552Y-54073439D02*
X149006926Y-53804065D01*
X119863372Y-72511494D02*
X119782560Y-72538431D01*
X119782560Y-72538431D02*
X119701748Y-72619243D01*
X119701748Y-72619243D02*
X119647873Y-72726993D01*
X119647873Y-72726993D02*
X119647873Y-72834742D01*
X119647873Y-72834742D02*
X119674810Y-72915555D01*
X119674810Y-72915555D02*
X119755623Y-73050242D01*
X119755623Y-73050242D02*
X119836435Y-73131054D01*
X119836435Y-73131054D02*
X119971122Y-73211866D01*
X119971122Y-73211866D02*
X120051934Y-73238803D01*
X120051934Y-73238803D02*
X120159684Y-73238803D01*
X120159684Y-73238803D02*
X120267433Y-73184929D01*
X120267433Y-73184929D02*
X120321308Y-73131054D01*
X120321308Y-73131054D02*
X120375183Y-73023304D01*
X120375183Y-73023304D02*
X120375183Y-72969429D01*
X120375183Y-72969429D02*
X120186621Y-72780868D01*
X120186621Y-72780868D02*
X120078871Y-72888617D01*
X120671494Y-72780868D02*
X120105809Y-72215182D01*
X120105809Y-72215182D02*
X120321308Y-71999683D01*
X120321308Y-71999683D02*
X120402120Y-71972746D01*
X120402120Y-71972746D02*
X120455995Y-71972746D01*
X120455995Y-71972746D02*
X120536807Y-71999683D01*
X120536807Y-71999683D02*
X120617619Y-72080495D01*
X120617619Y-72080495D02*
X120644557Y-72161307D01*
X120644557Y-72161307D02*
X120644557Y-72215182D01*
X120644557Y-72215182D02*
X120617619Y-72295994D01*
X120617619Y-72295994D02*
X120402120Y-72511494D01*
X121264117Y-72188245D02*
X121371867Y-72080495D01*
X121371867Y-72080495D02*
X121398804Y-71999683D01*
X121398804Y-71999683D02*
X121398804Y-71945808D01*
X121398804Y-71945808D02*
X121371867Y-71811121D01*
X121371867Y-71811121D02*
X121291054Y-71676434D01*
X121291054Y-71676434D02*
X121075555Y-71460935D01*
X121075555Y-71460935D02*
X120994743Y-71433998D01*
X120994743Y-71433998D02*
X120940868Y-71433998D01*
X120940868Y-71433998D02*
X120860056Y-71460935D01*
X120860056Y-71460935D02*
X120752306Y-71568685D01*
X120752306Y-71568685D02*
X120725369Y-71649497D01*
X120725369Y-71649497D02*
X120725369Y-71703372D01*
X120725369Y-71703372D02*
X120752306Y-71784184D01*
X120752306Y-71784184D02*
X120886993Y-71918871D01*
X120886993Y-71918871D02*
X120967806Y-71945808D01*
X120967806Y-71945808D02*
X121021680Y-71945808D01*
X121021680Y-71945808D02*
X121102493Y-71918871D01*
X121102493Y-71918871D02*
X121210242Y-71811121D01*
X121210242Y-71811121D02*
X121237180Y-71730309D01*
X121237180Y-71730309D02*
X121237180Y-71676434D01*
X121237180Y-71676434D02*
X121210242Y-71595622D01*
X145303406Y-45107585D02*
X146057653Y-45484709D01*
X146057653Y-45484709D02*
X145680529Y-44730462D01*
X146327027Y-44622712D02*
X146434776Y-44568838D01*
X146434776Y-44568838D02*
X146488651Y-44568838D01*
X146488651Y-44568838D02*
X146569463Y-44595775D01*
X146569463Y-44595775D02*
X146650276Y-44676587D01*
X146650276Y-44676587D02*
X146677213Y-44757399D01*
X146677213Y-44757399D02*
X146677213Y-44811274D01*
X146677213Y-44811274D02*
X146650276Y-44892086D01*
X146650276Y-44892086D02*
X146434776Y-45107586D01*
X146434776Y-45107586D02*
X145869091Y-44541900D01*
X145869091Y-44541900D02*
X146057653Y-44353338D01*
X146057653Y-44353338D02*
X146138465Y-44326401D01*
X146138465Y-44326401D02*
X146192340Y-44326401D01*
X146192340Y-44326401D02*
X146273152Y-44353338D01*
X146273152Y-44353338D02*
X146327027Y-44407213D01*
X146327027Y-44407213D02*
X146353964Y-44488025D01*
X146353964Y-44488025D02*
X146353964Y-44541900D01*
X146353964Y-44541900D02*
X146327027Y-44622712D01*
X146327027Y-44622712D02*
X146138465Y-44811274D01*
X146434776Y-43976215D02*
X146892712Y-44434151D01*
X146892712Y-44434151D02*
X146973524Y-44461088D01*
X146973524Y-44461088D02*
X147027399Y-44461088D01*
X147027399Y-44461088D02*
X147108211Y-44434151D01*
X147108211Y-44434151D02*
X147215961Y-44326401D01*
X147215961Y-44326401D02*
X147242898Y-44245589D01*
X147242898Y-44245589D02*
X147242898Y-44191714D01*
X147242898Y-44191714D02*
X147215961Y-44110902D01*
X147215961Y-44110902D02*
X146758025Y-43652966D01*
X147539210Y-43949277D02*
X147646959Y-43895403D01*
X147646959Y-43895403D02*
X147781646Y-43760716D01*
X147781646Y-43760716D02*
X147808584Y-43679903D01*
X147808584Y-43679903D02*
X147808584Y-43626029D01*
X147808584Y-43626029D02*
X147781646Y-43545216D01*
X147781646Y-43545216D02*
X147727771Y-43491342D01*
X147727771Y-43491342D02*
X147646959Y-43464404D01*
X147646959Y-43464404D02*
X147593084Y-43464404D01*
X147593084Y-43464404D02*
X147512272Y-43491342D01*
X147512272Y-43491342D02*
X147377585Y-43572154D01*
X147377585Y-43572154D02*
X147296773Y-43599091D01*
X147296773Y-43599091D02*
X147242898Y-43599091D01*
X147242898Y-43599091D02*
X147162086Y-43572154D01*
X147162086Y-43572154D02*
X147108211Y-43518279D01*
X147108211Y-43518279D02*
X147081274Y-43437467D01*
X147081274Y-43437467D02*
X147081274Y-43383592D01*
X147081274Y-43383592D02*
X147108211Y-43302780D01*
X147108211Y-43302780D02*
X147242898Y-43168093D01*
X147242898Y-43168093D02*
X147350648Y-43114218D01*
X145447998Y-85480868D02*
X145367185Y-85507805D01*
X145367185Y-85507805D02*
X145286373Y-85588618D01*
X145286373Y-85588618D02*
X145232498Y-85696367D01*
X145232498Y-85696367D02*
X145232498Y-85804117D01*
X145232498Y-85804117D02*
X145259436Y-85884929D01*
X145259436Y-85884929D02*
X145340248Y-86019616D01*
X145340248Y-86019616D02*
X145421060Y-86100428D01*
X145421060Y-86100428D02*
X145555747Y-86181241D01*
X145555747Y-86181241D02*
X145636560Y-86208178D01*
X145636560Y-86208178D02*
X145744309Y-86208178D01*
X145744309Y-86208178D02*
X145852059Y-86154303D01*
X145852059Y-86154303D02*
X145905934Y-86100428D01*
X145905934Y-86100428D02*
X145959808Y-85992679D01*
X145959808Y-85992679D02*
X145959808Y-85938804D01*
X145959808Y-85938804D02*
X145771247Y-85750242D01*
X145771247Y-85750242D02*
X145663497Y-85857992D01*
X146256120Y-85750242D02*
X145690434Y-85184557D01*
X145690434Y-85184557D02*
X145905934Y-84969057D01*
X145905934Y-84969057D02*
X145986746Y-84942120D01*
X145986746Y-84942120D02*
X146040621Y-84942120D01*
X146040621Y-84942120D02*
X146121433Y-84969057D01*
X146121433Y-84969057D02*
X146202245Y-85049870D01*
X146202245Y-85049870D02*
X146229182Y-85130682D01*
X146229182Y-85130682D02*
X146229182Y-85184557D01*
X146229182Y-85184557D02*
X146202245Y-85265369D01*
X146202245Y-85265369D02*
X145986746Y-85480868D01*
X147118117Y-84888245D02*
X146794868Y-85211494D01*
X146956492Y-85049870D02*
X146390807Y-84484184D01*
X146390807Y-84484184D02*
X146417744Y-84618871D01*
X146417744Y-84618871D02*
X146417744Y-84726621D01*
X146417744Y-84726621D02*
X146390807Y-84807433D01*
X147118117Y-84241747D02*
X147037305Y-84268685D01*
X147037305Y-84268685D02*
X146983430Y-84268685D01*
X146983430Y-84268685D02*
X146902618Y-84241747D01*
X146902618Y-84241747D02*
X146875680Y-84214810D01*
X146875680Y-84214810D02*
X146848743Y-84133998D01*
X146848743Y-84133998D02*
X146848743Y-84080123D01*
X146848743Y-84080123D02*
X146875680Y-83999311D01*
X146875680Y-83999311D02*
X146983430Y-83891561D01*
X146983430Y-83891561D02*
X147064242Y-83864624D01*
X147064242Y-83864624D02*
X147118117Y-83864624D01*
X147118117Y-83864624D02*
X147198929Y-83891561D01*
X147198929Y-83891561D02*
X147225866Y-83918499D01*
X147225866Y-83918499D02*
X147252804Y-83999311D01*
X147252804Y-83999311D02*
X147252804Y-84053186D01*
X147252804Y-84053186D02*
X147225866Y-84133998D01*
X147225866Y-84133998D02*
X147118117Y-84241747D01*
X147118117Y-84241747D02*
X147091179Y-84322560D01*
X147091179Y-84322560D02*
X147091179Y-84376434D01*
X147091179Y-84376434D02*
X147118117Y-84457247D01*
X147118117Y-84457247D02*
X147225866Y-84564996D01*
X147225866Y-84564996D02*
X147306679Y-84591934D01*
X147306679Y-84591934D02*
X147360553Y-84591934D01*
X147360553Y-84591934D02*
X147441366Y-84564996D01*
X147441366Y-84564996D02*
X147549115Y-84457247D01*
X147549115Y-84457247D02*
X147576053Y-84376434D01*
X147576053Y-84376434D02*
X147576053Y-84322560D01*
X147576053Y-84322560D02*
X147549115Y-84241747D01*
X147549115Y-84241747D02*
X147441366Y-84133998D01*
X147441366Y-84133998D02*
X147360553Y-84107060D01*
X147360553Y-84107060D02*
X147306679Y-84107060D01*
X147306679Y-84107060D02*
X147225866Y-84133998D01*
X145447998Y-82940868D02*
X145367185Y-82967805D01*
X145367185Y-82967805D02*
X145286373Y-83048618D01*
X145286373Y-83048618D02*
X145232498Y-83156367D01*
X145232498Y-83156367D02*
X145232498Y-83264117D01*
X145232498Y-83264117D02*
X145259436Y-83344929D01*
X145259436Y-83344929D02*
X145340248Y-83479616D01*
X145340248Y-83479616D02*
X145421060Y-83560428D01*
X145421060Y-83560428D02*
X145555747Y-83641241D01*
X145555747Y-83641241D02*
X145636560Y-83668178D01*
X145636560Y-83668178D02*
X145744309Y-83668178D01*
X145744309Y-83668178D02*
X145852059Y-83614303D01*
X145852059Y-83614303D02*
X145905934Y-83560428D01*
X145905934Y-83560428D02*
X145959808Y-83452679D01*
X145959808Y-83452679D02*
X145959808Y-83398804D01*
X145959808Y-83398804D02*
X145771247Y-83210242D01*
X145771247Y-83210242D02*
X145663497Y-83317992D01*
X146256120Y-83210242D02*
X145690434Y-82644557D01*
X145690434Y-82644557D02*
X145905934Y-82429057D01*
X145905934Y-82429057D02*
X145986746Y-82402120D01*
X145986746Y-82402120D02*
X146040621Y-82402120D01*
X146040621Y-82402120D02*
X146121433Y-82429057D01*
X146121433Y-82429057D02*
X146202245Y-82509870D01*
X146202245Y-82509870D02*
X146229182Y-82590682D01*
X146229182Y-82590682D02*
X146229182Y-82644557D01*
X146229182Y-82644557D02*
X146202245Y-82725369D01*
X146202245Y-82725369D02*
X145986746Y-82940868D01*
X147118117Y-82348245D02*
X146794868Y-82671494D01*
X146956492Y-82509870D02*
X146390807Y-81944184D01*
X146390807Y-81944184D02*
X146417744Y-82078871D01*
X146417744Y-82078871D02*
X146417744Y-82186621D01*
X146417744Y-82186621D02*
X146390807Y-82267433D01*
X147387491Y-82078871D02*
X147495240Y-81971121D01*
X147495240Y-81971121D02*
X147522178Y-81890309D01*
X147522178Y-81890309D02*
X147522178Y-81836434D01*
X147522178Y-81836434D02*
X147495240Y-81701747D01*
X147495240Y-81701747D02*
X147414428Y-81567060D01*
X147414428Y-81567060D02*
X147198929Y-81351561D01*
X147198929Y-81351561D02*
X147118117Y-81324624D01*
X147118117Y-81324624D02*
X147064242Y-81324624D01*
X147064242Y-81324624D02*
X146983430Y-81351561D01*
X146983430Y-81351561D02*
X146875680Y-81459311D01*
X146875680Y-81459311D02*
X146848743Y-81540123D01*
X146848743Y-81540123D02*
X146848743Y-81593998D01*
X146848743Y-81593998D02*
X146875680Y-81674810D01*
X146875680Y-81674810D02*
X147010367Y-81809497D01*
X147010367Y-81809497D02*
X147091179Y-81836434D01*
X147091179Y-81836434D02*
X147145054Y-81836434D01*
X147145054Y-81836434D02*
X147225866Y-81809497D01*
X147225866Y-81809497D02*
X147333616Y-81701747D01*
X147333616Y-81701747D02*
X147360553Y-81620935D01*
X147360553Y-81620935D02*
X147360553Y-81567060D01*
X147360553Y-81567060D02*
X147333616Y-81486248D01*
X145436435Y-87778431D02*
X145355623Y-87805368D01*
X145355623Y-87805368D02*
X145274811Y-87886180D01*
X145274811Y-87886180D02*
X145220936Y-87993930D01*
X145220936Y-87993930D02*
X145220936Y-88101680D01*
X145220936Y-88101680D02*
X145247873Y-88182492D01*
X145247873Y-88182492D02*
X145328685Y-88317179D01*
X145328685Y-88317179D02*
X145409498Y-88397991D01*
X145409498Y-88397991D02*
X145544185Y-88478803D01*
X145544185Y-88478803D02*
X145624997Y-88505741D01*
X145624997Y-88505741D02*
X145732746Y-88505741D01*
X145732746Y-88505741D02*
X145840496Y-88451866D01*
X145840496Y-88451866D02*
X145894371Y-88397991D01*
X145894371Y-88397991D02*
X145948246Y-88290241D01*
X145948246Y-88290241D02*
X145948246Y-88236367D01*
X145948246Y-88236367D02*
X145759684Y-88047805D01*
X145759684Y-88047805D02*
X145651934Y-88155554D01*
X146244557Y-88047805D02*
X145678872Y-87482119D01*
X145678872Y-87482119D02*
X146567806Y-87724556D01*
X146567806Y-87724556D02*
X146002120Y-87158871D01*
X146837180Y-87455182D02*
X146271494Y-86889497D01*
X146271494Y-86889497D02*
X146406181Y-86754810D01*
X146406181Y-86754810D02*
X146513931Y-86700935D01*
X146513931Y-86700935D02*
X146621680Y-86700935D01*
X146621680Y-86700935D02*
X146702493Y-86727872D01*
X146702493Y-86727872D02*
X146837180Y-86808685D01*
X146837180Y-86808685D02*
X146917992Y-86889497D01*
X146917992Y-86889497D02*
X146998804Y-87024184D01*
X146998804Y-87024184D02*
X147025741Y-87104996D01*
X147025741Y-87104996D02*
X147025741Y-87212746D01*
X147025741Y-87212746D02*
X146971867Y-87320495D01*
X146971867Y-87320495D02*
X146837180Y-87455182D01*
X119763372Y-47101494D02*
X119682560Y-47128431D01*
X119682560Y-47128431D02*
X119601748Y-47209243D01*
X119601748Y-47209243D02*
X119547873Y-47316993D01*
X119547873Y-47316993D02*
X119547873Y-47424742D01*
X119547873Y-47424742D02*
X119574810Y-47505555D01*
X119574810Y-47505555D02*
X119655623Y-47640242D01*
X119655623Y-47640242D02*
X119736435Y-47721054D01*
X119736435Y-47721054D02*
X119871122Y-47801866D01*
X119871122Y-47801866D02*
X119951934Y-47828803D01*
X119951934Y-47828803D02*
X120059684Y-47828803D01*
X120059684Y-47828803D02*
X120167433Y-47774929D01*
X120167433Y-47774929D02*
X120221308Y-47721054D01*
X120221308Y-47721054D02*
X120275183Y-47613304D01*
X120275183Y-47613304D02*
X120275183Y-47559429D01*
X120275183Y-47559429D02*
X120086621Y-47370868D01*
X120086621Y-47370868D02*
X119978871Y-47478617D01*
X120571494Y-47370868D02*
X120005809Y-46805182D01*
X120005809Y-46805182D02*
X120221308Y-46589683D01*
X120221308Y-46589683D02*
X120302120Y-46562746D01*
X120302120Y-46562746D02*
X120355995Y-46562746D01*
X120355995Y-46562746D02*
X120436807Y-46589683D01*
X120436807Y-46589683D02*
X120517619Y-46670495D01*
X120517619Y-46670495D02*
X120544557Y-46751307D01*
X120544557Y-46751307D02*
X120544557Y-46805182D01*
X120544557Y-46805182D02*
X120517619Y-46885994D01*
X120517619Y-46885994D02*
X120302120Y-47101494D01*
X121433491Y-46508871D02*
X121110242Y-46832120D01*
X121271867Y-46670495D02*
X120706181Y-46104810D01*
X120706181Y-46104810D02*
X120733119Y-46239497D01*
X120733119Y-46239497D02*
X120733119Y-46347246D01*
X120733119Y-46347246D02*
X120706181Y-46428059D01*
X119193998Y-82940868D02*
X119113185Y-82967805D01*
X119113185Y-82967805D02*
X119032373Y-83048618D01*
X119032373Y-83048618D02*
X118978498Y-83156367D01*
X118978498Y-83156367D02*
X118978498Y-83264117D01*
X118978498Y-83264117D02*
X119005436Y-83344929D01*
X119005436Y-83344929D02*
X119086248Y-83479616D01*
X119086248Y-83479616D02*
X119167060Y-83560428D01*
X119167060Y-83560428D02*
X119301747Y-83641241D01*
X119301747Y-83641241D02*
X119382560Y-83668178D01*
X119382560Y-83668178D02*
X119490309Y-83668178D01*
X119490309Y-83668178D02*
X119598059Y-83614303D01*
X119598059Y-83614303D02*
X119651934Y-83560428D01*
X119651934Y-83560428D02*
X119705808Y-83452679D01*
X119705808Y-83452679D02*
X119705808Y-83398804D01*
X119705808Y-83398804D02*
X119517247Y-83210242D01*
X119517247Y-83210242D02*
X119409497Y-83317992D01*
X120002120Y-83210242D02*
X119436434Y-82644557D01*
X119436434Y-82644557D02*
X119651934Y-82429057D01*
X119651934Y-82429057D02*
X119732746Y-82402120D01*
X119732746Y-82402120D02*
X119786621Y-82402120D01*
X119786621Y-82402120D02*
X119867433Y-82429057D01*
X119867433Y-82429057D02*
X119948245Y-82509870D01*
X119948245Y-82509870D02*
X119975182Y-82590682D01*
X119975182Y-82590682D02*
X119975182Y-82644557D01*
X119975182Y-82644557D02*
X119948245Y-82725369D01*
X119948245Y-82725369D02*
X119732746Y-82940868D01*
X120864117Y-82348245D02*
X120540868Y-82671494D01*
X120702492Y-82509870D02*
X120136807Y-81944184D01*
X120136807Y-81944184D02*
X120163744Y-82078871D01*
X120163744Y-82078871D02*
X120163744Y-82186621D01*
X120163744Y-82186621D02*
X120136807Y-82267433D01*
X120567805Y-81620935D02*
X120567805Y-81567060D01*
X120567805Y-81567060D02*
X120594743Y-81486248D01*
X120594743Y-81486248D02*
X120729430Y-81351561D01*
X120729430Y-81351561D02*
X120810242Y-81324624D01*
X120810242Y-81324624D02*
X120864117Y-81324624D01*
X120864117Y-81324624D02*
X120944929Y-81351561D01*
X120944929Y-81351561D02*
X120998804Y-81405436D01*
X120998804Y-81405436D02*
X121052679Y-81513186D01*
X121052679Y-81513186D02*
X121052679Y-82159683D01*
X121052679Y-82159683D02*
X121402865Y-81809497D01*
X119863372Y-44571494D02*
X119782560Y-44598431D01*
X119782560Y-44598431D02*
X119701748Y-44679243D01*
X119701748Y-44679243D02*
X119647873Y-44786993D01*
X119647873Y-44786993D02*
X119647873Y-44894742D01*
X119647873Y-44894742D02*
X119674810Y-44975555D01*
X119674810Y-44975555D02*
X119755623Y-45110242D01*
X119755623Y-45110242D02*
X119836435Y-45191054D01*
X119836435Y-45191054D02*
X119971122Y-45271866D01*
X119971122Y-45271866D02*
X120051934Y-45298803D01*
X120051934Y-45298803D02*
X120159684Y-45298803D01*
X120159684Y-45298803D02*
X120267433Y-45244929D01*
X120267433Y-45244929D02*
X120321308Y-45191054D01*
X120321308Y-45191054D02*
X120375183Y-45083304D01*
X120375183Y-45083304D02*
X120375183Y-45029429D01*
X120375183Y-45029429D02*
X120186621Y-44840868D01*
X120186621Y-44840868D02*
X120078871Y-44948617D01*
X120671494Y-44840868D02*
X120105809Y-44275182D01*
X120105809Y-44275182D02*
X120321308Y-44059683D01*
X120321308Y-44059683D02*
X120402120Y-44032746D01*
X120402120Y-44032746D02*
X120455995Y-44032746D01*
X120455995Y-44032746D02*
X120536807Y-44059683D01*
X120536807Y-44059683D02*
X120617619Y-44140495D01*
X120617619Y-44140495D02*
X120644557Y-44221307D01*
X120644557Y-44221307D02*
X120644557Y-44275182D01*
X120644557Y-44275182D02*
X120617619Y-44355994D01*
X120617619Y-44355994D02*
X120402120Y-44571494D01*
X120779244Y-43601747D02*
X120833119Y-43547872D01*
X120833119Y-43547872D02*
X120913931Y-43520935D01*
X120913931Y-43520935D02*
X120967806Y-43520935D01*
X120967806Y-43520935D02*
X121048618Y-43547872D01*
X121048618Y-43547872D02*
X121183305Y-43628685D01*
X121183305Y-43628685D02*
X121317992Y-43763372D01*
X121317992Y-43763372D02*
X121398804Y-43898059D01*
X121398804Y-43898059D02*
X121425741Y-43978871D01*
X121425741Y-43978871D02*
X121425741Y-44032746D01*
X121425741Y-44032746D02*
X121398804Y-44113558D01*
X121398804Y-44113558D02*
X121344929Y-44167433D01*
X121344929Y-44167433D02*
X121264117Y-44194370D01*
X121264117Y-44194370D02*
X121210242Y-44194370D01*
X121210242Y-44194370D02*
X121129430Y-44167433D01*
X121129430Y-44167433D02*
X120994743Y-44086620D01*
X120994743Y-44086620D02*
X120860056Y-43951933D01*
X120860056Y-43951933D02*
X120779244Y-43817246D01*
X120779244Y-43817246D02*
X120752306Y-43736434D01*
X120752306Y-43736434D02*
X120752306Y-43682559D01*
X120752306Y-43682559D02*
X120779244Y-43601747D01*
X119339998Y-85480868D02*
X119259185Y-85507805D01*
X119259185Y-85507805D02*
X119178373Y-85588618D01*
X119178373Y-85588618D02*
X119124498Y-85696367D01*
X119124498Y-85696367D02*
X119124498Y-85804117D01*
X119124498Y-85804117D02*
X119151436Y-85884929D01*
X119151436Y-85884929D02*
X119232248Y-86019616D01*
X119232248Y-86019616D02*
X119313060Y-86100428D01*
X119313060Y-86100428D02*
X119447747Y-86181241D01*
X119447747Y-86181241D02*
X119528560Y-86208178D01*
X119528560Y-86208178D02*
X119636309Y-86208178D01*
X119636309Y-86208178D02*
X119744059Y-86154303D01*
X119744059Y-86154303D02*
X119797934Y-86100428D01*
X119797934Y-86100428D02*
X119851808Y-85992679D01*
X119851808Y-85992679D02*
X119851808Y-85938804D01*
X119851808Y-85938804D02*
X119663247Y-85750242D01*
X119663247Y-85750242D02*
X119555497Y-85857992D01*
X120148120Y-85750242D02*
X119582434Y-85184557D01*
X119582434Y-85184557D02*
X119797934Y-84969057D01*
X119797934Y-84969057D02*
X119878746Y-84942120D01*
X119878746Y-84942120D02*
X119932621Y-84942120D01*
X119932621Y-84942120D02*
X120013433Y-84969057D01*
X120013433Y-84969057D02*
X120094245Y-85049870D01*
X120094245Y-85049870D02*
X120121182Y-85130682D01*
X120121182Y-85130682D02*
X120121182Y-85184557D01*
X120121182Y-85184557D02*
X120094245Y-85265369D01*
X120094245Y-85265369D02*
X119878746Y-85480868D01*
X121010117Y-84888245D02*
X120686868Y-85211494D01*
X120848492Y-85049870D02*
X120282807Y-84484184D01*
X120282807Y-84484184D02*
X120309744Y-84618871D01*
X120309744Y-84618871D02*
X120309744Y-84726621D01*
X120309744Y-84726621D02*
X120282807Y-84807433D01*
X120632993Y-84133998D02*
X120983179Y-83783812D01*
X120983179Y-83783812D02*
X121010117Y-84187873D01*
X121010117Y-84187873D02*
X121090929Y-84107060D01*
X121090929Y-84107060D02*
X121171741Y-84080123D01*
X121171741Y-84080123D02*
X121225616Y-84080123D01*
X121225616Y-84080123D02*
X121306428Y-84107060D01*
X121306428Y-84107060D02*
X121441115Y-84241747D01*
X121441115Y-84241747D02*
X121468053Y-84322560D01*
X121468053Y-84322560D02*
X121468053Y-84376434D01*
X121468053Y-84376434D02*
X121441115Y-84457247D01*
X121441115Y-84457247D02*
X121279491Y-84618871D01*
X121279491Y-84618871D02*
X121198679Y-84645808D01*
X121198679Y-84645808D02*
X121144804Y-84645808D01*
X119836435Y-87778431D02*
X119755623Y-87805368D01*
X119755623Y-87805368D02*
X119674811Y-87886180D01*
X119674811Y-87886180D02*
X119620936Y-87993930D01*
X119620936Y-87993930D02*
X119620936Y-88101680D01*
X119620936Y-88101680D02*
X119647873Y-88182492D01*
X119647873Y-88182492D02*
X119728685Y-88317179D01*
X119728685Y-88317179D02*
X119809498Y-88397991D01*
X119809498Y-88397991D02*
X119944185Y-88478803D01*
X119944185Y-88478803D02*
X120024997Y-88505741D01*
X120024997Y-88505741D02*
X120132746Y-88505741D01*
X120132746Y-88505741D02*
X120240496Y-88451866D01*
X120240496Y-88451866D02*
X120294371Y-88397991D01*
X120294371Y-88397991D02*
X120348246Y-88290241D01*
X120348246Y-88290241D02*
X120348246Y-88236367D01*
X120348246Y-88236367D02*
X120159684Y-88047805D01*
X120159684Y-88047805D02*
X120051934Y-88155554D01*
X120644557Y-88047805D02*
X120078872Y-87482119D01*
X120078872Y-87482119D02*
X120967806Y-87724556D01*
X120967806Y-87724556D02*
X120402120Y-87158871D01*
X121237180Y-87455182D02*
X120671494Y-86889497D01*
X120671494Y-86889497D02*
X120806181Y-86754810D01*
X120806181Y-86754810D02*
X120913931Y-86700935D01*
X120913931Y-86700935D02*
X121021680Y-86700935D01*
X121021680Y-86700935D02*
X121102493Y-86727872D01*
X121102493Y-86727872D02*
X121237180Y-86808685D01*
X121237180Y-86808685D02*
X121317992Y-86889497D01*
X121317992Y-86889497D02*
X121398804Y-87024184D01*
X121398804Y-87024184D02*
X121425741Y-87104996D01*
X121425741Y-87104996D02*
X121425741Y-87212746D01*
X121425741Y-87212746D02*
X121371867Y-87320495D01*
X121371867Y-87320495D02*
X121237180Y-87455182D01*
X145436435Y-75078431D02*
X145355623Y-75105368D01*
X145355623Y-75105368D02*
X145274811Y-75186180D01*
X145274811Y-75186180D02*
X145220936Y-75293930D01*
X145220936Y-75293930D02*
X145220936Y-75401680D01*
X145220936Y-75401680D02*
X145247873Y-75482492D01*
X145247873Y-75482492D02*
X145328685Y-75617179D01*
X145328685Y-75617179D02*
X145409498Y-75697991D01*
X145409498Y-75697991D02*
X145544185Y-75778803D01*
X145544185Y-75778803D02*
X145624997Y-75805741D01*
X145624997Y-75805741D02*
X145732746Y-75805741D01*
X145732746Y-75805741D02*
X145840496Y-75751866D01*
X145840496Y-75751866D02*
X145894371Y-75697991D01*
X145894371Y-75697991D02*
X145948246Y-75590241D01*
X145948246Y-75590241D02*
X145948246Y-75536367D01*
X145948246Y-75536367D02*
X145759684Y-75347805D01*
X145759684Y-75347805D02*
X145651934Y-75455554D01*
X146244557Y-75347805D02*
X145678872Y-74782119D01*
X145678872Y-74782119D02*
X146567806Y-75024556D01*
X146567806Y-75024556D02*
X146002120Y-74458871D01*
X146837180Y-74755182D02*
X146271494Y-74189497D01*
X146271494Y-74189497D02*
X146406181Y-74054810D01*
X146406181Y-74054810D02*
X146513931Y-74000935D01*
X146513931Y-74000935D02*
X146621680Y-74000935D01*
X146621680Y-74000935D02*
X146702493Y-74027872D01*
X146702493Y-74027872D02*
X146837180Y-74108685D01*
X146837180Y-74108685D02*
X146917992Y-74189497D01*
X146917992Y-74189497D02*
X146998804Y-74324184D01*
X146998804Y-74324184D02*
X147025741Y-74404996D01*
X147025741Y-74404996D02*
X147025741Y-74512746D01*
X147025741Y-74512746D02*
X146971867Y-74620495D01*
X146971867Y-74620495D02*
X146837180Y-74755182D01*
X145447998Y-65170868D02*
X145367185Y-65197805D01*
X145367185Y-65197805D02*
X145286373Y-65278618D01*
X145286373Y-65278618D02*
X145232498Y-65386367D01*
X145232498Y-65386367D02*
X145232498Y-65494117D01*
X145232498Y-65494117D02*
X145259436Y-65574929D01*
X145259436Y-65574929D02*
X145340248Y-65709616D01*
X145340248Y-65709616D02*
X145421060Y-65790428D01*
X145421060Y-65790428D02*
X145555747Y-65871241D01*
X145555747Y-65871241D02*
X145636560Y-65898178D01*
X145636560Y-65898178D02*
X145744309Y-65898178D01*
X145744309Y-65898178D02*
X145852059Y-65844303D01*
X145852059Y-65844303D02*
X145905934Y-65790428D01*
X145905934Y-65790428D02*
X145959808Y-65682679D01*
X145959808Y-65682679D02*
X145959808Y-65628804D01*
X145959808Y-65628804D02*
X145771247Y-65440242D01*
X145771247Y-65440242D02*
X145663497Y-65547992D01*
X146256120Y-65440242D02*
X145690434Y-64874557D01*
X145690434Y-64874557D02*
X145905934Y-64659057D01*
X145905934Y-64659057D02*
X145986746Y-64632120D01*
X145986746Y-64632120D02*
X146040621Y-64632120D01*
X146040621Y-64632120D02*
X146121433Y-64659057D01*
X146121433Y-64659057D02*
X146202245Y-64739870D01*
X146202245Y-64739870D02*
X146229182Y-64820682D01*
X146229182Y-64820682D02*
X146229182Y-64874557D01*
X146229182Y-64874557D02*
X146202245Y-64955369D01*
X146202245Y-64955369D02*
X145986746Y-65170868D01*
X146283057Y-64389683D02*
X146283057Y-64335809D01*
X146283057Y-64335809D02*
X146309995Y-64254996D01*
X146309995Y-64254996D02*
X146444682Y-64120309D01*
X146444682Y-64120309D02*
X146525494Y-64093372D01*
X146525494Y-64093372D02*
X146579369Y-64093372D01*
X146579369Y-64093372D02*
X146660181Y-64120309D01*
X146660181Y-64120309D02*
X146714056Y-64174184D01*
X146714056Y-64174184D02*
X146767930Y-64281934D01*
X146767930Y-64281934D02*
X146767930Y-64928431D01*
X146767930Y-64928431D02*
X147118117Y-64578245D01*
X146740993Y-63823998D02*
X147118117Y-63446874D01*
X147118117Y-63446874D02*
X147441366Y-64254996D01*
X145272407Y-52538584D02*
X145622593Y-52188398D01*
X145622593Y-52188398D02*
X145649531Y-52592459D01*
X145649531Y-52592459D02*
X145730343Y-52511646D01*
X145730343Y-52511646D02*
X145811155Y-52484709D01*
X145811155Y-52484709D02*
X145865030Y-52484709D01*
X145865030Y-52484709D02*
X145945842Y-52511646D01*
X145945842Y-52511646D02*
X146080529Y-52646333D01*
X146080529Y-52646333D02*
X146107467Y-52727146D01*
X146107467Y-52727146D02*
X146107467Y-52781020D01*
X146107467Y-52781020D02*
X146080529Y-52861833D01*
X146080529Y-52861833D02*
X145918905Y-53023457D01*
X145918905Y-53023457D02*
X145838093Y-53050394D01*
X145838093Y-53050394D02*
X145784218Y-53050394D01*
X145784218Y-52026773D02*
X146538465Y-52403897D01*
X146538465Y-52403897D02*
X146161342Y-51649649D01*
X146296028Y-51514963D02*
X146646215Y-51164776D01*
X146646215Y-51164776D02*
X146673152Y-51568837D01*
X146673152Y-51568837D02*
X146753964Y-51488025D01*
X146753964Y-51488025D02*
X146834776Y-51461088D01*
X146834776Y-51461088D02*
X146888651Y-51461088D01*
X146888651Y-51461088D02*
X146969464Y-51488025D01*
X146969464Y-51488025D02*
X147104151Y-51622712D01*
X147104151Y-51622712D02*
X147131088Y-51703524D01*
X147131088Y-51703524D02*
X147131088Y-51757399D01*
X147131088Y-51757399D02*
X147104151Y-51838211D01*
X147104151Y-51838211D02*
X146942526Y-51999836D01*
X146942526Y-51999836D02*
X146861714Y-52026773D01*
X146861714Y-52026773D02*
X146807839Y-52026773D01*
X147373525Y-51676587D02*
X147804523Y-51245588D01*
X147589024Y-50760715D02*
X147777586Y-50572153D01*
X148154709Y-50787652D02*
X147885335Y-51057026D01*
X147885335Y-51057026D02*
X147319650Y-50491341D01*
X147319650Y-50491341D02*
X147589024Y-50221967D01*
X148397146Y-50545215D02*
X147831461Y-49979530D01*
X147831461Y-49979530D02*
X148720395Y-50221967D01*
X148720395Y-50221967D02*
X148154710Y-49656281D01*
X119863372Y-64891494D02*
X119782560Y-64918431D01*
X119782560Y-64918431D02*
X119701748Y-64999243D01*
X119701748Y-64999243D02*
X119647873Y-65106993D01*
X119647873Y-65106993D02*
X119647873Y-65214742D01*
X119647873Y-65214742D02*
X119674810Y-65295555D01*
X119674810Y-65295555D02*
X119755623Y-65430242D01*
X119755623Y-65430242D02*
X119836435Y-65511054D01*
X119836435Y-65511054D02*
X119971122Y-65591866D01*
X119971122Y-65591866D02*
X120051934Y-65618803D01*
X120051934Y-65618803D02*
X120159684Y-65618803D01*
X120159684Y-65618803D02*
X120267433Y-65564929D01*
X120267433Y-65564929D02*
X120321308Y-65511054D01*
X120321308Y-65511054D02*
X120375183Y-65403304D01*
X120375183Y-65403304D02*
X120375183Y-65349429D01*
X120375183Y-65349429D02*
X120186621Y-65160868D01*
X120186621Y-65160868D02*
X120078871Y-65268617D01*
X120671494Y-65160868D02*
X120105809Y-64595182D01*
X120105809Y-64595182D02*
X120321308Y-64379683D01*
X120321308Y-64379683D02*
X120402120Y-64352746D01*
X120402120Y-64352746D02*
X120455995Y-64352746D01*
X120455995Y-64352746D02*
X120536807Y-64379683D01*
X120536807Y-64379683D02*
X120617619Y-64460495D01*
X120617619Y-64460495D02*
X120644557Y-64541307D01*
X120644557Y-64541307D02*
X120644557Y-64595182D01*
X120644557Y-64595182D02*
X120617619Y-64675994D01*
X120617619Y-64675994D02*
X120402120Y-64891494D01*
X120913931Y-63787060D02*
X120806181Y-63894810D01*
X120806181Y-63894810D02*
X120779244Y-63975622D01*
X120779244Y-63975622D02*
X120779244Y-64029497D01*
X120779244Y-64029497D02*
X120806181Y-64164184D01*
X120806181Y-64164184D02*
X120886993Y-64298871D01*
X120886993Y-64298871D02*
X121102493Y-64514370D01*
X121102493Y-64514370D02*
X121183305Y-64541307D01*
X121183305Y-64541307D02*
X121237180Y-64541307D01*
X121237180Y-64541307D02*
X121317992Y-64514370D01*
X121317992Y-64514370D02*
X121425741Y-64406620D01*
X121425741Y-64406620D02*
X121452679Y-64325808D01*
X121452679Y-64325808D02*
X121452679Y-64271933D01*
X121452679Y-64271933D02*
X121425741Y-64191121D01*
X121425741Y-64191121D02*
X121291054Y-64056434D01*
X121291054Y-64056434D02*
X121210242Y-64029497D01*
X121210242Y-64029497D02*
X121156367Y-64029497D01*
X121156367Y-64029497D02*
X121075555Y-64056434D01*
X121075555Y-64056434D02*
X120967806Y-64164184D01*
X120967806Y-64164184D02*
X120940868Y-64244996D01*
X120940868Y-64244996D02*
X120940868Y-64298871D01*
X120940868Y-64298871D02*
X120967806Y-64379683D01*
X119763372Y-52191494D02*
X119682560Y-52218431D01*
X119682560Y-52218431D02*
X119601748Y-52299243D01*
X119601748Y-52299243D02*
X119547873Y-52406993D01*
X119547873Y-52406993D02*
X119547873Y-52514742D01*
X119547873Y-52514742D02*
X119574810Y-52595555D01*
X119574810Y-52595555D02*
X119655623Y-52730242D01*
X119655623Y-52730242D02*
X119736435Y-52811054D01*
X119736435Y-52811054D02*
X119871122Y-52891866D01*
X119871122Y-52891866D02*
X119951934Y-52918803D01*
X119951934Y-52918803D02*
X120059684Y-52918803D01*
X120059684Y-52918803D02*
X120167433Y-52864929D01*
X120167433Y-52864929D02*
X120221308Y-52811054D01*
X120221308Y-52811054D02*
X120275183Y-52703304D01*
X120275183Y-52703304D02*
X120275183Y-52649429D01*
X120275183Y-52649429D02*
X120086621Y-52460868D01*
X120086621Y-52460868D02*
X119978871Y-52568617D01*
X120571494Y-52460868D02*
X120005809Y-51895182D01*
X120005809Y-51895182D02*
X120221308Y-51679683D01*
X120221308Y-51679683D02*
X120302120Y-51652746D01*
X120302120Y-51652746D02*
X120355995Y-51652746D01*
X120355995Y-51652746D02*
X120436807Y-51679683D01*
X120436807Y-51679683D02*
X120517619Y-51760495D01*
X120517619Y-51760495D02*
X120544557Y-51841307D01*
X120544557Y-51841307D02*
X120544557Y-51895182D01*
X120544557Y-51895182D02*
X120517619Y-51975994D01*
X120517619Y-51975994D02*
X120302120Y-52191494D01*
X120598432Y-51410309D02*
X120598432Y-51356434D01*
X120598432Y-51356434D02*
X120625369Y-51275622D01*
X120625369Y-51275622D02*
X120760056Y-51140935D01*
X120760056Y-51140935D02*
X120840868Y-51113998D01*
X120840868Y-51113998D02*
X120894743Y-51113998D01*
X120894743Y-51113998D02*
X120975555Y-51140935D01*
X120975555Y-51140935D02*
X121029430Y-51194810D01*
X121029430Y-51194810D02*
X121083305Y-51302559D01*
X121083305Y-51302559D02*
X121083305Y-51949057D01*
X121083305Y-51949057D02*
X121433491Y-51598871D01*
X119836435Y-62378431D02*
X119755623Y-62405368D01*
X119755623Y-62405368D02*
X119674811Y-62486180D01*
X119674811Y-62486180D02*
X119620936Y-62593930D01*
X119620936Y-62593930D02*
X119620936Y-62701680D01*
X119620936Y-62701680D02*
X119647873Y-62782492D01*
X119647873Y-62782492D02*
X119728685Y-62917179D01*
X119728685Y-62917179D02*
X119809498Y-62997991D01*
X119809498Y-62997991D02*
X119944185Y-63078803D01*
X119944185Y-63078803D02*
X120024997Y-63105741D01*
X120024997Y-63105741D02*
X120132746Y-63105741D01*
X120132746Y-63105741D02*
X120240496Y-63051866D01*
X120240496Y-63051866D02*
X120294371Y-62997991D01*
X120294371Y-62997991D02*
X120348246Y-62890241D01*
X120348246Y-62890241D02*
X120348246Y-62836367D01*
X120348246Y-62836367D02*
X120159684Y-62647805D01*
X120159684Y-62647805D02*
X120051934Y-62755554D01*
X120644557Y-62647805D02*
X120078872Y-62082119D01*
X120078872Y-62082119D02*
X120967806Y-62324556D01*
X120967806Y-62324556D02*
X120402120Y-61758871D01*
X121237180Y-62055182D02*
X120671494Y-61489497D01*
X120671494Y-61489497D02*
X120806181Y-61354810D01*
X120806181Y-61354810D02*
X120913931Y-61300935D01*
X120913931Y-61300935D02*
X121021680Y-61300935D01*
X121021680Y-61300935D02*
X121102493Y-61327872D01*
X121102493Y-61327872D02*
X121237180Y-61408685D01*
X121237180Y-61408685D02*
X121317992Y-61489497D01*
X121317992Y-61489497D02*
X121398804Y-61624184D01*
X121398804Y-61624184D02*
X121425741Y-61704996D01*
X121425741Y-61704996D02*
X121425741Y-61812746D01*
X121425741Y-61812746D02*
X121371867Y-61920495D01*
X121371867Y-61920495D02*
X121237180Y-62055182D01*
X119863372Y-59811494D02*
X119782560Y-59838431D01*
X119782560Y-59838431D02*
X119701748Y-59919243D01*
X119701748Y-59919243D02*
X119647873Y-60026993D01*
X119647873Y-60026993D02*
X119647873Y-60134742D01*
X119647873Y-60134742D02*
X119674810Y-60215555D01*
X119674810Y-60215555D02*
X119755623Y-60350242D01*
X119755623Y-60350242D02*
X119836435Y-60431054D01*
X119836435Y-60431054D02*
X119971122Y-60511866D01*
X119971122Y-60511866D02*
X120051934Y-60538803D01*
X120051934Y-60538803D02*
X120159684Y-60538803D01*
X120159684Y-60538803D02*
X120267433Y-60484929D01*
X120267433Y-60484929D02*
X120321308Y-60431054D01*
X120321308Y-60431054D02*
X120375183Y-60323304D01*
X120375183Y-60323304D02*
X120375183Y-60269429D01*
X120375183Y-60269429D02*
X120186621Y-60080868D01*
X120186621Y-60080868D02*
X120078871Y-60188617D01*
X120671494Y-60080868D02*
X120105809Y-59515182D01*
X120105809Y-59515182D02*
X120321308Y-59299683D01*
X120321308Y-59299683D02*
X120402120Y-59272746D01*
X120402120Y-59272746D02*
X120455995Y-59272746D01*
X120455995Y-59272746D02*
X120536807Y-59299683D01*
X120536807Y-59299683D02*
X120617619Y-59380495D01*
X120617619Y-59380495D02*
X120644557Y-59461307D01*
X120644557Y-59461307D02*
X120644557Y-59515182D01*
X120644557Y-59515182D02*
X120617619Y-59595994D01*
X120617619Y-59595994D02*
X120402120Y-59811494D01*
X120940868Y-58680123D02*
X120671494Y-58949497D01*
X120671494Y-58949497D02*
X120913931Y-59245808D01*
X120913931Y-59245808D02*
X120913931Y-59191933D01*
X120913931Y-59191933D02*
X120940868Y-59111121D01*
X120940868Y-59111121D02*
X121075555Y-58976434D01*
X121075555Y-58976434D02*
X121156367Y-58949497D01*
X121156367Y-58949497D02*
X121210242Y-58949497D01*
X121210242Y-58949497D02*
X121291054Y-58976434D01*
X121291054Y-58976434D02*
X121425741Y-59111121D01*
X121425741Y-59111121D02*
X121452679Y-59191933D01*
X121452679Y-59191933D02*
X121452679Y-59245808D01*
X121452679Y-59245808D02*
X121425741Y-59326620D01*
X121425741Y-59326620D02*
X121291054Y-59461307D01*
X121291054Y-59461307D02*
X121210242Y-59488245D01*
X121210242Y-59488245D02*
X121156367Y-59488245D01*
X119863372Y-57271494D02*
X119782560Y-57298431D01*
X119782560Y-57298431D02*
X119701748Y-57379243D01*
X119701748Y-57379243D02*
X119647873Y-57486993D01*
X119647873Y-57486993D02*
X119647873Y-57594742D01*
X119647873Y-57594742D02*
X119674810Y-57675555D01*
X119674810Y-57675555D02*
X119755623Y-57810242D01*
X119755623Y-57810242D02*
X119836435Y-57891054D01*
X119836435Y-57891054D02*
X119971122Y-57971866D01*
X119971122Y-57971866D02*
X120051934Y-57998803D01*
X120051934Y-57998803D02*
X120159684Y-57998803D01*
X120159684Y-57998803D02*
X120267433Y-57944929D01*
X120267433Y-57944929D02*
X120321308Y-57891054D01*
X120321308Y-57891054D02*
X120375183Y-57783304D01*
X120375183Y-57783304D02*
X120375183Y-57729429D01*
X120375183Y-57729429D02*
X120186621Y-57540868D01*
X120186621Y-57540868D02*
X120078871Y-57648617D01*
X120671494Y-57540868D02*
X120105809Y-56975182D01*
X120105809Y-56975182D02*
X120321308Y-56759683D01*
X120321308Y-56759683D02*
X120402120Y-56732746D01*
X120402120Y-56732746D02*
X120455995Y-56732746D01*
X120455995Y-56732746D02*
X120536807Y-56759683D01*
X120536807Y-56759683D02*
X120617619Y-56840495D01*
X120617619Y-56840495D02*
X120644557Y-56921307D01*
X120644557Y-56921307D02*
X120644557Y-56975182D01*
X120644557Y-56975182D02*
X120617619Y-57055994D01*
X120617619Y-57055994D02*
X120402120Y-57271494D01*
X121102493Y-56355622D02*
X121479616Y-56732746D01*
X120752306Y-56274810D02*
X121021680Y-56813558D01*
X121021680Y-56813558D02*
X121371867Y-56463372D01*
X119836435Y-49678431D02*
X119755623Y-49705368D01*
X119755623Y-49705368D02*
X119674811Y-49786180D01*
X119674811Y-49786180D02*
X119620936Y-49893930D01*
X119620936Y-49893930D02*
X119620936Y-50001680D01*
X119620936Y-50001680D02*
X119647873Y-50082492D01*
X119647873Y-50082492D02*
X119728685Y-50217179D01*
X119728685Y-50217179D02*
X119809498Y-50297991D01*
X119809498Y-50297991D02*
X119944185Y-50378803D01*
X119944185Y-50378803D02*
X120024997Y-50405741D01*
X120024997Y-50405741D02*
X120132746Y-50405741D01*
X120132746Y-50405741D02*
X120240496Y-50351866D01*
X120240496Y-50351866D02*
X120294371Y-50297991D01*
X120294371Y-50297991D02*
X120348246Y-50190241D01*
X120348246Y-50190241D02*
X120348246Y-50136367D01*
X120348246Y-50136367D02*
X120159684Y-49947805D01*
X120159684Y-49947805D02*
X120051934Y-50055554D01*
X120644557Y-49947805D02*
X120078872Y-49382119D01*
X120078872Y-49382119D02*
X120967806Y-49624556D01*
X120967806Y-49624556D02*
X120402120Y-49058871D01*
X121237180Y-49355182D02*
X120671494Y-48789497D01*
X120671494Y-48789497D02*
X120806181Y-48654810D01*
X120806181Y-48654810D02*
X120913931Y-48600935D01*
X120913931Y-48600935D02*
X121021680Y-48600935D01*
X121021680Y-48600935D02*
X121102493Y-48627872D01*
X121102493Y-48627872D02*
X121237180Y-48708685D01*
X121237180Y-48708685D02*
X121317992Y-48789497D01*
X121317992Y-48789497D02*
X121398804Y-48924184D01*
X121398804Y-48924184D02*
X121425741Y-49004996D01*
X121425741Y-49004996D02*
X121425741Y-49112746D01*
X121425741Y-49112746D02*
X121371867Y-49220495D01*
X121371867Y-49220495D02*
X121237180Y-49355182D01*
X145270749Y-47650242D02*
X146024996Y-48027366D01*
X146024996Y-48027366D02*
X145647873Y-47273118D01*
X146348245Y-47650242D02*
X146455995Y-47596367D01*
X146455995Y-47596367D02*
X146590682Y-47461680D01*
X146590682Y-47461680D02*
X146617619Y-47380868D01*
X146617619Y-47380868D02*
X146617619Y-47326993D01*
X146617619Y-47326993D02*
X146590682Y-47246181D01*
X146590682Y-47246181D02*
X146536807Y-47192306D01*
X146536807Y-47192306D02*
X146455995Y-47165369D01*
X146455995Y-47165369D02*
X146402120Y-47165369D01*
X146402120Y-47165369D02*
X146321308Y-47192306D01*
X146321308Y-47192306D02*
X146186621Y-47273118D01*
X146186621Y-47273118D02*
X146105808Y-47300056D01*
X146105808Y-47300056D02*
X146051934Y-47300056D01*
X146051934Y-47300056D02*
X145971121Y-47273118D01*
X145971121Y-47273118D02*
X145917247Y-47219244D01*
X145917247Y-47219244D02*
X145890309Y-47138431D01*
X145890309Y-47138431D02*
X145890309Y-47084557D01*
X145890309Y-47084557D02*
X145917247Y-47003744D01*
X145917247Y-47003744D02*
X146051934Y-46869057D01*
X146051934Y-46869057D02*
X146159683Y-46815183D01*
X146779244Y-46734370D02*
X147048618Y-47003744D01*
X146294370Y-46626621D02*
X146779244Y-46734370D01*
X146779244Y-46734370D02*
X146671494Y-46249497D01*
X147371866Y-46626621D02*
X147479616Y-46572746D01*
X147479616Y-46572746D02*
X147614303Y-46438059D01*
X147614303Y-46438059D02*
X147641240Y-46357247D01*
X147641240Y-46357247D02*
X147641240Y-46303372D01*
X147641240Y-46303372D02*
X147614303Y-46222560D01*
X147614303Y-46222560D02*
X147560428Y-46168685D01*
X147560428Y-46168685D02*
X147479616Y-46141748D01*
X147479616Y-46141748D02*
X147425741Y-46141748D01*
X147425741Y-46141748D02*
X147344929Y-46168685D01*
X147344929Y-46168685D02*
X147210242Y-46249497D01*
X147210242Y-46249497D02*
X147129430Y-46276435D01*
X147129430Y-46276435D02*
X147075555Y-46276435D01*
X147075555Y-46276435D02*
X146994743Y-46249497D01*
X146994743Y-46249497D02*
X146940868Y-46195622D01*
X146940868Y-46195622D02*
X146913930Y-46114810D01*
X146913930Y-46114810D02*
X146913930Y-46060935D01*
X146913930Y-46060935D02*
X146940868Y-45980123D01*
X146940868Y-45980123D02*
X147075555Y-45845436D01*
X147075555Y-45845436D02*
X147183304Y-45791561D01*
X145447998Y-77870868D02*
X145367185Y-77897805D01*
X145367185Y-77897805D02*
X145286373Y-77978618D01*
X145286373Y-77978618D02*
X145232498Y-78086367D01*
X145232498Y-78086367D02*
X145232498Y-78194117D01*
X145232498Y-78194117D02*
X145259436Y-78274929D01*
X145259436Y-78274929D02*
X145340248Y-78409616D01*
X145340248Y-78409616D02*
X145421060Y-78490428D01*
X145421060Y-78490428D02*
X145555747Y-78571241D01*
X145555747Y-78571241D02*
X145636560Y-78598178D01*
X145636560Y-78598178D02*
X145744309Y-78598178D01*
X145744309Y-78598178D02*
X145852059Y-78544303D01*
X145852059Y-78544303D02*
X145905934Y-78490428D01*
X145905934Y-78490428D02*
X145959808Y-78382679D01*
X145959808Y-78382679D02*
X145959808Y-78328804D01*
X145959808Y-78328804D02*
X145771247Y-78140242D01*
X145771247Y-78140242D02*
X145663497Y-78247992D01*
X146256120Y-78140242D02*
X145690434Y-77574557D01*
X145690434Y-77574557D02*
X145905934Y-77359057D01*
X145905934Y-77359057D02*
X145986746Y-77332120D01*
X145986746Y-77332120D02*
X146040621Y-77332120D01*
X146040621Y-77332120D02*
X146121433Y-77359057D01*
X146121433Y-77359057D02*
X146202245Y-77439870D01*
X146202245Y-77439870D02*
X146229182Y-77520682D01*
X146229182Y-77520682D02*
X146229182Y-77574557D01*
X146229182Y-77574557D02*
X146202245Y-77655369D01*
X146202245Y-77655369D02*
X145986746Y-77870868D01*
X146283057Y-77089683D02*
X146283057Y-77035809D01*
X146283057Y-77035809D02*
X146309995Y-76954996D01*
X146309995Y-76954996D02*
X146444682Y-76820309D01*
X146444682Y-76820309D02*
X146525494Y-76793372D01*
X146525494Y-76793372D02*
X146579369Y-76793372D01*
X146579369Y-76793372D02*
X146660181Y-76820309D01*
X146660181Y-76820309D02*
X146714056Y-76874184D01*
X146714056Y-76874184D02*
X146767930Y-76981934D01*
X146767930Y-76981934D02*
X146767930Y-77628431D01*
X146767930Y-77628431D02*
X147118117Y-77278245D01*
X147656865Y-76739497D02*
X147333616Y-77062746D01*
X147495240Y-76901121D02*
X146929555Y-76335436D01*
X146929555Y-76335436D02*
X146956492Y-76470123D01*
X146956492Y-76470123D02*
X146956492Y-76577873D01*
X146956492Y-76577873D02*
X146929555Y-76658685D01*
X145447998Y-72780868D02*
X145367185Y-72807805D01*
X145367185Y-72807805D02*
X145286373Y-72888618D01*
X145286373Y-72888618D02*
X145232498Y-72996367D01*
X145232498Y-72996367D02*
X145232498Y-73104117D01*
X145232498Y-73104117D02*
X145259436Y-73184929D01*
X145259436Y-73184929D02*
X145340248Y-73319616D01*
X145340248Y-73319616D02*
X145421060Y-73400428D01*
X145421060Y-73400428D02*
X145555747Y-73481241D01*
X145555747Y-73481241D02*
X145636560Y-73508178D01*
X145636560Y-73508178D02*
X145744309Y-73508178D01*
X145744309Y-73508178D02*
X145852059Y-73454303D01*
X145852059Y-73454303D02*
X145905934Y-73400428D01*
X145905934Y-73400428D02*
X145959808Y-73292679D01*
X145959808Y-73292679D02*
X145959808Y-73238804D01*
X145959808Y-73238804D02*
X145771247Y-73050242D01*
X145771247Y-73050242D02*
X145663497Y-73157992D01*
X146256120Y-73050242D02*
X145690434Y-72484557D01*
X145690434Y-72484557D02*
X145905934Y-72269057D01*
X145905934Y-72269057D02*
X145986746Y-72242120D01*
X145986746Y-72242120D02*
X146040621Y-72242120D01*
X146040621Y-72242120D02*
X146121433Y-72269057D01*
X146121433Y-72269057D02*
X146202245Y-72349870D01*
X146202245Y-72349870D02*
X146229182Y-72430682D01*
X146229182Y-72430682D02*
X146229182Y-72484557D01*
X146229182Y-72484557D02*
X146202245Y-72565369D01*
X146202245Y-72565369D02*
X145986746Y-72780868D01*
X146283057Y-71999683D02*
X146283057Y-71945809D01*
X146283057Y-71945809D02*
X146309995Y-71864996D01*
X146309995Y-71864996D02*
X146444682Y-71730309D01*
X146444682Y-71730309D02*
X146525494Y-71703372D01*
X146525494Y-71703372D02*
X146579369Y-71703372D01*
X146579369Y-71703372D02*
X146660181Y-71730309D01*
X146660181Y-71730309D02*
X146714056Y-71784184D01*
X146714056Y-71784184D02*
X146767930Y-71891934D01*
X146767930Y-71891934D02*
X146767930Y-72538431D01*
X146767930Y-72538431D02*
X147118117Y-72188245D01*
X146821805Y-71460935D02*
X146821805Y-71407060D01*
X146821805Y-71407060D02*
X146848743Y-71326248D01*
X146848743Y-71326248D02*
X146983430Y-71191561D01*
X146983430Y-71191561D02*
X147064242Y-71164624D01*
X147064242Y-71164624D02*
X147118117Y-71164624D01*
X147118117Y-71164624D02*
X147198929Y-71191561D01*
X147198929Y-71191561D02*
X147252804Y-71245436D01*
X147252804Y-71245436D02*
X147306679Y-71353186D01*
X147306679Y-71353186D02*
X147306679Y-71999683D01*
X147306679Y-71999683D02*
X147656865Y-71649497D01*
X119339998Y-93100868D02*
X119259185Y-93127805D01*
X119259185Y-93127805D02*
X119178373Y-93208618D01*
X119178373Y-93208618D02*
X119124498Y-93316367D01*
X119124498Y-93316367D02*
X119124498Y-93424117D01*
X119124498Y-93424117D02*
X119151436Y-93504929D01*
X119151436Y-93504929D02*
X119232248Y-93639616D01*
X119232248Y-93639616D02*
X119313060Y-93720428D01*
X119313060Y-93720428D02*
X119447747Y-93801241D01*
X119447747Y-93801241D02*
X119528560Y-93828178D01*
X119528560Y-93828178D02*
X119636309Y-93828178D01*
X119636309Y-93828178D02*
X119744059Y-93774303D01*
X119744059Y-93774303D02*
X119797934Y-93720428D01*
X119797934Y-93720428D02*
X119851808Y-93612679D01*
X119851808Y-93612679D02*
X119851808Y-93558804D01*
X119851808Y-93558804D02*
X119663247Y-93370242D01*
X119663247Y-93370242D02*
X119555497Y-93477992D01*
X120148120Y-93370242D02*
X119582434Y-92804557D01*
X119582434Y-92804557D02*
X119797934Y-92589057D01*
X119797934Y-92589057D02*
X119878746Y-92562120D01*
X119878746Y-92562120D02*
X119932621Y-92562120D01*
X119932621Y-92562120D02*
X120013433Y-92589057D01*
X120013433Y-92589057D02*
X120094245Y-92669870D01*
X120094245Y-92669870D02*
X120121182Y-92750682D01*
X120121182Y-92750682D02*
X120121182Y-92804557D01*
X120121182Y-92804557D02*
X120094245Y-92885369D01*
X120094245Y-92885369D02*
X119878746Y-93100868D01*
X121010117Y-92508245D02*
X120686868Y-92831494D01*
X120848492Y-92669870D02*
X120282807Y-92104184D01*
X120282807Y-92104184D02*
X120309744Y-92238871D01*
X120309744Y-92238871D02*
X120309744Y-92346621D01*
X120309744Y-92346621D02*
X120282807Y-92427433D01*
X120956242Y-91430749D02*
X120686868Y-91700123D01*
X120686868Y-91700123D02*
X120929305Y-91996434D01*
X120929305Y-91996434D02*
X120929305Y-91942560D01*
X120929305Y-91942560D02*
X120956242Y-91861747D01*
X120956242Y-91861747D02*
X121090929Y-91727060D01*
X121090929Y-91727060D02*
X121171741Y-91700123D01*
X121171741Y-91700123D02*
X121225616Y-91700123D01*
X121225616Y-91700123D02*
X121306428Y-91727060D01*
X121306428Y-91727060D02*
X121441115Y-91861747D01*
X121441115Y-91861747D02*
X121468053Y-91942560D01*
X121468053Y-91942560D02*
X121468053Y-91996434D01*
X121468053Y-91996434D02*
X121441115Y-92077247D01*
X121441115Y-92077247D02*
X121306428Y-92211934D01*
X121306428Y-92211934D02*
X121225616Y-92238871D01*
X121225616Y-92238871D02*
X121171741Y-92238871D01*
X145436435Y-49678431D02*
X145355623Y-49705368D01*
X145355623Y-49705368D02*
X145274811Y-49786180D01*
X145274811Y-49786180D02*
X145220936Y-49893930D01*
X145220936Y-49893930D02*
X145220936Y-50001680D01*
X145220936Y-50001680D02*
X145247873Y-50082492D01*
X145247873Y-50082492D02*
X145328685Y-50217179D01*
X145328685Y-50217179D02*
X145409498Y-50297991D01*
X145409498Y-50297991D02*
X145544185Y-50378803D01*
X145544185Y-50378803D02*
X145624997Y-50405741D01*
X145624997Y-50405741D02*
X145732746Y-50405741D01*
X145732746Y-50405741D02*
X145840496Y-50351866D01*
X145840496Y-50351866D02*
X145894371Y-50297991D01*
X145894371Y-50297991D02*
X145948246Y-50190241D01*
X145948246Y-50190241D02*
X145948246Y-50136367D01*
X145948246Y-50136367D02*
X145759684Y-49947805D01*
X145759684Y-49947805D02*
X145651934Y-50055554D01*
X146244557Y-49947805D02*
X145678872Y-49382119D01*
X145678872Y-49382119D02*
X146567806Y-49624556D01*
X146567806Y-49624556D02*
X146002120Y-49058871D01*
X146837180Y-49355182D02*
X146271494Y-48789497D01*
X146271494Y-48789497D02*
X146406181Y-48654810D01*
X146406181Y-48654810D02*
X146513931Y-48600935D01*
X146513931Y-48600935D02*
X146621680Y-48600935D01*
X146621680Y-48600935D02*
X146702493Y-48627872D01*
X146702493Y-48627872D02*
X146837180Y-48708685D01*
X146837180Y-48708685D02*
X146917992Y-48789497D01*
X146917992Y-48789497D02*
X146998804Y-48924184D01*
X146998804Y-48924184D02*
X147025741Y-49004996D01*
X147025741Y-49004996D02*
X147025741Y-49112746D01*
X147025741Y-49112746D02*
X146971867Y-49220495D01*
X146971867Y-49220495D02*
X146837180Y-49355182D01*
X119963372Y-67401494D02*
X119882560Y-67428431D01*
X119882560Y-67428431D02*
X119801748Y-67509243D01*
X119801748Y-67509243D02*
X119747873Y-67616993D01*
X119747873Y-67616993D02*
X119747873Y-67724742D01*
X119747873Y-67724742D02*
X119774810Y-67805555D01*
X119774810Y-67805555D02*
X119855623Y-67940242D01*
X119855623Y-67940242D02*
X119936435Y-68021054D01*
X119936435Y-68021054D02*
X120071122Y-68101866D01*
X120071122Y-68101866D02*
X120151934Y-68128803D01*
X120151934Y-68128803D02*
X120259684Y-68128803D01*
X120259684Y-68128803D02*
X120367433Y-68074929D01*
X120367433Y-68074929D02*
X120421308Y-68021054D01*
X120421308Y-68021054D02*
X120475183Y-67913304D01*
X120475183Y-67913304D02*
X120475183Y-67859429D01*
X120475183Y-67859429D02*
X120286621Y-67670868D01*
X120286621Y-67670868D02*
X120178871Y-67778617D01*
X120771494Y-67670868D02*
X120205809Y-67105182D01*
X120205809Y-67105182D02*
X120421308Y-66889683D01*
X120421308Y-66889683D02*
X120502120Y-66862746D01*
X120502120Y-66862746D02*
X120555995Y-66862746D01*
X120555995Y-66862746D02*
X120636807Y-66889683D01*
X120636807Y-66889683D02*
X120717619Y-66970495D01*
X120717619Y-66970495D02*
X120744557Y-67051307D01*
X120744557Y-67051307D02*
X120744557Y-67105182D01*
X120744557Y-67105182D02*
X120717619Y-67185994D01*
X120717619Y-67185994D02*
X120502120Y-67401494D01*
X120717619Y-66593372D02*
X121094743Y-66216248D01*
X121094743Y-66216248D02*
X121417992Y-67024370D01*
X145447998Y-59826868D02*
X145367185Y-59853805D01*
X145367185Y-59853805D02*
X145286373Y-59934618D01*
X145286373Y-59934618D02*
X145232498Y-60042367D01*
X145232498Y-60042367D02*
X145232498Y-60150117D01*
X145232498Y-60150117D02*
X145259436Y-60230929D01*
X145259436Y-60230929D02*
X145340248Y-60365616D01*
X145340248Y-60365616D02*
X145421060Y-60446428D01*
X145421060Y-60446428D02*
X145555747Y-60527241D01*
X145555747Y-60527241D02*
X145636560Y-60554178D01*
X145636560Y-60554178D02*
X145744309Y-60554178D01*
X145744309Y-60554178D02*
X145852059Y-60500303D01*
X145852059Y-60500303D02*
X145905934Y-60446428D01*
X145905934Y-60446428D02*
X145959808Y-60338679D01*
X145959808Y-60338679D02*
X145959808Y-60284804D01*
X145959808Y-60284804D02*
X145771247Y-60096242D01*
X145771247Y-60096242D02*
X145663497Y-60203992D01*
X146256120Y-60096242D02*
X145690434Y-59530557D01*
X145690434Y-59530557D02*
X145905934Y-59315057D01*
X145905934Y-59315057D02*
X145986746Y-59288120D01*
X145986746Y-59288120D02*
X146040621Y-59288120D01*
X146040621Y-59288120D02*
X146121433Y-59315057D01*
X146121433Y-59315057D02*
X146202245Y-59395870D01*
X146202245Y-59395870D02*
X146229182Y-59476682D01*
X146229182Y-59476682D02*
X146229182Y-59530557D01*
X146229182Y-59530557D02*
X146202245Y-59611369D01*
X146202245Y-59611369D02*
X145986746Y-59826868D01*
X146283057Y-59045683D02*
X146283057Y-58991809D01*
X146283057Y-58991809D02*
X146309995Y-58910996D01*
X146309995Y-58910996D02*
X146444682Y-58776309D01*
X146444682Y-58776309D02*
X146525494Y-58749372D01*
X146525494Y-58749372D02*
X146579369Y-58749372D01*
X146579369Y-58749372D02*
X146660181Y-58776309D01*
X146660181Y-58776309D02*
X146714056Y-58830184D01*
X146714056Y-58830184D02*
X146767930Y-58937934D01*
X146767930Y-58937934D02*
X146767930Y-59584431D01*
X146767930Y-59584431D02*
X147118117Y-59234245D01*
X147118117Y-58587747D02*
X147037305Y-58614685D01*
X147037305Y-58614685D02*
X146983430Y-58614685D01*
X146983430Y-58614685D02*
X146902618Y-58587747D01*
X146902618Y-58587747D02*
X146875680Y-58560810D01*
X146875680Y-58560810D02*
X146848743Y-58479998D01*
X146848743Y-58479998D02*
X146848743Y-58426123D01*
X146848743Y-58426123D02*
X146875680Y-58345311D01*
X146875680Y-58345311D02*
X146983430Y-58237561D01*
X146983430Y-58237561D02*
X147064242Y-58210624D01*
X147064242Y-58210624D02*
X147118117Y-58210624D01*
X147118117Y-58210624D02*
X147198929Y-58237561D01*
X147198929Y-58237561D02*
X147225866Y-58264499D01*
X147225866Y-58264499D02*
X147252804Y-58345311D01*
X147252804Y-58345311D02*
X147252804Y-58399186D01*
X147252804Y-58399186D02*
X147225866Y-58479998D01*
X147225866Y-58479998D02*
X147118117Y-58587747D01*
X147118117Y-58587747D02*
X147091179Y-58668560D01*
X147091179Y-58668560D02*
X147091179Y-58722434D01*
X147091179Y-58722434D02*
X147118117Y-58803247D01*
X147118117Y-58803247D02*
X147225866Y-58910996D01*
X147225866Y-58910996D02*
X147306679Y-58937934D01*
X147306679Y-58937934D02*
X147360553Y-58937934D01*
X147360553Y-58937934D02*
X147441366Y-58910996D01*
X147441366Y-58910996D02*
X147549115Y-58803247D01*
X147549115Y-58803247D02*
X147576053Y-58722434D01*
X147576053Y-58722434D02*
X147576053Y-58668560D01*
X147576053Y-58668560D02*
X147549115Y-58587747D01*
X147549115Y-58587747D02*
X147441366Y-58479998D01*
X147441366Y-58479998D02*
X147360553Y-58453060D01*
X147360553Y-58453060D02*
X147306679Y-58453060D01*
X147306679Y-58453060D02*
X147225866Y-58479998D01*
X119293998Y-90560868D02*
X119213185Y-90587805D01*
X119213185Y-90587805D02*
X119132373Y-90668618D01*
X119132373Y-90668618D02*
X119078498Y-90776367D01*
X119078498Y-90776367D02*
X119078498Y-90884117D01*
X119078498Y-90884117D02*
X119105436Y-90964929D01*
X119105436Y-90964929D02*
X119186248Y-91099616D01*
X119186248Y-91099616D02*
X119267060Y-91180428D01*
X119267060Y-91180428D02*
X119401747Y-91261241D01*
X119401747Y-91261241D02*
X119482560Y-91288178D01*
X119482560Y-91288178D02*
X119590309Y-91288178D01*
X119590309Y-91288178D02*
X119698059Y-91234303D01*
X119698059Y-91234303D02*
X119751934Y-91180428D01*
X119751934Y-91180428D02*
X119805808Y-91072679D01*
X119805808Y-91072679D02*
X119805808Y-91018804D01*
X119805808Y-91018804D02*
X119617247Y-90830242D01*
X119617247Y-90830242D02*
X119509497Y-90937992D01*
X120102120Y-90830242D02*
X119536434Y-90264557D01*
X119536434Y-90264557D02*
X119751934Y-90049057D01*
X119751934Y-90049057D02*
X119832746Y-90022120D01*
X119832746Y-90022120D02*
X119886621Y-90022120D01*
X119886621Y-90022120D02*
X119967433Y-90049057D01*
X119967433Y-90049057D02*
X120048245Y-90129870D01*
X120048245Y-90129870D02*
X120075182Y-90210682D01*
X120075182Y-90210682D02*
X120075182Y-90264557D01*
X120075182Y-90264557D02*
X120048245Y-90345369D01*
X120048245Y-90345369D02*
X119832746Y-90560868D01*
X120964117Y-89968245D02*
X120640868Y-90291494D01*
X120802492Y-90129870D02*
X120236807Y-89564184D01*
X120236807Y-89564184D02*
X120263744Y-89698871D01*
X120263744Y-89698871D02*
X120263744Y-89806621D01*
X120263744Y-89806621D02*
X120236807Y-89887433D01*
X121071866Y-89106248D02*
X121448990Y-89483372D01*
X120721680Y-89025436D02*
X120991054Y-89564184D01*
X120991054Y-89564184D02*
X121341240Y-89213998D01*
X146188651Y-70523710D02*
X145730716Y-70442898D01*
X145865403Y-70846959D02*
X145299717Y-70281274D01*
X145299717Y-70281274D02*
X145515216Y-70065775D01*
X145515216Y-70065775D02*
X145596029Y-70038837D01*
X145596029Y-70038837D02*
X145649903Y-70038837D01*
X145649903Y-70038837D02*
X145730716Y-70065775D01*
X145730716Y-70065775D02*
X145811528Y-70146587D01*
X145811528Y-70146587D02*
X145838465Y-70227399D01*
X145838465Y-70227399D02*
X145838465Y-70281274D01*
X145838465Y-70281274D02*
X145811528Y-70362086D01*
X145811528Y-70362086D02*
X145596029Y-70577585D01*
X145865403Y-69715588D02*
X146323338Y-70173524D01*
X146323338Y-70173524D02*
X146404151Y-70200462D01*
X146404151Y-70200462D02*
X146458025Y-70200462D01*
X146458025Y-70200462D02*
X146538838Y-70173524D01*
X146538838Y-70173524D02*
X146646587Y-70065775D01*
X146646587Y-70065775D02*
X146673525Y-69984962D01*
X146673525Y-69984962D02*
X146673525Y-69931088D01*
X146673525Y-69931088D02*
X146646587Y-69850275D01*
X146646587Y-69850275D02*
X146188651Y-69392340D01*
X147023711Y-69688651D02*
X146458025Y-69122966D01*
X146458025Y-69122966D02*
X147346959Y-69365402D01*
X147346959Y-69365402D02*
X146781274Y-68799717D01*
X145447998Y-90560868D02*
X145367185Y-90587805D01*
X145367185Y-90587805D02*
X145286373Y-90668618D01*
X145286373Y-90668618D02*
X145232498Y-90776367D01*
X145232498Y-90776367D02*
X145232498Y-90884117D01*
X145232498Y-90884117D02*
X145259436Y-90964929D01*
X145259436Y-90964929D02*
X145340248Y-91099616D01*
X145340248Y-91099616D02*
X145421060Y-91180428D01*
X145421060Y-91180428D02*
X145555747Y-91261241D01*
X145555747Y-91261241D02*
X145636560Y-91288178D01*
X145636560Y-91288178D02*
X145744309Y-91288178D01*
X145744309Y-91288178D02*
X145852059Y-91234303D01*
X145852059Y-91234303D02*
X145905934Y-91180428D01*
X145905934Y-91180428D02*
X145959808Y-91072679D01*
X145959808Y-91072679D02*
X145959808Y-91018804D01*
X145959808Y-91018804D02*
X145771247Y-90830242D01*
X145771247Y-90830242D02*
X145663497Y-90937992D01*
X146256120Y-90830242D02*
X145690434Y-90264557D01*
X145690434Y-90264557D02*
X145905934Y-90049057D01*
X145905934Y-90049057D02*
X145986746Y-90022120D01*
X145986746Y-90022120D02*
X146040621Y-90022120D01*
X146040621Y-90022120D02*
X146121433Y-90049057D01*
X146121433Y-90049057D02*
X146202245Y-90129870D01*
X146202245Y-90129870D02*
X146229182Y-90210682D01*
X146229182Y-90210682D02*
X146229182Y-90264557D01*
X146229182Y-90264557D02*
X146202245Y-90345369D01*
X146202245Y-90345369D02*
X145986746Y-90560868D01*
X147118117Y-89968245D02*
X146794868Y-90291494D01*
X146956492Y-90129870D02*
X146390807Y-89564184D01*
X146390807Y-89564184D02*
X146417744Y-89698871D01*
X146417744Y-89698871D02*
X146417744Y-89806621D01*
X146417744Y-89806621D02*
X146390807Y-89887433D01*
X146740993Y-89213998D02*
X147118117Y-88836874D01*
X147118117Y-88836874D02*
X147441366Y-89644996D01*
X145447998Y-93100868D02*
X145367185Y-93127805D01*
X145367185Y-93127805D02*
X145286373Y-93208618D01*
X145286373Y-93208618D02*
X145232498Y-93316367D01*
X145232498Y-93316367D02*
X145232498Y-93424117D01*
X145232498Y-93424117D02*
X145259436Y-93504929D01*
X145259436Y-93504929D02*
X145340248Y-93639616D01*
X145340248Y-93639616D02*
X145421060Y-93720428D01*
X145421060Y-93720428D02*
X145555747Y-93801241D01*
X145555747Y-93801241D02*
X145636560Y-93828178D01*
X145636560Y-93828178D02*
X145744309Y-93828178D01*
X145744309Y-93828178D02*
X145852059Y-93774303D01*
X145852059Y-93774303D02*
X145905934Y-93720428D01*
X145905934Y-93720428D02*
X145959808Y-93612679D01*
X145959808Y-93612679D02*
X145959808Y-93558804D01*
X145959808Y-93558804D02*
X145771247Y-93370242D01*
X145771247Y-93370242D02*
X145663497Y-93477992D01*
X146256120Y-93370242D02*
X145690434Y-92804557D01*
X145690434Y-92804557D02*
X145905934Y-92589057D01*
X145905934Y-92589057D02*
X145986746Y-92562120D01*
X145986746Y-92562120D02*
X146040621Y-92562120D01*
X146040621Y-92562120D02*
X146121433Y-92589057D01*
X146121433Y-92589057D02*
X146202245Y-92669870D01*
X146202245Y-92669870D02*
X146229182Y-92750682D01*
X146229182Y-92750682D02*
X146229182Y-92804557D01*
X146229182Y-92804557D02*
X146202245Y-92885369D01*
X146202245Y-92885369D02*
X145986746Y-93100868D01*
X147118117Y-92508245D02*
X146794868Y-92831494D01*
X146956492Y-92669870D02*
X146390807Y-92104184D01*
X146390807Y-92104184D02*
X146417744Y-92238871D01*
X146417744Y-92238871D02*
X146417744Y-92346621D01*
X146417744Y-92346621D02*
X146390807Y-92427433D01*
X147037305Y-91457686D02*
X146929555Y-91565436D01*
X146929555Y-91565436D02*
X146902618Y-91646248D01*
X146902618Y-91646248D02*
X146902618Y-91700123D01*
X146902618Y-91700123D02*
X146929555Y-91834810D01*
X146929555Y-91834810D02*
X147010367Y-91969497D01*
X147010367Y-91969497D02*
X147225866Y-92184996D01*
X147225866Y-92184996D02*
X147306679Y-92211934D01*
X147306679Y-92211934D02*
X147360553Y-92211934D01*
X147360553Y-92211934D02*
X147441366Y-92184996D01*
X147441366Y-92184996D02*
X147549115Y-92077247D01*
X147549115Y-92077247D02*
X147576053Y-91996434D01*
X147576053Y-91996434D02*
X147576053Y-91942560D01*
X147576053Y-91942560D02*
X147549115Y-91861747D01*
X147549115Y-91861747D02*
X147414428Y-91727060D01*
X147414428Y-91727060D02*
X147333616Y-91700123D01*
X147333616Y-91700123D02*
X147279741Y-91700123D01*
X147279741Y-91700123D02*
X147198929Y-91727060D01*
X147198929Y-91727060D02*
X147091179Y-91834810D01*
X147091179Y-91834810D02*
X147064242Y-91915622D01*
X147064242Y-91915622D02*
X147064242Y-91969497D01*
X147064242Y-91969497D02*
X147091179Y-92050309D01*
X119863372Y-54731494D02*
X119782560Y-54758431D01*
X119782560Y-54758431D02*
X119701748Y-54839243D01*
X119701748Y-54839243D02*
X119647873Y-54946993D01*
X119647873Y-54946993D02*
X119647873Y-55054742D01*
X119647873Y-55054742D02*
X119674810Y-55135555D01*
X119674810Y-55135555D02*
X119755623Y-55270242D01*
X119755623Y-55270242D02*
X119836435Y-55351054D01*
X119836435Y-55351054D02*
X119971122Y-55431866D01*
X119971122Y-55431866D02*
X120051934Y-55458803D01*
X120051934Y-55458803D02*
X120159684Y-55458803D01*
X120159684Y-55458803D02*
X120267433Y-55404929D01*
X120267433Y-55404929D02*
X120321308Y-55351054D01*
X120321308Y-55351054D02*
X120375183Y-55243304D01*
X120375183Y-55243304D02*
X120375183Y-55189429D01*
X120375183Y-55189429D02*
X120186621Y-55000868D01*
X120186621Y-55000868D02*
X120078871Y-55108617D01*
X120671494Y-55000868D02*
X120105809Y-54435182D01*
X120105809Y-54435182D02*
X120321308Y-54219683D01*
X120321308Y-54219683D02*
X120402120Y-54192746D01*
X120402120Y-54192746D02*
X120455995Y-54192746D01*
X120455995Y-54192746D02*
X120536807Y-54219683D01*
X120536807Y-54219683D02*
X120617619Y-54300495D01*
X120617619Y-54300495D02*
X120644557Y-54381307D01*
X120644557Y-54381307D02*
X120644557Y-54435182D01*
X120644557Y-54435182D02*
X120617619Y-54515994D01*
X120617619Y-54515994D02*
X120402120Y-54731494D01*
X120617619Y-53923372D02*
X120967806Y-53573185D01*
X120967806Y-53573185D02*
X120994743Y-53977246D01*
X120994743Y-53977246D02*
X121075555Y-53896434D01*
X121075555Y-53896434D02*
X121156367Y-53869497D01*
X121156367Y-53869497D02*
X121210242Y-53869497D01*
X121210242Y-53869497D02*
X121291054Y-53896434D01*
X121291054Y-53896434D02*
X121425741Y-54031121D01*
X121425741Y-54031121D02*
X121452679Y-54111933D01*
X121452679Y-54111933D02*
X121452679Y-54165808D01*
X121452679Y-54165808D02*
X121425741Y-54246620D01*
X121425741Y-54246620D02*
X121264117Y-54408245D01*
X121264117Y-54408245D02*
X121183305Y-54435182D01*
X121183305Y-54435182D02*
X121129430Y-54435182D01*
%TO.C,J2*%
X90664819Y-96853333D02*
X91379104Y-96853333D01*
X91379104Y-96853333D02*
X91521961Y-96900952D01*
X91521961Y-96900952D02*
X91617200Y-96996190D01*
X91617200Y-96996190D02*
X91664819Y-97139047D01*
X91664819Y-97139047D02*
X91664819Y-97234285D01*
X90760057Y-96424761D02*
X90712438Y-96377142D01*
X90712438Y-96377142D02*
X90664819Y-96281904D01*
X90664819Y-96281904D02*
X90664819Y-96043809D01*
X90664819Y-96043809D02*
X90712438Y-95948571D01*
X90712438Y-95948571D02*
X90760057Y-95900952D01*
X90760057Y-95900952D02*
X90855295Y-95853333D01*
X90855295Y-95853333D02*
X90950533Y-95853333D01*
X90950533Y-95853333D02*
X91093390Y-95900952D01*
X91093390Y-95900952D02*
X91664819Y-96472380D01*
X91664819Y-96472380D02*
X91664819Y-95853333D01*
%TO.C,D3*%
X65074819Y-123928094D02*
X64074819Y-123928094D01*
X64074819Y-123928094D02*
X64074819Y-123689999D01*
X64074819Y-123689999D02*
X64122438Y-123547142D01*
X64122438Y-123547142D02*
X64217676Y-123451904D01*
X64217676Y-123451904D02*
X64312914Y-123404285D01*
X64312914Y-123404285D02*
X64503390Y-123356666D01*
X64503390Y-123356666D02*
X64646247Y-123356666D01*
X64646247Y-123356666D02*
X64836723Y-123404285D01*
X64836723Y-123404285D02*
X64931961Y-123451904D01*
X64931961Y-123451904D02*
X65027200Y-123547142D01*
X65027200Y-123547142D02*
X65074819Y-123689999D01*
X65074819Y-123689999D02*
X65074819Y-123928094D01*
X64074819Y-123023332D02*
X64074819Y-122404285D01*
X64074819Y-122404285D02*
X64455771Y-122737618D01*
X64455771Y-122737618D02*
X64455771Y-122594761D01*
X64455771Y-122594761D02*
X64503390Y-122499523D01*
X64503390Y-122499523D02*
X64551009Y-122451904D01*
X64551009Y-122451904D02*
X64646247Y-122404285D01*
X64646247Y-122404285D02*
X64884342Y-122404285D01*
X64884342Y-122404285D02*
X64979580Y-122451904D01*
X64979580Y-122451904D02*
X65027200Y-122499523D01*
X65027200Y-122499523D02*
X65074819Y-122594761D01*
X65074819Y-122594761D02*
X65074819Y-122880475D01*
X65074819Y-122880475D02*
X65027200Y-122975713D01*
X65027200Y-122975713D02*
X64979580Y-123023332D01*
%TO.C,R1*%
X131913333Y-104424819D02*
X131580000Y-103948628D01*
X131341905Y-104424819D02*
X131341905Y-103424819D01*
X131341905Y-103424819D02*
X131722857Y-103424819D01*
X131722857Y-103424819D02*
X131818095Y-103472438D01*
X131818095Y-103472438D02*
X131865714Y-103520057D01*
X131865714Y-103520057D02*
X131913333Y-103615295D01*
X131913333Y-103615295D02*
X131913333Y-103758152D01*
X131913333Y-103758152D02*
X131865714Y-103853390D01*
X131865714Y-103853390D02*
X131818095Y-103901009D01*
X131818095Y-103901009D02*
X131722857Y-103948628D01*
X131722857Y-103948628D02*
X131341905Y-103948628D01*
X132865714Y-104424819D02*
X132294286Y-104424819D01*
X132580000Y-104424819D02*
X132580000Y-103424819D01*
X132580000Y-103424819D02*
X132484762Y-103567676D01*
X132484762Y-103567676D02*
X132389524Y-103662914D01*
X132389524Y-103662914D02*
X132294286Y-103710533D01*
%TO.C,D4*%
X75234819Y-123928094D02*
X74234819Y-123928094D01*
X74234819Y-123928094D02*
X74234819Y-123689999D01*
X74234819Y-123689999D02*
X74282438Y-123547142D01*
X74282438Y-123547142D02*
X74377676Y-123451904D01*
X74377676Y-123451904D02*
X74472914Y-123404285D01*
X74472914Y-123404285D02*
X74663390Y-123356666D01*
X74663390Y-123356666D02*
X74806247Y-123356666D01*
X74806247Y-123356666D02*
X74996723Y-123404285D01*
X74996723Y-123404285D02*
X75091961Y-123451904D01*
X75091961Y-123451904D02*
X75187200Y-123547142D01*
X75187200Y-123547142D02*
X75234819Y-123689999D01*
X75234819Y-123689999D02*
X75234819Y-123928094D01*
X74568152Y-122499523D02*
X75234819Y-122499523D01*
X74187200Y-122737618D02*
X74901485Y-122975713D01*
X74901485Y-122975713D02*
X74901485Y-122356666D01*
%TO.C,D6*%
X95554819Y-123928094D02*
X94554819Y-123928094D01*
X94554819Y-123928094D02*
X94554819Y-123689999D01*
X94554819Y-123689999D02*
X94602438Y-123547142D01*
X94602438Y-123547142D02*
X94697676Y-123451904D01*
X94697676Y-123451904D02*
X94792914Y-123404285D01*
X94792914Y-123404285D02*
X94983390Y-123356666D01*
X94983390Y-123356666D02*
X95126247Y-123356666D01*
X95126247Y-123356666D02*
X95316723Y-123404285D01*
X95316723Y-123404285D02*
X95411961Y-123451904D01*
X95411961Y-123451904D02*
X95507200Y-123547142D01*
X95507200Y-123547142D02*
X95554819Y-123689999D01*
X95554819Y-123689999D02*
X95554819Y-123928094D01*
X94554819Y-122499523D02*
X94554819Y-122689999D01*
X94554819Y-122689999D02*
X94602438Y-122785237D01*
X94602438Y-122785237D02*
X94650057Y-122832856D01*
X94650057Y-122832856D02*
X94792914Y-122928094D01*
X94792914Y-122928094D02*
X94983390Y-122975713D01*
X94983390Y-122975713D02*
X95364342Y-122975713D01*
X95364342Y-122975713D02*
X95459580Y-122928094D01*
X95459580Y-122928094D02*
X95507200Y-122880475D01*
X95507200Y-122880475D02*
X95554819Y-122785237D01*
X95554819Y-122785237D02*
X95554819Y-122594761D01*
X95554819Y-122594761D02*
X95507200Y-122499523D01*
X95507200Y-122499523D02*
X95459580Y-122451904D01*
X95459580Y-122451904D02*
X95364342Y-122404285D01*
X95364342Y-122404285D02*
X95126247Y-122404285D01*
X95126247Y-122404285D02*
X95031009Y-122451904D01*
X95031009Y-122451904D02*
X94983390Y-122499523D01*
X94983390Y-122499523D02*
X94935771Y-122594761D01*
X94935771Y-122594761D02*
X94935771Y-122785237D01*
X94935771Y-122785237D02*
X94983390Y-122880475D01*
X94983390Y-122880475D02*
X95031009Y-122928094D01*
X95031009Y-122928094D02*
X95126247Y-122975713D01*
%TO.C,D5*%
X85394819Y-123928094D02*
X84394819Y-123928094D01*
X84394819Y-123928094D02*
X84394819Y-123689999D01*
X84394819Y-123689999D02*
X84442438Y-123547142D01*
X84442438Y-123547142D02*
X84537676Y-123451904D01*
X84537676Y-123451904D02*
X84632914Y-123404285D01*
X84632914Y-123404285D02*
X84823390Y-123356666D01*
X84823390Y-123356666D02*
X84966247Y-123356666D01*
X84966247Y-123356666D02*
X85156723Y-123404285D01*
X85156723Y-123404285D02*
X85251961Y-123451904D01*
X85251961Y-123451904D02*
X85347200Y-123547142D01*
X85347200Y-123547142D02*
X85394819Y-123689999D01*
X85394819Y-123689999D02*
X85394819Y-123928094D01*
X84394819Y-122451904D02*
X84394819Y-122928094D01*
X84394819Y-122928094D02*
X84871009Y-122975713D01*
X84871009Y-122975713D02*
X84823390Y-122928094D01*
X84823390Y-122928094D02*
X84775771Y-122832856D01*
X84775771Y-122832856D02*
X84775771Y-122594761D01*
X84775771Y-122594761D02*
X84823390Y-122499523D01*
X84823390Y-122499523D02*
X84871009Y-122451904D01*
X84871009Y-122451904D02*
X84966247Y-122404285D01*
X84966247Y-122404285D02*
X85204342Y-122404285D01*
X85204342Y-122404285D02*
X85299580Y-122451904D01*
X85299580Y-122451904D02*
X85347200Y-122499523D01*
X85347200Y-122499523D02*
X85394819Y-122594761D01*
X85394819Y-122594761D02*
X85394819Y-122832856D01*
X85394819Y-122832856D02*
X85347200Y-122928094D01*
X85347200Y-122928094D02*
X85299580Y-122975713D01*
%TO.C,R5*%
X97144819Y-109386666D02*
X96668628Y-109719999D01*
X97144819Y-109958094D02*
X96144819Y-109958094D01*
X96144819Y-109958094D02*
X96144819Y-109577142D01*
X96144819Y-109577142D02*
X96192438Y-109481904D01*
X96192438Y-109481904D02*
X96240057Y-109434285D01*
X96240057Y-109434285D02*
X96335295Y-109386666D01*
X96335295Y-109386666D02*
X96478152Y-109386666D01*
X96478152Y-109386666D02*
X96573390Y-109434285D01*
X96573390Y-109434285D02*
X96621009Y-109481904D01*
X96621009Y-109481904D02*
X96668628Y-109577142D01*
X96668628Y-109577142D02*
X96668628Y-109958094D01*
X96144819Y-108481904D02*
X96144819Y-108958094D01*
X96144819Y-108958094D02*
X96621009Y-109005713D01*
X96621009Y-109005713D02*
X96573390Y-108958094D01*
X96573390Y-108958094D02*
X96525771Y-108862856D01*
X96525771Y-108862856D02*
X96525771Y-108624761D01*
X96525771Y-108624761D02*
X96573390Y-108529523D01*
X96573390Y-108529523D02*
X96621009Y-108481904D01*
X96621009Y-108481904D02*
X96716247Y-108434285D01*
X96716247Y-108434285D02*
X96954342Y-108434285D01*
X96954342Y-108434285D02*
X97049580Y-108481904D01*
X97049580Y-108481904D02*
X97097200Y-108529523D01*
X97097200Y-108529523D02*
X97144819Y-108624761D01*
X97144819Y-108624761D02*
X97144819Y-108862856D01*
X97144819Y-108862856D02*
X97097200Y-108958094D01*
X97097200Y-108958094D02*
X97049580Y-109005713D01*
%TO.C,D1*%
X150391905Y-47234819D02*
X150391905Y-46234819D01*
X150391905Y-46234819D02*
X150630000Y-46234819D01*
X150630000Y-46234819D02*
X150772857Y-46282438D01*
X150772857Y-46282438D02*
X150868095Y-46377676D01*
X150868095Y-46377676D02*
X150915714Y-46472914D01*
X150915714Y-46472914D02*
X150963333Y-46663390D01*
X150963333Y-46663390D02*
X150963333Y-46806247D01*
X150963333Y-46806247D02*
X150915714Y-46996723D01*
X150915714Y-46996723D02*
X150868095Y-47091961D01*
X150868095Y-47091961D02*
X150772857Y-47187200D01*
X150772857Y-47187200D02*
X150630000Y-47234819D01*
X150630000Y-47234819D02*
X150391905Y-47234819D01*
X151915714Y-47234819D02*
X151344286Y-47234819D01*
X151630000Y-47234819D02*
X151630000Y-46234819D01*
X151630000Y-46234819D02*
X151534762Y-46377676D01*
X151534762Y-46377676D02*
X151439524Y-46472914D01*
X151439524Y-46472914D02*
X151344286Y-46520533D01*
%TO.C,R4*%
X86984819Y-109386666D02*
X86508628Y-109719999D01*
X86984819Y-109958094D02*
X85984819Y-109958094D01*
X85984819Y-109958094D02*
X85984819Y-109577142D01*
X85984819Y-109577142D02*
X86032438Y-109481904D01*
X86032438Y-109481904D02*
X86080057Y-109434285D01*
X86080057Y-109434285D02*
X86175295Y-109386666D01*
X86175295Y-109386666D02*
X86318152Y-109386666D01*
X86318152Y-109386666D02*
X86413390Y-109434285D01*
X86413390Y-109434285D02*
X86461009Y-109481904D01*
X86461009Y-109481904D02*
X86508628Y-109577142D01*
X86508628Y-109577142D02*
X86508628Y-109958094D01*
X86318152Y-108529523D02*
X86984819Y-108529523D01*
X85937200Y-108767618D02*
X86651485Y-109005713D01*
X86651485Y-109005713D02*
X86651485Y-108386666D01*
%TO.C,D2*%
X150391905Y-75174819D02*
X150391905Y-74174819D01*
X150391905Y-74174819D02*
X150630000Y-74174819D01*
X150630000Y-74174819D02*
X150772857Y-74222438D01*
X150772857Y-74222438D02*
X150868095Y-74317676D01*
X150868095Y-74317676D02*
X150915714Y-74412914D01*
X150915714Y-74412914D02*
X150963333Y-74603390D01*
X150963333Y-74603390D02*
X150963333Y-74746247D01*
X150963333Y-74746247D02*
X150915714Y-74936723D01*
X150915714Y-74936723D02*
X150868095Y-75031961D01*
X150868095Y-75031961D02*
X150772857Y-75127200D01*
X150772857Y-75127200D02*
X150630000Y-75174819D01*
X150630000Y-75174819D02*
X150391905Y-75174819D01*
X151344286Y-74270057D02*
X151391905Y-74222438D01*
X151391905Y-74222438D02*
X151487143Y-74174819D01*
X151487143Y-74174819D02*
X151725238Y-74174819D01*
X151725238Y-74174819D02*
X151820476Y-74222438D01*
X151820476Y-74222438D02*
X151868095Y-74270057D01*
X151868095Y-74270057D02*
X151915714Y-74365295D01*
X151915714Y-74365295D02*
X151915714Y-74460533D01*
X151915714Y-74460533D02*
X151868095Y-74603390D01*
X151868095Y-74603390D02*
X151296667Y-75174819D01*
X151296667Y-75174819D02*
X151915714Y-75174819D01*
%TO.C,J3*%
X65704819Y-96853333D02*
X66419104Y-96853333D01*
X66419104Y-96853333D02*
X66561961Y-96900952D01*
X66561961Y-96900952D02*
X66657200Y-96996190D01*
X66657200Y-96996190D02*
X66704819Y-97139047D01*
X66704819Y-97139047D02*
X66704819Y-97234285D01*
X65704819Y-96472380D02*
X65704819Y-95853333D01*
X65704819Y-95853333D02*
X66085771Y-96186666D01*
X66085771Y-96186666D02*
X66085771Y-96043809D01*
X66085771Y-96043809D02*
X66133390Y-95948571D01*
X66133390Y-95948571D02*
X66181009Y-95900952D01*
X66181009Y-95900952D02*
X66276247Y-95853333D01*
X66276247Y-95853333D02*
X66514342Y-95853333D01*
X66514342Y-95853333D02*
X66609580Y-95900952D01*
X66609580Y-95900952D02*
X66657200Y-95948571D01*
X66657200Y-95948571D02*
X66704819Y-96043809D01*
X66704819Y-96043809D02*
X66704819Y-96329523D01*
X66704819Y-96329523D02*
X66657200Y-96424761D01*
X66657200Y-96424761D02*
X66609580Y-96472380D01*
%TO.C,R2*%
X66664819Y-109386666D02*
X66188628Y-109719999D01*
X66664819Y-109958094D02*
X65664819Y-109958094D01*
X65664819Y-109958094D02*
X65664819Y-109577142D01*
X65664819Y-109577142D02*
X65712438Y-109481904D01*
X65712438Y-109481904D02*
X65760057Y-109434285D01*
X65760057Y-109434285D02*
X65855295Y-109386666D01*
X65855295Y-109386666D02*
X65998152Y-109386666D01*
X65998152Y-109386666D02*
X66093390Y-109434285D01*
X66093390Y-109434285D02*
X66141009Y-109481904D01*
X66141009Y-109481904D02*
X66188628Y-109577142D01*
X66188628Y-109577142D02*
X66188628Y-109958094D01*
X65760057Y-109005713D02*
X65712438Y-108958094D01*
X65712438Y-108958094D02*
X65664819Y-108862856D01*
X65664819Y-108862856D02*
X65664819Y-108624761D01*
X65664819Y-108624761D02*
X65712438Y-108529523D01*
X65712438Y-108529523D02*
X65760057Y-108481904D01*
X65760057Y-108481904D02*
X65855295Y-108434285D01*
X65855295Y-108434285D02*
X65950533Y-108434285D01*
X65950533Y-108434285D02*
X66093390Y-108481904D01*
X66093390Y-108481904D02*
X66664819Y-109053332D01*
X66664819Y-109053332D02*
X66664819Y-108434285D01*
%TO.C,R3*%
X76824819Y-109386666D02*
X76348628Y-109719999D01*
X76824819Y-109958094D02*
X75824819Y-109958094D01*
X75824819Y-109958094D02*
X75824819Y-109577142D01*
X75824819Y-109577142D02*
X75872438Y-109481904D01*
X75872438Y-109481904D02*
X75920057Y-109434285D01*
X75920057Y-109434285D02*
X76015295Y-109386666D01*
X76015295Y-109386666D02*
X76158152Y-109386666D01*
X76158152Y-109386666D02*
X76253390Y-109434285D01*
X76253390Y-109434285D02*
X76301009Y-109481904D01*
X76301009Y-109481904D02*
X76348628Y-109577142D01*
X76348628Y-109577142D02*
X76348628Y-109958094D01*
X75824819Y-109053332D02*
X75824819Y-108434285D01*
X75824819Y-108434285D02*
X76205771Y-108767618D01*
X76205771Y-108767618D02*
X76205771Y-108624761D01*
X76205771Y-108624761D02*
X76253390Y-108529523D01*
X76253390Y-108529523D02*
X76301009Y-108481904D01*
X76301009Y-108481904D02*
X76396247Y-108434285D01*
X76396247Y-108434285D02*
X76634342Y-108434285D01*
X76634342Y-108434285D02*
X76729580Y-108481904D01*
X76729580Y-108481904D02*
X76777200Y-108529523D01*
X76777200Y-108529523D02*
X76824819Y-108624761D01*
X76824819Y-108624761D02*
X76824819Y-108910475D01*
X76824819Y-108910475D02*
X76777200Y-109005713D01*
X76777200Y-109005713D02*
X76729580Y-109053332D01*
%TO.C,U1*%
X63124819Y-62161904D02*
X63934342Y-62161904D01*
X63934342Y-62161904D02*
X64029580Y-62114285D01*
X64029580Y-62114285D02*
X64077200Y-62066666D01*
X64077200Y-62066666D02*
X64124819Y-61971428D01*
X64124819Y-61971428D02*
X64124819Y-61780952D01*
X64124819Y-61780952D02*
X64077200Y-61685714D01*
X64077200Y-61685714D02*
X64029580Y-61638095D01*
X64029580Y-61638095D02*
X63934342Y-61590476D01*
X63934342Y-61590476D02*
X63124819Y-61590476D01*
X64124819Y-60590476D02*
X64124819Y-61161904D01*
X64124819Y-60876190D02*
X63124819Y-60876190D01*
X63124819Y-60876190D02*
X63267676Y-60971428D01*
X63267676Y-60971428D02*
X63362914Y-61066666D01*
X63362914Y-61066666D02*
X63410533Y-61161904D01*
D12*
%TO.C,U2*%
X82820000Y-91280000D02*
X84820000Y-91280000D01*
X64900000Y-90900000D02*
X115440000Y-90900000D01*
X64900000Y-90900000D02*
X64900000Y-71660000D01*
X115440000Y-90900000D02*
X115440000Y-71660000D01*
X115440000Y-71660000D02*
X64900000Y-71660000D01*
%TO.C,J1*%
X151420000Y-124360000D02*
X136720000Y-124360000D01*
X151420000Y-115160000D02*
X151420000Y-124360000D01*
X142620000Y-115160000D02*
X151420000Y-115160000D01*
X137570000Y-124560000D02*
X136520000Y-124560000D01*
X136720000Y-124360000D02*
X136720000Y-121760000D01*
X136720000Y-117860000D02*
X136720000Y-115160000D01*
X136720000Y-115160000D02*
X138620000Y-115160000D01*
X136520000Y-123510000D02*
X136520000Y-124560000D01*
%TO.C,U3*%
X143850000Y-94080000D02*
X137050000Y-94080000D01*
X143850000Y-91280000D02*
X143850000Y-91680000D01*
X143850000Y-88680000D02*
X143850000Y-89080000D01*
X143850000Y-86180000D02*
X143850000Y-86580000D01*
X143850000Y-83680000D02*
X143850000Y-84080000D01*
X143850000Y-81080000D02*
X143850000Y-81480000D01*
X143850000Y-78580000D02*
X143850000Y-78980000D01*
X143850000Y-75980000D02*
X143850000Y-76380000D01*
X143850000Y-73480000D02*
X143850000Y-73880000D01*
X143850000Y-70880000D02*
X143850000Y-71280000D01*
X143850000Y-68380000D02*
X143850000Y-68780000D01*
X143850000Y-65880000D02*
X143850000Y-66280000D01*
X143850000Y-63280000D02*
X143850000Y-63680000D01*
X143850000Y-60780000D02*
X143850000Y-61180000D01*
X143850000Y-58180000D02*
X143850000Y-58580000D01*
X143850000Y-55680000D02*
X143850000Y-56080000D01*
X143850000Y-53180000D02*
X143850000Y-53580000D01*
X143850000Y-50580000D02*
X143850000Y-50980000D01*
X143850000Y-48080000D02*
X143850000Y-48480000D01*
X143850000Y-45480000D02*
X143850000Y-45880000D01*
X143850000Y-43080000D02*
X143850000Y-43380000D01*
X134450000Y-94080000D02*
X134850000Y-94080000D01*
X131850000Y-94080000D02*
X132250000Y-94080000D01*
X129650000Y-94080000D02*
X122850000Y-94080000D01*
X125857000Y-45747000D02*
X125857000Y-43080000D01*
X122850000Y-91280000D02*
X122850000Y-91680000D01*
X122850000Y-88680000D02*
X122850000Y-89080000D01*
X122850000Y-86180000D02*
X122850000Y-86580000D01*
X122850000Y-83680000D02*
X122850000Y-84080000D01*
X122850000Y-81080000D02*
X122850000Y-81480000D01*
X122850000Y-78580000D02*
X122850000Y-78980000D01*
X122850000Y-75980000D02*
X122850000Y-76380000D01*
X122850000Y-73480000D02*
X122850000Y-73880000D01*
X122850000Y-70880000D02*
X122850000Y-71280000D01*
X122850000Y-68380000D02*
X122850000Y-68780000D01*
X122850000Y-65880000D02*
X122850000Y-66280000D01*
X122850000Y-63280000D02*
X122850000Y-63680000D01*
X122850000Y-60780000D02*
X122850000Y-61180000D01*
X122850000Y-58180000D02*
X122850000Y-58580000D01*
X122850000Y-55680000D02*
X122850000Y-56080000D01*
X122850000Y-53180000D02*
X122850000Y-53580000D01*
X122850000Y-50580000D02*
X122850000Y-50980000D01*
X122850000Y-48080000D02*
X122850000Y-48480000D01*
X122850000Y-45747000D02*
X125857000Y-45747000D01*
X122850000Y-45480000D02*
X122850000Y-45880000D01*
X122850000Y-43080000D02*
X143850000Y-43080000D01*
X122850000Y-43080000D02*
X122850000Y-43380000D01*
%TO.C,J2*%
X95250000Y-97850000D02*
X110550000Y-97850000D01*
X95250000Y-97850000D02*
X95250000Y-95190000D01*
X110550000Y-97850000D02*
X110550000Y-95190000D01*
X92650000Y-96520000D02*
X92650000Y-95190000D01*
X92650000Y-95190000D02*
X93980000Y-95190000D01*
X95250000Y-95190000D02*
X110550000Y-95190000D01*
%TO.C,D3*%
X67035000Y-125750000D02*
X70125000Y-125750000D01*
X68580462Y-120200001D02*
G75*
G03*
X67035170Y-125749999I-462J-2989999D01*
G01*
X70124830Y-125750000D02*
G75*
G03*
X68579538Y-120200000I-1544830J2560000D01*
G01*
X71080000Y-123190000D02*
G75*
G03*
X71080000Y-123190000I-2500000J0D01*
G01*
%TO.C,R1*%
X136120000Y-101600000D02*
X135350000Y-101600000D01*
X135350000Y-102970000D02*
X135350000Y-100230000D01*
X135350000Y-100230000D02*
X128810000Y-100230000D01*
X128810000Y-102970000D02*
X135350000Y-102970000D01*
X128810000Y-100230000D02*
X128810000Y-102970000D01*
X128040000Y-101600000D02*
X128810000Y-101600000D01*
%TO.C,D4*%
X77195000Y-125750000D02*
X80285000Y-125750000D01*
X78740462Y-120200001D02*
G75*
G03*
X77195170Y-125749999I-462J-2989999D01*
G01*
X80284830Y-125750000D02*
G75*
G03*
X78739538Y-120200000I-1544830J2560000D01*
G01*
X81240000Y-123190000D02*
G75*
G03*
X81240000Y-123190000I-2500000J0D01*
G01*
%TO.C,D6*%
X97515000Y-125750000D02*
X100605000Y-125750000D01*
X99060462Y-120200001D02*
G75*
G03*
X97515170Y-125749999I-462J-2989999D01*
G01*
X100604830Y-125750000D02*
G75*
G03*
X99059538Y-120200000I-1544830J2560000D01*
G01*
X101560000Y-123190000D02*
G75*
G03*
X101560000Y-123190000I-2500000J0D01*
G01*
%TO.C,D5*%
X87355000Y-125750000D02*
X90445000Y-125750000D01*
X88900462Y-120200001D02*
G75*
G03*
X87355170Y-125749999I-462J-2989999D01*
G01*
X90444830Y-125750000D02*
G75*
G03*
X88899538Y-120200000I-1544830J2560000D01*
G01*
X91400000Y-123190000D02*
G75*
G03*
X91400000Y-123190000I-2500000J0D01*
G01*
%TO.C,R5*%
X99060000Y-113260000D02*
X99060000Y-112490000D01*
X97690000Y-112490000D02*
X100430000Y-112490000D01*
X100430000Y-112490000D02*
X100430000Y-105950000D01*
X97690000Y-105950000D02*
X97690000Y-112490000D01*
X100430000Y-105950000D02*
X97690000Y-105950000D01*
X99060000Y-105180000D02*
X99060000Y-105950000D01*
%TO.C,D1*%
X146070000Y-50964000D02*
X146070000Y-55716000D01*
X156719998Y-53335259D02*
G75*
G03*
X146070000Y-50964184I-5589998J-4741D01*
G01*
X146070000Y-55715816D02*
G75*
G03*
X156719998Y-53344741I5060000J2375816D01*
G01*
X156130000Y-53340000D02*
G75*
G03*
X156130000Y-53340000I-5000000J0D01*
G01*
%TO.C,R4*%
X88900000Y-113260000D02*
X88900000Y-112490000D01*
X87530000Y-112490000D02*
X90270000Y-112490000D01*
X90270000Y-112490000D02*
X90270000Y-105950000D01*
X87530000Y-105950000D02*
X87530000Y-112490000D01*
X90270000Y-105950000D02*
X87530000Y-105950000D01*
X88900000Y-105180000D02*
X88900000Y-105950000D01*
%TO.C,D2*%
X146070000Y-78904000D02*
X146070000Y-83656000D01*
X156719998Y-81275259D02*
G75*
G03*
X146070000Y-78904184I-5589998J-4741D01*
G01*
X146070000Y-83655816D02*
G75*
G03*
X156719998Y-81284741I5060000J2375816D01*
G01*
X156130000Y-81280000D02*
G75*
G03*
X156130000Y-81280000I-5000000J0D01*
G01*
%TO.C,J3*%
X67250000Y-97850000D02*
X67250000Y-96520000D01*
X68580000Y-97850000D02*
X67250000Y-97850000D01*
X69850000Y-97850000D02*
X80070000Y-97850000D01*
X69850000Y-97850000D02*
X69850000Y-95190000D01*
X80070000Y-97850000D02*
X80070000Y-95190000D01*
X69850000Y-95190000D02*
X80070000Y-95190000D01*
%TO.C,R2*%
X68580000Y-113260000D02*
X68580000Y-112490000D01*
X67210000Y-112490000D02*
X69950000Y-112490000D01*
X69950000Y-112490000D02*
X69950000Y-105950000D01*
X67210000Y-105950000D02*
X67210000Y-112490000D01*
X69950000Y-105950000D02*
X67210000Y-105950000D01*
X68580000Y-105180000D02*
X68580000Y-105950000D01*
%TO.C,R3*%
X78740000Y-113260000D02*
X78740000Y-112490000D01*
X77370000Y-112490000D02*
X80110000Y-112490000D01*
X80110000Y-112490000D02*
X80110000Y-105950000D01*
X77370000Y-105950000D02*
X77370000Y-112490000D01*
X80110000Y-105950000D02*
X77370000Y-105950000D01*
X78740000Y-105180000D02*
X78740000Y-105950000D01*
%TO.C,U1*%
X82820000Y-63210000D02*
X84820000Y-63210000D01*
X64900000Y-62960000D02*
X115440000Y-62960000D01*
X64900000Y-62960000D02*
X64900000Y-43720000D01*
X115440000Y-62960000D02*
X115440000Y-43720000D01*
X115440000Y-43720000D02*
X64900000Y-43720000D01*
%TD*%
M02*
