%TF.GenerationSoftware,KiCad,Pcbnew,7.0.5-0*%
%TF.CreationDate,2023-07-14T21:04:26-05:00*%
%TF.ProjectId,lab-env-sensor-hw,6c61622d-656e-4762-9d73-656e736f722d,rev?*%
%TF.SameCoordinates,Original*%
%TF.FileFunction,Soldermask,Bot*%
%TF.FilePolarity,Negative*%
%FSLAX46Y46*%
G04 Gerber Fmt 4.6, Leading zero omitted, Abs format (unit mm)*
G04 Created by KiCad (PCBNEW 7.0.5-0) date 2023-07-14 21:04:26*
%MOMM*%
%LPD*%
G01*
G04 APERTURE LIST*
G04 Aperture macros list*
%AMRoundRect*
0 Rectangle with rounded corners*
0 $1 Rounding radius*
0 $2 $3 $4 $5 $6 $7 $8 $9 X,Y pos of 4 corners*
0 Add a 4 corners polygon primitive as box body*
4,1,4,$2,$3,$4,$5,$6,$7,$8,$9,$2,$3,0*
0 Add four circle primitives for the rounded corners*
1,1,$1+$1,$2,$3*
1,1,$1+$1,$4,$5*
1,1,$1+$1,$6,$7*
1,1,$1+$1,$8,$9*
0 Add four rect primitives between the rounded corners*
20,1,$1+$1,$2,$3,$4,$5,0*
20,1,$1+$1,$4,$5,$6,$7,0*
20,1,$1+$1,$6,$7,$8,$9,0*
20,1,$1+$1,$8,$9,$2,$3,0*%
G04 Aperture macros list end*
%ADD10R,1.500000X1.500000*%
%ADD11C,1.500000*%
%ADD12R,3.500000X3.500000*%
%ADD13RoundRect,0.750000X0.750000X1.000000X-0.750000X1.000000X-0.750000X-1.000000X0.750000X-1.000000X0*%
%ADD14RoundRect,0.875000X0.875000X0.875000X-0.875000X0.875000X-0.875000X-0.875000X0.875000X-0.875000X0*%
%ADD15O,1.700000X1.700000*%
%ADD16R,1.700000X1.700000*%
%ADD17O,1.800000X1.800000*%
%ADD18O,1.500000X1.500000*%
%ADD19R,1.800000X1.800000*%
%ADD20C,1.800000*%
%ADD21C,1.600000*%
%ADD22O,1.600000X1.600000*%
G04 APERTURE END LIST*
D10*
%TO.C,U2*%
X83820000Y-88900000D03*
D11*
X86360000Y-88900000D03*
X88900000Y-88900000D03*
X91440000Y-88900000D03*
X93980000Y-88900000D03*
X96520000Y-88900000D03*
X96520000Y-73660000D03*
X93980000Y-73660000D03*
X91440000Y-73660000D03*
X88900000Y-73660000D03*
X86360000Y-73660000D03*
X83820000Y-73660000D03*
%TD*%
D12*
%TO.C,J1*%
X137620000Y-119760000D03*
D13*
X143620000Y-119760000D03*
D14*
X140620000Y-115060000D03*
%TD*%
D15*
%TO.C,U3*%
X135890000Y-92480000D03*
D16*
X133350000Y-92480000D03*
D15*
X130810000Y-92480000D03*
X142240000Y-44450000D03*
X142240000Y-46990000D03*
D16*
X142240000Y-49530000D03*
D15*
X142240000Y-52070000D03*
X142240000Y-54610000D03*
X142240000Y-57150000D03*
X142240000Y-59690000D03*
D16*
X142240000Y-62230000D03*
D15*
X142240000Y-64770000D03*
X142240000Y-67310000D03*
X142240000Y-69850000D03*
X142240000Y-72390000D03*
D16*
X142240000Y-74930000D03*
D15*
X142240000Y-77470000D03*
X142240000Y-80010000D03*
X142240000Y-82550000D03*
X142240000Y-85090000D03*
D16*
X142240000Y-87630000D03*
D15*
X142240000Y-90170000D03*
X142240000Y-92710000D03*
X124460000Y-92710000D03*
X124460000Y-90170000D03*
D16*
X124460000Y-87630000D03*
D15*
X124460000Y-85090000D03*
X124460000Y-82550000D03*
X124460000Y-80010000D03*
X124460000Y-77470000D03*
D16*
X124460000Y-74930000D03*
D15*
X124460000Y-72390000D03*
X124460000Y-69850000D03*
X124460000Y-67310000D03*
X124460000Y-64770000D03*
D16*
X124460000Y-62230000D03*
D15*
X124460000Y-59690000D03*
X124460000Y-57150000D03*
X124460000Y-54610000D03*
X124460000Y-52070000D03*
D16*
X124460000Y-49530000D03*
D15*
X124460000Y-46990000D03*
X124460000Y-44450000D03*
D17*
X136075000Y-44580000D03*
D18*
X135775000Y-47610000D03*
X130925000Y-47610000D03*
D17*
X130625000Y-44580000D03*
%TD*%
D16*
%TO.C,J2*%
X93980000Y-96520000D03*
D15*
X96520000Y-96520000D03*
X99060000Y-96520000D03*
X101600000Y-96520000D03*
X104140000Y-96520000D03*
X106680000Y-96520000D03*
X109220000Y-96520000D03*
%TD*%
D19*
%TO.C,D3*%
X68580000Y-124460000D03*
D20*
X68580000Y-121920000D03*
%TD*%
D21*
%TO.C,R1*%
X137160000Y-101600000D03*
D22*
X127000000Y-101600000D03*
%TD*%
D19*
%TO.C,D4*%
X78740000Y-124460000D03*
D20*
X78740000Y-121920000D03*
%TD*%
D19*
%TO.C,D6*%
X99060000Y-124460000D03*
D20*
X99060000Y-121920000D03*
%TD*%
D19*
%TO.C,D5*%
X88900000Y-124460000D03*
D20*
X88900000Y-121920000D03*
%TD*%
D21*
%TO.C,R5*%
X99060000Y-114300000D03*
D22*
X99060000Y-104140000D03*
%TD*%
D19*
%TO.C,D1*%
X149860000Y-53340000D03*
D20*
X152400000Y-53340000D03*
%TD*%
D21*
%TO.C,R4*%
X88900000Y-114300000D03*
D22*
X88900000Y-104140000D03*
%TD*%
D19*
%TO.C,D2*%
X149860000Y-81280000D03*
D20*
X152400000Y-81280000D03*
%TD*%
D16*
%TO.C,J3*%
X68580000Y-96520000D03*
D15*
X71120000Y-96520000D03*
X73660000Y-96520000D03*
X76200000Y-96520000D03*
X78740000Y-96520000D03*
%TD*%
D21*
%TO.C,R2*%
X68580000Y-114300000D03*
D22*
X68580000Y-104140000D03*
%TD*%
D21*
%TO.C,R3*%
X78740000Y-114300000D03*
D22*
X78740000Y-104140000D03*
%TD*%
D10*
%TO.C,U1*%
X83820000Y-60960000D03*
D11*
X86360000Y-60960000D03*
X88900000Y-60960000D03*
X91440000Y-60960000D03*
X93980000Y-60960000D03*
X96520000Y-60960000D03*
X96520000Y-45720000D03*
X93980000Y-45720000D03*
X91440000Y-45720000D03*
X88900000Y-45720000D03*
X86360000Y-45720000D03*
X83820000Y-45720000D03*
%TD*%
M02*
