%TF.GenerationSoftware,KiCad,Pcbnew,7.0.5-0*%
%TF.CreationDate,2023-07-14T21:04:26-05:00*%
%TF.ProjectId,lab-env-sensor-hw,6c61622d-656e-4762-9d73-656e736f722d,rev?*%
%TF.SameCoordinates,Original*%
%TF.FileFunction,Copper,L1,Top*%
%TF.FilePolarity,Positive*%
%FSLAX46Y46*%
G04 Gerber Fmt 4.6, Leading zero omitted, Abs format (unit mm)*
G04 Created by KiCad (PCBNEW 7.0.5-0) date 2023-07-14 21:04:26*
%MOMM*%
%LPD*%
G01*
G04 APERTURE LIST*
G04 Aperture macros list*
%AMRoundRect*
0 Rectangle with rounded corners*
0 $1 Rounding radius*
0 $2 $3 $4 $5 $6 $7 $8 $9 X,Y pos of 4 corners*
0 Add a 4 corners polygon primitive as box body*
4,1,4,$2,$3,$4,$5,$6,$7,$8,$9,$2,$3,0*
0 Add four circle primitives for the rounded corners*
1,1,$1+$1,$2,$3*
1,1,$1+$1,$4,$5*
1,1,$1+$1,$6,$7*
1,1,$1+$1,$8,$9*
0 Add four rect primitives between the rounded corners*
20,1,$1+$1,$2,$3,$4,$5,0*
20,1,$1+$1,$4,$5,$6,$7,0*
20,1,$1+$1,$6,$7,$8,$9,0*
20,1,$1+$1,$8,$9,$2,$3,0*%
G04 Aperture macros list end*
%TA.AperFunction,NonConductor*%
%ADD10C,0.200000*%
%TD*%
%TA.AperFunction,ComponentPad*%
%ADD11R,1.500000X1.500000*%
%TD*%
%TA.AperFunction,ComponentPad*%
%ADD12C,1.500000*%
%TD*%
%TA.AperFunction,ComponentPad*%
%ADD13R,3.500000X3.500000*%
%TD*%
%TA.AperFunction,ComponentPad*%
%ADD14RoundRect,0.750000X0.750000X1.000000X-0.750000X1.000000X-0.750000X-1.000000X0.750000X-1.000000X0*%
%TD*%
%TA.AperFunction,ComponentPad*%
%ADD15RoundRect,0.875000X0.875000X0.875000X-0.875000X0.875000X-0.875000X-0.875000X0.875000X-0.875000X0*%
%TD*%
%TA.AperFunction,SMDPad,CuDef*%
%ADD16R,1.700000X3.500000*%
%TD*%
%TA.AperFunction,ComponentPad*%
%ADD17O,1.700000X1.700000*%
%TD*%
%TA.AperFunction,ComponentPad*%
%ADD18R,1.700000X1.700000*%
%TD*%
%TA.AperFunction,SMDPad,CuDef*%
%ADD19R,3.500000X1.700000*%
%TD*%
%TA.AperFunction,ComponentPad*%
%ADD20R,1.800000X1.800000*%
%TD*%
%TA.AperFunction,ComponentPad*%
%ADD21C,1.800000*%
%TD*%
%TA.AperFunction,ComponentPad*%
%ADD22C,1.600000*%
%TD*%
%TA.AperFunction,ComponentPad*%
%ADD23O,1.600000X1.600000*%
%TD*%
%TA.AperFunction,ViaPad*%
%ADD24C,0.800000*%
%TD*%
%TA.AperFunction,Conductor*%
%ADD25C,0.250000*%
%TD*%
G04 APERTURE END LIST*
D10*
X55880000Y-30480000D02*
X162560000Y-30480000D01*
X162560000Y-134620000D01*
X55880000Y-134620000D01*
X55880000Y-30480000D01*
D11*
%TO.P,U2,1,e*%
%TO.N,Net-(U1-e)*%
X83820000Y-88900000D03*
D12*
%TO.P,U2,2,d*%
%TO.N,Net-(U1-d)*%
X86360000Y-88900000D03*
%TO.P,U2,3,DPX*%
%TO.N,Net-(U1-DPX)*%
X88900000Y-88900000D03*
%TO.P,U2,4,c*%
%TO.N,Net-(U1-c)*%
X91440000Y-88900000D03*
%TO.P,U2,5,g*%
%TO.N,Net-(U1-g)*%
X93980000Y-88900000D03*
%TO.P,U2,6,CA4*%
%TO.N,unconnected-(U2-CA4-Pad6)*%
X96520000Y-88900000D03*
%TO.P,U2,7,b*%
%TO.N,Net-(U1-b)*%
X96520000Y-73660000D03*
%TO.P,U2,8,CA3*%
%TO.N,/SEL_G_3*%
X93980000Y-73660000D03*
%TO.P,U2,9,CA2*%
%TO.N,/SEL_G_2*%
X91440000Y-73660000D03*
%TO.P,U2,10,f*%
%TO.N,Net-(U1-f)*%
X88900000Y-73660000D03*
%TO.P,U2,11,a*%
%TO.N,Net-(U1-a)*%
X86360000Y-73660000D03*
%TO.P,U2,12,CA1*%
%TO.N,/SEL_G_1*%
X83820000Y-73660000D03*
%TD*%
D13*
%TO.P,J1,1*%
%TO.N,+5V*%
X137620000Y-119760000D03*
D14*
%TO.P,J1,2*%
%TO.N,GND*%
X143620000Y-119760000D03*
D15*
%TO.P,J1,3*%
%TO.N,N/C*%
X140620000Y-115060000D03*
%TD*%
D16*
%TO.P,U3,43,SWDIO*%
%TO.N,unconnected-(U3-SWDIO-Pad43)*%
X135890000Y-93380000D03*
D17*
X135890000Y-92480000D03*
D16*
%TO.P,U3,42,GND*%
%TO.N,GND*%
X133350000Y-93380000D03*
D18*
X133350000Y-92480000D03*
D16*
%TO.P,U3,41,SWCLK*%
%TO.N,unconnected-(U3-SWCLK-Pad41)*%
X130810000Y-93380000D03*
D17*
X130810000Y-92480000D03*
D19*
%TO.P,U3,40,VBUS*%
%TO.N,unconnected-(U3-VBUS-Pad40)*%
X143140000Y-44450000D03*
D17*
X142240000Y-44450000D03*
D19*
%TO.P,U3,39,VSYS*%
%TO.N,+5V*%
X143140000Y-46990000D03*
D17*
X142240000Y-46990000D03*
D19*
%TO.P,U3,38,GND*%
%TO.N,GND*%
X143140000Y-49530000D03*
D18*
X142240000Y-49530000D03*
D19*
%TO.P,U3,37,3V3_EN*%
%TO.N,unconnected-(U3-3V3_EN-Pad37)*%
X143140000Y-52070000D03*
D17*
X142240000Y-52070000D03*
D19*
%TO.P,U3,36,3V3*%
%TO.N,+3V3*%
X143140000Y-54610000D03*
D17*
X142240000Y-54610000D03*
D19*
%TO.P,U3,35,ADC_VREF*%
%TO.N,unconnected-(U3-ADC_VREF-Pad35)*%
X143140000Y-57150000D03*
D17*
X142240000Y-57150000D03*
D19*
%TO.P,U3,34,GPIO28_ADC2*%
%TO.N,unconnected-(U3-GPIO28_ADC2-Pad34)*%
X143140000Y-59690000D03*
D17*
X142240000Y-59690000D03*
D19*
%TO.P,U3,33,AGND*%
%TO.N,unconnected-(U3-AGND-Pad33)*%
X143140000Y-62230000D03*
D18*
X142240000Y-62230000D03*
D19*
%TO.P,U3,32,GPIO27_ADC1*%
%TO.N,unconnected-(U3-GPIO27_ADC1-Pad32)*%
X143140000Y-64770000D03*
D17*
X142240000Y-64770000D03*
D19*
%TO.P,U3,31,GPIO26_ADC0*%
%TO.N,unconnected-(U3-GPIO26_ADC0-Pad31)*%
X143140000Y-67310000D03*
D17*
X142240000Y-67310000D03*
D19*
%TO.P,U3,30,RUN*%
%TO.N,unconnected-(U3-RUN-Pad30)*%
X143140000Y-69850000D03*
D17*
X142240000Y-69850000D03*
D19*
%TO.P,U3,29,GPIO22*%
%TO.N,Net-(U1-DPX)*%
X143140000Y-72390000D03*
D17*
X142240000Y-72390000D03*
D19*
%TO.P,U3,28,GND*%
%TO.N,GND*%
X143140000Y-74930000D03*
D18*
X142240000Y-74930000D03*
D19*
%TO.P,U3,27,GPIO21*%
%TO.N,Net-(U1-g)*%
X143140000Y-77470000D03*
D17*
X142240000Y-77470000D03*
D19*
%TO.P,U3,26,GPIO20*%
%TO.N,Net-(U1-f)*%
X143140000Y-80010000D03*
D17*
X142240000Y-80010000D03*
D19*
%TO.P,U3,25,GPIO19*%
%TO.N,Net-(U1-e)*%
X143140000Y-82550000D03*
D17*
X142240000Y-82550000D03*
D19*
%TO.P,U3,24,GPIO18*%
%TO.N,Net-(U1-d)*%
X143140000Y-85090000D03*
D17*
X142240000Y-85090000D03*
D19*
%TO.P,U3,23,GND*%
%TO.N,GND*%
X143140000Y-87630000D03*
D18*
X142240000Y-87630000D03*
D19*
%TO.P,U3,22,GPIO17*%
%TO.N,Net-(U1-c)*%
X143140000Y-90170000D03*
D17*
X142240000Y-90170000D03*
D19*
%TO.P,U3,21,GPIO16*%
%TO.N,Net-(U1-b)*%
X143140000Y-92710000D03*
D17*
X142240000Y-92710000D03*
D19*
%TO.P,U3,20,GPIO15*%
%TO.N,Net-(U1-a)*%
X123560000Y-92710000D03*
D17*
X124460000Y-92710000D03*
D19*
%TO.P,U3,19,GPIO14*%
%TO.N,unconnected-(U3-GPIO14-Pad19)*%
X123560000Y-90170000D03*
D17*
X124460000Y-90170000D03*
D19*
%TO.P,U3,18,GND*%
%TO.N,GND*%
X123560000Y-87630000D03*
D18*
X124460000Y-87630000D03*
D19*
%TO.P,U3,17,GPIO13*%
%TO.N,/SEL_G_3*%
X123560000Y-85090000D03*
D17*
X124460000Y-85090000D03*
D19*
%TO.P,U3,16,GPIO12*%
%TO.N,/SEL_G_2*%
X123560000Y-82550000D03*
D17*
X124460000Y-82550000D03*
D19*
%TO.P,U3,15,GPIO11*%
%TO.N,/SEL_G_1*%
X123560000Y-80010000D03*
D17*
X124460000Y-80010000D03*
D19*
%TO.P,U3,14,GPIO10*%
%TO.N,/SEL_R_3*%
X123560000Y-77470000D03*
D17*
X124460000Y-77470000D03*
D19*
%TO.P,U3,13,GND*%
%TO.N,GND*%
X123560000Y-74930000D03*
D18*
X124460000Y-74930000D03*
D19*
%TO.P,U3,12,GPIO9*%
%TO.N,/SEL_R_2*%
X123560000Y-72390000D03*
D17*
X124460000Y-72390000D03*
D19*
%TO.P,U3,11,GPIO8*%
%TO.N,/SEL_R_1*%
X123560000Y-69850000D03*
D17*
X124460000Y-69850000D03*
D19*
%TO.P,U3,10,GPIO7*%
%TO.N,unconnected-(U3-GPIO7-Pad10)*%
X123560000Y-67310000D03*
D17*
X124460000Y-67310000D03*
D19*
%TO.P,U3,9,GPIO6*%
%TO.N,/ERR*%
X123560000Y-64770000D03*
D17*
X124460000Y-64770000D03*
D19*
%TO.P,U3,8,GND*%
%TO.N,GND*%
X123560000Y-62230000D03*
D18*
X124460000Y-62230000D03*
D19*
%TO.P,U3,7,GPIO5*%
%TO.N,/PROG_4*%
X123560000Y-59690000D03*
D17*
X124460000Y-59690000D03*
D19*
%TO.P,U3,6,GPIO4*%
%TO.N,/PROG_3*%
X123560000Y-57150000D03*
D17*
X124460000Y-57150000D03*
D19*
%TO.P,U3,5,GPIO3*%
%TO.N,/PROG_2*%
X123560000Y-54610000D03*
D17*
X124460000Y-54610000D03*
D19*
%TO.P,U3,4,GPIO2*%
%TO.N,/PROG_1*%
X123560000Y-52070000D03*
D17*
X124460000Y-52070000D03*
D19*
%TO.P,U3,3,GND*%
%TO.N,GND*%
X123560000Y-49530000D03*
D18*
X124460000Y-49530000D03*
D19*
%TO.P,U3,2,GPIO1*%
%TO.N,/SCL*%
X123560000Y-46990000D03*
D17*
X124460000Y-46990000D03*
D19*
%TO.P,U3,1,GPIO0*%
%TO.N,/SDA*%
X123560000Y-44450000D03*
D17*
X124460000Y-44450000D03*
%TD*%
D18*
%TO.P,J2,1,VIN*%
%TO.N,+3V3*%
X93980000Y-96520000D03*
D17*
%TO.P,J2,2,3Vo*%
%TO.N,unconnected-(J2-3Vo-Pad2)*%
X96520000Y-96520000D03*
%TO.P,J2,3,GND*%
%TO.N,GND*%
X99060000Y-96520000D03*
%TO.P,J2,4,SCL*%
%TO.N,/SCL*%
X101600000Y-96520000D03*
%TO.P,J2,5,SDA*%
%TO.N,/SDA*%
X104140000Y-96520000D03*
%TO.P,J2,6,RST*%
%TO.N,unconnected-(J2-RST-Pad6)*%
X106680000Y-96520000D03*
%TO.P,J2,7,SET*%
%TO.N,unconnected-(J2-SET-Pad7)*%
X109220000Y-96520000D03*
%TD*%
D20*
%TO.P,D3,1,K*%
%TO.N,GND*%
X68580000Y-124460000D03*
D21*
%TO.P,D3,2,A*%
%TO.N,Net-(D3-A)*%
X68580000Y-121920000D03*
%TD*%
D22*
%TO.P,R1,1*%
%TO.N,Net-(D2-A)*%
X137160000Y-101600000D03*
D23*
%TO.P,R1,2*%
%TO.N,/ERR*%
X127000000Y-101600000D03*
%TD*%
D20*
%TO.P,D4,1,K*%
%TO.N,GND*%
X78740000Y-124460000D03*
D21*
%TO.P,D4,2,A*%
%TO.N,Net-(D4-A)*%
X78740000Y-121920000D03*
%TD*%
D20*
%TO.P,D6,1,K*%
%TO.N,GND*%
X99060000Y-124460000D03*
D21*
%TO.P,D6,2,A*%
%TO.N,Net-(D6-A)*%
X99060000Y-121920000D03*
%TD*%
D20*
%TO.P,D5,1,K*%
%TO.N,GND*%
X88900000Y-124460000D03*
D21*
%TO.P,D5,2,A*%
%TO.N,Net-(D5-A)*%
X88900000Y-121920000D03*
%TD*%
D22*
%TO.P,R5,1*%
%TO.N,Net-(D6-A)*%
X99060000Y-114300000D03*
D23*
%TO.P,R5,2*%
%TO.N,/PROG_4*%
X99060000Y-104140000D03*
%TD*%
D20*
%TO.P,D1,1,K*%
%TO.N,GND*%
X149860000Y-53340000D03*
D21*
%TO.P,D1,2,A*%
%TO.N,+3V3*%
X152400000Y-53340000D03*
%TD*%
D22*
%TO.P,R4,1*%
%TO.N,Net-(D5-A)*%
X88900000Y-114300000D03*
D23*
%TO.P,R4,2*%
%TO.N,/PROG_3*%
X88900000Y-104140000D03*
%TD*%
D20*
%TO.P,D2,1,K*%
%TO.N,GND*%
X149860000Y-81280000D03*
D21*
%TO.P,D2,2,A*%
%TO.N,Net-(D2-A)*%
X152400000Y-81280000D03*
%TD*%
D18*
%TO.P,J3,1,Pin_1*%
%TO.N,+3V3*%
X68580000Y-96520000D03*
D17*
%TO.P,J3,2,Pin_2*%
%TO.N,unconnected-(J3-Pin_2-Pad2)*%
X71120000Y-96520000D03*
%TO.P,J3,3,Pin_3*%
%TO.N,GND*%
X73660000Y-96520000D03*
%TO.P,J3,4,Pin_4*%
%TO.N,/SCL*%
X76200000Y-96520000D03*
%TO.P,J3,5,Pin_5*%
%TO.N,/SDA*%
X78740000Y-96520000D03*
%TD*%
D22*
%TO.P,R2,1*%
%TO.N,Net-(D3-A)*%
X68580000Y-114300000D03*
D23*
%TO.P,R2,2*%
%TO.N,/PROG_1*%
X68580000Y-104140000D03*
%TD*%
D22*
%TO.P,R3,1*%
%TO.N,Net-(D4-A)*%
X78740000Y-114300000D03*
D23*
%TO.P,R3,2*%
%TO.N,/PROG_2*%
X78740000Y-104140000D03*
%TD*%
D11*
%TO.P,U1,1,e*%
%TO.N,Net-(U1-e)*%
X83820000Y-60960000D03*
D12*
%TO.P,U1,2,d*%
%TO.N,Net-(U1-d)*%
X86360000Y-60960000D03*
%TO.P,U1,3,DPX*%
%TO.N,Net-(U1-DPX)*%
X88900000Y-60960000D03*
%TO.P,U1,4,c*%
%TO.N,Net-(U1-c)*%
X91440000Y-60960000D03*
%TO.P,U1,5,g*%
%TO.N,Net-(U1-g)*%
X93980000Y-60960000D03*
%TO.P,U1,6,CC4*%
%TO.N,unconnected-(U1-CC4-Pad6)*%
X96520000Y-60960000D03*
%TO.P,U1,7,b*%
%TO.N,Net-(U1-b)*%
X96520000Y-45720000D03*
%TO.P,U1,8,CC3*%
%TO.N,/SEL_R_3*%
X93980000Y-45720000D03*
%TO.P,U1,9,CC2*%
%TO.N,/SEL_R_2*%
X91440000Y-45720000D03*
%TO.P,U1,10,f*%
%TO.N,Net-(U1-f)*%
X88900000Y-45720000D03*
%TO.P,U1,11,a*%
%TO.N,Net-(U1-a)*%
X86360000Y-45720000D03*
%TO.P,U1,12,CC1*%
%TO.N,/SEL_R_1*%
X83820000Y-45720000D03*
%TD*%
D24*
%TO.N,Net-(U1-g)*%
X119380000Y-86360000D03*
%TO.N,Net-(U1-c)*%
X119380000Y-96520000D03*
%TO.N,Net-(U1-a)*%
X104140000Y-48260000D03*
%TO.N,Net-(U1-f)*%
X106680000Y-48260000D03*
%TO.N,Net-(U1-b)*%
X109220000Y-48260000D03*
%TO.N,/SEL_G_1*%
X109220000Y-78740000D03*
%TO.N,/SEL_G_2*%
X104140000Y-81280000D03*
X104140000Y-81280000D03*
%TO.N,/SCL*%
X114300000Y-96520000D03*
%TD*%
D25*
%TO.N,/ERR*%
X127000000Y-101600000D02*
X123434695Y-101600000D01*
X118655000Y-96820305D02*
X118655000Y-66765000D01*
X120650000Y-64770000D02*
X124460000Y-64770000D01*
X123434695Y-101600000D02*
X118655000Y-96820305D01*
X118655000Y-66765000D02*
X120650000Y-64770000D01*
%TO.N,Net-(D2-A)*%
X137160000Y-101600000D02*
X138291370Y-101600000D01*
X138291370Y-101600000D02*
X152400000Y-87491370D01*
X152400000Y-87491370D02*
X152400000Y-81280000D01*
%TO.N,Net-(D6-A)*%
X99060000Y-114300000D02*
X99060000Y-121920000D01*
%TO.N,Net-(D5-A)*%
X88900000Y-114300000D02*
X88900000Y-121920000D01*
%TO.N,Net-(D4-A)*%
X78740000Y-114300000D02*
X78740000Y-121920000D01*
%TO.N,Net-(D3-A)*%
X68580000Y-114300000D02*
X68580000Y-121920000D01*
%TO.N,Net-(U1-g)*%
X119380000Y-86360000D02*
X133540000Y-86360000D01*
X133540000Y-86360000D02*
X142240000Y-77660000D01*
X142240000Y-77660000D02*
X142240000Y-77470000D01*
%TO.N,Net-(U1-c)*%
X142580000Y-96520000D02*
X119380000Y-96520000D01*
X145215000Y-93885000D02*
X142580000Y-96520000D01*
X145215000Y-91535000D02*
X145215000Y-93885000D01*
X143850000Y-90170000D02*
X145215000Y-91535000D01*
X142240000Y-90170000D02*
X143850000Y-90170000D01*
%TO.N,Net-(U1-f)*%
X106680000Y-48260000D02*
X108770000Y-50350000D01*
%TO.N,/SEL_G_1*%
X109220000Y-78740000D02*
X105955000Y-82005000D01*
X105955000Y-82005000D02*
X92165000Y-82005000D01*
X92165000Y-82005000D02*
X83820000Y-73660000D01*
%TO.N,/SEL_G_2*%
X104140000Y-81280000D02*
X99060000Y-81280000D01*
X99060000Y-81280000D02*
X91440000Y-73660000D01*
%TO.N,Net-(U1-g)*%
X93980000Y-60960000D02*
X90671802Y-57651802D01*
X90671802Y-57651802D02*
X86864594Y-57651802D01*
X86864594Y-57651802D02*
X86282792Y-57070000D01*
X88636396Y-92340000D02*
X89218198Y-91758198D01*
X86282792Y-57070000D02*
X80720812Y-57070000D01*
X80720812Y-57070000D02*
X77390000Y-60400812D01*
X80193604Y-89086396D02*
X83447208Y-92340000D01*
X77390000Y-60400812D02*
X77390000Y-81839188D01*
X77390000Y-81839188D02*
X80193604Y-84642792D01*
X80193604Y-84642792D02*
X80193604Y-89086396D01*
X91121802Y-91758198D02*
X93980000Y-88900000D01*
X83447208Y-92340000D02*
X88636396Y-92340000D01*
X89218198Y-91758198D02*
X91121802Y-91758198D01*
%TO.N,Net-(U1-c)*%
X91440000Y-88900000D02*
X88581802Y-91758198D01*
X88581802Y-91758198D02*
X86678198Y-91758198D01*
X86678198Y-91758198D02*
X86546396Y-91890000D01*
X86546396Y-91890000D02*
X83633604Y-91890000D01*
X88581802Y-58101802D02*
X91440000Y-60960000D01*
X83633604Y-91890000D02*
X80643604Y-88900000D01*
X77840000Y-81652792D02*
X77840000Y-60587208D01*
X80643604Y-88900000D02*
X80643604Y-84456396D01*
X80643604Y-84456396D02*
X77840000Y-81652792D01*
X77840000Y-60587208D02*
X80907208Y-57520000D01*
X80907208Y-57520000D02*
X86096396Y-57520000D01*
X86096396Y-57520000D02*
X86678198Y-58101802D01*
X86678198Y-58101802D02*
X88581802Y-58101802D01*
%TO.N,Net-(U1-DPX)*%
X88900000Y-60960000D02*
X85910000Y-57970000D01*
X81280000Y-88900000D02*
X83820000Y-91440000D01*
X85910000Y-57970000D02*
X81093604Y-57970000D01*
X81093604Y-57970000D02*
X78290000Y-60773604D01*
X78290000Y-60773604D02*
X78290000Y-81466396D01*
X78290000Y-81466396D02*
X81280000Y-84456396D01*
X81280000Y-84456396D02*
X81280000Y-88900000D01*
X83820000Y-91440000D02*
X86360000Y-91440000D01*
X86360000Y-91440000D02*
X88900000Y-88900000D01*
%TO.N,Net-(U1-d)*%
X81280000Y-58420000D02*
X78740000Y-60960000D01*
X86360000Y-60960000D02*
X83820000Y-58420000D01*
X83820000Y-58420000D02*
X81280000Y-58420000D01*
X78740000Y-60960000D02*
X78740000Y-81280000D01*
X78740000Y-81280000D02*
X86360000Y-88900000D01*
%TO.N,Net-(U1-b)*%
X96520000Y-45720000D02*
X106680000Y-45720000D01*
X109220000Y-69852792D02*
X107502792Y-71570000D01*
X106680000Y-45720000D02*
X109220000Y-48260000D01*
X109220000Y-48260000D02*
X109220000Y-69852792D01*
X107502792Y-71570000D02*
X98610000Y-71570000D01*
X98610000Y-71570000D02*
X96520000Y-73660000D01*
%TO.N,Net-(U1-f)*%
X108770000Y-50350000D02*
X108770000Y-69666396D01*
X108770000Y-69666396D02*
X107316396Y-71120000D01*
X107316396Y-71120000D02*
X91440000Y-71120000D01*
%TO.N,Net-(U1-a)*%
X86360000Y-45720000D02*
X88900000Y-48260000D01*
X89350000Y-70670000D02*
X86360000Y-73660000D01*
X88900000Y-48260000D02*
X104140000Y-48260000D01*
X108320000Y-52440000D02*
X108320000Y-69480000D01*
X104140000Y-48260000D02*
X108320000Y-52440000D01*
X108320000Y-69480000D02*
X107130000Y-70670000D01*
X107130000Y-70670000D02*
X89350000Y-70670000D01*
%TO.N,Net-(U1-f)*%
X88900000Y-45720000D02*
X89975000Y-46795000D01*
X105215000Y-46795000D02*
X106680000Y-48260000D01*
X89975000Y-46795000D02*
X105215000Y-46795000D01*
X91440000Y-71120000D02*
X88900000Y-73660000D01*
%TO.N,/SCL*%
X117290000Y-91626396D02*
X114618198Y-94298198D01*
X117290000Y-88900000D02*
X117290000Y-91626396D01*
X117290000Y-58420000D02*
X117290000Y-78740000D01*
X122850000Y-46990000D02*
X117290000Y-52550000D01*
X124460000Y-46990000D02*
X122850000Y-46990000D01*
X117290000Y-78740000D02*
X117290000Y-88900000D01*
X117290000Y-52550000D02*
X117290000Y-58420000D01*
X114618198Y-94298198D02*
X114300000Y-94616396D01*
X114300000Y-94616396D02*
X114300000Y-96520000D01*
%TO.N,/SDA*%
X104140000Y-96520000D02*
X106680000Y-93980000D01*
X106680000Y-93980000D02*
X114300000Y-93980000D01*
X120650000Y-44450000D02*
X124460000Y-44450000D01*
X114300000Y-93980000D02*
X116840000Y-91440000D01*
X116840000Y-91440000D02*
X116840000Y-48260000D01*
X116840000Y-48260000D02*
X120650000Y-44450000D01*
X104140000Y-96520000D02*
X101600000Y-99060000D01*
X101600000Y-99060000D02*
X81280000Y-99060000D01*
X81280000Y-99060000D02*
X78740000Y-96520000D01*
%TO.N,/SCL*%
X99060000Y-93980000D02*
X78740000Y-93980000D01*
X101600000Y-96520000D02*
X99060000Y-93980000D01*
X78740000Y-93980000D02*
X76200000Y-96520000D01*
%TD*%
%TA.AperFunction,Conductor*%
%TO.N,+3V3*%
G36*
X98816587Y-94625185D02*
G01*
X98837229Y-94641819D01*
X99148069Y-94952660D01*
X99181554Y-95013983D01*
X99176570Y-95083675D01*
X99134698Y-95139608D01*
X99069234Y-95164025D01*
X99060388Y-95164341D01*
X99059999Y-95164341D01*
X98824596Y-95184936D01*
X98824586Y-95184938D01*
X98596344Y-95246094D01*
X98596335Y-95246098D01*
X98382171Y-95345964D01*
X98382169Y-95345965D01*
X98188597Y-95481505D01*
X98021505Y-95648597D01*
X97891575Y-95834158D01*
X97836998Y-95877783D01*
X97767500Y-95884977D01*
X97705145Y-95853454D01*
X97688425Y-95834158D01*
X97558494Y-95648597D01*
X97391402Y-95481506D01*
X97391395Y-95481501D01*
X97197834Y-95345967D01*
X97197830Y-95345965D01*
X97126727Y-95312809D01*
X96983663Y-95246097D01*
X96983659Y-95246096D01*
X96983655Y-95246094D01*
X96755413Y-95184938D01*
X96755403Y-95184936D01*
X96520001Y-95164341D01*
X96519999Y-95164341D01*
X96284596Y-95184936D01*
X96284586Y-95184938D01*
X96056344Y-95246094D01*
X96056335Y-95246098D01*
X95842171Y-95345964D01*
X95842169Y-95345965D01*
X95648600Y-95481503D01*
X95526284Y-95603819D01*
X95464961Y-95637303D01*
X95395269Y-95632319D01*
X95339336Y-95590447D01*
X95322421Y-95559470D01*
X95273354Y-95427913D01*
X95273350Y-95427906D01*
X95187190Y-95312812D01*
X95187187Y-95312809D01*
X95072093Y-95226649D01*
X95072086Y-95226645D01*
X94937379Y-95176403D01*
X94937372Y-95176401D01*
X94877844Y-95170000D01*
X94230000Y-95170000D01*
X94230000Y-96084498D01*
X94122315Y-96035320D01*
X94015763Y-96020000D01*
X93944237Y-96020000D01*
X93837685Y-96035320D01*
X93730000Y-96084498D01*
X93730000Y-95170000D01*
X93082155Y-95170000D01*
X93022627Y-95176401D01*
X93022620Y-95176403D01*
X92887913Y-95226645D01*
X92887906Y-95226649D01*
X92772812Y-95312809D01*
X92772809Y-95312812D01*
X92686649Y-95427906D01*
X92686645Y-95427913D01*
X92636403Y-95562620D01*
X92636401Y-95562627D01*
X92630000Y-95622155D01*
X92630000Y-95622172D01*
X92629999Y-96269999D01*
X92630000Y-96270000D01*
X93546314Y-96270000D01*
X93520507Y-96310156D01*
X93480000Y-96448111D01*
X93480000Y-96591889D01*
X93520507Y-96729844D01*
X93546314Y-96770000D01*
X92630000Y-96770000D01*
X92630000Y-97417844D01*
X92636401Y-97477372D01*
X92636403Y-97477379D01*
X92686645Y-97612086D01*
X92686649Y-97612093D01*
X92772809Y-97727187D01*
X92772812Y-97727190D01*
X92887906Y-97813350D01*
X92887913Y-97813354D01*
X93022620Y-97863596D01*
X93022627Y-97863598D01*
X93082155Y-97869999D01*
X93082172Y-97870000D01*
X93730000Y-97870000D01*
X93730000Y-96955501D01*
X93837685Y-97004680D01*
X93944237Y-97020000D01*
X94015763Y-97020000D01*
X94122315Y-97004680D01*
X94230000Y-96955501D01*
X94230000Y-97870000D01*
X94877828Y-97870000D01*
X94877844Y-97869999D01*
X94937372Y-97863598D01*
X94937379Y-97863596D01*
X95072086Y-97813354D01*
X95072093Y-97813350D01*
X95187187Y-97727190D01*
X95187190Y-97727187D01*
X95273350Y-97612093D01*
X95273354Y-97612086D01*
X95322422Y-97480529D01*
X95364293Y-97424595D01*
X95429757Y-97400178D01*
X95498030Y-97415030D01*
X95526285Y-97436181D01*
X95648599Y-97558495D01*
X95725135Y-97612086D01*
X95842165Y-97694032D01*
X95842167Y-97694033D01*
X95842170Y-97694035D01*
X96056337Y-97793903D01*
X96284592Y-97855063D01*
X96455319Y-97870000D01*
X96519999Y-97875659D01*
X96520000Y-97875659D01*
X96520001Y-97875659D01*
X96584681Y-97870000D01*
X96755408Y-97855063D01*
X96983663Y-97793903D01*
X97197830Y-97694035D01*
X97391401Y-97558495D01*
X97558495Y-97391401D01*
X97688426Y-97205840D01*
X97743001Y-97162217D01*
X97812499Y-97155023D01*
X97874854Y-97186546D01*
X97891574Y-97205841D01*
X97923819Y-97251891D01*
X98021505Y-97391401D01*
X98188599Y-97558495D01*
X98265135Y-97612086D01*
X98382165Y-97694032D01*
X98382167Y-97694033D01*
X98382170Y-97694035D01*
X98596337Y-97793903D01*
X98824592Y-97855063D01*
X98995319Y-97870000D01*
X99059999Y-97875659D01*
X99060000Y-97875659D01*
X99060001Y-97875659D01*
X99124681Y-97870000D01*
X99295408Y-97855063D01*
X99523663Y-97793903D01*
X99737830Y-97694035D01*
X99931401Y-97558495D01*
X100098495Y-97391401D01*
X100227807Y-97206725D01*
X100228425Y-97205842D01*
X100283002Y-97162217D01*
X100352500Y-97155023D01*
X100414855Y-97186546D01*
X100431575Y-97205842D01*
X100561500Y-97391395D01*
X100561505Y-97391401D01*
X100728599Y-97558495D01*
X100805135Y-97612086D01*
X100922165Y-97694032D01*
X100922167Y-97694033D01*
X100922170Y-97694035D01*
X101136337Y-97793903D01*
X101364592Y-97855063D01*
X101535319Y-97870000D01*
X101599999Y-97875659D01*
X101600387Y-97875659D01*
X101600551Y-97875707D01*
X101605394Y-97876131D01*
X101605308Y-97877104D01*
X101667426Y-97895344D01*
X101713181Y-97948148D01*
X101723125Y-98017306D01*
X101694100Y-98080862D01*
X101688068Y-98087340D01*
X101377228Y-98398181D01*
X101315905Y-98431666D01*
X101289547Y-98434500D01*
X81590453Y-98434500D01*
X81523414Y-98414815D01*
X81502772Y-98398181D01*
X80080237Y-96975646D01*
X80046752Y-96914323D01*
X80048142Y-96855876D01*
X80075063Y-96755408D01*
X80095659Y-96520000D01*
X80075063Y-96284592D01*
X80013903Y-96056337D01*
X79914035Y-95842171D01*
X79908425Y-95834158D01*
X79778494Y-95648597D01*
X79611402Y-95481506D01*
X79611395Y-95481501D01*
X79417834Y-95345967D01*
X79417830Y-95345965D01*
X79346727Y-95312809D01*
X79203663Y-95246097D01*
X79203659Y-95246096D01*
X79203655Y-95246094D01*
X78975413Y-95184938D01*
X78975403Y-95184936D01*
X78740001Y-95164341D01*
X78739611Y-95164341D01*
X78739445Y-95164292D01*
X78734606Y-95163869D01*
X78734691Y-95162896D01*
X78672572Y-95144656D01*
X78626817Y-95091852D01*
X78616873Y-95022694D01*
X78645898Y-94959138D01*
X78651930Y-94952660D01*
X78729105Y-94875486D01*
X78962771Y-94641819D01*
X79024095Y-94608334D01*
X79050453Y-94605500D01*
X98749548Y-94605500D01*
X98816587Y-94625185D01*
G37*
%TD.AperFunction*%
%TA.AperFunction,Conductor*%
G36*
X161902539Y-31100185D02*
G01*
X161948294Y-31152989D01*
X161959500Y-31204500D01*
X161959500Y-133895500D01*
X161939815Y-133962539D01*
X161887011Y-134008294D01*
X161835500Y-134019500D01*
X56604500Y-134019500D01*
X56537461Y-133999815D01*
X56491706Y-133947011D01*
X56480500Y-133895500D01*
X56480500Y-121920006D01*
X67174700Y-121920006D01*
X67193864Y-122151297D01*
X67193866Y-122151308D01*
X67250842Y-122376300D01*
X67344075Y-122588848D01*
X67471016Y-122783147D01*
X67471019Y-122783151D01*
X67471021Y-122783153D01*
X67565803Y-122886114D01*
X67596724Y-122948767D01*
X67588864Y-123018193D01*
X67544716Y-123072348D01*
X67517906Y-123086277D01*
X67437669Y-123116203D01*
X67437664Y-123116206D01*
X67322455Y-123202452D01*
X67322452Y-123202455D01*
X67236206Y-123317664D01*
X67236202Y-123317671D01*
X67185908Y-123452517D01*
X67179501Y-123512116D01*
X67179501Y-123512123D01*
X67179500Y-123512135D01*
X67179500Y-125407870D01*
X67179501Y-125407876D01*
X67185908Y-125467483D01*
X67236202Y-125602328D01*
X67236206Y-125602335D01*
X67322452Y-125717544D01*
X67322455Y-125717547D01*
X67437664Y-125803793D01*
X67437671Y-125803797D01*
X67572517Y-125854091D01*
X67572516Y-125854091D01*
X67579444Y-125854835D01*
X67632127Y-125860500D01*
X69527872Y-125860499D01*
X69587483Y-125854091D01*
X69722331Y-125803796D01*
X69837546Y-125717546D01*
X69923796Y-125602331D01*
X69974091Y-125467483D01*
X69980500Y-125407873D01*
X69980499Y-123512128D01*
X69974091Y-123452517D01*
X69923796Y-123317669D01*
X69923795Y-123317668D01*
X69923793Y-123317664D01*
X69837547Y-123202455D01*
X69837544Y-123202452D01*
X69722335Y-123116206D01*
X69722328Y-123116202D01*
X69642094Y-123086277D01*
X69586160Y-123044406D01*
X69561743Y-122978941D01*
X69576595Y-122910668D01*
X69594190Y-122886121D01*
X69688979Y-122783153D01*
X69815924Y-122588849D01*
X69909157Y-122376300D01*
X69966134Y-122151305D01*
X69966135Y-122151297D01*
X69985300Y-121920006D01*
X77334700Y-121920006D01*
X77353864Y-122151297D01*
X77353866Y-122151308D01*
X77410842Y-122376300D01*
X77504075Y-122588848D01*
X77631016Y-122783147D01*
X77631019Y-122783151D01*
X77631021Y-122783153D01*
X77725803Y-122886114D01*
X77756724Y-122948767D01*
X77748864Y-123018193D01*
X77704716Y-123072348D01*
X77677906Y-123086277D01*
X77597669Y-123116203D01*
X77597664Y-123116206D01*
X77482455Y-123202452D01*
X77482452Y-123202455D01*
X77396206Y-123317664D01*
X77396202Y-123317671D01*
X77345908Y-123452517D01*
X77339501Y-123512116D01*
X77339501Y-123512123D01*
X77339500Y-123512135D01*
X77339500Y-125407870D01*
X77339501Y-125407876D01*
X77345908Y-125467483D01*
X77396202Y-125602328D01*
X77396206Y-125602335D01*
X77482452Y-125717544D01*
X77482455Y-125717547D01*
X77597664Y-125803793D01*
X77597671Y-125803797D01*
X77732517Y-125854091D01*
X77732516Y-125854091D01*
X77739444Y-125854835D01*
X77792127Y-125860500D01*
X79687872Y-125860499D01*
X79747483Y-125854091D01*
X79882331Y-125803796D01*
X79997546Y-125717546D01*
X80083796Y-125602331D01*
X80134091Y-125467483D01*
X80140500Y-125407873D01*
X80140499Y-123512128D01*
X80134091Y-123452517D01*
X80083796Y-123317669D01*
X80083795Y-123317668D01*
X80083793Y-123317664D01*
X79997547Y-123202455D01*
X79997544Y-123202452D01*
X79882335Y-123116206D01*
X79882328Y-123116202D01*
X79802094Y-123086277D01*
X79746160Y-123044406D01*
X79721743Y-122978941D01*
X79736595Y-122910668D01*
X79754190Y-122886121D01*
X79848979Y-122783153D01*
X79975924Y-122588849D01*
X80069157Y-122376300D01*
X80126134Y-122151305D01*
X80126135Y-122151297D01*
X80145300Y-121920006D01*
X87494700Y-121920006D01*
X87513864Y-122151297D01*
X87513866Y-122151308D01*
X87570842Y-122376300D01*
X87664075Y-122588848D01*
X87791016Y-122783147D01*
X87791019Y-122783151D01*
X87791021Y-122783153D01*
X87885803Y-122886114D01*
X87916724Y-122948767D01*
X87908864Y-123018193D01*
X87864716Y-123072348D01*
X87837906Y-123086277D01*
X87757669Y-123116203D01*
X87757664Y-123116206D01*
X87642455Y-123202452D01*
X87642452Y-123202455D01*
X87556206Y-123317664D01*
X87556202Y-123317671D01*
X87505908Y-123452517D01*
X87499501Y-123512116D01*
X87499501Y-123512123D01*
X87499500Y-123512135D01*
X87499500Y-125407870D01*
X87499501Y-125407876D01*
X87505908Y-125467483D01*
X87556202Y-125602328D01*
X87556206Y-125602335D01*
X87642452Y-125717544D01*
X87642455Y-125717547D01*
X87757664Y-125803793D01*
X87757671Y-125803797D01*
X87892517Y-125854091D01*
X87892516Y-125854091D01*
X87899444Y-125854835D01*
X87952127Y-125860500D01*
X89847872Y-125860499D01*
X89907483Y-125854091D01*
X90042331Y-125803796D01*
X90157546Y-125717546D01*
X90243796Y-125602331D01*
X90294091Y-125467483D01*
X90300500Y-125407873D01*
X90300499Y-123512128D01*
X90294091Y-123452517D01*
X90243796Y-123317669D01*
X90243795Y-123317668D01*
X90243793Y-123317664D01*
X90157547Y-123202455D01*
X90157544Y-123202452D01*
X90042335Y-123116206D01*
X90042328Y-123116202D01*
X89962094Y-123086277D01*
X89906160Y-123044406D01*
X89881743Y-122978941D01*
X89896595Y-122910668D01*
X89914190Y-122886121D01*
X90008979Y-122783153D01*
X90135924Y-122588849D01*
X90229157Y-122376300D01*
X90286134Y-122151305D01*
X90286135Y-122151297D01*
X90305300Y-121920006D01*
X97654700Y-121920006D01*
X97673864Y-122151297D01*
X97673866Y-122151308D01*
X97730842Y-122376300D01*
X97824075Y-122588848D01*
X97951016Y-122783147D01*
X97951019Y-122783151D01*
X97951021Y-122783153D01*
X98045803Y-122886114D01*
X98076724Y-122948767D01*
X98068864Y-123018193D01*
X98024716Y-123072348D01*
X97997906Y-123086277D01*
X97917669Y-123116203D01*
X97917664Y-123116206D01*
X97802455Y-123202452D01*
X97802452Y-123202455D01*
X97716206Y-123317664D01*
X97716202Y-123317671D01*
X97665908Y-123452517D01*
X97659501Y-123512116D01*
X97659501Y-123512123D01*
X97659500Y-123512135D01*
X97659500Y-125407870D01*
X97659501Y-125407876D01*
X97665908Y-125467483D01*
X97716202Y-125602328D01*
X97716206Y-125602335D01*
X97802452Y-125717544D01*
X97802455Y-125717547D01*
X97917664Y-125803793D01*
X97917671Y-125803797D01*
X98052517Y-125854091D01*
X98052516Y-125854091D01*
X98059444Y-125854835D01*
X98112127Y-125860500D01*
X100007872Y-125860499D01*
X100067483Y-125854091D01*
X100202331Y-125803796D01*
X100317546Y-125717546D01*
X100403796Y-125602331D01*
X100454091Y-125467483D01*
X100460500Y-125407873D01*
X100460499Y-123512128D01*
X100454091Y-123452517D01*
X100403796Y-123317669D01*
X100403795Y-123317668D01*
X100403793Y-123317664D01*
X100317547Y-123202455D01*
X100317544Y-123202452D01*
X100202335Y-123116206D01*
X100202328Y-123116202D01*
X100122094Y-123086277D01*
X100066160Y-123044406D01*
X100041743Y-122978941D01*
X100056595Y-122910668D01*
X100074190Y-122886121D01*
X100168979Y-122783153D01*
X100295924Y-122588849D01*
X100389157Y-122376300D01*
X100446134Y-122151305D01*
X100446135Y-122151297D01*
X100465300Y-121920006D01*
X100465300Y-121919993D01*
X100446135Y-121688702D01*
X100446133Y-121688691D01*
X100413004Y-121557870D01*
X135369500Y-121557870D01*
X135369501Y-121557876D01*
X135375908Y-121617483D01*
X135426202Y-121752328D01*
X135426206Y-121752335D01*
X135512452Y-121867544D01*
X135512455Y-121867547D01*
X135627664Y-121953793D01*
X135627671Y-121953797D01*
X135762517Y-122004091D01*
X135762516Y-122004091D01*
X135769444Y-122004835D01*
X135822127Y-122010500D01*
X139417872Y-122010499D01*
X139477483Y-122004091D01*
X139612331Y-121953796D01*
X139727546Y-121867546D01*
X139813796Y-121752331D01*
X139864091Y-121617483D01*
X139870500Y-121557873D01*
X139870500Y-120824208D01*
X141619500Y-120824208D01*
X141619501Y-120824223D01*
X141629904Y-120956413D01*
X141629905Y-120956420D01*
X141684902Y-121174678D01*
X141684903Y-121174681D01*
X141777991Y-121379622D01*
X141777997Y-121379632D01*
X141906174Y-121564645D01*
X141906178Y-121564650D01*
X141906181Y-121564654D01*
X142065346Y-121723819D01*
X142065350Y-121723822D01*
X142065354Y-121723825D01*
X142106506Y-121752335D01*
X142250374Y-121852007D01*
X142455317Y-121945096D01*
X142455321Y-121945097D01*
X142673579Y-122000094D01*
X142673581Y-122000094D01*
X142673588Y-122000096D01*
X142805783Y-122010500D01*
X144434216Y-122010499D01*
X144566412Y-122000096D01*
X144784683Y-121945096D01*
X144989626Y-121852007D01*
X145174654Y-121723819D01*
X145333819Y-121564654D01*
X145462007Y-121379626D01*
X145555096Y-121174683D01*
X145610096Y-120956412D01*
X145620500Y-120824217D01*
X145620499Y-118695784D01*
X145610096Y-118563588D01*
X145555096Y-118345317D01*
X145462007Y-118140374D01*
X145430297Y-118094603D01*
X145333825Y-117955354D01*
X145333822Y-117955350D01*
X145333819Y-117955346D01*
X145174654Y-117796181D01*
X145174650Y-117796178D01*
X145174645Y-117796174D01*
X144989632Y-117667997D01*
X144989630Y-117667995D01*
X144989626Y-117667993D01*
X144955411Y-117652452D01*
X144784681Y-117574903D01*
X144784678Y-117574902D01*
X144566420Y-117519905D01*
X144566413Y-117519904D01*
X144515638Y-117515908D01*
X144434217Y-117509500D01*
X144434215Y-117509500D01*
X142805791Y-117509500D01*
X142805776Y-117509501D01*
X142673586Y-117519904D01*
X142673579Y-117519905D01*
X142455321Y-117574902D01*
X142455318Y-117574903D01*
X142250377Y-117667991D01*
X142250367Y-117667997D01*
X142065354Y-117796174D01*
X142065342Y-117796184D01*
X141906184Y-117955342D01*
X141906174Y-117955354D01*
X141777997Y-118140367D01*
X141777991Y-118140377D01*
X141684903Y-118345318D01*
X141684902Y-118345321D01*
X141629905Y-118563579D01*
X141629904Y-118563586D01*
X141619500Y-118695777D01*
X141619500Y-120824208D01*
X139870500Y-120824208D01*
X139870499Y-117962128D01*
X139864091Y-117902517D01*
X139824431Y-117796184D01*
X139813797Y-117767671D01*
X139813793Y-117767664D01*
X139727547Y-117652455D01*
X139727544Y-117652452D01*
X139612335Y-117566206D01*
X139612328Y-117566202D01*
X139565061Y-117548573D01*
X139509127Y-117506702D01*
X139484710Y-117441238D01*
X139499562Y-117372965D01*
X139548967Y-117323559D01*
X139614972Y-117308566D01*
X139628053Y-117309261D01*
X139651349Y-117310499D01*
X139651369Y-117310499D01*
X139651378Y-117310500D01*
X139651386Y-117310500D01*
X141588614Y-117310500D01*
X141588622Y-117310500D01*
X141641241Y-117307705D01*
X141871126Y-117263245D01*
X142090190Y-117180574D01*
X142292132Y-117062070D01*
X142471142Y-116911142D01*
X142622070Y-116732132D01*
X142740574Y-116530190D01*
X142823245Y-116311126D01*
X142867705Y-116081241D01*
X142870500Y-116028622D01*
X142870500Y-114091378D01*
X142867705Y-114038759D01*
X142823245Y-113808874D01*
X142740574Y-113589810D01*
X142622070Y-113387868D01*
X142622065Y-113387861D01*
X142471143Y-113208858D01*
X142471141Y-113208856D01*
X142292138Y-113057934D01*
X142292131Y-113057929D01*
X142090189Y-112939425D01*
X141999832Y-112905326D01*
X141871126Y-112856755D01*
X141871121Y-112856754D01*
X141641243Y-112812295D01*
X141588652Y-112809501D01*
X141588629Y-112809500D01*
X141588622Y-112809500D01*
X139651378Y-112809500D01*
X139651370Y-112809500D01*
X139651347Y-112809501D01*
X139598756Y-112812295D01*
X139598755Y-112812295D01*
X139368878Y-112856754D01*
X139368876Y-112856754D01*
X139368874Y-112856755D01*
X139294933Y-112884659D01*
X139149810Y-112939425D01*
X138947868Y-113057929D01*
X138947861Y-113057934D01*
X138768858Y-113208856D01*
X138768856Y-113208858D01*
X138617934Y-113387861D01*
X138617929Y-113387868D01*
X138499425Y-113589810D01*
X138444658Y-113734933D01*
X138416755Y-113808874D01*
X138416754Y-113808876D01*
X138416754Y-113808878D01*
X138372295Y-114038755D01*
X138372295Y-114038756D01*
X138369501Y-114091347D01*
X138369500Y-114091386D01*
X138369500Y-116028613D01*
X138369501Y-116028652D01*
X138372295Y-116081243D01*
X138372295Y-116081244D01*
X138416754Y-116311121D01*
X138416755Y-116311126D01*
X138465326Y-116439832D01*
X138499425Y-116530189D01*
X138617929Y-116732131D01*
X138617934Y-116732138D01*
X138768856Y-116911141D01*
X138768858Y-116911143D01*
X138947861Y-117062065D01*
X138947868Y-117062070D01*
X139149810Y-117180574D01*
X139368874Y-117263245D01*
X139371517Y-117263756D01*
X139372537Y-117264282D01*
X139373950Y-117264683D01*
X139373868Y-117264970D01*
X139433598Y-117295814D01*
X139468493Y-117356346D01*
X139465122Y-117426134D01*
X139424556Y-117483021D01*
X139359674Y-117508946D01*
X139347969Y-117509500D01*
X135822129Y-117509500D01*
X135822123Y-117509501D01*
X135762516Y-117515908D01*
X135627671Y-117566202D01*
X135627664Y-117566206D01*
X135512455Y-117652452D01*
X135512452Y-117652455D01*
X135426206Y-117767664D01*
X135426202Y-117767671D01*
X135375908Y-117902517D01*
X135370229Y-117955342D01*
X135369501Y-117962123D01*
X135369500Y-117962135D01*
X135369500Y-121557870D01*
X100413004Y-121557870D01*
X100389157Y-121463699D01*
X100295924Y-121251151D01*
X100168983Y-121056852D01*
X100168980Y-121056849D01*
X100168979Y-121056847D01*
X100011784Y-120886087D01*
X100011779Y-120886083D01*
X100011777Y-120886081D01*
X99828634Y-120743535D01*
X99828628Y-120743531D01*
X99818450Y-120738023D01*
X99750479Y-120701238D01*
X99700891Y-120652020D01*
X99685499Y-120592188D01*
X99685499Y-115514188D01*
X99705184Y-115447150D01*
X99738376Y-115412614D01*
X99815907Y-115358325D01*
X99899139Y-115300047D01*
X100060047Y-115139139D01*
X100190568Y-114952734D01*
X100286739Y-114746496D01*
X100345635Y-114526692D01*
X100365468Y-114300000D01*
X100345635Y-114073308D01*
X100286739Y-113853504D01*
X100190568Y-113647266D01*
X100060047Y-113460861D01*
X100060045Y-113460858D01*
X99899141Y-113299954D01*
X99712734Y-113169432D01*
X99712732Y-113169431D01*
X99506497Y-113073261D01*
X99506488Y-113073258D01*
X99286697Y-113014366D01*
X99286693Y-113014365D01*
X99286692Y-113014365D01*
X99286691Y-113014364D01*
X99286686Y-113014364D01*
X99060002Y-112994532D01*
X99059998Y-112994532D01*
X98833313Y-113014364D01*
X98833302Y-113014366D01*
X98613511Y-113073258D01*
X98613502Y-113073261D01*
X98407267Y-113169431D01*
X98407265Y-113169432D01*
X98220858Y-113299954D01*
X98059954Y-113460858D01*
X97929432Y-113647265D01*
X97929431Y-113647267D01*
X97833261Y-113853502D01*
X97833258Y-113853511D01*
X97774366Y-114073302D01*
X97774364Y-114073313D01*
X97754532Y-114299998D01*
X97754532Y-114300001D01*
X97774364Y-114526686D01*
X97774366Y-114526697D01*
X97833258Y-114746488D01*
X97833261Y-114746497D01*
X97929431Y-114952732D01*
X97929432Y-114952734D01*
X98059954Y-115139141D01*
X98220858Y-115300045D01*
X98381623Y-115412613D01*
X98425248Y-115467189D01*
X98434500Y-115514188D01*
X98434500Y-120592185D01*
X98414815Y-120659224D01*
X98369518Y-120701239D01*
X98291380Y-120743525D01*
X98291365Y-120743535D01*
X98108222Y-120886081D01*
X98108219Y-120886084D01*
X97951016Y-121056852D01*
X97824075Y-121251151D01*
X97730842Y-121463699D01*
X97673866Y-121688691D01*
X97673864Y-121688702D01*
X97654700Y-121919993D01*
X97654700Y-121920006D01*
X90305300Y-121920006D01*
X90305300Y-121919993D01*
X90286135Y-121688702D01*
X90286133Y-121688691D01*
X90229157Y-121463699D01*
X90135924Y-121251151D01*
X90008983Y-121056852D01*
X90008980Y-121056849D01*
X90008979Y-121056847D01*
X89851784Y-120886087D01*
X89851779Y-120886083D01*
X89851777Y-120886081D01*
X89668634Y-120743535D01*
X89668619Y-120743525D01*
X89590482Y-120701239D01*
X89540891Y-120652020D01*
X89525500Y-120592185D01*
X89525500Y-115514188D01*
X89545185Y-115447149D01*
X89578377Y-115412613D01*
X89626836Y-115378681D01*
X89739139Y-115300047D01*
X89900047Y-115139139D01*
X90030568Y-114952734D01*
X90126739Y-114746496D01*
X90185635Y-114526692D01*
X90205468Y-114300000D01*
X90185635Y-114073308D01*
X90126739Y-113853504D01*
X90030568Y-113647266D01*
X89900047Y-113460861D01*
X89900045Y-113460858D01*
X89739141Y-113299954D01*
X89552734Y-113169432D01*
X89552732Y-113169431D01*
X89346497Y-113073261D01*
X89346488Y-113073258D01*
X89126697Y-113014366D01*
X89126693Y-113014365D01*
X89126692Y-113014365D01*
X89126691Y-113014364D01*
X89126686Y-113014364D01*
X88900002Y-112994532D01*
X88899998Y-112994532D01*
X88673313Y-113014364D01*
X88673302Y-113014366D01*
X88453511Y-113073258D01*
X88453502Y-113073261D01*
X88247267Y-113169431D01*
X88247265Y-113169432D01*
X88060858Y-113299954D01*
X87899954Y-113460858D01*
X87769432Y-113647265D01*
X87769431Y-113647267D01*
X87673261Y-113853502D01*
X87673258Y-113853511D01*
X87614366Y-114073302D01*
X87614364Y-114073313D01*
X87594532Y-114299998D01*
X87594532Y-114300001D01*
X87614364Y-114526686D01*
X87614366Y-114526697D01*
X87673258Y-114746488D01*
X87673261Y-114746497D01*
X87769431Y-114952732D01*
X87769432Y-114952734D01*
X87899954Y-115139141D01*
X88060858Y-115300045D01*
X88221623Y-115412613D01*
X88265248Y-115467189D01*
X88274500Y-115514188D01*
X88274500Y-120592185D01*
X88254815Y-120659224D01*
X88209518Y-120701239D01*
X88131380Y-120743525D01*
X88131365Y-120743535D01*
X87948222Y-120886081D01*
X87948219Y-120886084D01*
X87791016Y-121056852D01*
X87664075Y-121251151D01*
X87570842Y-121463699D01*
X87513866Y-121688691D01*
X87513864Y-121688702D01*
X87494700Y-121919993D01*
X87494700Y-121920006D01*
X80145300Y-121920006D01*
X80145300Y-121919993D01*
X80126135Y-121688702D01*
X80126133Y-121688691D01*
X80069157Y-121463699D01*
X79975924Y-121251151D01*
X79848983Y-121056852D01*
X79848980Y-121056849D01*
X79848979Y-121056847D01*
X79691784Y-120886087D01*
X79691779Y-120886083D01*
X79691777Y-120886081D01*
X79508634Y-120743535D01*
X79508619Y-120743525D01*
X79430482Y-120701239D01*
X79380891Y-120652020D01*
X79365500Y-120592185D01*
X79365500Y-115514188D01*
X79385185Y-115447149D01*
X79418377Y-115412613D01*
X79466836Y-115378681D01*
X79579139Y-115300047D01*
X79740047Y-115139139D01*
X79870568Y-114952734D01*
X79966739Y-114746496D01*
X80025635Y-114526692D01*
X80045468Y-114300000D01*
X80025635Y-114073308D01*
X79966739Y-113853504D01*
X79870568Y-113647266D01*
X79740047Y-113460861D01*
X79740045Y-113460858D01*
X79579141Y-113299954D01*
X79392734Y-113169432D01*
X79392732Y-113169431D01*
X79186497Y-113073261D01*
X79186488Y-113073258D01*
X78966697Y-113014366D01*
X78966693Y-113014365D01*
X78966692Y-113014365D01*
X78966691Y-113014364D01*
X78966686Y-113014364D01*
X78740002Y-112994532D01*
X78739998Y-112994532D01*
X78513313Y-113014364D01*
X78513302Y-113014366D01*
X78293511Y-113073258D01*
X78293502Y-113073261D01*
X78087267Y-113169431D01*
X78087265Y-113169432D01*
X77900858Y-113299954D01*
X77739954Y-113460858D01*
X77609432Y-113647265D01*
X77609431Y-113647267D01*
X77513261Y-113853502D01*
X77513258Y-113853511D01*
X77454366Y-114073302D01*
X77454364Y-114073313D01*
X77434532Y-114299998D01*
X77434532Y-114300001D01*
X77454364Y-114526686D01*
X77454366Y-114526697D01*
X77513258Y-114746488D01*
X77513261Y-114746497D01*
X77609431Y-114952732D01*
X77609432Y-114952734D01*
X77739954Y-115139141D01*
X77900858Y-115300045D01*
X78061623Y-115412613D01*
X78105248Y-115467189D01*
X78114500Y-115514188D01*
X78114500Y-120592185D01*
X78094815Y-120659224D01*
X78049518Y-120701239D01*
X77971380Y-120743525D01*
X77971365Y-120743535D01*
X77788222Y-120886081D01*
X77788219Y-120886084D01*
X77631016Y-121056852D01*
X77504075Y-121251151D01*
X77410842Y-121463699D01*
X77353866Y-121688691D01*
X77353864Y-121688702D01*
X77334700Y-121919993D01*
X77334700Y-121920006D01*
X69985300Y-121920006D01*
X69985300Y-121919993D01*
X69966135Y-121688702D01*
X69966133Y-121688691D01*
X69909157Y-121463699D01*
X69815924Y-121251151D01*
X69688983Y-121056852D01*
X69688980Y-121056849D01*
X69688979Y-121056847D01*
X69531784Y-120886087D01*
X69531779Y-120886083D01*
X69531777Y-120886081D01*
X69348634Y-120743535D01*
X69348619Y-120743525D01*
X69270482Y-120701239D01*
X69220891Y-120652020D01*
X69205500Y-120592185D01*
X69205500Y-115514188D01*
X69225185Y-115447149D01*
X69258377Y-115412613D01*
X69306836Y-115378681D01*
X69419139Y-115300047D01*
X69580047Y-115139139D01*
X69710568Y-114952734D01*
X69806739Y-114746496D01*
X69865635Y-114526692D01*
X69885468Y-114300000D01*
X69865635Y-114073308D01*
X69806739Y-113853504D01*
X69710568Y-113647266D01*
X69580047Y-113460861D01*
X69580045Y-113460858D01*
X69419141Y-113299954D01*
X69232734Y-113169432D01*
X69232732Y-113169431D01*
X69026497Y-113073261D01*
X69026488Y-113073258D01*
X68806697Y-113014366D01*
X68806693Y-113014365D01*
X68806692Y-113014365D01*
X68806691Y-113014364D01*
X68806686Y-113014364D01*
X68580002Y-112994532D01*
X68579998Y-112994532D01*
X68353313Y-113014364D01*
X68353302Y-113014366D01*
X68133511Y-113073258D01*
X68133502Y-113073261D01*
X67927267Y-113169431D01*
X67927265Y-113169432D01*
X67740858Y-113299954D01*
X67579954Y-113460858D01*
X67449432Y-113647265D01*
X67449431Y-113647267D01*
X67353261Y-113853502D01*
X67353258Y-113853511D01*
X67294366Y-114073302D01*
X67294364Y-114073313D01*
X67274532Y-114299998D01*
X67274532Y-114300001D01*
X67294364Y-114526686D01*
X67294366Y-114526697D01*
X67353258Y-114746488D01*
X67353261Y-114746497D01*
X67449431Y-114952732D01*
X67449432Y-114952734D01*
X67579954Y-115139141D01*
X67740858Y-115300045D01*
X67901623Y-115412613D01*
X67945248Y-115467189D01*
X67954500Y-115514188D01*
X67954500Y-120592185D01*
X67934815Y-120659224D01*
X67889518Y-120701239D01*
X67811380Y-120743525D01*
X67811365Y-120743535D01*
X67628222Y-120886081D01*
X67628219Y-120886084D01*
X67471016Y-121056852D01*
X67344075Y-121251151D01*
X67250842Y-121463699D01*
X67193866Y-121688691D01*
X67193864Y-121688702D01*
X67174700Y-121919993D01*
X67174700Y-121920006D01*
X56480500Y-121920006D01*
X56480500Y-104140001D01*
X67274532Y-104140001D01*
X67294364Y-104366686D01*
X67294366Y-104366697D01*
X67353258Y-104586488D01*
X67353261Y-104586497D01*
X67449431Y-104792732D01*
X67449432Y-104792734D01*
X67579954Y-104979141D01*
X67740858Y-105140045D01*
X67740861Y-105140047D01*
X67927266Y-105270568D01*
X68133504Y-105366739D01*
X68353308Y-105425635D01*
X68515230Y-105439801D01*
X68579998Y-105445468D01*
X68580000Y-105445468D01*
X68580002Y-105445468D01*
X68636673Y-105440509D01*
X68806692Y-105425635D01*
X69026496Y-105366739D01*
X69232734Y-105270568D01*
X69419139Y-105140047D01*
X69580047Y-104979139D01*
X69710568Y-104792734D01*
X69806739Y-104586496D01*
X69865635Y-104366692D01*
X69885468Y-104140001D01*
X77434532Y-104140001D01*
X77454364Y-104366686D01*
X77454366Y-104366697D01*
X77513258Y-104586488D01*
X77513261Y-104586497D01*
X77609431Y-104792732D01*
X77609432Y-104792734D01*
X77739954Y-104979141D01*
X77900858Y-105140045D01*
X77900861Y-105140047D01*
X78087266Y-105270568D01*
X78293504Y-105366739D01*
X78513308Y-105425635D01*
X78675230Y-105439801D01*
X78739998Y-105445468D01*
X78740000Y-105445468D01*
X78740002Y-105445468D01*
X78796673Y-105440509D01*
X78966692Y-105425635D01*
X79186496Y-105366739D01*
X79392734Y-105270568D01*
X79579139Y-105140047D01*
X79740047Y-104979139D01*
X79870568Y-104792734D01*
X79966739Y-104586496D01*
X80025635Y-104366692D01*
X80045468Y-104140001D01*
X87594532Y-104140001D01*
X87614364Y-104366686D01*
X87614366Y-104366697D01*
X87673258Y-104586488D01*
X87673261Y-104586497D01*
X87769431Y-104792732D01*
X87769432Y-104792734D01*
X87899954Y-104979141D01*
X88060858Y-105140045D01*
X88060861Y-105140047D01*
X88247266Y-105270568D01*
X88453504Y-105366739D01*
X88673308Y-105425635D01*
X88835230Y-105439801D01*
X88899998Y-105445468D01*
X88900000Y-105445468D01*
X88900002Y-105445468D01*
X88956673Y-105440509D01*
X89126692Y-105425635D01*
X89346496Y-105366739D01*
X89552734Y-105270568D01*
X89739139Y-105140047D01*
X89900047Y-104979139D01*
X90030568Y-104792734D01*
X90126739Y-104586496D01*
X90185635Y-104366692D01*
X90205468Y-104140001D01*
X97754532Y-104140001D01*
X97774364Y-104366686D01*
X97774366Y-104366697D01*
X97833258Y-104586488D01*
X97833261Y-104586497D01*
X97929431Y-104792732D01*
X97929432Y-104792734D01*
X98059954Y-104979141D01*
X98220858Y-105140045D01*
X98220861Y-105140047D01*
X98407266Y-105270568D01*
X98613504Y-105366739D01*
X98833308Y-105425635D01*
X98995230Y-105439801D01*
X99059998Y-105445468D01*
X99060000Y-105445468D01*
X99060002Y-105445468D01*
X99116673Y-105440509D01*
X99286692Y-105425635D01*
X99506496Y-105366739D01*
X99712734Y-105270568D01*
X99899139Y-105140047D01*
X100060047Y-104979139D01*
X100190568Y-104792734D01*
X100286739Y-104586496D01*
X100345635Y-104366692D01*
X100365468Y-104140000D01*
X100345635Y-103913308D01*
X100286739Y-103693504D01*
X100190568Y-103487266D01*
X100060047Y-103300861D01*
X100060045Y-103300858D01*
X99899141Y-103139954D01*
X99712734Y-103009432D01*
X99712732Y-103009431D01*
X99506497Y-102913261D01*
X99506488Y-102913258D01*
X99286697Y-102854366D01*
X99286693Y-102854365D01*
X99286692Y-102854365D01*
X99286691Y-102854364D01*
X99286686Y-102854364D01*
X99060002Y-102834532D01*
X99059998Y-102834532D01*
X98833313Y-102854364D01*
X98833302Y-102854366D01*
X98613511Y-102913258D01*
X98613502Y-102913261D01*
X98407267Y-103009431D01*
X98407265Y-103009432D01*
X98220858Y-103139954D01*
X98059954Y-103300858D01*
X97929432Y-103487265D01*
X97929431Y-103487267D01*
X97833261Y-103693502D01*
X97833258Y-103693511D01*
X97774366Y-103913302D01*
X97774364Y-103913313D01*
X97754532Y-104139998D01*
X97754532Y-104140001D01*
X90205468Y-104140001D01*
X90205468Y-104140000D01*
X90185635Y-103913308D01*
X90126739Y-103693504D01*
X90030568Y-103487266D01*
X89900047Y-103300861D01*
X89900045Y-103300858D01*
X89739141Y-103139954D01*
X89552734Y-103009432D01*
X89552732Y-103009431D01*
X89346497Y-102913261D01*
X89346488Y-102913258D01*
X89126697Y-102854366D01*
X89126693Y-102854365D01*
X89126692Y-102854365D01*
X89126691Y-102854364D01*
X89126686Y-102854364D01*
X88900002Y-102834532D01*
X88899998Y-102834532D01*
X88673313Y-102854364D01*
X88673302Y-102854366D01*
X88453511Y-102913258D01*
X88453502Y-102913261D01*
X88247267Y-103009431D01*
X88247265Y-103009432D01*
X88060858Y-103139954D01*
X87899954Y-103300858D01*
X87769432Y-103487265D01*
X87769431Y-103487267D01*
X87673261Y-103693502D01*
X87673258Y-103693511D01*
X87614366Y-103913302D01*
X87614364Y-103913313D01*
X87594532Y-104139998D01*
X87594532Y-104140001D01*
X80045468Y-104140001D01*
X80045468Y-104140000D01*
X80025635Y-103913308D01*
X79966739Y-103693504D01*
X79870568Y-103487266D01*
X79740047Y-103300861D01*
X79740045Y-103300858D01*
X79579141Y-103139954D01*
X79392734Y-103009432D01*
X79392732Y-103009431D01*
X79186497Y-102913261D01*
X79186488Y-102913258D01*
X78966697Y-102854366D01*
X78966693Y-102854365D01*
X78966692Y-102854365D01*
X78966691Y-102854364D01*
X78966686Y-102854364D01*
X78740002Y-102834532D01*
X78739998Y-102834532D01*
X78513313Y-102854364D01*
X78513302Y-102854366D01*
X78293511Y-102913258D01*
X78293502Y-102913261D01*
X78087267Y-103009431D01*
X78087265Y-103009432D01*
X77900858Y-103139954D01*
X77739954Y-103300858D01*
X77609432Y-103487265D01*
X77609431Y-103487267D01*
X77513261Y-103693502D01*
X77513258Y-103693511D01*
X77454366Y-103913302D01*
X77454364Y-103913313D01*
X77434532Y-104139998D01*
X77434532Y-104140001D01*
X69885468Y-104140001D01*
X69885468Y-104140000D01*
X69865635Y-103913308D01*
X69806739Y-103693504D01*
X69710568Y-103487266D01*
X69580047Y-103300861D01*
X69580045Y-103300858D01*
X69419141Y-103139954D01*
X69232734Y-103009432D01*
X69232732Y-103009431D01*
X69026497Y-102913261D01*
X69026488Y-102913258D01*
X68806697Y-102854366D01*
X68806693Y-102854365D01*
X68806692Y-102854365D01*
X68806691Y-102854364D01*
X68806686Y-102854364D01*
X68580002Y-102834532D01*
X68579998Y-102834532D01*
X68353313Y-102854364D01*
X68353302Y-102854366D01*
X68133511Y-102913258D01*
X68133502Y-102913261D01*
X67927267Y-103009431D01*
X67927265Y-103009432D01*
X67740858Y-103139954D01*
X67579954Y-103300858D01*
X67449432Y-103487265D01*
X67449431Y-103487267D01*
X67353261Y-103693502D01*
X67353258Y-103693511D01*
X67294366Y-103913302D01*
X67294364Y-103913313D01*
X67274532Y-104139998D01*
X67274532Y-104140001D01*
X56480500Y-104140001D01*
X56480500Y-97417844D01*
X67230000Y-97417844D01*
X67236401Y-97477372D01*
X67236403Y-97477379D01*
X67286645Y-97612086D01*
X67286649Y-97612093D01*
X67372809Y-97727187D01*
X67372812Y-97727190D01*
X67487906Y-97813350D01*
X67487913Y-97813354D01*
X67622620Y-97863596D01*
X67622627Y-97863598D01*
X67682155Y-97869999D01*
X67682172Y-97870000D01*
X68330000Y-97870000D01*
X68330000Y-96955501D01*
X68437685Y-97004680D01*
X68544237Y-97020000D01*
X68615763Y-97020000D01*
X68722315Y-97004680D01*
X68830000Y-96955501D01*
X68830000Y-97870000D01*
X69477828Y-97870000D01*
X69477844Y-97869999D01*
X69537372Y-97863598D01*
X69537379Y-97863596D01*
X69672086Y-97813354D01*
X69672093Y-97813350D01*
X69787187Y-97727190D01*
X69787190Y-97727187D01*
X69873350Y-97612093D01*
X69873354Y-97612086D01*
X69922422Y-97480529D01*
X69964293Y-97424595D01*
X70029757Y-97400178D01*
X70098030Y-97415030D01*
X70126284Y-97436180D01*
X70248599Y-97558495D01*
X70325135Y-97612086D01*
X70442165Y-97694032D01*
X70442167Y-97694033D01*
X70442170Y-97694035D01*
X70656337Y-97793903D01*
X70884592Y-97855063D01*
X71055319Y-97870000D01*
X71119999Y-97875659D01*
X71120000Y-97875659D01*
X71120001Y-97875659D01*
X71184681Y-97870000D01*
X71355408Y-97855063D01*
X71583663Y-97793903D01*
X71797830Y-97694035D01*
X71991401Y-97558495D01*
X72158495Y-97391401D01*
X72287807Y-97206725D01*
X72288425Y-97205842D01*
X72343002Y-97162217D01*
X72412500Y-97155023D01*
X72474855Y-97186546D01*
X72491575Y-97205842D01*
X72621500Y-97391395D01*
X72621505Y-97391401D01*
X72788599Y-97558495D01*
X72865135Y-97612086D01*
X72982165Y-97694032D01*
X72982167Y-97694033D01*
X72982170Y-97694035D01*
X73196337Y-97793903D01*
X73424592Y-97855063D01*
X73595319Y-97870000D01*
X73659999Y-97875659D01*
X73660000Y-97875659D01*
X73660001Y-97875659D01*
X73724681Y-97870000D01*
X73895408Y-97855063D01*
X74123663Y-97793903D01*
X74337830Y-97694035D01*
X74531401Y-97558495D01*
X74698495Y-97391401D01*
X74827807Y-97206725D01*
X74828425Y-97205842D01*
X74883002Y-97162217D01*
X74952500Y-97155023D01*
X75014855Y-97186546D01*
X75031575Y-97205842D01*
X75161500Y-97391395D01*
X75161505Y-97391401D01*
X75328599Y-97558495D01*
X75405135Y-97612086D01*
X75522165Y-97694032D01*
X75522167Y-97694033D01*
X75522170Y-97694035D01*
X75736337Y-97793903D01*
X75964592Y-97855063D01*
X76135319Y-97870000D01*
X76199999Y-97875659D01*
X76200000Y-97875659D01*
X76200001Y-97875659D01*
X76264681Y-97870000D01*
X76435408Y-97855063D01*
X76663663Y-97793903D01*
X76877830Y-97694035D01*
X77071401Y-97558495D01*
X77238495Y-97391401D01*
X77367807Y-97206725D01*
X77368425Y-97205842D01*
X77423002Y-97162217D01*
X77492500Y-97155023D01*
X77554855Y-97186546D01*
X77571575Y-97205842D01*
X77701500Y-97391395D01*
X77701505Y-97391401D01*
X77868599Y-97558495D01*
X77945135Y-97612086D01*
X78062165Y-97694032D01*
X78062167Y-97694033D01*
X78062170Y-97694035D01*
X78276337Y-97793903D01*
X78504592Y-97855063D01*
X78675319Y-97870000D01*
X78739999Y-97875659D01*
X78740000Y-97875659D01*
X78740001Y-97875659D01*
X78804681Y-97870000D01*
X78975408Y-97855063D01*
X79075873Y-97828143D01*
X79145722Y-97829806D01*
X79195647Y-97860237D01*
X80779197Y-99443788D01*
X80789022Y-99456051D01*
X80789243Y-99455869D01*
X80794211Y-99461874D01*
X80843932Y-99508566D01*
X80845332Y-99509923D01*
X80865523Y-99530115D01*
X80865527Y-99530118D01*
X80865529Y-99530120D01*
X80871011Y-99534373D01*
X80875443Y-99538157D01*
X80909418Y-99570062D01*
X80926976Y-99579714D01*
X80943235Y-99590395D01*
X80959064Y-99602673D01*
X81001838Y-99621182D01*
X81007056Y-99623738D01*
X81047908Y-99646197D01*
X81067316Y-99651180D01*
X81085717Y-99657480D01*
X81104104Y-99665437D01*
X81147488Y-99672308D01*
X81150119Y-99672725D01*
X81155839Y-99673909D01*
X81200981Y-99685500D01*
X81221016Y-99685500D01*
X81240414Y-99687026D01*
X81260194Y-99690159D01*
X81260195Y-99690160D01*
X81260195Y-99690159D01*
X81260196Y-99690160D01*
X81306583Y-99685775D01*
X81312422Y-99685500D01*
X101517257Y-99685500D01*
X101532877Y-99687224D01*
X101532904Y-99686939D01*
X101540666Y-99687673D01*
X101540666Y-99687672D01*
X101540667Y-99687673D01*
X101543999Y-99687568D01*
X101608847Y-99685531D01*
X101610794Y-99685500D01*
X101639347Y-99685500D01*
X101639350Y-99685500D01*
X101646228Y-99684630D01*
X101652041Y-99684172D01*
X101698627Y-99682709D01*
X101717869Y-99677117D01*
X101736912Y-99673174D01*
X101756792Y-99670664D01*
X101800122Y-99653507D01*
X101805646Y-99651617D01*
X101809396Y-99650527D01*
X101850390Y-99638618D01*
X101867629Y-99628422D01*
X101885103Y-99619862D01*
X101903727Y-99612488D01*
X101903727Y-99612487D01*
X101903732Y-99612486D01*
X101941449Y-99585082D01*
X101946305Y-99581892D01*
X101986420Y-99558170D01*
X102000589Y-99543999D01*
X102015379Y-99531368D01*
X102031587Y-99519594D01*
X102061299Y-99483676D01*
X102065212Y-99479376D01*
X103684353Y-97860235D01*
X103745674Y-97826752D01*
X103804125Y-97828143D01*
X103810332Y-97829806D01*
X103904592Y-97855063D01*
X104075319Y-97870000D01*
X104139999Y-97875659D01*
X104140000Y-97875659D01*
X104140001Y-97875659D01*
X104204681Y-97870000D01*
X104375408Y-97855063D01*
X104603663Y-97793903D01*
X104817830Y-97694035D01*
X105011401Y-97558495D01*
X105178495Y-97391401D01*
X105307807Y-97206725D01*
X105308425Y-97205842D01*
X105363002Y-97162217D01*
X105432500Y-97155023D01*
X105494855Y-97186546D01*
X105511575Y-97205842D01*
X105641500Y-97391395D01*
X105641505Y-97391401D01*
X105808599Y-97558495D01*
X105885135Y-97612086D01*
X106002165Y-97694032D01*
X106002167Y-97694033D01*
X106002170Y-97694035D01*
X106216337Y-97793903D01*
X106444592Y-97855063D01*
X106615319Y-97870000D01*
X106679999Y-97875659D01*
X106680000Y-97875659D01*
X106680001Y-97875659D01*
X106744681Y-97870000D01*
X106915408Y-97855063D01*
X107143663Y-97793903D01*
X107357830Y-97694035D01*
X107551401Y-97558495D01*
X107718495Y-97391401D01*
X107848426Y-97205840D01*
X107903001Y-97162217D01*
X107972499Y-97155023D01*
X108034854Y-97186546D01*
X108051574Y-97205841D01*
X108083819Y-97251891D01*
X108181505Y-97391401D01*
X108348599Y-97558495D01*
X108425135Y-97612086D01*
X108542165Y-97694032D01*
X108542167Y-97694033D01*
X108542170Y-97694035D01*
X108756337Y-97793903D01*
X108984592Y-97855063D01*
X109155319Y-97870000D01*
X109219999Y-97875659D01*
X109220000Y-97875659D01*
X109220001Y-97875659D01*
X109284681Y-97870000D01*
X109455408Y-97855063D01*
X109683663Y-97793903D01*
X109897830Y-97694035D01*
X110091401Y-97558495D01*
X110258495Y-97391401D01*
X110394035Y-97197830D01*
X110493903Y-96983663D01*
X110555063Y-96755408D01*
X110575659Y-96520000D01*
X110555063Y-96284592D01*
X110493903Y-96056337D01*
X110394035Y-95842171D01*
X110388425Y-95834158D01*
X110258494Y-95648597D01*
X110091402Y-95481506D01*
X110091395Y-95481501D01*
X109897834Y-95345967D01*
X109897830Y-95345965D01*
X109826727Y-95312809D01*
X109683663Y-95246097D01*
X109683659Y-95246096D01*
X109683655Y-95246094D01*
X109455413Y-95184938D01*
X109455403Y-95184936D01*
X109220001Y-95164341D01*
X109219999Y-95164341D01*
X108984596Y-95184936D01*
X108984586Y-95184938D01*
X108756344Y-95246094D01*
X108756335Y-95246098D01*
X108542171Y-95345964D01*
X108542169Y-95345965D01*
X108348597Y-95481505D01*
X108181505Y-95648597D01*
X108051575Y-95834158D01*
X107996998Y-95877783D01*
X107927500Y-95884977D01*
X107865145Y-95853454D01*
X107848425Y-95834158D01*
X107718494Y-95648597D01*
X107551402Y-95481506D01*
X107551395Y-95481501D01*
X107357834Y-95345967D01*
X107357830Y-95345965D01*
X107286727Y-95312809D01*
X107143663Y-95246097D01*
X107143659Y-95246096D01*
X107143655Y-95246094D01*
X106915413Y-95184938D01*
X106915403Y-95184936D01*
X106680001Y-95164341D01*
X106679611Y-95164341D01*
X106679445Y-95164292D01*
X106674606Y-95163869D01*
X106674691Y-95162896D01*
X106612572Y-95144656D01*
X106566817Y-95091852D01*
X106556873Y-95022694D01*
X106585898Y-94959138D01*
X106591930Y-94952660D01*
X106669105Y-94875486D01*
X106902771Y-94641819D01*
X106964095Y-94608334D01*
X106990453Y-94605500D01*
X113550500Y-94605500D01*
X113617539Y-94625185D01*
X113663294Y-94677989D01*
X113674500Y-94729500D01*
X113674500Y-95821312D01*
X113654815Y-95888351D01*
X113642650Y-95904284D01*
X113567466Y-95987784D01*
X113472821Y-96151715D01*
X113472818Y-96151722D01*
X113429645Y-96284596D01*
X113414326Y-96331744D01*
X113394540Y-96520000D01*
X113414326Y-96708256D01*
X113414327Y-96708259D01*
X113472818Y-96888277D01*
X113472821Y-96888284D01*
X113567467Y-97052216D01*
X113666513Y-97162217D01*
X113694129Y-97192888D01*
X113847265Y-97304148D01*
X113847270Y-97304151D01*
X114020192Y-97381142D01*
X114020197Y-97381144D01*
X114205354Y-97420500D01*
X114205355Y-97420500D01*
X114394644Y-97420500D01*
X114394646Y-97420500D01*
X114579803Y-97381144D01*
X114752730Y-97304151D01*
X114905871Y-97192888D01*
X115032533Y-97052216D01*
X115127179Y-96888284D01*
X115185674Y-96708256D01*
X115205460Y-96520000D01*
X115185674Y-96331744D01*
X115127179Y-96151716D01*
X115032533Y-95987784D01*
X114957350Y-95904284D01*
X114927120Y-95841292D01*
X114925500Y-95821312D01*
X114925500Y-94926849D01*
X114945185Y-94859810D01*
X114961819Y-94839167D01*
X115088318Y-94712669D01*
X115088319Y-94712666D01*
X115093688Y-94707298D01*
X115093696Y-94707288D01*
X117673786Y-92127198D01*
X117686048Y-92117376D01*
X117685865Y-92117155D01*
X117691873Y-92112184D01*
X117691877Y-92112182D01*
X117738649Y-92062373D01*
X117739891Y-92061093D01*
X117760120Y-92040866D01*
X117764373Y-92035382D01*
X117768150Y-92030959D01*
X117800062Y-91996978D01*
X117800063Y-91996975D01*
X117804646Y-91990669D01*
X117807213Y-91992533D01*
X117846353Y-91953594D01*
X117914664Y-91938918D01*
X117980065Y-91963503D01*
X118021793Y-92019544D01*
X118029500Y-92062579D01*
X118029500Y-96737560D01*
X118027775Y-96753177D01*
X118028061Y-96753204D01*
X118027326Y-96760971D01*
X118029469Y-96829151D01*
X118029500Y-96831098D01*
X118029500Y-96859648D01*
X118029501Y-96859665D01*
X118030368Y-96866536D01*
X118030826Y-96872355D01*
X118032290Y-96918929D01*
X118032291Y-96918932D01*
X118037880Y-96938172D01*
X118041824Y-96957216D01*
X118044336Y-96977097D01*
X118046936Y-96983663D01*
X118061490Y-97020424D01*
X118063382Y-97025952D01*
X118076381Y-97070693D01*
X118086580Y-97087939D01*
X118095136Y-97105405D01*
X118102514Y-97124037D01*
X118125026Y-97155023D01*
X118129898Y-97161728D01*
X118133106Y-97166612D01*
X118156827Y-97206721D01*
X118156833Y-97206729D01*
X118170990Y-97220885D01*
X118183628Y-97235681D01*
X118195405Y-97251891D01*
X118195406Y-97251892D01*
X118231309Y-97281593D01*
X118235620Y-97285515D01*
X121761471Y-100811367D01*
X122933892Y-101983788D01*
X122943717Y-101996051D01*
X122943938Y-101995869D01*
X122948906Y-102001874D01*
X122998627Y-102048566D01*
X123000027Y-102049923D01*
X123020218Y-102070115D01*
X123020222Y-102070118D01*
X123020224Y-102070120D01*
X123025706Y-102074373D01*
X123030138Y-102078157D01*
X123064113Y-102110062D01*
X123081671Y-102119714D01*
X123097930Y-102130395D01*
X123113759Y-102142673D01*
X123156533Y-102161182D01*
X123161751Y-102163738D01*
X123202603Y-102186197D01*
X123222011Y-102191180D01*
X123240412Y-102197480D01*
X123258799Y-102205437D01*
X123302183Y-102212308D01*
X123304814Y-102212725D01*
X123310534Y-102213909D01*
X123355676Y-102225500D01*
X123375711Y-102225500D01*
X123395110Y-102227027D01*
X123414891Y-102230160D01*
X123455129Y-102226356D01*
X123461277Y-102225775D01*
X123467115Y-102225500D01*
X125785812Y-102225500D01*
X125852851Y-102245185D01*
X125887387Y-102278377D01*
X125999954Y-102439141D01*
X126160858Y-102600045D01*
X126160861Y-102600047D01*
X126347266Y-102730568D01*
X126553504Y-102826739D01*
X126773308Y-102885635D01*
X126935230Y-102899801D01*
X126999998Y-102905468D01*
X127000000Y-102905468D01*
X127000002Y-102905468D01*
X127056673Y-102900509D01*
X127226692Y-102885635D01*
X127446496Y-102826739D01*
X127652734Y-102730568D01*
X127839139Y-102600047D01*
X128000047Y-102439139D01*
X128130568Y-102252734D01*
X128226739Y-102046496D01*
X128285635Y-101826692D01*
X128305468Y-101600000D01*
X128285635Y-101373308D01*
X128226739Y-101153504D01*
X128130568Y-100947266D01*
X128000047Y-100760861D01*
X128000045Y-100760858D01*
X127839141Y-100599954D01*
X127652734Y-100469432D01*
X127652732Y-100469431D01*
X127446497Y-100373261D01*
X127446488Y-100373258D01*
X127226697Y-100314366D01*
X127226693Y-100314365D01*
X127226692Y-100314365D01*
X127226691Y-100314364D01*
X127226686Y-100314364D01*
X127000002Y-100294532D01*
X126999998Y-100294532D01*
X126773313Y-100314364D01*
X126773302Y-100314366D01*
X126553511Y-100373258D01*
X126553502Y-100373261D01*
X126347267Y-100469431D01*
X126347265Y-100469432D01*
X126160858Y-100599954D01*
X125999954Y-100760858D01*
X125887387Y-100921623D01*
X125832811Y-100965248D01*
X125785812Y-100974500D01*
X123745148Y-100974500D01*
X123678109Y-100954815D01*
X123657467Y-100938181D01*
X120076467Y-97357181D01*
X120042982Y-97295858D01*
X120047966Y-97226166D01*
X120089838Y-97170233D01*
X120155302Y-97145816D01*
X120164148Y-97145500D01*
X141561917Y-97145500D01*
X141628956Y-97165185D01*
X141674711Y-97217989D01*
X141684655Y-97287147D01*
X141655630Y-97350703D01*
X141649598Y-97357181D01*
X138290663Y-100716114D01*
X138229340Y-100749599D01*
X138159648Y-100744615D01*
X138115301Y-100716114D01*
X137999141Y-100599954D01*
X137812734Y-100469432D01*
X137812732Y-100469431D01*
X137606497Y-100373261D01*
X137606488Y-100373258D01*
X137386697Y-100314366D01*
X137386693Y-100314365D01*
X137386692Y-100314365D01*
X137386691Y-100314364D01*
X137386686Y-100314364D01*
X137160002Y-100294532D01*
X137159998Y-100294532D01*
X136933313Y-100314364D01*
X136933302Y-100314366D01*
X136713511Y-100373258D01*
X136713502Y-100373261D01*
X136507267Y-100469431D01*
X136507265Y-100469432D01*
X136320858Y-100599954D01*
X136159954Y-100760858D01*
X136029432Y-100947265D01*
X136029431Y-100947267D01*
X135933261Y-101153502D01*
X135933258Y-101153511D01*
X135874366Y-101373302D01*
X135874364Y-101373313D01*
X135854532Y-101599998D01*
X135854532Y-101600001D01*
X135874364Y-101826686D01*
X135874366Y-101826697D01*
X135933258Y-102046488D01*
X135933261Y-102046497D01*
X136029431Y-102252732D01*
X136029432Y-102252734D01*
X136159954Y-102439141D01*
X136320858Y-102600045D01*
X136320861Y-102600047D01*
X136507266Y-102730568D01*
X136713504Y-102826739D01*
X136933308Y-102885635D01*
X137095230Y-102899801D01*
X137159998Y-102905468D01*
X137160000Y-102905468D01*
X137160002Y-102905468D01*
X137216672Y-102900509D01*
X137386692Y-102885635D01*
X137606496Y-102826739D01*
X137812734Y-102730568D01*
X137999139Y-102600047D01*
X138160047Y-102439139D01*
X138274212Y-102276091D01*
X138328787Y-102232468D01*
X138371892Y-102223277D01*
X138389997Y-102222709D01*
X138409239Y-102217117D01*
X138428282Y-102213174D01*
X138448162Y-102210664D01*
X138491492Y-102193507D01*
X138497016Y-102191617D01*
X138500766Y-102190527D01*
X138541760Y-102178618D01*
X138558999Y-102168422D01*
X138576473Y-102159862D01*
X138595097Y-102152488D01*
X138595097Y-102152487D01*
X138595102Y-102152486D01*
X138632819Y-102125082D01*
X138637675Y-102121892D01*
X138677790Y-102098170D01*
X138691959Y-102083999D01*
X138706749Y-102071368D01*
X138722957Y-102059594D01*
X138752669Y-102023676D01*
X138756582Y-102019376D01*
X152783788Y-87992171D01*
X152796042Y-87982356D01*
X152795859Y-87982134D01*
X152801868Y-87977161D01*
X152801877Y-87977156D01*
X152848607Y-87927392D01*
X152849846Y-87926113D01*
X152870120Y-87905841D01*
X152874379Y-87900348D01*
X152878152Y-87895931D01*
X152910062Y-87861952D01*
X152919715Y-87844390D01*
X152930389Y-87828140D01*
X152942673Y-87812306D01*
X152961180Y-87769537D01*
X152963749Y-87764294D01*
X152986196Y-87723463D01*
X152986197Y-87723462D01*
X152991177Y-87704061D01*
X152997478Y-87685658D01*
X153005438Y-87667266D01*
X153012730Y-87621219D01*
X153013911Y-87615522D01*
X153025500Y-87570389D01*
X153025500Y-87550352D01*
X153027027Y-87530952D01*
X153030160Y-87511174D01*
X153025775Y-87464785D01*
X153025500Y-87458947D01*
X153025500Y-82607814D01*
X153045185Y-82540775D01*
X153090483Y-82498759D01*
X153119305Y-82483161D01*
X153168626Y-82456470D01*
X153351784Y-82313913D01*
X153508979Y-82143153D01*
X153635924Y-81948849D01*
X153729157Y-81736300D01*
X153786134Y-81511305D01*
X153786135Y-81511297D01*
X153805300Y-81280006D01*
X153805300Y-81279993D01*
X153786135Y-81048702D01*
X153786133Y-81048691D01*
X153729157Y-80823699D01*
X153635924Y-80611151D01*
X153508983Y-80416852D01*
X153508980Y-80416849D01*
X153508979Y-80416847D01*
X153351784Y-80246087D01*
X153351779Y-80246083D01*
X153351777Y-80246081D01*
X153168634Y-80103535D01*
X153168628Y-80103531D01*
X152964504Y-79993064D01*
X152964495Y-79993061D01*
X152744984Y-79917702D01*
X152554450Y-79885908D01*
X152516049Y-79879500D01*
X152283951Y-79879500D01*
X152245550Y-79885908D01*
X152055015Y-79917702D01*
X151835504Y-79993061D01*
X151835495Y-79993064D01*
X151631371Y-80103531D01*
X151631365Y-80103535D01*
X151448222Y-80246081D01*
X151448218Y-80246085D01*
X151439866Y-80255158D01*
X151379979Y-80291148D01*
X151310141Y-80289047D01*
X151252525Y-80249522D01*
X151232455Y-80214507D01*
X151203797Y-80137671D01*
X151203793Y-80137664D01*
X151117547Y-80022455D01*
X151117544Y-80022452D01*
X151002335Y-79936206D01*
X151002328Y-79936202D01*
X150867482Y-79885908D01*
X150867483Y-79885908D01*
X150807883Y-79879501D01*
X150807881Y-79879500D01*
X150807873Y-79879500D01*
X150807864Y-79879500D01*
X148912129Y-79879500D01*
X148912123Y-79879501D01*
X148852516Y-79885908D01*
X148717671Y-79936202D01*
X148717664Y-79936206D01*
X148602455Y-80022452D01*
X148602452Y-80022455D01*
X148516206Y-80137664D01*
X148516202Y-80137671D01*
X148465908Y-80272517D01*
X148459501Y-80332116D01*
X148459500Y-80332135D01*
X148459500Y-82227870D01*
X148459501Y-82227876D01*
X148465908Y-82287483D01*
X148516202Y-82422328D01*
X148516206Y-82422335D01*
X148602452Y-82537544D01*
X148602455Y-82537547D01*
X148717664Y-82623793D01*
X148717671Y-82623797D01*
X148852517Y-82674091D01*
X148852516Y-82674091D01*
X148859444Y-82674835D01*
X148912127Y-82680500D01*
X150807872Y-82680499D01*
X150867483Y-82674091D01*
X151002331Y-82623796D01*
X151117546Y-82537546D01*
X151203796Y-82422331D01*
X151232454Y-82345493D01*
X151274326Y-82289559D01*
X151339790Y-82265141D01*
X151408063Y-82279992D01*
X151439866Y-82304843D01*
X151447302Y-82312920D01*
X151448215Y-82313912D01*
X151448222Y-82313918D01*
X151631365Y-82456464D01*
X151631376Y-82456471D01*
X151709517Y-82498759D01*
X151759108Y-82547978D01*
X151774500Y-82607814D01*
X151774500Y-87180917D01*
X151754815Y-87247956D01*
X151738181Y-87268598D01*
X146052181Y-92954597D01*
X145990858Y-92988082D01*
X145921166Y-92983098D01*
X145865233Y-92941226D01*
X145840816Y-92875762D01*
X145840500Y-92866916D01*
X145840500Y-91617742D01*
X145842224Y-91602122D01*
X145841939Y-91602095D01*
X145842673Y-91594333D01*
X145840531Y-91526139D01*
X145840500Y-91524192D01*
X145840500Y-91495656D01*
X145840500Y-91495650D01*
X145839631Y-91488779D01*
X145839173Y-91482952D01*
X145837710Y-91436373D01*
X145832119Y-91417130D01*
X145828173Y-91398078D01*
X145825664Y-91378208D01*
X145808504Y-91334867D01*
X145806624Y-91329379D01*
X145793618Y-91284610D01*
X145786837Y-91273144D01*
X145783419Y-91267364D01*
X145774858Y-91249888D01*
X145767487Y-91231270D01*
X145767486Y-91231268D01*
X145740090Y-91193560D01*
X145736892Y-91188691D01*
X145735422Y-91186206D01*
X145713171Y-91148580D01*
X145713169Y-91148578D01*
X145713166Y-91148574D01*
X145699005Y-91134413D01*
X145686370Y-91119620D01*
X145674593Y-91103412D01*
X145638693Y-91073713D01*
X145634381Y-91069790D01*
X145426817Y-90862226D01*
X145393333Y-90800904D01*
X145390499Y-90774546D01*
X145390499Y-89272129D01*
X145390498Y-89272123D01*
X145390497Y-89272116D01*
X145384091Y-89212517D01*
X145373836Y-89185023D01*
X145333797Y-89077671D01*
X145333795Y-89077668D01*
X145295912Y-89027063D01*
X145256421Y-88974309D01*
X145232004Y-88908848D01*
X145246855Y-88840575D01*
X145256416Y-88825696D01*
X145333796Y-88722331D01*
X145384091Y-88587483D01*
X145390500Y-88527873D01*
X145390499Y-86732128D01*
X145384091Y-86672517D01*
X145333796Y-86537669D01*
X145256421Y-86434309D01*
X145232004Y-86368848D01*
X145246855Y-86300575D01*
X145256416Y-86285696D01*
X145333796Y-86182331D01*
X145384091Y-86047483D01*
X145390500Y-85987873D01*
X145390499Y-84192128D01*
X145384091Y-84132517D01*
X145333796Y-83997669D01*
X145256421Y-83894309D01*
X145232004Y-83828848D01*
X145246855Y-83760575D01*
X145256416Y-83745696D01*
X145333796Y-83642331D01*
X145384091Y-83507483D01*
X145390500Y-83447873D01*
X145390499Y-81652128D01*
X145384091Y-81592517D01*
X145333796Y-81457669D01*
X145256421Y-81354309D01*
X145232004Y-81288848D01*
X145246855Y-81220575D01*
X145256416Y-81205696D01*
X145333796Y-81102331D01*
X145384091Y-80967483D01*
X145390500Y-80907873D01*
X145390499Y-79112128D01*
X145384091Y-79052517D01*
X145333796Y-78917669D01*
X145256421Y-78814309D01*
X145232004Y-78748848D01*
X145246855Y-78680575D01*
X145256416Y-78665696D01*
X145333796Y-78562331D01*
X145384091Y-78427483D01*
X145390500Y-78367873D01*
X145390499Y-76572128D01*
X145384091Y-76512517D01*
X145333796Y-76377669D01*
X145256421Y-76274309D01*
X145232004Y-76208848D01*
X145246855Y-76140575D01*
X145256416Y-76125696D01*
X145333796Y-76022331D01*
X145384091Y-75887483D01*
X145390500Y-75827873D01*
X145390499Y-74032128D01*
X145384091Y-73972517D01*
X145333796Y-73837669D01*
X145256421Y-73734309D01*
X145232004Y-73668848D01*
X145246855Y-73600575D01*
X145256416Y-73585696D01*
X145333796Y-73482331D01*
X145384091Y-73347483D01*
X145390500Y-73287873D01*
X145390499Y-71492128D01*
X145384091Y-71432517D01*
X145333796Y-71297669D01*
X145256421Y-71194309D01*
X145232004Y-71128848D01*
X145246855Y-71060575D01*
X145256416Y-71045696D01*
X145333796Y-70942331D01*
X145384091Y-70807483D01*
X145390500Y-70747873D01*
X145390499Y-68952128D01*
X145384091Y-68892517D01*
X145333796Y-68757669D01*
X145256421Y-68654309D01*
X145232004Y-68588848D01*
X145246855Y-68520575D01*
X145256416Y-68505696D01*
X145333796Y-68402331D01*
X145384091Y-68267483D01*
X145390500Y-68207873D01*
X145390499Y-66412128D01*
X145384091Y-66352517D01*
X145375815Y-66330329D01*
X145333797Y-66217671D01*
X145333795Y-66217668D01*
X145256421Y-66114309D01*
X145232004Y-66048848D01*
X145246855Y-65980575D01*
X145256416Y-65965696D01*
X145333796Y-65862331D01*
X145384091Y-65727483D01*
X145390500Y-65667873D01*
X145390499Y-63872128D01*
X145384091Y-63812517D01*
X145333796Y-63677669D01*
X145256421Y-63574309D01*
X145232004Y-63508848D01*
X145246855Y-63440575D01*
X145256416Y-63425696D01*
X145333796Y-63322331D01*
X145384091Y-63187483D01*
X145390500Y-63127873D01*
X145390499Y-61332128D01*
X145384091Y-61272517D01*
X145333796Y-61137669D01*
X145256421Y-61034309D01*
X145232004Y-60968848D01*
X145246855Y-60900575D01*
X145256416Y-60885696D01*
X145333796Y-60782331D01*
X145384091Y-60647483D01*
X145390500Y-60587873D01*
X145390499Y-58792128D01*
X145384091Y-58732517D01*
X145363073Y-58676166D01*
X145333797Y-58597671D01*
X145333795Y-58597668D01*
X145332172Y-58595500D01*
X145256421Y-58494309D01*
X145232004Y-58428848D01*
X145246855Y-58360575D01*
X145256416Y-58345696D01*
X145333796Y-58242331D01*
X145384091Y-58107483D01*
X145390500Y-58047873D01*
X145390499Y-56252128D01*
X145384091Y-56192517D01*
X145333796Y-56057669D01*
X145256109Y-55953893D01*
X145231692Y-55888430D01*
X145246543Y-55820157D01*
X145256110Y-55805271D01*
X145333352Y-55702089D01*
X145333354Y-55702086D01*
X145383596Y-55567379D01*
X145383598Y-55567372D01*
X145389999Y-55507844D01*
X145390000Y-55507827D01*
X145390000Y-54860000D01*
X142685572Y-54860000D01*
X142708682Y-54824040D01*
X142750000Y-54683327D01*
X142750000Y-54536673D01*
X142708682Y-54395960D01*
X142685572Y-54360000D01*
X145390000Y-54360000D01*
X145390000Y-54287870D01*
X148459500Y-54287870D01*
X148459501Y-54287876D01*
X148465908Y-54347483D01*
X148516202Y-54482328D01*
X148516206Y-54482335D01*
X148602452Y-54597544D01*
X148602455Y-54597547D01*
X148717664Y-54683793D01*
X148717671Y-54683797D01*
X148852517Y-54734091D01*
X148852516Y-54734091D01*
X148859444Y-54734835D01*
X148912127Y-54740500D01*
X150807872Y-54740499D01*
X150867483Y-54734091D01*
X151002331Y-54683796D01*
X151117546Y-54597546D01*
X151203796Y-54482331D01*
X151254091Y-54347483D01*
X151260500Y-54287873D01*
X151260499Y-54177305D01*
X151280183Y-54110269D01*
X151296818Y-54089627D01*
X151955549Y-53430895D01*
X151956327Y-53441265D01*
X152005887Y-53567541D01*
X152090465Y-53673599D01*
X152202547Y-53750016D01*
X152310299Y-53783253D01*
X151601199Y-54492351D01*
X151631650Y-54516050D01*
X151835697Y-54626476D01*
X151835706Y-54626479D01*
X152055139Y-54701811D01*
X152283993Y-54740000D01*
X152516007Y-54740000D01*
X152744860Y-54701811D01*
X152964293Y-54626479D01*
X152964302Y-54626476D01*
X153168350Y-54516050D01*
X153198798Y-54492351D01*
X152488231Y-53781784D01*
X152534138Y-53774865D01*
X152656357Y-53716007D01*
X152755798Y-53623740D01*
X152823625Y-53506260D01*
X152841499Y-53427945D01*
X153551186Y-54137634D01*
X153635484Y-54008606D01*
X153728682Y-53796135D01*
X153785638Y-53571218D01*
X153804798Y-53340005D01*
X153804798Y-53339994D01*
X153785638Y-53108781D01*
X153728682Y-52883864D01*
X153635483Y-52671390D01*
X153551186Y-52542364D01*
X152844449Y-53249101D01*
X152843673Y-53238735D01*
X152794113Y-53112459D01*
X152709535Y-53006401D01*
X152597453Y-52929984D01*
X152489699Y-52896746D01*
X153198799Y-52187647D01*
X153168349Y-52163949D01*
X152964302Y-52053523D01*
X152964293Y-52053520D01*
X152744860Y-51978188D01*
X152516007Y-51940000D01*
X152283993Y-51940000D01*
X152055139Y-51978188D01*
X151835706Y-52053520D01*
X151835698Y-52053523D01*
X151631644Y-52163952D01*
X151601200Y-52187646D01*
X151601200Y-52187647D01*
X152311769Y-52898215D01*
X152265862Y-52905135D01*
X152143643Y-52963993D01*
X152044202Y-53056260D01*
X151976375Y-53173740D01*
X151958501Y-53252052D01*
X151296818Y-52590370D01*
X151263333Y-52529047D01*
X151260499Y-52502689D01*
X151260499Y-52392129D01*
X151260498Y-52392123D01*
X151260497Y-52392116D01*
X151254091Y-52332517D01*
X151203796Y-52197669D01*
X151203795Y-52197668D01*
X151203793Y-52197664D01*
X151117547Y-52082455D01*
X151117544Y-52082452D01*
X151002335Y-51996206D01*
X151002328Y-51996202D01*
X150867482Y-51945908D01*
X150867483Y-51945908D01*
X150807883Y-51939501D01*
X150807881Y-51939500D01*
X150807873Y-51939500D01*
X150807864Y-51939500D01*
X148912129Y-51939500D01*
X148912123Y-51939501D01*
X148852516Y-51945908D01*
X148717671Y-51996202D01*
X148717664Y-51996206D01*
X148602455Y-52082452D01*
X148602452Y-52082455D01*
X148516206Y-52197664D01*
X148516202Y-52197671D01*
X148465908Y-52332517D01*
X148459501Y-52392116D01*
X148459501Y-52392123D01*
X148459500Y-52392135D01*
X148459500Y-54287870D01*
X145390000Y-54287870D01*
X145390000Y-53712172D01*
X145389999Y-53712155D01*
X145383598Y-53652627D01*
X145383596Y-53652620D01*
X145333354Y-53517913D01*
X145333352Y-53517910D01*
X145256110Y-53414729D01*
X145231692Y-53349265D01*
X145246543Y-53280992D01*
X145256105Y-53266111D01*
X145333796Y-53162331D01*
X145384091Y-53027483D01*
X145390500Y-52967873D01*
X145390499Y-51172128D01*
X145384091Y-51112517D01*
X145333796Y-50977669D01*
X145256421Y-50874309D01*
X145232004Y-50808848D01*
X145246855Y-50740575D01*
X145256416Y-50725696D01*
X145333796Y-50622331D01*
X145384091Y-50487483D01*
X145390500Y-50427873D01*
X145390499Y-48632128D01*
X145384091Y-48572517D01*
X145383748Y-48571598D01*
X145333797Y-48437671D01*
X145333795Y-48437668D01*
X145256421Y-48334309D01*
X145232004Y-48268848D01*
X145246855Y-48200575D01*
X145256416Y-48185696D01*
X145333796Y-48082331D01*
X145384091Y-47947483D01*
X145390500Y-47887873D01*
X145390499Y-46092128D01*
X145384091Y-46032517D01*
X145361178Y-45971085D01*
X145333797Y-45897671D01*
X145333795Y-45897668D01*
X145323011Y-45883262D01*
X145256421Y-45794309D01*
X145232004Y-45728848D01*
X145246855Y-45660575D01*
X145256416Y-45645696D01*
X145333796Y-45542331D01*
X145384091Y-45407483D01*
X145390500Y-45347873D01*
X145390499Y-43552128D01*
X145384091Y-43492517D01*
X145381817Y-43486421D01*
X145333797Y-43357671D01*
X145333793Y-43357664D01*
X145247547Y-43242455D01*
X145247544Y-43242452D01*
X145132335Y-43156206D01*
X145132328Y-43156202D01*
X144997482Y-43105908D01*
X144997483Y-43105908D01*
X144937883Y-43099501D01*
X144937881Y-43099500D01*
X144937873Y-43099500D01*
X144937865Y-43099500D01*
X142301680Y-43099500D01*
X142296278Y-43099264D01*
X142257494Y-43095871D01*
X142240001Y-43094341D01*
X142239998Y-43094341D01*
X142212715Y-43096727D01*
X142183719Y-43099264D01*
X142178319Y-43099500D01*
X141342129Y-43099500D01*
X141342123Y-43099501D01*
X141282516Y-43105908D01*
X141147671Y-43156202D01*
X141147664Y-43156206D01*
X141032455Y-43242452D01*
X141032452Y-43242455D01*
X140946206Y-43357664D01*
X140946202Y-43357671D01*
X140895908Y-43492517D01*
X140889877Y-43548621D01*
X140889501Y-43552123D01*
X140889500Y-43552135D01*
X140889500Y-44388322D01*
X140889264Y-44393723D01*
X140884341Y-44450000D01*
X140887944Y-44491190D01*
X140889264Y-44506271D01*
X140889500Y-44511677D01*
X140889500Y-45347870D01*
X140889501Y-45347876D01*
X140895908Y-45407483D01*
X140946202Y-45542328D01*
X140946203Y-45542330D01*
X141023578Y-45645689D01*
X141047995Y-45711153D01*
X141033144Y-45779426D01*
X141023578Y-45794311D01*
X140946203Y-45897669D01*
X140946202Y-45897671D01*
X140895908Y-46032517D01*
X140889501Y-46092116D01*
X140889501Y-46092123D01*
X140889500Y-46092135D01*
X140889500Y-46928322D01*
X140889264Y-46933728D01*
X140884341Y-46989998D01*
X140884341Y-46990001D01*
X140889264Y-47046271D01*
X140889500Y-47051677D01*
X140889500Y-47887870D01*
X140889501Y-47887876D01*
X140895908Y-47947483D01*
X140946202Y-48082328D01*
X140946203Y-48082330D01*
X140981984Y-48130127D01*
X141020053Y-48180981D01*
X141023578Y-48185689D01*
X141047995Y-48251153D01*
X141033144Y-48319426D01*
X141023578Y-48334311D01*
X140946203Y-48437669D01*
X140946202Y-48437671D01*
X140895908Y-48572517D01*
X140890184Y-48625765D01*
X140889501Y-48632123D01*
X140889500Y-48632135D01*
X140889500Y-50427870D01*
X140889501Y-50427876D01*
X140895908Y-50487483D01*
X140946202Y-50622328D01*
X140946203Y-50622330D01*
X141023578Y-50725689D01*
X141047995Y-50791153D01*
X141033144Y-50859426D01*
X141023578Y-50874311D01*
X140946203Y-50977669D01*
X140946202Y-50977671D01*
X140895908Y-51112517D01*
X140889919Y-51168228D01*
X140889501Y-51172123D01*
X140889500Y-51172135D01*
X140889500Y-52008322D01*
X140889264Y-52013728D01*
X140884341Y-52069998D01*
X140884341Y-52070001D01*
X140889264Y-52126271D01*
X140889500Y-52131677D01*
X140889500Y-52967870D01*
X140889501Y-52967876D01*
X140895908Y-53027483D01*
X140946202Y-53162328D01*
X140946206Y-53162335D01*
X141023889Y-53266105D01*
X141048307Y-53331569D01*
X141033456Y-53399842D01*
X141023890Y-53414727D01*
X140946647Y-53517910D01*
X140946645Y-53517913D01*
X140896403Y-53652620D01*
X140896401Y-53652627D01*
X140890000Y-53712155D01*
X140890000Y-54360000D01*
X141794428Y-54360000D01*
X141771318Y-54395960D01*
X141730000Y-54536673D01*
X141730000Y-54683327D01*
X141771318Y-54824040D01*
X141794428Y-54860000D01*
X140890000Y-54860000D01*
X140890000Y-55507844D01*
X140896401Y-55567372D01*
X140896403Y-55567379D01*
X140946645Y-55702086D01*
X140946646Y-55702088D01*
X141023890Y-55805272D01*
X141048307Y-55870736D01*
X141033456Y-55939009D01*
X141023890Y-55953894D01*
X140946204Y-56057669D01*
X140946202Y-56057671D01*
X140895908Y-56192517D01*
X140889501Y-56252116D01*
X140889501Y-56252123D01*
X140889500Y-56252135D01*
X140889500Y-57088322D01*
X140889264Y-57093723D01*
X140886842Y-57121406D01*
X140885064Y-57141740D01*
X140884341Y-57150000D01*
X140888940Y-57202575D01*
X140889264Y-57206271D01*
X140889500Y-57211677D01*
X140889500Y-58047870D01*
X140889501Y-58047876D01*
X140895908Y-58107483D01*
X140946202Y-58242328D01*
X140946203Y-58242330D01*
X141023578Y-58345689D01*
X141047995Y-58411153D01*
X141033144Y-58479426D01*
X141023578Y-58494311D01*
X140946203Y-58597669D01*
X140946202Y-58597671D01*
X140895908Y-58732517D01*
X140889501Y-58792116D01*
X140889501Y-58792123D01*
X140889500Y-58792135D01*
X140889500Y-59628322D01*
X140889264Y-59633723D01*
X140884341Y-59690000D01*
X140888001Y-59731842D01*
X140889264Y-59746271D01*
X140889500Y-59751677D01*
X140889500Y-60587870D01*
X140889501Y-60587876D01*
X140895908Y-60647483D01*
X140946202Y-60782328D01*
X140946203Y-60782330D01*
X141023578Y-60885689D01*
X141047995Y-60951153D01*
X141033144Y-61019426D01*
X141023578Y-61034311D01*
X140946203Y-61137669D01*
X140946202Y-61137671D01*
X140895908Y-61272517D01*
X140889501Y-61332116D01*
X140889501Y-61332123D01*
X140889500Y-61332135D01*
X140889500Y-63127870D01*
X140889501Y-63127876D01*
X140895908Y-63187483D01*
X140946202Y-63322328D01*
X140946203Y-63322330D01*
X141023578Y-63425689D01*
X141047995Y-63491153D01*
X141033144Y-63559426D01*
X141023578Y-63574311D01*
X140946203Y-63677669D01*
X140946202Y-63677671D01*
X140895908Y-63812517D01*
X140889501Y-63872116D01*
X140889501Y-63872123D01*
X140889500Y-63872135D01*
X140889500Y-64708322D01*
X140889264Y-64713728D01*
X140884341Y-64769998D01*
X140884341Y-64770001D01*
X140889264Y-64826271D01*
X140889500Y-64831677D01*
X140889500Y-65667870D01*
X140889501Y-65667876D01*
X140895908Y-65727483D01*
X140946202Y-65862328D01*
X140946203Y-65862330D01*
X141023578Y-65965689D01*
X141047995Y-66031153D01*
X141033144Y-66099426D01*
X141023578Y-66114311D01*
X140946203Y-66217669D01*
X140946202Y-66217671D01*
X140895908Y-66352517D01*
X140890725Y-66400730D01*
X140889501Y-66412123D01*
X140889500Y-66412135D01*
X140889500Y-67248322D01*
X140889264Y-67253728D01*
X140884341Y-67309998D01*
X140884341Y-67310001D01*
X140889264Y-67366271D01*
X140889500Y-67371677D01*
X140889500Y-68207870D01*
X140889501Y-68207876D01*
X140895908Y-68267483D01*
X140946202Y-68402328D01*
X140946203Y-68402330D01*
X141023578Y-68505689D01*
X141047995Y-68571153D01*
X141033144Y-68639426D01*
X141023578Y-68654311D01*
X140946203Y-68757669D01*
X140946202Y-68757671D01*
X140895908Y-68892517D01*
X140889501Y-68952116D01*
X140889501Y-68952123D01*
X140889500Y-68952135D01*
X140889500Y-69788322D01*
X140889264Y-69793728D01*
X140884341Y-69849998D01*
X140884341Y-69850001D01*
X140889264Y-69906271D01*
X140889500Y-69911677D01*
X140889500Y-70747870D01*
X140889501Y-70747876D01*
X140895908Y-70807483D01*
X140946202Y-70942328D01*
X140946203Y-70942330D01*
X141023578Y-71045689D01*
X141047995Y-71111153D01*
X141033144Y-71179426D01*
X141023578Y-71194311D01*
X140946203Y-71297669D01*
X140946202Y-71297671D01*
X140895908Y-71432517D01*
X140889501Y-71492116D01*
X140889501Y-71492123D01*
X140889500Y-71492135D01*
X140889500Y-72328322D01*
X140889264Y-72333723D01*
X140884341Y-72390000D01*
X140886387Y-72413393D01*
X140889264Y-72446271D01*
X140889500Y-72451677D01*
X140889500Y-73287870D01*
X140889501Y-73287876D01*
X140895908Y-73347483D01*
X140946202Y-73482328D01*
X140946203Y-73482330D01*
X141023578Y-73585689D01*
X141047995Y-73651153D01*
X141033144Y-73719426D01*
X141023578Y-73734311D01*
X140946203Y-73837669D01*
X140946202Y-73837671D01*
X140895908Y-73972517D01*
X140889501Y-74032116D01*
X140889501Y-74032123D01*
X140889500Y-74032135D01*
X140889500Y-75827870D01*
X140889501Y-75827876D01*
X140895908Y-75887483D01*
X140946202Y-76022328D01*
X140946203Y-76022330D01*
X141023578Y-76125689D01*
X141047995Y-76191153D01*
X141033144Y-76259426D01*
X141023578Y-76274311D01*
X140946203Y-76377669D01*
X140946202Y-76377671D01*
X140895908Y-76512517D01*
X140889501Y-76572116D01*
X140889501Y-76572123D01*
X140889500Y-76572135D01*
X140889500Y-77408322D01*
X140889264Y-77413728D01*
X140884341Y-77469998D01*
X140884341Y-77470001D01*
X140889264Y-77526271D01*
X140889500Y-77531677D01*
X140889500Y-78074547D01*
X140869815Y-78141586D01*
X140853181Y-78162228D01*
X133317228Y-85698181D01*
X133255905Y-85731666D01*
X133229547Y-85734500D01*
X125934500Y-85734500D01*
X125867461Y-85714815D01*
X125821706Y-85662011D01*
X125810500Y-85610500D01*
X125810499Y-85151679D01*
X125810735Y-85146272D01*
X125815659Y-85090000D01*
X125815659Y-85089999D01*
X125810735Y-85033726D01*
X125810499Y-85028319D01*
X125810499Y-84192129D01*
X125810498Y-84192123D01*
X125810497Y-84192116D01*
X125804091Y-84132517D01*
X125753796Y-83997669D01*
X125676421Y-83894309D01*
X125652004Y-83828848D01*
X125666855Y-83760575D01*
X125676416Y-83745696D01*
X125753796Y-83642331D01*
X125804091Y-83507483D01*
X125810500Y-83447873D01*
X125810499Y-82611677D01*
X125810735Y-82606272D01*
X125811509Y-82597433D01*
X125815659Y-82550000D01*
X125810734Y-82493722D01*
X125810499Y-82488319D01*
X125810499Y-81652129D01*
X125810498Y-81652123D01*
X125810497Y-81652116D01*
X125804091Y-81592517D01*
X125753796Y-81457669D01*
X125676421Y-81354309D01*
X125652004Y-81288848D01*
X125666855Y-81220575D01*
X125676416Y-81205696D01*
X125753796Y-81102331D01*
X125804091Y-80967483D01*
X125810500Y-80907873D01*
X125810499Y-80071678D01*
X125810735Y-80066272D01*
X125815659Y-80010000D01*
X125815659Y-80009999D01*
X125810735Y-79953726D01*
X125810499Y-79948319D01*
X125810499Y-79112129D01*
X125810498Y-79112123D01*
X125810497Y-79112116D01*
X125804091Y-79052517D01*
X125753796Y-78917669D01*
X125676421Y-78814309D01*
X125652004Y-78748848D01*
X125666855Y-78680575D01*
X125676416Y-78665696D01*
X125753796Y-78562331D01*
X125804091Y-78427483D01*
X125810500Y-78367873D01*
X125810499Y-77531677D01*
X125810735Y-77526272D01*
X125815659Y-77470000D01*
X125815659Y-77469999D01*
X125810735Y-77413726D01*
X125810499Y-77408319D01*
X125810499Y-76572129D01*
X125810498Y-76572123D01*
X125810497Y-76572116D01*
X125804091Y-76512517D01*
X125753796Y-76377669D01*
X125676421Y-76274309D01*
X125652004Y-76208848D01*
X125666855Y-76140575D01*
X125676416Y-76125696D01*
X125753796Y-76022331D01*
X125804091Y-75887483D01*
X125810500Y-75827873D01*
X125810499Y-74032128D01*
X125804091Y-73972517D01*
X125753796Y-73837669D01*
X125676421Y-73734309D01*
X125652004Y-73668848D01*
X125666855Y-73600575D01*
X125676416Y-73585696D01*
X125753796Y-73482331D01*
X125804091Y-73347483D01*
X125810500Y-73287873D01*
X125810499Y-72451677D01*
X125810735Y-72446272D01*
X125811731Y-72434896D01*
X125815659Y-72390000D01*
X125810734Y-72333722D01*
X125810499Y-72328319D01*
X125810499Y-71492129D01*
X125810498Y-71492123D01*
X125810497Y-71492116D01*
X125804091Y-71432517D01*
X125753796Y-71297669D01*
X125676421Y-71194309D01*
X125652004Y-71128848D01*
X125666855Y-71060575D01*
X125676416Y-71045696D01*
X125753796Y-70942331D01*
X125804091Y-70807483D01*
X125810500Y-70747873D01*
X125810499Y-69911677D01*
X125810735Y-69906272D01*
X125815659Y-69850000D01*
X125815659Y-69849999D01*
X125810735Y-69793726D01*
X125810499Y-69788319D01*
X125810499Y-68952129D01*
X125810498Y-68952123D01*
X125810497Y-68952116D01*
X125804091Y-68892517D01*
X125753796Y-68757669D01*
X125676421Y-68654309D01*
X125652004Y-68588848D01*
X125666855Y-68520575D01*
X125676416Y-68505696D01*
X125753796Y-68402331D01*
X125804091Y-68267483D01*
X125810500Y-68207873D01*
X125810499Y-67371677D01*
X125810735Y-67366272D01*
X125815659Y-67310000D01*
X125815659Y-67309999D01*
X125810735Y-67253726D01*
X125810499Y-67248319D01*
X125810499Y-66412129D01*
X125810498Y-66412123D01*
X125810497Y-66412116D01*
X125804091Y-66352517D01*
X125795815Y-66330329D01*
X125753797Y-66217671D01*
X125753795Y-66217668D01*
X125676421Y-66114309D01*
X125652004Y-66048848D01*
X125666855Y-65980575D01*
X125676416Y-65965696D01*
X125753796Y-65862331D01*
X125804091Y-65727483D01*
X125810500Y-65667873D01*
X125810499Y-64831677D01*
X125810735Y-64826272D01*
X125815659Y-64770000D01*
X125815659Y-64769999D01*
X125810735Y-64713726D01*
X125810499Y-64708319D01*
X125810499Y-63872129D01*
X125810498Y-63872123D01*
X125810497Y-63872116D01*
X125804091Y-63812517D01*
X125753796Y-63677669D01*
X125676421Y-63574309D01*
X125652004Y-63508848D01*
X125666855Y-63440575D01*
X125676416Y-63425696D01*
X125753796Y-63322331D01*
X125804091Y-63187483D01*
X125810500Y-63127873D01*
X125810499Y-61332128D01*
X125804091Y-61272517D01*
X125753796Y-61137669D01*
X125676421Y-61034309D01*
X125652004Y-60968848D01*
X125666855Y-60900575D01*
X125676416Y-60885696D01*
X125753796Y-60782331D01*
X125804091Y-60647483D01*
X125810500Y-60587873D01*
X125810499Y-59751677D01*
X125810735Y-59746272D01*
X125814661Y-59701411D01*
X125815659Y-59690000D01*
X125810734Y-59633722D01*
X125810499Y-59628319D01*
X125810499Y-58792129D01*
X125810498Y-58792123D01*
X125810497Y-58792116D01*
X125804091Y-58732517D01*
X125783073Y-58676166D01*
X125753797Y-58597671D01*
X125753795Y-58597668D01*
X125752172Y-58595500D01*
X125676421Y-58494309D01*
X125652004Y-58428848D01*
X125666855Y-58360575D01*
X125676416Y-58345696D01*
X125753796Y-58242331D01*
X125804091Y-58107483D01*
X125810500Y-58047873D01*
X125810499Y-57211677D01*
X125810735Y-57206272D01*
X125815659Y-57150000D01*
X125815659Y-57149999D01*
X125810735Y-57093726D01*
X125810499Y-57088319D01*
X125810499Y-56252129D01*
X125810498Y-56252123D01*
X125810497Y-56252116D01*
X125804091Y-56192517D01*
X125753796Y-56057669D01*
X125676421Y-55954309D01*
X125652004Y-55888848D01*
X125666855Y-55820575D01*
X125676416Y-55805696D01*
X125753796Y-55702331D01*
X125804091Y-55567483D01*
X125810500Y-55507873D01*
X125810499Y-54671678D01*
X125810735Y-54666272D01*
X125815659Y-54610000D01*
X125815659Y-54609999D01*
X125810735Y-54553726D01*
X125810499Y-54548319D01*
X125810499Y-53712129D01*
X125810498Y-53712123D01*
X125810497Y-53712116D01*
X125804091Y-53652517D01*
X125773768Y-53571218D01*
X125753797Y-53517671D01*
X125753795Y-53517668D01*
X125745255Y-53506260D01*
X125676421Y-53414309D01*
X125652004Y-53348848D01*
X125666855Y-53280575D01*
X125676416Y-53265696D01*
X125753796Y-53162331D01*
X125804091Y-53027483D01*
X125810500Y-52967873D01*
X125810499Y-52131677D01*
X125810735Y-52126272D01*
X125815659Y-52070000D01*
X125815659Y-52069999D01*
X125810735Y-52013726D01*
X125810499Y-52008319D01*
X125810499Y-51172129D01*
X125810498Y-51172123D01*
X125810497Y-51172116D01*
X125804091Y-51112517D01*
X125753796Y-50977669D01*
X125676421Y-50874309D01*
X125652004Y-50808848D01*
X125666855Y-50740575D01*
X125676416Y-50725696D01*
X125753796Y-50622331D01*
X125804091Y-50487483D01*
X125810500Y-50427873D01*
X125810499Y-48632128D01*
X125804091Y-48572517D01*
X125803748Y-48571598D01*
X125753797Y-48437671D01*
X125753795Y-48437668D01*
X125676421Y-48334309D01*
X125652004Y-48268848D01*
X125666855Y-48200575D01*
X125676416Y-48185696D01*
X125753796Y-48082331D01*
X125804091Y-47947483D01*
X125810500Y-47887873D01*
X125810500Y-47609995D01*
X129669722Y-47609995D01*
X129669723Y-47610003D01*
X129671688Y-47632470D01*
X129671862Y-47640660D01*
X129670709Y-47666324D01*
X129670710Y-47666328D01*
X129681641Y-47747031D01*
X129681966Y-47749949D01*
X129688792Y-47827972D01*
X129688795Y-47827987D01*
X129695482Y-47852941D01*
X129697034Y-47860670D01*
X129700924Y-47889381D01*
X129700926Y-47889392D01*
X129725075Y-47963713D01*
X129725997Y-47966825D01*
X129745423Y-48039324D01*
X129745427Y-48039336D01*
X129757736Y-48065732D01*
X129760512Y-48072779D01*
X129770483Y-48103464D01*
X129805970Y-48169411D01*
X129807558Y-48172576D01*
X129837898Y-48237639D01*
X129856490Y-48264191D01*
X129860303Y-48270378D01*
X129877146Y-48301678D01*
X129877152Y-48301687D01*
X129921792Y-48357663D01*
X129924106Y-48360758D01*
X129950510Y-48398465D01*
X129963402Y-48416877D01*
X129963405Y-48416880D01*
X129988646Y-48442121D01*
X129993283Y-48447309D01*
X130017492Y-48477666D01*
X130068959Y-48522632D01*
X130072008Y-48525483D01*
X130118116Y-48571592D01*
X130118122Y-48571597D01*
X130118123Y-48571598D01*
X130119434Y-48572516D01*
X130150055Y-48593957D01*
X130155290Y-48598057D01*
X130187004Y-48625765D01*
X130187013Y-48625771D01*
X130242849Y-48659131D01*
X130246613Y-48661568D01*
X130297359Y-48697101D01*
X130297364Y-48697104D01*
X130319917Y-48707620D01*
X130335677Y-48714969D01*
X130341271Y-48717935D01*
X130378349Y-48740088D01*
X130380236Y-48741215D01*
X130398828Y-48748192D01*
X130438083Y-48762925D01*
X130442503Y-48764782D01*
X130495670Y-48789575D01*
X130495674Y-48789577D01*
X130526069Y-48797720D01*
X130539677Y-48801366D01*
X130545413Y-48803207D01*
X130562264Y-48809531D01*
X130590976Y-48820307D01*
X130648545Y-48830754D01*
X130653511Y-48831868D01*
X130707023Y-48846207D01*
X130755689Y-48850464D01*
X130761306Y-48851218D01*
X130812453Y-48860500D01*
X130867691Y-48860500D01*
X130873092Y-48860735D01*
X130901548Y-48863225D01*
X130924998Y-48865277D01*
X130925000Y-48865277D01*
X130976694Y-48860754D01*
X130979284Y-48860583D01*
X130981121Y-48860500D01*
X130981155Y-48860500D01*
X131034217Y-48855724D01*
X131035173Y-48855638D01*
X131035180Y-48855724D01*
X131035477Y-48855611D01*
X131142977Y-48846207D01*
X131143000Y-48846200D01*
X131143475Y-48846117D01*
X131148713Y-48845419D01*
X131149188Y-48845377D01*
X131252997Y-48816726D01*
X131354330Y-48789575D01*
X131354334Y-48789572D01*
X131361254Y-48787053D01*
X131365948Y-48785554D01*
X131366170Y-48785493D01*
X131366181Y-48785487D01*
X131366183Y-48785487D01*
X131379202Y-48779216D01*
X131460454Y-48740088D01*
X131552639Y-48697102D01*
X131552648Y-48697095D01*
X131557327Y-48694395D01*
X131557400Y-48694522D01*
X131568164Y-48688218D01*
X131568973Y-48687829D01*
X131651156Y-48628118D01*
X131731877Y-48571598D01*
X131732747Y-48570727D01*
X131747550Y-48558084D01*
X131751078Y-48555522D01*
X131818674Y-48484820D01*
X131819562Y-48483911D01*
X131886598Y-48416877D01*
X131889285Y-48413039D01*
X131901239Y-48398465D01*
X131906629Y-48392828D01*
X131906628Y-48392828D01*
X131906632Y-48392825D01*
X131958746Y-48313873D01*
X131959596Y-48312623D01*
X132012102Y-48237639D01*
X132015543Y-48230259D01*
X132024432Y-48214364D01*
X132030635Y-48204968D01*
X132066507Y-48121038D01*
X132067284Y-48119297D01*
X132104575Y-48039330D01*
X132107570Y-48028148D01*
X132113325Y-48011505D01*
X132119103Y-47997988D01*
X132138676Y-47912228D01*
X132139233Y-47909983D01*
X132144126Y-47891722D01*
X132161207Y-47827977D01*
X132162887Y-47808766D01*
X132164206Y-47800377D01*
X132164445Y-47799325D01*
X132169191Y-47778537D01*
X132172992Y-47693871D01*
X132173158Y-47691363D01*
X132180277Y-47610003D01*
X134519723Y-47610003D01*
X134521688Y-47632470D01*
X134521862Y-47640660D01*
X134520709Y-47666324D01*
X134520710Y-47666328D01*
X134531641Y-47747031D01*
X134531966Y-47749949D01*
X134538792Y-47827972D01*
X134538795Y-47827987D01*
X134545482Y-47852941D01*
X134547034Y-47860670D01*
X134550924Y-47889381D01*
X134550926Y-47889392D01*
X134575075Y-47963713D01*
X134575997Y-47966825D01*
X134595423Y-48039324D01*
X134595427Y-48039336D01*
X134607736Y-48065732D01*
X134610512Y-48072779D01*
X134620483Y-48103464D01*
X134655970Y-48169411D01*
X134657558Y-48172576D01*
X134687898Y-48237639D01*
X134706490Y-48264191D01*
X134710303Y-48270378D01*
X134727146Y-48301678D01*
X134727152Y-48301687D01*
X134771792Y-48357663D01*
X134774106Y-48360758D01*
X134800510Y-48398465D01*
X134813402Y-48416877D01*
X134813405Y-48416880D01*
X134838646Y-48442121D01*
X134843283Y-48447309D01*
X134867492Y-48477666D01*
X134918959Y-48522632D01*
X134922008Y-48525483D01*
X134968116Y-48571592D01*
X134968122Y-48571597D01*
X134968123Y-48571598D01*
X134969434Y-48572516D01*
X135000055Y-48593957D01*
X135005290Y-48598057D01*
X135037004Y-48625765D01*
X135037013Y-48625771D01*
X135092849Y-48659131D01*
X135096613Y-48661568D01*
X135147359Y-48697101D01*
X135147364Y-48697104D01*
X135169917Y-48707620D01*
X135185677Y-48714969D01*
X135191271Y-48717935D01*
X135228349Y-48740088D01*
X135230236Y-48741215D01*
X135248828Y-48748192D01*
X135288083Y-48762925D01*
X135292503Y-48764782D01*
X135345670Y-48789575D01*
X135345674Y-48789577D01*
X135376069Y-48797720D01*
X135389677Y-48801366D01*
X135395413Y-48803207D01*
X135412264Y-48809531D01*
X135440976Y-48820307D01*
X135498545Y-48830754D01*
X135503511Y-48831868D01*
X135557023Y-48846207D01*
X135605689Y-48850464D01*
X135611306Y-48851218D01*
X135662453Y-48860500D01*
X135717691Y-48860500D01*
X135723092Y-48860735D01*
X135751548Y-48863225D01*
X135774998Y-48865277D01*
X135775000Y-48865277D01*
X135826694Y-48860754D01*
X135829284Y-48860583D01*
X135831121Y-48860500D01*
X135831155Y-48860500D01*
X135884217Y-48855724D01*
X135885173Y-48855638D01*
X135885180Y-48855724D01*
X135885477Y-48855611D01*
X135992977Y-48846207D01*
X135993000Y-48846200D01*
X135993475Y-48846117D01*
X135998713Y-48845419D01*
X135999188Y-48845377D01*
X136102997Y-48816726D01*
X136204330Y-48789575D01*
X136204334Y-48789572D01*
X136211254Y-48787053D01*
X136215948Y-48785554D01*
X136216170Y-48785493D01*
X136216181Y-48785487D01*
X136216183Y-48785487D01*
X136229202Y-48779216D01*
X136310454Y-48740088D01*
X136402639Y-48697102D01*
X136402648Y-48697095D01*
X136407327Y-48694395D01*
X136407400Y-48694522D01*
X136418164Y-48688218D01*
X136418973Y-48687829D01*
X136501156Y-48628118D01*
X136581877Y-48571598D01*
X136582747Y-48570727D01*
X136597550Y-48558084D01*
X136601078Y-48555522D01*
X136668674Y-48484820D01*
X136669562Y-48483911D01*
X136736598Y-48416877D01*
X136739285Y-48413039D01*
X136751239Y-48398465D01*
X136756629Y-48392828D01*
X136756628Y-48392828D01*
X136756632Y-48392825D01*
X136808746Y-48313873D01*
X136809596Y-48312623D01*
X136862102Y-48237639D01*
X136865543Y-48230259D01*
X136874432Y-48214364D01*
X136880635Y-48204968D01*
X136916507Y-48121038D01*
X136917284Y-48119297D01*
X136954575Y-48039330D01*
X136957570Y-48028148D01*
X136963325Y-48011505D01*
X136969103Y-47997988D01*
X136988676Y-47912228D01*
X136989233Y-47909983D01*
X136994126Y-47891722D01*
X137011207Y-47827977D01*
X137012887Y-47808766D01*
X137014206Y-47800377D01*
X137014445Y-47799325D01*
X137019191Y-47778537D01*
X137022992Y-47693871D01*
X137023158Y-47691363D01*
X137030277Y-47610000D01*
X137028310Y-47587528D01*
X137028137Y-47579334D01*
X137028804Y-47564481D01*
X137029290Y-47553670D01*
X137018353Y-47472939D01*
X137018034Y-47470067D01*
X137011207Y-47392023D01*
X137004515Y-47367053D01*
X137002963Y-47359322D01*
X137002886Y-47358755D01*
X136999075Y-47330613D01*
X136979173Y-47269362D01*
X136974921Y-47256276D01*
X136973998Y-47253161D01*
X136971431Y-47243582D01*
X136954575Y-47180670D01*
X136942266Y-47154274D01*
X136939488Y-47147222D01*
X136929519Y-47116541D01*
X136929517Y-47116537D01*
X136929517Y-47116536D01*
X136916988Y-47093253D01*
X136894027Y-47050583D01*
X136892432Y-47047405D01*
X136865664Y-46990001D01*
X136862102Y-46982362D01*
X136843512Y-46955813D01*
X136839698Y-46949625D01*
X136839359Y-46948995D01*
X136822852Y-46918319D01*
X136778192Y-46862318D01*
X136775896Y-46859247D01*
X136736598Y-46803123D01*
X136711353Y-46777878D01*
X136706715Y-46772689D01*
X136682506Y-46742332D01*
X136631039Y-46697366D01*
X136627990Y-46694515D01*
X136581878Y-46648402D01*
X136549940Y-46626039D01*
X136544705Y-46621939D01*
X136512996Y-46594235D01*
X136512994Y-46594233D01*
X136512992Y-46594232D01*
X136457149Y-46560868D01*
X136453386Y-46558431D01*
X136402641Y-46522899D01*
X136364333Y-46505035D01*
X136358735Y-46502067D01*
X136319769Y-46478787D01*
X136319767Y-46478786D01*
X136261928Y-46457079D01*
X136257515Y-46455226D01*
X136204330Y-46430425D01*
X136188436Y-46426166D01*
X136160321Y-46418632D01*
X136154581Y-46416790D01*
X136109025Y-46399692D01*
X136051456Y-46389245D01*
X136046480Y-46388128D01*
X135992977Y-46373793D01*
X135944327Y-46369536D01*
X135938659Y-46368775D01*
X135887551Y-46359500D01*
X135887547Y-46359500D01*
X135832309Y-46359500D01*
X135826907Y-46359264D01*
X135798451Y-46356774D01*
X135775002Y-46354723D01*
X135774997Y-46354723D01*
X135723351Y-46359241D01*
X135720746Y-46359414D01*
X135718849Y-46359499D01*
X135664764Y-46364366D01*
X135557020Y-46373793D01*
X135556468Y-46373891D01*
X135551275Y-46374581D01*
X135550812Y-46374622D01*
X135550809Y-46374623D01*
X135483779Y-46393123D01*
X135447056Y-46403257D01*
X135345666Y-46430425D01*
X135338739Y-46432946D01*
X135334050Y-46434444D01*
X135333849Y-46434499D01*
X135333836Y-46434504D01*
X135239551Y-46479907D01*
X135147359Y-46522899D01*
X135142670Y-46525606D01*
X135142598Y-46525481D01*
X135131871Y-46531764D01*
X135131031Y-46532168D01*
X135048788Y-46591919D01*
X134968121Y-46648403D01*
X134967241Y-46649284D01*
X134952461Y-46661906D01*
X134948928Y-46664472D01*
X134948921Y-46664478D01*
X134881366Y-46735134D01*
X134880395Y-46736128D01*
X134813402Y-46803121D01*
X134810711Y-46806965D01*
X134798773Y-46821521D01*
X134793368Y-46827174D01*
X134771160Y-46860818D01*
X134741281Y-46906080D01*
X134740367Y-46907426D01*
X134721952Y-46933726D01*
X134687901Y-46982357D01*
X134687891Y-46982374D01*
X134684457Y-46989738D01*
X134675572Y-47005628D01*
X134669363Y-47015034D01*
X134633498Y-47098944D01*
X134632679Y-47100778D01*
X134595426Y-47180664D01*
X134595424Y-47180671D01*
X134592425Y-47191860D01*
X134586681Y-47208475D01*
X134580899Y-47222005D01*
X134580896Y-47222014D01*
X134561318Y-47307789D01*
X134560760Y-47310038D01*
X134538793Y-47392022D01*
X134538793Y-47392023D01*
X134537112Y-47411226D01*
X134535793Y-47419619D01*
X134534206Y-47426575D01*
X134530809Y-47441459D01*
X134530809Y-47441464D01*
X134527007Y-47526088D01*
X134526834Y-47528708D01*
X134519723Y-47609995D01*
X134519723Y-47610003D01*
X132180277Y-47610003D01*
X132180277Y-47610000D01*
X132178310Y-47587528D01*
X132178137Y-47579334D01*
X132178804Y-47564481D01*
X132179290Y-47553670D01*
X132168353Y-47472939D01*
X132168034Y-47470067D01*
X132161207Y-47392023D01*
X132154515Y-47367053D01*
X132152963Y-47359322D01*
X132152886Y-47358755D01*
X132149075Y-47330613D01*
X132129173Y-47269362D01*
X132124921Y-47256276D01*
X132123998Y-47253161D01*
X132121431Y-47243582D01*
X132104575Y-47180670D01*
X132092266Y-47154274D01*
X132089488Y-47147222D01*
X132079519Y-47116541D01*
X132079517Y-47116537D01*
X132079517Y-47116536D01*
X132066988Y-47093253D01*
X132044027Y-47050583D01*
X132042432Y-47047405D01*
X132015664Y-46990001D01*
X132012102Y-46982362D01*
X131993512Y-46955813D01*
X131989698Y-46949625D01*
X131989359Y-46948995D01*
X131972852Y-46918319D01*
X131928192Y-46862318D01*
X131925896Y-46859247D01*
X131886598Y-46803123D01*
X131861353Y-46777878D01*
X131856715Y-46772689D01*
X131832506Y-46742332D01*
X131781039Y-46697366D01*
X131777990Y-46694515D01*
X131731878Y-46648402D01*
X131699940Y-46626039D01*
X131694705Y-46621939D01*
X131662996Y-46594235D01*
X131662994Y-46594233D01*
X131662992Y-46594232D01*
X131607149Y-46560868D01*
X131603386Y-46558431D01*
X131552641Y-46522899D01*
X131514333Y-46505035D01*
X131508735Y-46502067D01*
X131469769Y-46478787D01*
X131469767Y-46478786D01*
X131411928Y-46457079D01*
X131407515Y-46455226D01*
X131354330Y-46430425D01*
X131338436Y-46426166D01*
X131310321Y-46418632D01*
X131304581Y-46416790D01*
X131259025Y-46399692D01*
X131201456Y-46389245D01*
X131196480Y-46388128D01*
X131142977Y-46373793D01*
X131094327Y-46369536D01*
X131088659Y-46368775D01*
X131037551Y-46359500D01*
X131037547Y-46359500D01*
X130982309Y-46359500D01*
X130976907Y-46359264D01*
X130948451Y-46356774D01*
X130925002Y-46354723D01*
X130924997Y-46354723D01*
X130873351Y-46359241D01*
X130870746Y-46359414D01*
X130868849Y-46359499D01*
X130814764Y-46364366D01*
X130707020Y-46373793D01*
X130706468Y-46373891D01*
X130701275Y-46374581D01*
X130700812Y-46374622D01*
X130700809Y-46374623D01*
X130633779Y-46393123D01*
X130597056Y-46403257D01*
X130495666Y-46430425D01*
X130488739Y-46432946D01*
X130484050Y-46434444D01*
X130483849Y-46434499D01*
X130483836Y-46434504D01*
X130389551Y-46479907D01*
X130297359Y-46522899D01*
X130292670Y-46525606D01*
X130292598Y-46525481D01*
X130281871Y-46531764D01*
X130281031Y-46532168D01*
X130198788Y-46591919D01*
X130118121Y-46648403D01*
X130117241Y-46649284D01*
X130102461Y-46661906D01*
X130098928Y-46664472D01*
X130098921Y-46664478D01*
X130031366Y-46735134D01*
X130030395Y-46736128D01*
X129963402Y-46803121D01*
X129960711Y-46806965D01*
X129948773Y-46821521D01*
X129943368Y-46827174D01*
X129921160Y-46860818D01*
X129891281Y-46906080D01*
X129890367Y-46907426D01*
X129871952Y-46933726D01*
X129837901Y-46982357D01*
X129837891Y-46982374D01*
X129834457Y-46989738D01*
X129825572Y-47005628D01*
X129819363Y-47015034D01*
X129783498Y-47098944D01*
X129782679Y-47100778D01*
X129745426Y-47180664D01*
X129745424Y-47180671D01*
X129742425Y-47191860D01*
X129736681Y-47208475D01*
X129730899Y-47222005D01*
X129730896Y-47222014D01*
X129711318Y-47307789D01*
X129710760Y-47310038D01*
X129688793Y-47392022D01*
X129688793Y-47392023D01*
X129687112Y-47411226D01*
X129685793Y-47419619D01*
X129684206Y-47426575D01*
X129680809Y-47441459D01*
X129680809Y-47441464D01*
X129677007Y-47526088D01*
X129676834Y-47528708D01*
X129669722Y-47609995D01*
X125810500Y-47609995D01*
X125810499Y-47051677D01*
X125810735Y-47046272D01*
X125813469Y-47015034D01*
X125815659Y-46990000D01*
X125814660Y-46978588D01*
X125810735Y-46933726D01*
X125810499Y-46928319D01*
X125810499Y-46092129D01*
X125810498Y-46092123D01*
X125810497Y-46092116D01*
X125804091Y-46032517D01*
X125781178Y-45971085D01*
X125753797Y-45897671D01*
X125753795Y-45897668D01*
X125743011Y-45883262D01*
X125676421Y-45794309D01*
X125652004Y-45728848D01*
X125666855Y-45660575D01*
X125676416Y-45645696D01*
X125753796Y-45542331D01*
X125804091Y-45407483D01*
X125810500Y-45347873D01*
X125810499Y-44579998D01*
X129219700Y-44579998D01*
X129226853Y-44666339D01*
X129227008Y-44668826D01*
X129230819Y-44758523D01*
X129230820Y-44758534D01*
X129235939Y-44782284D01*
X129237120Y-44790233D01*
X129238865Y-44811303D01*
X129238865Y-44811306D01*
X129260932Y-44898445D01*
X129261437Y-44900602D01*
X129281044Y-44991575D01*
X129281045Y-44991580D01*
X129288883Y-45011084D01*
X129291458Y-45018987D01*
X129295843Y-45036301D01*
X129308288Y-45064672D01*
X129333283Y-45121657D01*
X129334003Y-45123371D01*
X129348248Y-45158818D01*
X129369935Y-45212788D01*
X129379232Y-45227888D01*
X129383218Y-45235495D01*
X129389077Y-45248851D01*
X129441820Y-45329582D01*
X129442711Y-45330985D01*
X129494930Y-45415794D01*
X129501543Y-45423308D01*
X129512263Y-45437402D01*
X129516019Y-45443151D01*
X129516021Y-45443153D01*
X129570211Y-45502020D01*
X129583546Y-45516505D01*
X129584472Y-45517534D01*
X129652436Y-45594755D01*
X129657564Y-45598895D01*
X129670882Y-45611377D01*
X129673216Y-45613913D01*
X129754933Y-45677515D01*
X129837920Y-45744523D01*
X129837922Y-45744524D01*
X129840678Y-45746064D01*
X129856360Y-45756460D01*
X129856367Y-45756465D01*
X129856371Y-45756467D01*
X129856374Y-45756470D01*
X129950162Y-45807225D01*
X130028738Y-45851121D01*
X130046051Y-45860793D01*
X130048849Y-45862058D01*
X130055695Y-45865097D01*
X130055794Y-45864873D01*
X130060491Y-45866933D01*
X130060497Y-45866936D01*
X130164276Y-45902563D01*
X130270829Y-45940211D01*
X130271398Y-45940308D01*
X130276129Y-45941312D01*
X130280002Y-45942292D01*
X130280019Y-45942298D01*
X130370226Y-45957350D01*
X130391391Y-45960882D01*
X130417416Y-45965345D01*
X130505792Y-45980499D01*
X130505800Y-45980500D01*
X130741044Y-45980500D01*
X130741049Y-45980500D01*
X130774073Y-45974988D01*
X130797469Y-45971085D01*
X130802407Y-45970463D01*
X130862541Y-45965346D01*
X130914615Y-45951786D01*
X130920017Y-45950634D01*
X130969981Y-45942298D01*
X131027186Y-45922658D01*
X131031663Y-45921309D01*
X131093249Y-45905275D01*
X131099249Y-45902563D01*
X131104262Y-45900296D01*
X131139297Y-45884459D01*
X131144681Y-45882322D01*
X131189503Y-45866936D01*
X131245554Y-45836601D01*
X131249527Y-45834632D01*
X131258156Y-45830730D01*
X131310486Y-45807077D01*
X131349647Y-45780608D01*
X131354820Y-45777469D01*
X131393626Y-45756470D01*
X131446532Y-45715290D01*
X131449850Y-45712881D01*
X131508003Y-45673579D01*
X131539770Y-45643131D01*
X131544548Y-45639002D01*
X131576784Y-45613913D01*
X131579109Y-45611388D01*
X131594420Y-45594755D01*
X131624389Y-45562198D01*
X131627101Y-45559432D01*
X131680118Y-45508621D01*
X131704329Y-45475883D01*
X131708540Y-45470785D01*
X131733979Y-45443153D01*
X131774206Y-45381578D01*
X131776241Y-45378652D01*
X131821879Y-45316947D01*
X131838733Y-45283517D01*
X131842170Y-45277552D01*
X131860924Y-45248849D01*
X131891805Y-45178445D01*
X131893174Y-45175538D01*
X131929207Y-45104074D01*
X131939208Y-45071413D01*
X131941701Y-45064694D01*
X131954157Y-45036300D01*
X131973827Y-44958621D01*
X131974635Y-44955732D01*
X131999016Y-44876123D01*
X132002936Y-44845508D01*
X132004330Y-44838170D01*
X132011134Y-44811305D01*
X132018018Y-44728226D01*
X132018308Y-44725469D01*
X132029298Y-44639654D01*
X132028126Y-44612079D01*
X132028281Y-44604355D01*
X132030300Y-44580000D01*
X132030300Y-44579998D01*
X134669700Y-44579998D01*
X134676853Y-44666339D01*
X134677008Y-44668826D01*
X134680819Y-44758523D01*
X134680820Y-44758534D01*
X134685939Y-44782284D01*
X134687120Y-44790233D01*
X134688865Y-44811303D01*
X134688865Y-44811306D01*
X134710932Y-44898445D01*
X134711437Y-44900602D01*
X134731044Y-44991575D01*
X134731045Y-44991580D01*
X134738883Y-45011084D01*
X134741458Y-45018987D01*
X134745843Y-45036301D01*
X134758288Y-45064672D01*
X134783283Y-45121657D01*
X134784003Y-45123371D01*
X134798248Y-45158818D01*
X134819935Y-45212788D01*
X134829232Y-45227888D01*
X134833218Y-45235495D01*
X134839077Y-45248851D01*
X134891820Y-45329582D01*
X134892711Y-45330985D01*
X134944930Y-45415794D01*
X134951543Y-45423308D01*
X134962263Y-45437402D01*
X134966019Y-45443151D01*
X134966021Y-45443153D01*
X135020211Y-45502020D01*
X135033546Y-45516505D01*
X135034472Y-45517534D01*
X135102436Y-45594755D01*
X135107564Y-45598895D01*
X135120882Y-45611377D01*
X135123216Y-45613913D01*
X135204933Y-45677515D01*
X135287920Y-45744523D01*
X135287922Y-45744524D01*
X135290678Y-45746064D01*
X135306360Y-45756460D01*
X135306367Y-45756465D01*
X135306371Y-45756467D01*
X135306374Y-45756470D01*
X135400162Y-45807225D01*
X135478738Y-45851121D01*
X135496051Y-45860793D01*
X135498849Y-45862058D01*
X135505695Y-45865097D01*
X135505794Y-45864873D01*
X135510491Y-45866933D01*
X135510497Y-45866936D01*
X135614276Y-45902563D01*
X135720829Y-45940211D01*
X135721398Y-45940308D01*
X135726129Y-45941312D01*
X135730002Y-45942292D01*
X135730019Y-45942298D01*
X135820226Y-45957350D01*
X135841391Y-45960882D01*
X135867416Y-45965345D01*
X135955792Y-45980499D01*
X135955800Y-45980500D01*
X136191044Y-45980500D01*
X136191049Y-45980500D01*
X136224073Y-45974988D01*
X136247469Y-45971085D01*
X136252407Y-45970463D01*
X136312541Y-45965346D01*
X136364615Y-45951786D01*
X136370017Y-45950634D01*
X136419981Y-45942298D01*
X136477186Y-45922658D01*
X136481663Y-45921309D01*
X136543249Y-45905275D01*
X136549249Y-45902563D01*
X136554262Y-45900296D01*
X136589297Y-45884459D01*
X136594681Y-45882322D01*
X136639503Y-45866936D01*
X136695554Y-45836601D01*
X136699527Y-45834632D01*
X136708156Y-45830730D01*
X136760486Y-45807077D01*
X136799647Y-45780608D01*
X136804820Y-45777469D01*
X136843626Y-45756470D01*
X136896532Y-45715290D01*
X136899850Y-45712881D01*
X136958003Y-45673579D01*
X136989770Y-45643131D01*
X136994548Y-45639002D01*
X137026784Y-45613913D01*
X137029109Y-45611388D01*
X137044420Y-45594755D01*
X137074389Y-45562198D01*
X137077101Y-45559432D01*
X137130118Y-45508621D01*
X137154329Y-45475883D01*
X137158540Y-45470785D01*
X137183979Y-45443153D01*
X137224206Y-45381578D01*
X137226241Y-45378652D01*
X137271879Y-45316947D01*
X137288733Y-45283517D01*
X137292170Y-45277552D01*
X137310924Y-45248849D01*
X137341805Y-45178445D01*
X137343174Y-45175538D01*
X137379207Y-45104074D01*
X137389208Y-45071413D01*
X137391701Y-45064694D01*
X137404157Y-45036300D01*
X137423827Y-44958621D01*
X137424635Y-44955732D01*
X137449016Y-44876123D01*
X137452936Y-44845508D01*
X137454330Y-44838170D01*
X137461134Y-44811305D01*
X137468018Y-44728226D01*
X137468308Y-44725469D01*
X137479298Y-44639654D01*
X137478126Y-44612079D01*
X137478281Y-44604355D01*
X137480300Y-44580000D01*
X137473145Y-44493659D01*
X137472991Y-44491190D01*
X137471867Y-44464723D01*
X137469180Y-44401468D01*
X137464059Y-44377709D01*
X137462879Y-44369762D01*
X137461134Y-44348695D01*
X137439056Y-44261514D01*
X137438563Y-44259408D01*
X137426369Y-44202828D01*
X137418954Y-44168419D01*
X137411115Y-44148912D01*
X137408541Y-44141015D01*
X137404157Y-44123700D01*
X137366724Y-44038363D01*
X137366007Y-44036658D01*
X137330064Y-43947210D01*
X137320768Y-43932112D01*
X137316779Y-43924500D01*
X137310924Y-43911151D01*
X137258184Y-43830426D01*
X137257294Y-43829023D01*
X137205074Y-43744212D01*
X137205071Y-43744209D01*
X137205069Y-43744205D01*
X137198451Y-43736686D01*
X137187727Y-43722584D01*
X137183980Y-43716848D01*
X137168931Y-43700500D01*
X137116427Y-43643466D01*
X137115558Y-43642501D01*
X137047564Y-43565245D01*
X137042436Y-43561104D01*
X137029117Y-43548621D01*
X137026785Y-43546088D01*
X137026783Y-43546086D01*
X136945061Y-43482480D01*
X136862080Y-43415477D01*
X136862073Y-43415472D01*
X136859311Y-43413929D01*
X136843643Y-43403542D01*
X136843634Y-43403535D01*
X136843628Y-43403532D01*
X136843626Y-43403530D01*
X136749837Y-43352774D01*
X136700770Y-43325363D01*
X136653961Y-43299213D01*
X136651381Y-43298047D01*
X136644284Y-43294898D01*
X136644188Y-43295119D01*
X136639499Y-43293062D01*
X136535755Y-43257447D01*
X136429172Y-43219789D01*
X136429160Y-43219786D01*
X136428612Y-43219692D01*
X136423889Y-43218691D01*
X136419990Y-43217704D01*
X136419983Y-43217702D01*
X136419981Y-43217702D01*
X136370009Y-43209363D01*
X136308500Y-43199098D01*
X136194209Y-43179500D01*
X136194200Y-43179500D01*
X136191049Y-43179500D01*
X135958951Y-43179500D01*
X135958950Y-43179500D01*
X135902533Y-43188913D01*
X135897587Y-43189535D01*
X135895099Y-43189747D01*
X135837469Y-43194652D01*
X135837461Y-43194653D01*
X135785397Y-43208208D01*
X135779981Y-43209363D01*
X135730013Y-43217703D01*
X135672840Y-43237331D01*
X135668330Y-43238690D01*
X135606749Y-43254725D01*
X135606744Y-43254727D01*
X135560711Y-43275535D01*
X135555304Y-43277680D01*
X135510503Y-43293060D01*
X135510498Y-43293063D01*
X135454448Y-43323395D01*
X135450478Y-43325363D01*
X135389514Y-43352922D01*
X135350359Y-43379385D01*
X135345149Y-43382544D01*
X135306379Y-43403526D01*
X135306367Y-43403533D01*
X135253487Y-43444692D01*
X135250124Y-43447133D01*
X135192001Y-43486417D01*
X135191994Y-43486422D01*
X135160248Y-43516847D01*
X135155430Y-43521011D01*
X135123218Y-43546085D01*
X135123209Y-43546093D01*
X135075613Y-43597795D01*
X135072900Y-43600564D01*
X135019882Y-43651378D01*
X135019880Y-43651380D01*
X134995681Y-43684098D01*
X134991448Y-43689223D01*
X134966022Y-43716845D01*
X134925797Y-43778412D01*
X134923741Y-43781367D01*
X134878124Y-43843047D01*
X134878120Y-43843054D01*
X134861268Y-43876475D01*
X134857811Y-43882472D01*
X134839076Y-43911149D01*
X134808219Y-43981496D01*
X134806803Y-43984503D01*
X134770790Y-44055931D01*
X134760792Y-44088573D01*
X134758288Y-44095323D01*
X134745845Y-44123691D01*
X134745845Y-44123692D01*
X134726178Y-44201347D01*
X134725358Y-44204279D01*
X134700984Y-44283876D01*
X134700983Y-44283879D01*
X134697063Y-44314485D01*
X134695668Y-44321830D01*
X134688867Y-44348688D01*
X134688864Y-44348705D01*
X134681983Y-44431758D01*
X134681693Y-44434513D01*
X134670702Y-44520344D01*
X134670701Y-44520344D01*
X134671872Y-44547900D01*
X134671716Y-44555655D01*
X134669700Y-44579998D01*
X132030300Y-44579998D01*
X132023145Y-44493659D01*
X132022991Y-44491190D01*
X132021867Y-44464723D01*
X132019180Y-44401468D01*
X132014059Y-44377709D01*
X132012879Y-44369762D01*
X132011134Y-44348695D01*
X131989056Y-44261514D01*
X131988563Y-44259408D01*
X131976369Y-44202828D01*
X131968954Y-44168419D01*
X131961115Y-44148912D01*
X131958541Y-44141015D01*
X131954157Y-44123700D01*
X131916724Y-44038363D01*
X131916007Y-44036658D01*
X131880064Y-43947210D01*
X131870768Y-43932112D01*
X131866779Y-43924500D01*
X131860924Y-43911151D01*
X131808184Y-43830426D01*
X131807294Y-43829023D01*
X131755074Y-43744212D01*
X131755071Y-43744209D01*
X131755069Y-43744205D01*
X131748451Y-43736686D01*
X131737727Y-43722584D01*
X131733980Y-43716848D01*
X131718931Y-43700500D01*
X131666427Y-43643466D01*
X131665558Y-43642501D01*
X131597564Y-43565245D01*
X131592436Y-43561104D01*
X131579117Y-43548621D01*
X131576785Y-43546088D01*
X131576783Y-43546086D01*
X131495061Y-43482480D01*
X131412080Y-43415477D01*
X131412073Y-43415472D01*
X131409311Y-43413929D01*
X131393643Y-43403542D01*
X131393634Y-43403535D01*
X131393628Y-43403532D01*
X131393626Y-43403530D01*
X131299837Y-43352774D01*
X131250770Y-43325363D01*
X131203961Y-43299213D01*
X131201381Y-43298047D01*
X131194284Y-43294898D01*
X131194188Y-43295119D01*
X131189499Y-43293062D01*
X131085755Y-43257447D01*
X130979172Y-43219789D01*
X130979160Y-43219786D01*
X130978612Y-43219692D01*
X130973889Y-43218691D01*
X130969990Y-43217704D01*
X130969983Y-43217702D01*
X130969981Y-43217702D01*
X130920009Y-43209363D01*
X130858500Y-43199098D01*
X130744209Y-43179500D01*
X130744200Y-43179500D01*
X130741049Y-43179500D01*
X130508951Y-43179500D01*
X130508950Y-43179500D01*
X130452533Y-43188913D01*
X130447587Y-43189535D01*
X130445099Y-43189747D01*
X130387469Y-43194652D01*
X130387461Y-43194653D01*
X130335397Y-43208208D01*
X130329981Y-43209363D01*
X130280013Y-43217703D01*
X130222840Y-43237331D01*
X130218330Y-43238690D01*
X130156749Y-43254725D01*
X130156744Y-43254727D01*
X130110711Y-43275535D01*
X130105304Y-43277680D01*
X130060503Y-43293060D01*
X130060498Y-43293063D01*
X130004448Y-43323395D01*
X130000478Y-43325363D01*
X129939514Y-43352922D01*
X129900359Y-43379385D01*
X129895149Y-43382544D01*
X129856379Y-43403526D01*
X129856367Y-43403533D01*
X129803487Y-43444692D01*
X129800124Y-43447133D01*
X129742001Y-43486417D01*
X129741994Y-43486422D01*
X129710248Y-43516847D01*
X129705430Y-43521011D01*
X129673218Y-43546085D01*
X129673209Y-43546093D01*
X129625613Y-43597795D01*
X129622900Y-43600564D01*
X129569882Y-43651378D01*
X129569880Y-43651380D01*
X129545681Y-43684098D01*
X129541448Y-43689223D01*
X129516022Y-43716845D01*
X129475797Y-43778412D01*
X129473741Y-43781367D01*
X129428124Y-43843047D01*
X129428120Y-43843054D01*
X129411268Y-43876475D01*
X129407811Y-43882472D01*
X129389076Y-43911149D01*
X129358219Y-43981496D01*
X129356803Y-43984503D01*
X129320790Y-44055931D01*
X129310792Y-44088573D01*
X129308288Y-44095323D01*
X129295845Y-44123691D01*
X129295845Y-44123692D01*
X129276178Y-44201347D01*
X129275358Y-44204279D01*
X129250984Y-44283876D01*
X129250983Y-44283879D01*
X129247063Y-44314485D01*
X129245668Y-44321830D01*
X129238867Y-44348688D01*
X129238864Y-44348705D01*
X129231983Y-44431758D01*
X129231693Y-44434513D01*
X129220702Y-44520344D01*
X129220701Y-44520344D01*
X129221872Y-44547900D01*
X129221716Y-44555655D01*
X129219700Y-44579998D01*
X125810499Y-44579998D01*
X125810499Y-44511677D01*
X125810735Y-44506272D01*
X125815659Y-44450000D01*
X125815659Y-44449999D01*
X125811413Y-44401474D01*
X125810734Y-44393722D01*
X125810499Y-44388319D01*
X125810499Y-43552129D01*
X125810498Y-43552123D01*
X125810497Y-43552116D01*
X125804091Y-43492517D01*
X125801817Y-43486421D01*
X125753797Y-43357671D01*
X125753793Y-43357664D01*
X125667547Y-43242455D01*
X125667544Y-43242452D01*
X125552335Y-43156206D01*
X125552328Y-43156202D01*
X125417482Y-43105908D01*
X125417483Y-43105908D01*
X125357883Y-43099501D01*
X125357881Y-43099500D01*
X125357873Y-43099500D01*
X125357865Y-43099500D01*
X124521674Y-43099500D01*
X124516272Y-43099264D01*
X124476117Y-43095751D01*
X124460001Y-43094341D01*
X124459998Y-43094341D01*
X124426895Y-43097237D01*
X124403726Y-43099264D01*
X124398323Y-43099500D01*
X121762129Y-43099500D01*
X121762123Y-43099501D01*
X121702516Y-43105908D01*
X121567671Y-43156202D01*
X121567664Y-43156206D01*
X121452455Y-43242452D01*
X121452452Y-43242455D01*
X121366206Y-43357664D01*
X121366202Y-43357671D01*
X121315908Y-43492517D01*
X121309877Y-43548621D01*
X121309501Y-43552123D01*
X121309500Y-43552135D01*
X121309500Y-43700500D01*
X121289815Y-43767539D01*
X121237011Y-43813294D01*
X121185500Y-43824500D01*
X120732743Y-43824500D01*
X120717122Y-43822775D01*
X120717095Y-43823061D01*
X120709333Y-43822326D01*
X120641140Y-43824469D01*
X120639193Y-43824500D01*
X120610649Y-43824500D01*
X120603778Y-43825367D01*
X120597959Y-43825825D01*
X120551374Y-43827289D01*
X120551368Y-43827290D01*
X120532126Y-43832880D01*
X120513087Y-43836823D01*
X120493217Y-43839334D01*
X120493203Y-43839337D01*
X120449883Y-43856488D01*
X120444358Y-43858380D01*
X120399613Y-43871380D01*
X120399610Y-43871381D01*
X120382366Y-43881579D01*
X120364905Y-43890133D01*
X120346274Y-43897510D01*
X120346262Y-43897517D01*
X120308570Y-43924902D01*
X120303687Y-43928109D01*
X120263580Y-43951829D01*
X120249414Y-43965995D01*
X120234624Y-43978627D01*
X120218414Y-43990404D01*
X120218411Y-43990407D01*
X120188710Y-44026309D01*
X120184777Y-44030631D01*
X116456208Y-47759199D01*
X116443951Y-47769020D01*
X116444134Y-47769241D01*
X116438122Y-47774214D01*
X116391432Y-47823932D01*
X116390079Y-47825329D01*
X116369889Y-47845519D01*
X116369877Y-47845532D01*
X116365621Y-47851017D01*
X116361837Y-47855447D01*
X116329937Y-47889418D01*
X116329936Y-47889420D01*
X116320284Y-47906976D01*
X116309610Y-47923226D01*
X116297329Y-47939061D01*
X116297324Y-47939068D01*
X116278815Y-47981838D01*
X116276245Y-47987084D01*
X116253803Y-48027906D01*
X116248822Y-48047307D01*
X116242521Y-48065710D01*
X116234562Y-48084102D01*
X116234561Y-48084105D01*
X116227271Y-48130127D01*
X116226087Y-48135846D01*
X116214501Y-48180972D01*
X116214500Y-48180982D01*
X116214500Y-48201016D01*
X116212973Y-48220415D01*
X116209840Y-48240194D01*
X116209840Y-48240195D01*
X116214225Y-48286583D01*
X116214500Y-48292421D01*
X116214500Y-91129546D01*
X116194815Y-91196585D01*
X116178181Y-91217227D01*
X114077228Y-93318181D01*
X114015905Y-93351666D01*
X113989547Y-93354500D01*
X106762737Y-93354500D01*
X106747120Y-93352776D01*
X106747093Y-93353062D01*
X106739331Y-93352327D01*
X106671171Y-93354469D01*
X106669224Y-93354500D01*
X106640650Y-93354500D01*
X106639929Y-93354590D01*
X106633757Y-93355369D01*
X106627945Y-93355826D01*
X106581372Y-93357290D01*
X106581369Y-93357291D01*
X106562126Y-93362881D01*
X106543083Y-93366825D01*
X106523204Y-93369336D01*
X106523203Y-93369337D01*
X106479878Y-93386490D01*
X106474352Y-93388382D01*
X106429608Y-93401383D01*
X106429604Y-93401385D01*
X106412365Y-93411580D01*
X106394898Y-93420137D01*
X106376269Y-93427512D01*
X106376267Y-93427513D01*
X106338564Y-93454906D01*
X106333682Y-93458112D01*
X106293580Y-93481828D01*
X106279408Y-93496000D01*
X106264623Y-93508628D01*
X106248412Y-93520407D01*
X106218709Y-93556310D01*
X106214777Y-93560631D01*
X104595646Y-95179761D01*
X104534323Y-95213246D01*
X104475873Y-95211855D01*
X104375408Y-95184937D01*
X104140001Y-95164341D01*
X104139999Y-95164341D01*
X103904596Y-95184936D01*
X103904586Y-95184938D01*
X103676344Y-95246094D01*
X103676335Y-95246098D01*
X103462171Y-95345964D01*
X103462169Y-95345965D01*
X103268597Y-95481505D01*
X103101505Y-95648597D01*
X102971575Y-95834158D01*
X102916998Y-95877783D01*
X102847500Y-95884977D01*
X102785145Y-95853454D01*
X102768425Y-95834158D01*
X102638494Y-95648597D01*
X102471402Y-95481506D01*
X102471395Y-95481501D01*
X102277834Y-95345967D01*
X102277830Y-95345965D01*
X102206727Y-95312809D01*
X102063663Y-95246097D01*
X102063659Y-95246096D01*
X102063655Y-95246094D01*
X101835413Y-95184938D01*
X101835403Y-95184936D01*
X101600001Y-95164341D01*
X101599999Y-95164341D01*
X101364590Y-95184937D01*
X101364589Y-95184937D01*
X101264124Y-95211855D01*
X101194274Y-95210191D01*
X101144352Y-95179761D01*
X99560803Y-93596212D01*
X99550980Y-93583950D01*
X99550759Y-93584134D01*
X99545786Y-93578122D01*
X99496066Y-93531432D01*
X99494666Y-93530075D01*
X99474476Y-93509884D01*
X99468986Y-93505625D01*
X99464561Y-93501847D01*
X99430582Y-93469938D01*
X99430580Y-93469936D01*
X99430577Y-93469935D01*
X99413029Y-93460288D01*
X99396763Y-93449604D01*
X99380933Y-93437325D01*
X99338168Y-93418818D01*
X99332922Y-93416248D01*
X99292093Y-93393803D01*
X99292092Y-93393802D01*
X99272693Y-93388822D01*
X99254281Y-93382518D01*
X99235898Y-93374562D01*
X99235892Y-93374560D01*
X99189874Y-93367272D01*
X99184152Y-93366087D01*
X99139021Y-93354500D01*
X99139019Y-93354500D01*
X99118984Y-93354500D01*
X99099586Y-93352973D01*
X99091333Y-93351666D01*
X99079805Y-93349840D01*
X99079804Y-93349840D01*
X99033416Y-93354225D01*
X99027578Y-93354500D01*
X78822737Y-93354500D01*
X78807120Y-93352776D01*
X78807093Y-93353062D01*
X78799331Y-93352327D01*
X78731171Y-93354469D01*
X78729224Y-93354500D01*
X78700650Y-93354500D01*
X78699929Y-93354590D01*
X78693757Y-93355369D01*
X78687945Y-93355826D01*
X78641372Y-93357290D01*
X78641369Y-93357291D01*
X78622126Y-93362881D01*
X78603083Y-93366825D01*
X78583204Y-93369336D01*
X78583203Y-93369337D01*
X78539878Y-93386490D01*
X78534352Y-93388382D01*
X78489608Y-93401383D01*
X78489604Y-93401385D01*
X78472365Y-93411580D01*
X78454898Y-93420137D01*
X78436269Y-93427512D01*
X78436267Y-93427513D01*
X78398564Y-93454906D01*
X78393682Y-93458112D01*
X78353580Y-93481828D01*
X78339408Y-93496000D01*
X78324623Y-93508628D01*
X78308412Y-93520407D01*
X78278709Y-93556310D01*
X78274777Y-93560631D01*
X76655646Y-95179761D01*
X76594323Y-95213246D01*
X76535873Y-95211855D01*
X76435408Y-95184937D01*
X76200001Y-95164341D01*
X76199999Y-95164341D01*
X75964596Y-95184936D01*
X75964586Y-95184938D01*
X75736344Y-95246094D01*
X75736335Y-95246098D01*
X75522171Y-95345964D01*
X75522169Y-95345965D01*
X75328597Y-95481505D01*
X75161505Y-95648597D01*
X75031575Y-95834158D01*
X74976998Y-95877783D01*
X74907500Y-95884977D01*
X74845145Y-95853454D01*
X74828425Y-95834158D01*
X74698494Y-95648597D01*
X74531402Y-95481506D01*
X74531395Y-95481501D01*
X74337834Y-95345967D01*
X74337830Y-95345965D01*
X74266727Y-95312809D01*
X74123663Y-95246097D01*
X74123659Y-95246096D01*
X74123655Y-95246094D01*
X73895413Y-95184938D01*
X73895403Y-95184936D01*
X73660001Y-95164341D01*
X73659999Y-95164341D01*
X73424596Y-95184936D01*
X73424586Y-95184938D01*
X73196344Y-95246094D01*
X73196335Y-95246098D01*
X72982171Y-95345964D01*
X72982169Y-95345965D01*
X72788597Y-95481505D01*
X72621505Y-95648597D01*
X72491575Y-95834158D01*
X72436998Y-95877783D01*
X72367500Y-95884977D01*
X72305145Y-95853454D01*
X72288425Y-95834158D01*
X72158494Y-95648597D01*
X71991402Y-95481506D01*
X71991395Y-95481501D01*
X71797834Y-95345967D01*
X71797830Y-95345965D01*
X71726727Y-95312809D01*
X71583663Y-95246097D01*
X71583659Y-95246096D01*
X71583655Y-95246094D01*
X71355413Y-95184938D01*
X71355403Y-95184936D01*
X71120001Y-95164341D01*
X71119999Y-95164341D01*
X70884596Y-95184936D01*
X70884586Y-95184938D01*
X70656344Y-95246094D01*
X70656335Y-95246098D01*
X70442171Y-95345964D01*
X70442169Y-95345965D01*
X70248600Y-95481503D01*
X70126284Y-95603819D01*
X70064961Y-95637303D01*
X69995269Y-95632319D01*
X69939336Y-95590447D01*
X69922421Y-95559470D01*
X69873354Y-95427913D01*
X69873350Y-95427906D01*
X69787190Y-95312812D01*
X69787187Y-95312809D01*
X69672093Y-95226649D01*
X69672086Y-95226645D01*
X69537379Y-95176403D01*
X69537372Y-95176401D01*
X69477844Y-95170000D01*
X68830000Y-95170000D01*
X68830000Y-96084498D01*
X68722315Y-96035320D01*
X68615763Y-96020000D01*
X68544237Y-96020000D01*
X68437685Y-96035320D01*
X68330000Y-96084498D01*
X68330000Y-95170000D01*
X67682155Y-95170000D01*
X67622627Y-95176401D01*
X67622620Y-95176403D01*
X67487913Y-95226645D01*
X67487906Y-95226649D01*
X67372812Y-95312809D01*
X67372809Y-95312812D01*
X67286649Y-95427906D01*
X67286645Y-95427913D01*
X67236403Y-95562620D01*
X67236401Y-95562627D01*
X67230000Y-95622155D01*
X67230000Y-96270000D01*
X68146314Y-96270000D01*
X68120507Y-96310156D01*
X68080000Y-96448111D01*
X68080000Y-96591889D01*
X68120507Y-96729844D01*
X68146314Y-96770000D01*
X67230000Y-96770000D01*
X67230000Y-97417844D01*
X56480500Y-97417844D01*
X56480500Y-60381007D01*
X76759840Y-60381007D01*
X76764225Y-60427395D01*
X76764500Y-60433233D01*
X76764500Y-81756443D01*
X76762775Y-81772060D01*
X76763061Y-81772087D01*
X76762326Y-81779854D01*
X76764469Y-81848034D01*
X76764500Y-81849981D01*
X76764500Y-81878531D01*
X76764501Y-81878548D01*
X76765368Y-81885419D01*
X76765826Y-81891238D01*
X76767290Y-81937812D01*
X76767291Y-81937815D01*
X76772880Y-81957055D01*
X76776824Y-81976099D01*
X76779336Y-81995979D01*
X76796490Y-82039307D01*
X76798382Y-82044835D01*
X76811381Y-82089576D01*
X76821580Y-82106822D01*
X76830138Y-82124291D01*
X76837514Y-82142920D01*
X76864898Y-82180611D01*
X76868106Y-82185495D01*
X76891827Y-82225604D01*
X76891833Y-82225612D01*
X76905990Y-82239768D01*
X76918628Y-82254564D01*
X76930405Y-82270774D01*
X76930406Y-82270775D01*
X76966309Y-82300476D01*
X76970620Y-82304398D01*
X78308550Y-83642328D01*
X79531785Y-84865563D01*
X79565270Y-84926886D01*
X79568104Y-84953244D01*
X79568104Y-89003651D01*
X79566379Y-89019268D01*
X79566665Y-89019295D01*
X79565930Y-89027062D01*
X79568073Y-89095242D01*
X79568104Y-89097189D01*
X79568104Y-89125739D01*
X79568105Y-89125756D01*
X79568972Y-89132627D01*
X79569430Y-89138446D01*
X79570894Y-89185020D01*
X79570895Y-89185023D01*
X79576484Y-89204263D01*
X79580428Y-89223307D01*
X79582940Y-89243188D01*
X79594398Y-89272128D01*
X79600094Y-89286515D01*
X79601986Y-89292043D01*
X79614985Y-89336784D01*
X79625184Y-89354030D01*
X79633742Y-89371499D01*
X79641118Y-89390128D01*
X79668502Y-89427819D01*
X79671710Y-89432703D01*
X79695431Y-89472812D01*
X79695437Y-89472820D01*
X79709594Y-89486976D01*
X79722232Y-89501772D01*
X79734009Y-89517982D01*
X79734010Y-89517983D01*
X79769913Y-89547684D01*
X79774224Y-89551606D01*
X82161535Y-91938918D01*
X82946405Y-92723788D01*
X82956230Y-92736051D01*
X82956451Y-92735869D01*
X82961419Y-92741874D01*
X83011140Y-92788566D01*
X83012540Y-92789923D01*
X83032731Y-92810115D01*
X83032735Y-92810118D01*
X83032737Y-92810120D01*
X83038219Y-92814373D01*
X83042651Y-92818157D01*
X83076626Y-92850062D01*
X83094184Y-92859714D01*
X83110441Y-92870393D01*
X83126272Y-92882673D01*
X83145945Y-92891186D01*
X83169041Y-92901182D01*
X83174285Y-92903750D01*
X83215116Y-92926197D01*
X83227731Y-92929435D01*
X83234513Y-92931177D01*
X83252927Y-92937481D01*
X83271312Y-92945438D01*
X83317365Y-92952732D01*
X83323034Y-92953906D01*
X83368189Y-92965500D01*
X83388224Y-92965500D01*
X83407621Y-92967026D01*
X83427404Y-92970160D01*
X83473791Y-92965775D01*
X83479630Y-92965500D01*
X88553653Y-92965500D01*
X88569273Y-92967224D01*
X88569300Y-92966939D01*
X88577062Y-92967673D01*
X88577062Y-92967672D01*
X88577063Y-92967673D01*
X88580395Y-92967568D01*
X88645243Y-92965531D01*
X88647190Y-92965500D01*
X88675743Y-92965500D01*
X88675746Y-92965500D01*
X88682624Y-92964630D01*
X88688437Y-92964172D01*
X88735023Y-92962709D01*
X88754265Y-92957117D01*
X88773308Y-92953174D01*
X88793188Y-92950664D01*
X88836518Y-92933507D01*
X88842042Y-92931617D01*
X88845792Y-92930527D01*
X88886786Y-92918618D01*
X88904025Y-92908422D01*
X88921499Y-92899862D01*
X88940123Y-92892488D01*
X88940123Y-92892487D01*
X88940128Y-92892486D01*
X88977845Y-92865082D01*
X88982701Y-92861892D01*
X89022816Y-92838170D01*
X89036985Y-92823999D01*
X89051775Y-92811368D01*
X89067983Y-92799594D01*
X89097695Y-92763676D01*
X89101608Y-92759376D01*
X89440971Y-92420015D01*
X89502293Y-92386532D01*
X89528651Y-92383698D01*
X91039059Y-92383698D01*
X91054679Y-92385422D01*
X91054706Y-92385137D01*
X91062468Y-92385871D01*
X91062468Y-92385870D01*
X91062469Y-92385871D01*
X91065801Y-92385766D01*
X91130649Y-92383729D01*
X91132596Y-92383698D01*
X91161149Y-92383698D01*
X91161152Y-92383698D01*
X91168030Y-92382828D01*
X91173843Y-92382370D01*
X91220429Y-92380907D01*
X91239671Y-92375315D01*
X91258714Y-92371372D01*
X91278594Y-92368862D01*
X91321924Y-92351705D01*
X91327448Y-92349815D01*
X91331198Y-92348725D01*
X91372192Y-92336816D01*
X91389431Y-92326620D01*
X91406905Y-92318060D01*
X91425529Y-92310686D01*
X91425529Y-92310685D01*
X91425534Y-92310684D01*
X91463251Y-92283280D01*
X91468107Y-92280090D01*
X91508222Y-92256368D01*
X91522391Y-92242197D01*
X91537181Y-92229566D01*
X91553389Y-92217792D01*
X91583101Y-92181874D01*
X91587014Y-92177574D01*
X93606003Y-90158586D01*
X93667324Y-90125103D01*
X93725777Y-90126495D01*
X93762015Y-90136205D01*
X93762016Y-90136205D01*
X93762023Y-90136207D01*
X93947537Y-90152437D01*
X93979998Y-90155277D01*
X93980000Y-90155277D01*
X93980002Y-90155277D01*
X94008254Y-90152805D01*
X94197977Y-90136207D01*
X94409330Y-90079575D01*
X94607639Y-89987102D01*
X94786877Y-89861598D01*
X94941598Y-89706877D01*
X95067102Y-89527639D01*
X95137618Y-89376414D01*
X95183790Y-89323977D01*
X95250984Y-89304825D01*
X95317865Y-89325041D01*
X95362381Y-89376414D01*
X95432898Y-89527639D01*
X95558402Y-89706877D01*
X95713123Y-89861598D01*
X95892361Y-89987102D01*
X96090670Y-90079575D01*
X96302023Y-90136207D01*
X96484926Y-90152208D01*
X96519998Y-90155277D01*
X96520000Y-90155277D01*
X96520002Y-90155277D01*
X96548254Y-90152805D01*
X96737977Y-90136207D01*
X96949330Y-90079575D01*
X97147639Y-89987102D01*
X97326877Y-89861598D01*
X97481598Y-89706877D01*
X97607102Y-89527639D01*
X97699575Y-89329330D01*
X97756207Y-89117977D01*
X97775277Y-88900000D01*
X97756207Y-88682023D01*
X97699575Y-88470670D01*
X97607102Y-88272362D01*
X97607100Y-88272359D01*
X97607099Y-88272357D01*
X97481599Y-88093124D01*
X97430992Y-88042517D01*
X97326877Y-87938402D01*
X97180409Y-87835844D01*
X97147638Y-87812897D01*
X97043407Y-87764294D01*
X96949330Y-87720425D01*
X96949326Y-87720424D01*
X96949322Y-87720422D01*
X96737977Y-87663793D01*
X96520002Y-87644723D01*
X96519998Y-87644723D01*
X96392151Y-87655908D01*
X96302023Y-87663793D01*
X96302020Y-87663793D01*
X96090677Y-87720422D01*
X96090668Y-87720426D01*
X95892361Y-87812898D01*
X95892357Y-87812900D01*
X95713121Y-87938402D01*
X95558402Y-88093121D01*
X95432900Y-88272357D01*
X95432898Y-88272361D01*
X95362382Y-88423583D01*
X95316209Y-88476022D01*
X95249016Y-88495174D01*
X95182135Y-88474958D01*
X95137618Y-88423583D01*
X95123118Y-88392488D01*
X95067102Y-88272362D01*
X95067100Y-88272359D01*
X95067099Y-88272357D01*
X94941599Y-88093124D01*
X94890992Y-88042517D01*
X94786877Y-87938402D01*
X94640409Y-87835844D01*
X94607638Y-87812897D01*
X94503407Y-87764294D01*
X94409330Y-87720425D01*
X94409326Y-87720424D01*
X94409322Y-87720422D01*
X94197977Y-87663793D01*
X93980002Y-87644723D01*
X93979998Y-87644723D01*
X93852151Y-87655908D01*
X93762023Y-87663793D01*
X93762020Y-87663793D01*
X93550677Y-87720422D01*
X93550668Y-87720426D01*
X93352361Y-87812898D01*
X93352357Y-87812900D01*
X93173121Y-87938402D01*
X93018402Y-88093121D01*
X92892900Y-88272357D01*
X92892898Y-88272361D01*
X92822382Y-88423583D01*
X92776209Y-88476022D01*
X92709016Y-88495174D01*
X92642135Y-88474958D01*
X92597618Y-88423583D01*
X92583118Y-88392488D01*
X92527102Y-88272362D01*
X92527100Y-88272359D01*
X92527099Y-88272357D01*
X92401599Y-88093124D01*
X92350992Y-88042517D01*
X92246877Y-87938402D01*
X92100409Y-87835844D01*
X92067638Y-87812897D01*
X91963407Y-87764294D01*
X91869330Y-87720425D01*
X91869326Y-87720424D01*
X91869322Y-87720422D01*
X91657977Y-87663793D01*
X91440002Y-87644723D01*
X91439998Y-87644723D01*
X91312151Y-87655908D01*
X91222023Y-87663793D01*
X91222020Y-87663793D01*
X91010677Y-87720422D01*
X91010668Y-87720426D01*
X90812361Y-87812898D01*
X90812357Y-87812900D01*
X90633121Y-87938402D01*
X90478402Y-88093121D01*
X90352900Y-88272357D01*
X90352898Y-88272361D01*
X90282382Y-88423583D01*
X90236209Y-88476022D01*
X90169016Y-88495174D01*
X90102135Y-88474958D01*
X90057618Y-88423583D01*
X90043118Y-88392488D01*
X89987102Y-88272362D01*
X89987100Y-88272359D01*
X89987099Y-88272357D01*
X89861599Y-88093124D01*
X89810992Y-88042517D01*
X89706877Y-87938402D01*
X89560409Y-87835844D01*
X89527638Y-87812897D01*
X89423407Y-87764294D01*
X89329330Y-87720425D01*
X89329326Y-87720424D01*
X89329322Y-87720422D01*
X89117977Y-87663793D01*
X88900002Y-87644723D01*
X88899998Y-87644723D01*
X88772151Y-87655908D01*
X88682023Y-87663793D01*
X88682020Y-87663793D01*
X88470677Y-87720422D01*
X88470668Y-87720426D01*
X88272361Y-87812898D01*
X88272357Y-87812900D01*
X88093121Y-87938402D01*
X87938402Y-88093121D01*
X87812900Y-88272357D01*
X87812898Y-88272361D01*
X87742382Y-88423583D01*
X87696209Y-88476022D01*
X87629016Y-88495174D01*
X87562135Y-88474958D01*
X87517618Y-88423583D01*
X87503118Y-88392488D01*
X87447102Y-88272362D01*
X87447100Y-88272359D01*
X87447099Y-88272357D01*
X87321599Y-88093124D01*
X87270992Y-88042517D01*
X87166877Y-87938402D01*
X87020409Y-87835844D01*
X86987638Y-87812897D01*
X86883407Y-87764294D01*
X86789330Y-87720425D01*
X86789326Y-87720424D01*
X86789322Y-87720422D01*
X86577977Y-87663793D01*
X86360002Y-87644723D01*
X86359998Y-87644723D01*
X86232151Y-87655908D01*
X86142023Y-87663793D01*
X86142021Y-87663793D01*
X86142017Y-87663794D01*
X86105775Y-87673505D01*
X86035925Y-87671842D01*
X85986002Y-87641411D01*
X79401819Y-81057228D01*
X79368334Y-80995905D01*
X79365500Y-80969547D01*
X79365500Y-73660002D01*
X82564723Y-73660002D01*
X82583793Y-73877975D01*
X82583793Y-73877979D01*
X82640422Y-74089322D01*
X82640424Y-74089326D01*
X82640425Y-74089330D01*
X82662382Y-74136416D01*
X82732897Y-74287638D01*
X82732898Y-74287639D01*
X82858402Y-74466877D01*
X83013123Y-74621598D01*
X83192361Y-74747102D01*
X83390670Y-74839575D01*
X83602023Y-74896207D01*
X83784926Y-74912208D01*
X83819998Y-74915277D01*
X83820000Y-74915277D01*
X83820002Y-74915277D01*
X83850212Y-74912633D01*
X84037977Y-74896207D01*
X84074221Y-74886495D01*
X84144071Y-74888156D01*
X84193998Y-74918588D01*
X91664197Y-82388788D01*
X91674022Y-82401051D01*
X91674243Y-82400869D01*
X91679211Y-82406874D01*
X91679213Y-82406876D01*
X91679214Y-82406877D01*
X91695671Y-82422331D01*
X91728932Y-82453566D01*
X91730332Y-82454923D01*
X91750523Y-82475115D01*
X91750527Y-82475118D01*
X91750529Y-82475120D01*
X91756011Y-82479373D01*
X91760443Y-82483157D01*
X91794418Y-82515062D01*
X91811976Y-82524714D01*
X91828235Y-82535395D01*
X91844064Y-82547673D01*
X91886838Y-82566182D01*
X91892056Y-82568738D01*
X91932908Y-82591197D01*
X91952316Y-82596180D01*
X91970717Y-82602480D01*
X91989104Y-82610437D01*
X92032488Y-82617308D01*
X92035119Y-82617725D01*
X92040839Y-82618909D01*
X92085981Y-82630500D01*
X92106016Y-82630500D01*
X92125414Y-82632026D01*
X92145194Y-82635159D01*
X92145195Y-82635160D01*
X92145195Y-82635159D01*
X92145196Y-82635160D01*
X92191583Y-82630775D01*
X92197422Y-82630500D01*
X105872257Y-82630500D01*
X105887877Y-82632224D01*
X105887904Y-82631939D01*
X105895666Y-82632673D01*
X105895666Y-82632672D01*
X105895667Y-82632673D01*
X105898999Y-82632568D01*
X105963847Y-82630531D01*
X105965794Y-82630500D01*
X105994347Y-82630500D01*
X105994350Y-82630500D01*
X106001228Y-82629630D01*
X106007041Y-82629172D01*
X106053627Y-82627709D01*
X106072869Y-82622117D01*
X106091912Y-82618174D01*
X106111792Y-82615664D01*
X106155122Y-82598507D01*
X106160646Y-82596617D01*
X106164396Y-82595527D01*
X106205390Y-82583618D01*
X106222629Y-82573422D01*
X106240103Y-82564862D01*
X106258727Y-82557488D01*
X106258727Y-82557487D01*
X106258732Y-82557486D01*
X106296449Y-82530082D01*
X106301305Y-82526892D01*
X106341420Y-82503170D01*
X106355589Y-82488999D01*
X106370379Y-82476368D01*
X106386587Y-82464594D01*
X106416299Y-82428676D01*
X106420212Y-82424376D01*
X109167771Y-79676819D01*
X109229095Y-79643334D01*
X109255453Y-79640500D01*
X109314644Y-79640500D01*
X109314646Y-79640500D01*
X109499803Y-79601144D01*
X109672730Y-79524151D01*
X109825871Y-79412888D01*
X109952533Y-79272216D01*
X110047179Y-79108284D01*
X110105674Y-78928256D01*
X110125460Y-78740000D01*
X110105674Y-78551744D01*
X110047179Y-78371716D01*
X109952533Y-78207784D01*
X109825871Y-78067112D01*
X109825870Y-78067111D01*
X109672734Y-77955851D01*
X109672729Y-77955848D01*
X109499807Y-77878857D01*
X109499802Y-77878855D01*
X109354000Y-77847865D01*
X109314646Y-77839500D01*
X109125354Y-77839500D01*
X109092897Y-77846398D01*
X108940197Y-77878855D01*
X108940192Y-77878857D01*
X108767270Y-77955848D01*
X108767265Y-77955851D01*
X108614129Y-78067111D01*
X108487466Y-78207785D01*
X108392821Y-78371715D01*
X108392818Y-78371722D01*
X108334327Y-78551740D01*
X108334326Y-78551744D01*
X108322350Y-78665689D01*
X108316679Y-78719649D01*
X108290094Y-78784263D01*
X108281039Y-78794368D01*
X105732228Y-81343181D01*
X105670905Y-81376666D01*
X105644547Y-81379500D01*
X105167568Y-81379500D01*
X105100529Y-81359815D01*
X105054774Y-81307011D01*
X105044247Y-81268462D01*
X105025674Y-81091744D01*
X104967179Y-80911716D01*
X104872533Y-80747784D01*
X104745871Y-80607112D01*
X104745870Y-80607111D01*
X104592734Y-80495851D01*
X104592729Y-80495848D01*
X104419807Y-80418857D01*
X104419802Y-80418855D01*
X104274001Y-80387865D01*
X104234646Y-80379500D01*
X104045354Y-80379500D01*
X104012897Y-80386398D01*
X103860197Y-80418855D01*
X103860192Y-80418857D01*
X103687270Y-80495848D01*
X103687265Y-80495851D01*
X103534130Y-80607110D01*
X103534126Y-80607114D01*
X103528400Y-80613474D01*
X103468913Y-80650121D01*
X103436252Y-80654500D01*
X99370453Y-80654500D01*
X99303414Y-80634815D01*
X99282772Y-80618181D01*
X93782406Y-75117815D01*
X93748921Y-75056492D01*
X93753905Y-74986800D01*
X93795777Y-74930867D01*
X93861241Y-74906450D01*
X93880886Y-74906605D01*
X93968564Y-74914276D01*
X93979999Y-74915277D01*
X93980000Y-74915277D01*
X93980002Y-74915277D01*
X94008254Y-74912805D01*
X94197977Y-74896207D01*
X94409330Y-74839575D01*
X94607639Y-74747102D01*
X94786877Y-74621598D01*
X94941598Y-74466877D01*
X95067102Y-74287639D01*
X95137618Y-74136414D01*
X95183790Y-74083977D01*
X95250984Y-74064825D01*
X95317865Y-74085041D01*
X95362381Y-74136414D01*
X95432898Y-74287639D01*
X95558402Y-74466877D01*
X95713123Y-74621598D01*
X95892361Y-74747102D01*
X96090670Y-74839575D01*
X96302023Y-74896207D01*
X96484926Y-74912208D01*
X96519998Y-74915277D01*
X96520000Y-74915277D01*
X96520002Y-74915277D01*
X96548254Y-74912805D01*
X96737977Y-74896207D01*
X96949330Y-74839575D01*
X97147639Y-74747102D01*
X97326877Y-74621598D01*
X97481598Y-74466877D01*
X97607102Y-74287639D01*
X97699575Y-74089330D01*
X97756207Y-73877977D01*
X97775277Y-73660000D01*
X97756207Y-73442023D01*
X97746494Y-73405774D01*
X97748157Y-73335925D01*
X97778586Y-73286002D01*
X98832771Y-72231819D01*
X98894095Y-72198334D01*
X98920453Y-72195500D01*
X107420049Y-72195500D01*
X107435669Y-72197224D01*
X107435696Y-72196939D01*
X107443458Y-72197673D01*
X107443458Y-72197672D01*
X107443459Y-72197673D01*
X107446791Y-72197568D01*
X107511639Y-72195531D01*
X107513586Y-72195500D01*
X107542139Y-72195500D01*
X107542142Y-72195500D01*
X107549020Y-72194630D01*
X107554833Y-72194172D01*
X107601419Y-72192709D01*
X107620661Y-72187117D01*
X107639704Y-72183174D01*
X107659584Y-72180664D01*
X107702914Y-72163507D01*
X107708438Y-72161617D01*
X107712188Y-72160527D01*
X107753182Y-72148618D01*
X107770421Y-72138422D01*
X107787895Y-72129862D01*
X107806519Y-72122488D01*
X107806519Y-72122487D01*
X107806524Y-72122486D01*
X107844241Y-72095082D01*
X107849097Y-72091892D01*
X107889212Y-72068170D01*
X107903381Y-72053999D01*
X107918171Y-72041368D01*
X107934379Y-72029594D01*
X107964091Y-71993676D01*
X107968004Y-71989376D01*
X109603787Y-70353593D01*
X109616042Y-70343778D01*
X109615859Y-70343556D01*
X109621868Y-70338583D01*
X109621877Y-70338578D01*
X109668607Y-70288814D01*
X109669846Y-70287535D01*
X109690120Y-70267263D01*
X109694379Y-70261770D01*
X109698152Y-70257353D01*
X109730062Y-70223374D01*
X109739715Y-70205812D01*
X109750389Y-70189562D01*
X109762673Y-70173728D01*
X109781180Y-70130959D01*
X109783749Y-70125716D01*
X109794288Y-70106546D01*
X109806197Y-70084884D01*
X109811177Y-70065483D01*
X109817478Y-70047080D01*
X109825438Y-70028688D01*
X109832730Y-69982641D01*
X109833911Y-69976944D01*
X109845500Y-69931811D01*
X109845500Y-69911774D01*
X109847027Y-69892374D01*
X109850160Y-69872596D01*
X109845775Y-69826207D01*
X109845500Y-69820369D01*
X109845500Y-48958687D01*
X109865185Y-48891648D01*
X109877350Y-48875715D01*
X109903919Y-48846207D01*
X109952533Y-48792216D01*
X110047179Y-48628284D01*
X110105674Y-48448256D01*
X110125460Y-48260000D01*
X110105674Y-48071744D01*
X110047179Y-47891716D01*
X109952533Y-47727784D01*
X109825871Y-47587112D01*
X109820813Y-47583437D01*
X109672734Y-47475851D01*
X109672729Y-47475848D01*
X109499807Y-47398857D01*
X109499802Y-47398855D01*
X109332241Y-47363240D01*
X109314646Y-47359500D01*
X109314645Y-47359500D01*
X109255453Y-47359500D01*
X109188414Y-47339815D01*
X109167772Y-47323181D01*
X107180803Y-45336212D01*
X107170980Y-45323950D01*
X107170759Y-45324134D01*
X107165786Y-45318122D01*
X107116066Y-45271432D01*
X107114666Y-45270075D01*
X107094476Y-45249884D01*
X107093144Y-45248851D01*
X107088984Y-45245624D01*
X107084561Y-45241847D01*
X107050582Y-45209938D01*
X107050580Y-45209936D01*
X107050577Y-45209935D01*
X107033029Y-45200288D01*
X107016763Y-45189604D01*
X107000936Y-45177327D01*
X107000935Y-45177326D01*
X107000933Y-45177325D01*
X106958168Y-45158818D01*
X106952922Y-45156248D01*
X106912093Y-45133803D01*
X106912092Y-45133802D01*
X106892693Y-45128822D01*
X106874281Y-45122518D01*
X106855898Y-45114562D01*
X106855892Y-45114560D01*
X106809874Y-45107272D01*
X106804152Y-45106087D01*
X106759021Y-45094500D01*
X106759019Y-45094500D01*
X106738984Y-45094500D01*
X106719586Y-45092973D01*
X106712162Y-45091797D01*
X106699805Y-45089840D01*
X106699804Y-45089840D01*
X106653416Y-45094225D01*
X106647578Y-45094500D01*
X97673150Y-45094500D01*
X97606111Y-45074815D01*
X97571575Y-45041623D01*
X97481599Y-44913124D01*
X97406637Y-44838162D01*
X97326877Y-44758402D01*
X97147639Y-44632898D01*
X97147640Y-44632898D01*
X97147638Y-44632897D01*
X97034199Y-44580000D01*
X96949330Y-44540425D01*
X96949326Y-44540424D01*
X96949322Y-44540422D01*
X96737977Y-44483793D01*
X96520002Y-44464723D01*
X96519998Y-44464723D01*
X96374681Y-44477436D01*
X96302023Y-44483793D01*
X96302020Y-44483793D01*
X96090677Y-44540422D01*
X96090668Y-44540426D01*
X95892361Y-44632898D01*
X95892357Y-44632900D01*
X95713121Y-44758402D01*
X95558402Y-44913121D01*
X95432900Y-45092357D01*
X95432898Y-45092361D01*
X95362382Y-45243583D01*
X95316209Y-45296022D01*
X95249016Y-45315174D01*
X95182135Y-45294958D01*
X95137618Y-45243583D01*
X95117429Y-45200288D01*
X95067102Y-45092362D01*
X95067100Y-45092359D01*
X95067099Y-45092357D01*
X94941599Y-44913124D01*
X94866637Y-44838162D01*
X94786877Y-44758402D01*
X94607639Y-44632898D01*
X94607640Y-44632898D01*
X94607638Y-44632897D01*
X94494199Y-44580000D01*
X94409330Y-44540425D01*
X94409326Y-44540424D01*
X94409322Y-44540422D01*
X94197977Y-44483793D01*
X93980002Y-44464723D01*
X93979998Y-44464723D01*
X93834681Y-44477436D01*
X93762023Y-44483793D01*
X93762020Y-44483793D01*
X93550677Y-44540422D01*
X93550668Y-44540426D01*
X93352361Y-44632898D01*
X93352357Y-44632900D01*
X93173121Y-44758402D01*
X93018402Y-44913121D01*
X92892900Y-45092357D01*
X92892898Y-45092361D01*
X92822382Y-45243583D01*
X92776209Y-45296022D01*
X92709016Y-45315174D01*
X92642135Y-45294958D01*
X92597618Y-45243583D01*
X92577429Y-45200288D01*
X92527102Y-45092362D01*
X92527100Y-45092359D01*
X92527099Y-45092357D01*
X92401599Y-44913124D01*
X92326637Y-44838162D01*
X92246877Y-44758402D01*
X92067639Y-44632898D01*
X92067640Y-44632898D01*
X92067638Y-44632897D01*
X91954199Y-44580000D01*
X91869330Y-44540425D01*
X91869326Y-44540424D01*
X91869322Y-44540422D01*
X91657977Y-44483793D01*
X91440002Y-44464723D01*
X91439998Y-44464723D01*
X91294682Y-44477436D01*
X91222023Y-44483793D01*
X91222020Y-44483793D01*
X91010677Y-44540422D01*
X91010668Y-44540426D01*
X90812361Y-44632898D01*
X90812357Y-44632900D01*
X90633121Y-44758402D01*
X90478402Y-44913121D01*
X90352900Y-45092357D01*
X90352898Y-45092361D01*
X90282382Y-45243583D01*
X90236209Y-45296022D01*
X90169016Y-45315174D01*
X90102135Y-45294958D01*
X90057618Y-45243583D01*
X90037429Y-45200288D01*
X89987102Y-45092362D01*
X89987100Y-45092359D01*
X89987099Y-45092357D01*
X89861599Y-44913124D01*
X89786637Y-44838162D01*
X89706877Y-44758402D01*
X89527639Y-44632898D01*
X89527640Y-44632898D01*
X89527638Y-44632897D01*
X89414199Y-44580000D01*
X89329330Y-44540425D01*
X89329326Y-44540424D01*
X89329322Y-44540422D01*
X89117977Y-44483793D01*
X88900002Y-44464723D01*
X88899998Y-44464723D01*
X88754682Y-44477436D01*
X88682023Y-44483793D01*
X88682020Y-44483793D01*
X88470677Y-44540422D01*
X88470668Y-44540426D01*
X88272361Y-44632898D01*
X88272357Y-44632900D01*
X88093121Y-44758402D01*
X87938402Y-44913121D01*
X87812900Y-45092357D01*
X87812898Y-45092361D01*
X87742382Y-45243583D01*
X87696209Y-45296022D01*
X87629016Y-45315174D01*
X87562135Y-45294958D01*
X87517618Y-45243583D01*
X87497429Y-45200288D01*
X87447102Y-45092362D01*
X87447100Y-45092359D01*
X87447099Y-45092357D01*
X87321599Y-44913124D01*
X87246637Y-44838162D01*
X87166877Y-44758402D01*
X86987639Y-44632898D01*
X86987640Y-44632898D01*
X86987638Y-44632897D01*
X86874199Y-44580000D01*
X86789330Y-44540425D01*
X86789326Y-44540424D01*
X86789322Y-44540422D01*
X86577977Y-44483793D01*
X86360002Y-44464723D01*
X86359998Y-44464723D01*
X86214681Y-44477436D01*
X86142023Y-44483793D01*
X86142020Y-44483793D01*
X85930677Y-44540422D01*
X85930668Y-44540426D01*
X85732361Y-44632898D01*
X85732357Y-44632900D01*
X85553121Y-44758402D01*
X85398402Y-44913121D01*
X85272900Y-45092357D01*
X85272898Y-45092361D01*
X85202382Y-45243583D01*
X85156209Y-45296022D01*
X85089016Y-45315174D01*
X85022135Y-45294958D01*
X84977618Y-45243583D01*
X84957429Y-45200288D01*
X84907102Y-45092362D01*
X84907100Y-45092359D01*
X84907099Y-45092357D01*
X84781599Y-44913124D01*
X84706637Y-44838162D01*
X84626877Y-44758402D01*
X84447639Y-44632898D01*
X84447640Y-44632898D01*
X84447638Y-44632897D01*
X84334199Y-44580000D01*
X84249330Y-44540425D01*
X84249326Y-44540424D01*
X84249322Y-44540422D01*
X84037977Y-44483793D01*
X83820002Y-44464723D01*
X83819998Y-44464723D01*
X83674682Y-44477436D01*
X83602023Y-44483793D01*
X83602020Y-44483793D01*
X83390677Y-44540422D01*
X83390668Y-44540426D01*
X83192361Y-44632898D01*
X83192357Y-44632900D01*
X83013121Y-44758402D01*
X82858402Y-44913121D01*
X82732900Y-45092357D01*
X82732898Y-45092361D01*
X82640426Y-45290668D01*
X82640422Y-45290677D01*
X82583793Y-45502020D01*
X82583793Y-45502024D01*
X82564723Y-45719997D01*
X82564723Y-45720002D01*
X82567003Y-45746064D01*
X82582386Y-45921900D01*
X82583793Y-45937975D01*
X82583793Y-45937979D01*
X82640422Y-46149322D01*
X82640424Y-46149326D01*
X82640425Y-46149330D01*
X82662382Y-46196416D01*
X82732897Y-46347638D01*
X82751211Y-46373793D01*
X82858402Y-46526877D01*
X83013123Y-46681598D01*
X83192361Y-46807102D01*
X83390670Y-46899575D01*
X83602023Y-46956207D01*
X83784926Y-46972208D01*
X83819998Y-46975277D01*
X83820000Y-46975277D01*
X83820002Y-46975277D01*
X83848254Y-46972805D01*
X84037977Y-46956207D01*
X84249330Y-46899575D01*
X84447639Y-46807102D01*
X84626877Y-46681598D01*
X84781598Y-46526877D01*
X84907102Y-46347639D01*
X84977618Y-46196414D01*
X85023790Y-46143977D01*
X85090984Y-46124825D01*
X85157865Y-46145041D01*
X85202381Y-46196414D01*
X85272898Y-46347639D01*
X85398402Y-46526877D01*
X85553123Y-46681598D01*
X85732361Y-46807102D01*
X85930670Y-46899575D01*
X86142023Y-46956207D01*
X86324926Y-46972208D01*
X86359998Y-46975277D01*
X86360000Y-46975277D01*
X86360002Y-46975277D01*
X86390212Y-46972633D01*
X86577977Y-46956207D01*
X86579448Y-46955813D01*
X86590591Y-46952827D01*
X86614221Y-46946495D01*
X86684071Y-46948156D01*
X86733997Y-46978587D01*
X87579341Y-47823932D01*
X88399197Y-48643788D01*
X88409022Y-48656051D01*
X88409243Y-48655869D01*
X88414211Y-48661874D01*
X88463932Y-48708566D01*
X88465332Y-48709923D01*
X88485523Y-48730115D01*
X88485527Y-48730118D01*
X88485529Y-48730120D01*
X88491011Y-48734373D01*
X88495443Y-48738157D01*
X88529418Y-48770062D01*
X88546976Y-48779714D01*
X88563235Y-48790395D01*
X88579064Y-48802673D01*
X88621838Y-48821182D01*
X88627056Y-48823738D01*
X88667908Y-48846197D01*
X88687316Y-48851180D01*
X88705717Y-48857480D01*
X88724104Y-48865437D01*
X88767488Y-48872308D01*
X88770119Y-48872725D01*
X88775839Y-48873909D01*
X88820981Y-48885500D01*
X88841016Y-48885500D01*
X88860414Y-48887026D01*
X88880194Y-48890159D01*
X88880195Y-48890160D01*
X88880195Y-48890159D01*
X88880196Y-48890160D01*
X88926583Y-48885775D01*
X88932422Y-48885500D01*
X103436252Y-48885500D01*
X103503291Y-48905185D01*
X103528400Y-48926526D01*
X103534126Y-48932885D01*
X103534130Y-48932889D01*
X103687265Y-49044148D01*
X103687270Y-49044151D01*
X103860192Y-49121142D01*
X103860197Y-49121144D01*
X104045354Y-49160500D01*
X104104548Y-49160500D01*
X104171587Y-49180185D01*
X104192229Y-49196819D01*
X107658181Y-52662771D01*
X107691666Y-52724094D01*
X107694500Y-52750452D01*
X107694500Y-69169547D01*
X107674815Y-69236586D01*
X107658181Y-69257228D01*
X106907228Y-70008181D01*
X106845905Y-70041666D01*
X106819547Y-70044500D01*
X89432743Y-70044500D01*
X89417122Y-70042775D01*
X89417095Y-70043061D01*
X89409333Y-70042326D01*
X89341140Y-70044469D01*
X89339193Y-70044500D01*
X89310649Y-70044500D01*
X89303778Y-70045367D01*
X89297959Y-70045825D01*
X89251374Y-70047289D01*
X89251368Y-70047290D01*
X89232126Y-70052880D01*
X89213087Y-70056823D01*
X89193217Y-70059334D01*
X89193203Y-70059337D01*
X89149883Y-70076488D01*
X89144358Y-70078380D01*
X89099613Y-70091380D01*
X89099610Y-70091381D01*
X89082366Y-70101579D01*
X89064905Y-70110133D01*
X89046274Y-70117510D01*
X89046262Y-70117517D01*
X89008570Y-70144902D01*
X89003687Y-70148109D01*
X88963580Y-70171829D01*
X88949414Y-70185995D01*
X88934624Y-70198627D01*
X88918414Y-70210404D01*
X88918411Y-70210407D01*
X88888710Y-70246309D01*
X88884777Y-70250631D01*
X86733996Y-72401411D01*
X86672673Y-72434896D01*
X86614222Y-72433505D01*
X86577977Y-72423793D01*
X86459101Y-72413393D01*
X86360002Y-72404723D01*
X86359998Y-72404723D01*
X86214682Y-72417436D01*
X86142023Y-72423793D01*
X86142020Y-72423793D01*
X85930677Y-72480422D01*
X85930668Y-72480426D01*
X85732361Y-72572898D01*
X85732357Y-72572900D01*
X85553121Y-72698402D01*
X85398402Y-72853121D01*
X85272900Y-73032357D01*
X85272898Y-73032361D01*
X85202382Y-73183583D01*
X85156209Y-73236022D01*
X85089016Y-73255174D01*
X85022135Y-73234958D01*
X84977618Y-73183583D01*
X84958941Y-73143531D01*
X84907102Y-73032362D01*
X84907100Y-73032359D01*
X84907099Y-73032357D01*
X84781599Y-72853124D01*
X84781596Y-72853121D01*
X84626877Y-72698402D01*
X84447639Y-72572898D01*
X84447640Y-72572898D01*
X84447638Y-72572897D01*
X84336468Y-72521058D01*
X84249330Y-72480425D01*
X84249326Y-72480424D01*
X84249322Y-72480422D01*
X84037977Y-72423793D01*
X83820002Y-72404723D01*
X83819998Y-72404723D01*
X83674682Y-72417436D01*
X83602023Y-72423793D01*
X83602020Y-72423793D01*
X83390677Y-72480422D01*
X83390668Y-72480426D01*
X83192361Y-72572898D01*
X83192357Y-72572900D01*
X83013121Y-72698402D01*
X82858402Y-72853121D01*
X82732900Y-73032357D01*
X82732898Y-73032361D01*
X82640426Y-73230668D01*
X82640422Y-73230677D01*
X82583793Y-73442020D01*
X82583793Y-73442024D01*
X82564723Y-73659997D01*
X82564723Y-73660002D01*
X79365500Y-73660002D01*
X79365500Y-61270452D01*
X79385185Y-61203413D01*
X79401819Y-61182771D01*
X81502772Y-59081819D01*
X81564095Y-59048334D01*
X81590453Y-59045500D01*
X83509548Y-59045500D01*
X83576587Y-59065185D01*
X83597229Y-59081819D01*
X84013228Y-59497819D01*
X84046713Y-59559142D01*
X84041729Y-59628834D01*
X83999857Y-59684767D01*
X83934393Y-59709184D01*
X83925547Y-59709500D01*
X83022129Y-59709500D01*
X83022123Y-59709501D01*
X82962516Y-59715908D01*
X82827671Y-59766202D01*
X82827664Y-59766206D01*
X82712455Y-59852452D01*
X82712452Y-59852455D01*
X82626206Y-59967664D01*
X82626202Y-59967671D01*
X82575908Y-60102517D01*
X82569501Y-60162116D01*
X82569500Y-60162135D01*
X82569500Y-61757870D01*
X82569501Y-61757876D01*
X82575908Y-61817483D01*
X82626202Y-61952328D01*
X82626206Y-61952335D01*
X82712452Y-62067544D01*
X82712455Y-62067547D01*
X82827664Y-62153793D01*
X82827671Y-62153797D01*
X82962517Y-62204091D01*
X82962516Y-62204091D01*
X82969444Y-62204835D01*
X83022127Y-62210500D01*
X84617872Y-62210499D01*
X84677483Y-62204091D01*
X84812331Y-62153796D01*
X84927546Y-62067546D01*
X85013796Y-61952331D01*
X85064091Y-61817483D01*
X85070500Y-61757873D01*
X85070499Y-61691860D01*
X85090183Y-61624824D01*
X85142986Y-61579068D01*
X85212144Y-61569124D01*
X85275700Y-61598148D01*
X85296073Y-61620738D01*
X85345877Y-61691864D01*
X85398402Y-61766877D01*
X85553123Y-61921598D01*
X85732361Y-62047102D01*
X85930670Y-62139575D01*
X86142023Y-62196207D01*
X86324926Y-62212208D01*
X86359998Y-62215277D01*
X86360000Y-62215277D01*
X86360002Y-62215277D01*
X86388254Y-62212805D01*
X86577977Y-62196207D01*
X86789330Y-62139575D01*
X86987639Y-62047102D01*
X87166877Y-61921598D01*
X87321598Y-61766877D01*
X87447102Y-61587639D01*
X87517618Y-61436414D01*
X87563790Y-61383977D01*
X87630984Y-61364825D01*
X87697865Y-61385041D01*
X87742381Y-61436414D01*
X87812898Y-61587639D01*
X87938402Y-61766877D01*
X88093123Y-61921598D01*
X88272361Y-62047102D01*
X88470670Y-62139575D01*
X88682023Y-62196207D01*
X88864926Y-62212208D01*
X88899998Y-62215277D01*
X88900000Y-62215277D01*
X88900002Y-62215277D01*
X88928254Y-62212805D01*
X89117977Y-62196207D01*
X89329330Y-62139575D01*
X89527639Y-62047102D01*
X89706877Y-61921598D01*
X89861598Y-61766877D01*
X89987102Y-61587639D01*
X90057618Y-61436414D01*
X90103790Y-61383977D01*
X90170984Y-61364825D01*
X90237865Y-61385041D01*
X90282381Y-61436414D01*
X90352898Y-61587639D01*
X90478402Y-61766877D01*
X90633123Y-61921598D01*
X90812361Y-62047102D01*
X91010670Y-62139575D01*
X91222023Y-62196207D01*
X91404926Y-62212208D01*
X91439998Y-62215277D01*
X91440000Y-62215277D01*
X91440002Y-62215277D01*
X91468254Y-62212805D01*
X91657977Y-62196207D01*
X91869330Y-62139575D01*
X92067639Y-62047102D01*
X92246877Y-61921598D01*
X92401598Y-61766877D01*
X92527102Y-61587639D01*
X92597618Y-61436414D01*
X92643790Y-61383977D01*
X92710984Y-61364825D01*
X92777865Y-61385041D01*
X92822381Y-61436414D01*
X92892898Y-61587639D01*
X93018402Y-61766877D01*
X93173123Y-61921598D01*
X93352361Y-62047102D01*
X93550670Y-62139575D01*
X93762023Y-62196207D01*
X93944926Y-62212208D01*
X93979998Y-62215277D01*
X93980000Y-62215277D01*
X93980002Y-62215277D01*
X94008254Y-62212805D01*
X94197977Y-62196207D01*
X94409330Y-62139575D01*
X94607639Y-62047102D01*
X94786877Y-61921598D01*
X94941598Y-61766877D01*
X95067102Y-61587639D01*
X95137618Y-61436414D01*
X95183790Y-61383977D01*
X95250984Y-61364825D01*
X95317865Y-61385041D01*
X95362381Y-61436414D01*
X95432898Y-61587639D01*
X95558402Y-61766877D01*
X95713123Y-61921598D01*
X95892361Y-62047102D01*
X96090670Y-62139575D01*
X96302023Y-62196207D01*
X96484926Y-62212208D01*
X96519998Y-62215277D01*
X96520000Y-62215277D01*
X96520002Y-62215277D01*
X96548254Y-62212805D01*
X96737977Y-62196207D01*
X96949330Y-62139575D01*
X97147639Y-62047102D01*
X97326877Y-61921598D01*
X97481598Y-61766877D01*
X97607102Y-61587639D01*
X97699575Y-61389330D01*
X97756207Y-61177977D01*
X97775277Y-60960000D01*
X97756207Y-60742023D01*
X97699575Y-60530670D01*
X97607102Y-60332362D01*
X97607100Y-60332359D01*
X97607099Y-60332357D01*
X97481599Y-60153124D01*
X97408348Y-60079873D01*
X97326877Y-59998402D01*
X97147639Y-59872898D01*
X97147640Y-59872898D01*
X97147638Y-59872897D01*
X97036468Y-59821058D01*
X96949330Y-59780425D01*
X96949326Y-59780424D01*
X96949322Y-59780422D01*
X96737977Y-59723793D01*
X96520002Y-59704723D01*
X96519998Y-59704723D01*
X96392151Y-59715908D01*
X96302023Y-59723793D01*
X96302020Y-59723793D01*
X96090677Y-59780422D01*
X96090668Y-59780426D01*
X95892361Y-59872898D01*
X95892357Y-59872900D01*
X95713121Y-59998402D01*
X95558402Y-60153121D01*
X95432900Y-60332357D01*
X95432898Y-60332361D01*
X95362382Y-60483583D01*
X95316209Y-60536022D01*
X95249016Y-60555174D01*
X95182135Y-60534958D01*
X95137618Y-60483583D01*
X95089786Y-60381008D01*
X95067102Y-60332362D01*
X95067100Y-60332359D01*
X95067099Y-60332357D01*
X94941599Y-60153124D01*
X94868348Y-60079873D01*
X94786877Y-59998402D01*
X94607639Y-59872898D01*
X94607640Y-59872898D01*
X94607638Y-59872897D01*
X94496468Y-59821058D01*
X94409330Y-59780425D01*
X94409326Y-59780424D01*
X94409322Y-59780422D01*
X94197977Y-59723793D01*
X93980002Y-59704723D01*
X93979998Y-59704723D01*
X93852151Y-59715908D01*
X93762023Y-59723793D01*
X93762021Y-59723793D01*
X93762017Y-59723794D01*
X93725775Y-59733505D01*
X93655925Y-59731842D01*
X93606002Y-59701411D01*
X91172605Y-57268014D01*
X91162782Y-57255752D01*
X91162561Y-57255936D01*
X91157588Y-57249924D01*
X91107868Y-57203234D01*
X91106468Y-57201877D01*
X91086278Y-57181686D01*
X91080788Y-57177427D01*
X91076363Y-57173649D01*
X91042384Y-57141740D01*
X91042382Y-57141738D01*
X91042379Y-57141737D01*
X91024831Y-57132090D01*
X91008565Y-57121406D01*
X90992735Y-57109127D01*
X90949970Y-57090620D01*
X90944724Y-57088050D01*
X90903895Y-57065605D01*
X90903894Y-57065604D01*
X90884495Y-57060624D01*
X90866083Y-57054320D01*
X90847700Y-57046364D01*
X90847694Y-57046362D01*
X90801676Y-57039074D01*
X90795954Y-57037889D01*
X90750823Y-57026302D01*
X90750821Y-57026302D01*
X90730786Y-57026302D01*
X90711388Y-57024775D01*
X90703964Y-57023599D01*
X90691607Y-57021642D01*
X90691606Y-57021642D01*
X90645218Y-57026027D01*
X90639380Y-57026302D01*
X87175047Y-57026302D01*
X87108008Y-57006617D01*
X87087366Y-56989983D01*
X86783595Y-56686212D01*
X86773772Y-56673950D01*
X86773551Y-56674134D01*
X86768578Y-56668122D01*
X86718858Y-56621432D01*
X86717458Y-56620075D01*
X86697268Y-56599884D01*
X86691778Y-56595625D01*
X86687353Y-56591847D01*
X86653374Y-56559938D01*
X86653372Y-56559936D01*
X86653369Y-56559935D01*
X86635821Y-56550288D01*
X86619555Y-56539604D01*
X86603725Y-56527325D01*
X86560960Y-56508818D01*
X86555714Y-56506248D01*
X86514885Y-56483803D01*
X86514884Y-56483802D01*
X86495485Y-56478822D01*
X86477073Y-56472518D01*
X86458690Y-56464562D01*
X86458684Y-56464560D01*
X86412666Y-56457272D01*
X86406944Y-56456087D01*
X86361813Y-56444500D01*
X86361811Y-56444500D01*
X86341776Y-56444500D01*
X86322378Y-56442973D01*
X86314954Y-56441797D01*
X86302597Y-56439840D01*
X86302596Y-56439840D01*
X86256208Y-56444225D01*
X86250370Y-56444500D01*
X80803555Y-56444500D01*
X80787934Y-56442775D01*
X80787907Y-56443061D01*
X80780145Y-56442326D01*
X80711952Y-56444469D01*
X80710005Y-56444500D01*
X80681461Y-56444500D01*
X80674590Y-56445367D01*
X80668771Y-56445825D01*
X80622186Y-56447289D01*
X80622180Y-56447290D01*
X80602938Y-56452880D01*
X80583899Y-56456823D01*
X80564029Y-56459334D01*
X80564012Y-56459338D01*
X80520694Y-56476488D01*
X80515170Y-56478379D01*
X80470419Y-56491383D01*
X80470416Y-56491384D01*
X80453170Y-56501583D01*
X80435705Y-56510139D01*
X80429822Y-56512468D01*
X80417078Y-56517514D01*
X80379384Y-56544899D01*
X80374503Y-56548105D01*
X80334392Y-56571828D01*
X80320220Y-56586000D01*
X80305435Y-56598628D01*
X80289224Y-56610407D01*
X80259521Y-56646310D01*
X80255589Y-56650631D01*
X77006208Y-59900011D01*
X76993951Y-59909832D01*
X76994134Y-59910053D01*
X76988122Y-59915026D01*
X76941432Y-59964744D01*
X76940079Y-59966141D01*
X76919889Y-59986331D01*
X76919877Y-59986344D01*
X76915621Y-59991829D01*
X76911837Y-59996259D01*
X76879937Y-60030230D01*
X76879936Y-60030232D01*
X76870284Y-60047788D01*
X76859610Y-60064038D01*
X76847329Y-60079873D01*
X76847324Y-60079880D01*
X76828815Y-60122650D01*
X76826245Y-60127896D01*
X76803803Y-60168718D01*
X76798822Y-60188119D01*
X76792521Y-60206522D01*
X76784562Y-60224914D01*
X76784561Y-60224917D01*
X76777271Y-60270939D01*
X76776087Y-60276658D01*
X76764501Y-60321784D01*
X76764500Y-60321794D01*
X76764500Y-60341828D01*
X76762973Y-60361227D01*
X76759840Y-60381006D01*
X76759840Y-60381007D01*
X56480500Y-60381007D01*
X56480500Y-31204500D01*
X56500185Y-31137461D01*
X56552989Y-31091706D01*
X56604500Y-31080500D01*
X161835500Y-31080500D01*
X161902539Y-31100185D01*
G37*
%TD.AperFunction*%
%TD*%
M02*
